M48
; DRILL file {KiCad (6.0.2)} date Fri Apr 22 14:36:25 2022
; FORMAT={-:-/ absolute / metric / decimal}
; #@! TF.CreationDate,2022-04-22T14:36:25+01:00
; #@! TF.GenerationSoftware,Kicad,Pcbnew,(6.0.2)
; #@! TF.FileFunction,Plated,1,2,PTH
FMAT,2
METRIC
; #@! TA.AperFunction,Plated,PTH,ViaDrill
T1C0.400
; #@! TA.AperFunction,Plated,PTH,ViaDrill
T2C0.500
; #@! TA.AperFunction,Plated,PTH,ComponentDrill
T3C0.750
; #@! TA.AperFunction,Plated,PTH,ComponentDrill
T4C0.762
; #@! TA.AperFunction,Plated,PTH,ComponentDrill
T5C0.800
; #@! TA.AperFunction,Plated,PTH,ComponentDrill
T6C0.850
; #@! TA.AperFunction,Plated,PTH,ComponentDrill
T7C1.000
%
G90
G05
T1
X43.895Y-31.512
X44.067Y-46.72
X46.883Y-152.493
X49.5Y-29.0
X49.87Y-34.447
X51.079Y-24.396
X54.41Y-42.18
X58.101Y-41.224
X59.326Y-42.004
X60.292Y-43.02
X72.124Y-29.623
X72.24Y-26.563
X77.255Y-38.424
X78.0Y-31.0
X78.0Y-32.5
X78.0Y-33.776
X79.915Y-40.249
X79.997Y-42.47
X103.916Y-34.863
X104.547Y-31.466
X111.298Y-41.361
X117.742Y-43.331
X120.668Y-56.715
X120.903Y-42.017
X122.688Y-34.224
X123.359Y-46.046
X123.396Y-44.59
X123.434Y-47.504
X124.676Y-72.809
X125.034Y-29.4
X138.372Y-137.48
T2
X41.421Y-51.378
X43.394Y-48.251
X44.515Y-40.907
X74.455Y-148.303
X74.475Y-40.049
X77.705Y-145.25
X83.355Y-38.94
X91.561Y-48.714
X91.798Y-144.9
X97.955Y-144.883
X98.931Y-35.123
X99.317Y-152.971
X100.175Y-150.742
X103.949Y-45.006
X104.227Y-47.122
X106.038Y-145.25
X115.163Y-34.879
X119.331Y-59.628
X119.956Y-34.953
X121.573Y-139.687
X124.413Y-34.894
X130.694Y-53.593
X140.6Y-53.56
X140.6Y-84.836
T3
X68.311Y-131.646
X70.311Y-131.646
X114.811Y-105.338
X114.811Y-107.338
X132.236Y-68.166
X132.311Y-76.21
X134.236Y-68.166
X134.311Y-76.21
X136.236Y-68.166
X136.311Y-76.21
T5
X119.64Y-90.95
X119.64Y-93.49
X119.64Y-96.03
X119.64Y-98.57
X119.64Y-101.11
X119.64Y-103.65
X119.64Y-106.19
X119.64Y-108.73
X126.589Y-84.852
X130.389Y-84.852
X132.396Y-59.736
X136.196Y-59.736
X137.674Y-90.95
X137.674Y-93.49
X137.674Y-96.03
X137.674Y-98.57
X137.674Y-101.11
X137.674Y-103.65
X137.674Y-106.19
X137.674Y-108.73
T7
X74.908Y-53.873
X77.448Y-53.873
X79.988Y-53.873
X82.528Y-53.873
X85.068Y-53.873
X87.608Y-53.873
X90.148Y-53.873
X92.688Y-53.873
T4
X134.726Y-132.575G85X137.464Y-132.575
G05
X134.726Y-139.775G85X137.464Y-139.775
G05
X134.726Y-148.575G85X137.464Y-148.575
G05
T5
X46.843Y-144.65G85X46.843Y-145.85
G05
X53.296Y-54.342G85X52.096Y-54.342
G05
X53.296Y-127.242G85X52.096Y-127.242
G05
X63.05Y-35.4G85X63.05Y-36.6
G05
X69.0Y-124.2G85X69.0Y-123.8
G05
X75.5Y-124.2G85X75.5Y-123.8
G05
X119.742Y-144.65G85X119.742Y-145.85
G05
X127.219Y-148.062G85X126.819Y-148.062
G05
X127.219Y-154.562G85X126.819Y-154.562
G05
X135.95Y-35.4G85X135.95Y-36.6
G05
T6
X141.383Y-137.139G85X141.383Y-137.689
G05
X141.383Y-142.289G85X141.383Y-142.839
G05
X141.383Y-147.439G85X141.383Y-147.989
G05
T0
M30
