%FSLAX45Y45*%
G04 Gerber Fmt 4.5, Leading zero omitted, Abs format (unit mm)*
G04 Created by KiCad (PCBNEW (6.0.2)) date 2022-04-22 14:36:37*
%MOMM*%
%LPD*%
G01*
G04 APERTURE LIST*
%TA.AperFunction,Profile*%
%ADD10C,0.200000*%
%TD*%
%ADD11C,0.200000*%
%ADD12C,0.320000*%
%ADD13C,0.370000*%
G04 APERTURE END LIST*
D10*
X3970000Y-2305000D02*
X14445000Y-2305000D01*
X14445000Y-2305000D02*
X14445000Y-15870000D01*
X14445000Y-15870000D02*
X3970000Y-15870000D01*
X3970000Y-15870000D02*
X3970000Y-2305000D01*
D11*
D12*
X6190000Y-2640000D02*
X6510000Y-2960000D01*
X6510000Y-2640000D02*
X6190000Y-2960000D01*
X6840000Y-4340000D02*
X7160000Y-4660000D01*
X7160000Y-4340000D02*
X6840000Y-4660000D01*
D13*
X11521126Y-5109437D02*
G75*
G03*
X11521126Y-5109437I-185000J0D01*
G01*
D11*
X4217619Y-16190476D02*
X4217619Y-15990476D01*
X4265238Y-15990476D01*
X4293810Y-16000000D01*
X4312857Y-16019048D01*
X4322381Y-16038095D01*
X4331905Y-16076190D01*
X4331905Y-16104762D01*
X4322381Y-16142857D01*
X4312857Y-16161905D01*
X4293810Y-16180952D01*
X4265238Y-16190476D01*
X4217619Y-16190476D01*
X4417619Y-16190476D02*
X4417619Y-16057143D01*
X4417619Y-16095238D02*
X4427143Y-16076190D01*
X4436667Y-16066667D01*
X4455714Y-16057143D01*
X4474762Y-16057143D01*
X4541429Y-16190476D02*
X4541429Y-16057143D01*
X4541429Y-15990476D02*
X4531905Y-16000000D01*
X4541429Y-16009524D01*
X4550952Y-16000000D01*
X4541429Y-15990476D01*
X4541429Y-16009524D01*
X4665238Y-16190476D02*
X4646190Y-16180952D01*
X4636667Y-16161905D01*
X4636667Y-15990476D01*
X4770000Y-16190476D02*
X4750952Y-16180952D01*
X4741429Y-16161905D01*
X4741429Y-15990476D01*
X4998571Y-16190476D02*
X4998571Y-15990476D01*
X5065238Y-16133333D01*
X5131905Y-15990476D01*
X5131905Y-16190476D01*
X5312857Y-16190476D02*
X5312857Y-16085714D01*
X5303333Y-16066667D01*
X5284286Y-16057143D01*
X5246190Y-16057143D01*
X5227143Y-16066667D01*
X5312857Y-16180952D02*
X5293810Y-16190476D01*
X5246190Y-16190476D01*
X5227143Y-16180952D01*
X5217619Y-16161905D01*
X5217619Y-16142857D01*
X5227143Y-16123809D01*
X5246190Y-16114286D01*
X5293810Y-16114286D01*
X5312857Y-16104762D01*
X5408095Y-16057143D02*
X5408095Y-16257143D01*
X5408095Y-16066667D02*
X5427143Y-16057143D01*
X5465238Y-16057143D01*
X5484286Y-16066667D01*
X5493810Y-16076190D01*
X5503333Y-16095238D01*
X5503333Y-16152381D01*
X5493810Y-16171428D01*
X5484286Y-16180952D01*
X5465238Y-16190476D01*
X5427143Y-16190476D01*
X5408095Y-16180952D01*
X5589048Y-16171428D02*
X5598571Y-16180952D01*
X5589048Y-16190476D01*
X5579524Y-16180952D01*
X5589048Y-16171428D01*
X5589048Y-16190476D01*
X5589048Y-16066667D02*
X5598571Y-16076190D01*
X5589048Y-16085714D01*
X5579524Y-16076190D01*
X5589048Y-16066667D01*
X5589048Y-16085714D01*
X3760000Y-16420000D02*
X3960000Y-16620000D01*
X3960000Y-16420000D02*
X3760000Y-16620000D01*
X4198571Y-16410476D02*
X4322381Y-16410476D01*
X4255714Y-16486667D01*
X4284286Y-16486667D01*
X4303333Y-16496190D01*
X4312857Y-16505714D01*
X4322381Y-16524762D01*
X4322381Y-16572381D01*
X4312857Y-16591428D01*
X4303333Y-16600952D01*
X4284286Y-16610476D01*
X4227143Y-16610476D01*
X4208095Y-16600952D01*
X4198571Y-16591428D01*
X4408095Y-16591428D02*
X4417619Y-16600952D01*
X4408095Y-16610476D01*
X4398571Y-16600952D01*
X4408095Y-16591428D01*
X4408095Y-16610476D01*
X4493810Y-16429524D02*
X4503333Y-16420000D01*
X4522381Y-16410476D01*
X4570000Y-16410476D01*
X4589048Y-16420000D01*
X4598571Y-16429524D01*
X4608095Y-16448571D01*
X4608095Y-16467619D01*
X4598571Y-16496190D01*
X4484286Y-16610476D01*
X4608095Y-16610476D01*
X4731905Y-16410476D02*
X4750952Y-16410476D01*
X4770000Y-16420000D01*
X4779524Y-16429524D01*
X4789048Y-16448571D01*
X4798571Y-16486667D01*
X4798571Y-16534286D01*
X4789048Y-16572381D01*
X4779524Y-16591428D01*
X4770000Y-16600952D01*
X4750952Y-16610476D01*
X4731905Y-16610476D01*
X4712857Y-16600952D01*
X4703333Y-16591428D01*
X4693810Y-16572381D01*
X4684286Y-16534286D01*
X4684286Y-16486667D01*
X4693810Y-16448571D01*
X4703333Y-16429524D01*
X4712857Y-16420000D01*
X4731905Y-16410476D01*
X4922381Y-16410476D02*
X4941429Y-16410476D01*
X4960476Y-16420000D01*
X4970000Y-16429524D01*
X4979524Y-16448571D01*
X4989048Y-16486667D01*
X4989048Y-16534286D01*
X4979524Y-16572381D01*
X4970000Y-16591428D01*
X4960476Y-16600952D01*
X4941429Y-16610476D01*
X4922381Y-16610476D01*
X4903333Y-16600952D01*
X4893810Y-16591428D01*
X4884286Y-16572381D01*
X4874762Y-16534286D01*
X4874762Y-16486667D01*
X4884286Y-16448571D01*
X4893810Y-16429524D01*
X4903333Y-16420000D01*
X4922381Y-16410476D01*
X5074762Y-16610476D02*
X5074762Y-16477143D01*
X5074762Y-16496190D02*
X5084286Y-16486667D01*
X5103333Y-16477143D01*
X5131905Y-16477143D01*
X5150952Y-16486667D01*
X5160476Y-16505714D01*
X5160476Y-16610476D01*
X5160476Y-16505714D02*
X5170000Y-16486667D01*
X5189048Y-16477143D01*
X5217619Y-16477143D01*
X5236667Y-16486667D01*
X5246190Y-16505714D01*
X5246190Y-16610476D01*
X5341429Y-16610476D02*
X5341429Y-16477143D01*
X5341429Y-16496190D02*
X5350952Y-16486667D01*
X5370000Y-16477143D01*
X5398571Y-16477143D01*
X5417619Y-16486667D01*
X5427143Y-16505714D01*
X5427143Y-16610476D01*
X5427143Y-16505714D02*
X5436667Y-16486667D01*
X5455714Y-16477143D01*
X5484286Y-16477143D01*
X5503333Y-16486667D01*
X5512857Y-16505714D01*
X5512857Y-16610476D01*
X5903333Y-16400952D02*
X5731905Y-16658095D01*
X6160476Y-16410476D02*
X6179524Y-16410476D01*
X6198571Y-16420000D01*
X6208095Y-16429524D01*
X6217619Y-16448571D01*
X6227143Y-16486667D01*
X6227143Y-16534286D01*
X6217619Y-16572381D01*
X6208095Y-16591428D01*
X6198571Y-16600952D01*
X6179524Y-16610476D01*
X6160476Y-16610476D01*
X6141428Y-16600952D01*
X6131905Y-16591428D01*
X6122381Y-16572381D01*
X6112857Y-16534286D01*
X6112857Y-16486667D01*
X6122381Y-16448571D01*
X6131905Y-16429524D01*
X6141428Y-16420000D01*
X6160476Y-16410476D01*
X6312857Y-16591428D02*
X6322381Y-16600952D01*
X6312857Y-16610476D01*
X6303333Y-16600952D01*
X6312857Y-16591428D01*
X6312857Y-16610476D01*
X6512857Y-16610476D02*
X6398571Y-16610476D01*
X6455714Y-16610476D02*
X6455714Y-16410476D01*
X6436667Y-16439048D01*
X6417619Y-16458095D01*
X6398571Y-16467619D01*
X6589048Y-16429524D02*
X6598571Y-16420000D01*
X6617619Y-16410476D01*
X6665238Y-16410476D01*
X6684286Y-16420000D01*
X6693809Y-16429524D01*
X6703333Y-16448571D01*
X6703333Y-16467619D01*
X6693809Y-16496190D01*
X6579524Y-16610476D01*
X6703333Y-16610476D01*
X6874762Y-16410476D02*
X6836667Y-16410476D01*
X6817619Y-16420000D01*
X6808095Y-16429524D01*
X6789048Y-16458095D01*
X6779524Y-16496190D01*
X6779524Y-16572381D01*
X6789048Y-16591428D01*
X6798571Y-16600952D01*
X6817619Y-16610476D01*
X6855714Y-16610476D01*
X6874762Y-16600952D01*
X6884286Y-16591428D01*
X6893809Y-16572381D01*
X6893809Y-16524762D01*
X6884286Y-16505714D01*
X6874762Y-16496190D01*
X6855714Y-16486667D01*
X6817619Y-16486667D01*
X6798571Y-16496190D01*
X6789048Y-16505714D01*
X6779524Y-16524762D01*
X7017619Y-16410476D02*
X7036667Y-16410476D01*
X7055714Y-16420000D01*
X7065238Y-16429524D01*
X7074762Y-16448571D01*
X7084286Y-16486667D01*
X7084286Y-16534286D01*
X7074762Y-16572381D01*
X7065238Y-16591428D01*
X7055714Y-16600952D01*
X7036667Y-16610476D01*
X7017619Y-16610476D01*
X6998571Y-16600952D01*
X6989048Y-16591428D01*
X6979524Y-16572381D01*
X6970000Y-16534286D01*
X6970000Y-16486667D01*
X6979524Y-16448571D01*
X6989048Y-16429524D01*
X6998571Y-16420000D01*
X7017619Y-16410476D01*
X7160476Y-16410476D02*
X7160476Y-16448571D01*
X7236667Y-16410476D02*
X7236667Y-16448571D01*
X7531905Y-16686667D02*
X7522381Y-16677143D01*
X7503333Y-16648571D01*
X7493809Y-16629524D01*
X7484286Y-16600952D01*
X7474762Y-16553333D01*
X7474762Y-16515238D01*
X7484286Y-16467619D01*
X7493809Y-16439048D01*
X7503333Y-16420000D01*
X7522381Y-16391428D01*
X7531905Y-16381905D01*
X7598571Y-16429524D02*
X7608095Y-16420000D01*
X7627143Y-16410476D01*
X7674762Y-16410476D01*
X7693809Y-16420000D01*
X7703333Y-16429524D01*
X7712857Y-16448571D01*
X7712857Y-16467619D01*
X7703333Y-16496190D01*
X7589048Y-16610476D01*
X7712857Y-16610476D01*
X7950952Y-16610476D02*
X7950952Y-16410476D01*
X8036667Y-16610476D02*
X8036667Y-16505714D01*
X8027143Y-16486667D01*
X8008095Y-16477143D01*
X7979524Y-16477143D01*
X7960476Y-16486667D01*
X7950952Y-16496190D01*
X8160476Y-16610476D02*
X8141428Y-16600952D01*
X8131905Y-16591428D01*
X8122381Y-16572381D01*
X8122381Y-16515238D01*
X8131905Y-16496190D01*
X8141428Y-16486667D01*
X8160476Y-16477143D01*
X8189048Y-16477143D01*
X8208095Y-16486667D01*
X8217619Y-16496190D01*
X8227143Y-16515238D01*
X8227143Y-16572381D01*
X8217619Y-16591428D01*
X8208095Y-16600952D01*
X8189048Y-16610476D01*
X8160476Y-16610476D01*
X8341428Y-16610476D02*
X8322381Y-16600952D01*
X8312857Y-16581905D01*
X8312857Y-16410476D01*
X8493810Y-16600952D02*
X8474762Y-16610476D01*
X8436667Y-16610476D01*
X8417619Y-16600952D01*
X8408095Y-16581905D01*
X8408095Y-16505714D01*
X8417619Y-16486667D01*
X8436667Y-16477143D01*
X8474762Y-16477143D01*
X8493810Y-16486667D01*
X8503333Y-16505714D01*
X8503333Y-16524762D01*
X8408095Y-16543809D01*
X8579524Y-16600952D02*
X8598571Y-16610476D01*
X8636667Y-16610476D01*
X8655714Y-16600952D01*
X8665238Y-16581905D01*
X8665238Y-16572381D01*
X8655714Y-16553333D01*
X8636667Y-16543809D01*
X8608095Y-16543809D01*
X8589048Y-16534286D01*
X8579524Y-16515238D01*
X8579524Y-16505714D01*
X8589048Y-16486667D01*
X8608095Y-16477143D01*
X8636667Y-16477143D01*
X8655714Y-16486667D01*
X8731905Y-16686667D02*
X8741429Y-16677143D01*
X8760476Y-16648571D01*
X8770000Y-16629524D01*
X8779524Y-16600952D01*
X8789048Y-16553333D01*
X8789048Y-16515238D01*
X8779524Y-16467619D01*
X8770000Y-16439048D01*
X8760476Y-16420000D01*
X8741429Y-16391428D01*
X8731905Y-16381905D01*
X9093810Y-16686667D02*
X9084286Y-16677143D01*
X9065238Y-16648571D01*
X9055714Y-16629524D01*
X9046190Y-16600952D01*
X9036667Y-16553333D01*
X9036667Y-16515238D01*
X9046190Y-16467619D01*
X9055714Y-16439048D01*
X9065238Y-16420000D01*
X9084286Y-16391428D01*
X9093810Y-16381905D01*
X9170000Y-16477143D02*
X9170000Y-16610476D01*
X9170000Y-16496190D02*
X9179524Y-16486667D01*
X9198571Y-16477143D01*
X9227143Y-16477143D01*
X9246190Y-16486667D01*
X9255714Y-16505714D01*
X9255714Y-16610476D01*
X9379524Y-16610476D02*
X9360476Y-16600952D01*
X9350952Y-16591428D01*
X9341429Y-16572381D01*
X9341429Y-16515238D01*
X9350952Y-16496190D01*
X9360476Y-16486667D01*
X9379524Y-16477143D01*
X9408095Y-16477143D01*
X9427143Y-16486667D01*
X9436667Y-16496190D01*
X9446190Y-16515238D01*
X9446190Y-16572381D01*
X9436667Y-16591428D01*
X9427143Y-16600952D01*
X9408095Y-16610476D01*
X9379524Y-16610476D01*
X9503333Y-16477143D02*
X9579524Y-16477143D01*
X9531905Y-16410476D02*
X9531905Y-16581905D01*
X9541429Y-16600952D01*
X9560476Y-16610476D01*
X9579524Y-16610476D01*
X9798571Y-16477143D02*
X9798571Y-16677143D01*
X9798571Y-16486667D02*
X9817619Y-16477143D01*
X9855714Y-16477143D01*
X9874762Y-16486667D01*
X9884286Y-16496190D01*
X9893810Y-16515238D01*
X9893810Y-16572381D01*
X9884286Y-16591428D01*
X9874762Y-16600952D01*
X9855714Y-16610476D01*
X9817619Y-16610476D01*
X9798571Y-16600952D01*
X10008095Y-16610476D02*
X9989048Y-16600952D01*
X9979524Y-16581905D01*
X9979524Y-16410476D01*
X10170000Y-16610476D02*
X10170000Y-16505714D01*
X10160476Y-16486667D01*
X10141429Y-16477143D01*
X10103333Y-16477143D01*
X10084286Y-16486667D01*
X10170000Y-16600952D02*
X10150952Y-16610476D01*
X10103333Y-16610476D01*
X10084286Y-16600952D01*
X10074762Y-16581905D01*
X10074762Y-16562857D01*
X10084286Y-16543809D01*
X10103333Y-16534286D01*
X10150952Y-16534286D01*
X10170000Y-16524762D01*
X10236667Y-16477143D02*
X10312857Y-16477143D01*
X10265238Y-16410476D02*
X10265238Y-16581905D01*
X10274762Y-16600952D01*
X10293810Y-16610476D01*
X10312857Y-16610476D01*
X10455714Y-16600952D02*
X10436667Y-16610476D01*
X10398571Y-16610476D01*
X10379524Y-16600952D01*
X10370000Y-16581905D01*
X10370000Y-16505714D01*
X10379524Y-16486667D01*
X10398571Y-16477143D01*
X10436667Y-16477143D01*
X10455714Y-16486667D01*
X10465238Y-16505714D01*
X10465238Y-16524762D01*
X10370000Y-16543809D01*
X10636667Y-16610476D02*
X10636667Y-16410476D01*
X10636667Y-16600952D02*
X10617619Y-16610476D01*
X10579524Y-16610476D01*
X10560476Y-16600952D01*
X10550952Y-16591428D01*
X10541429Y-16572381D01*
X10541429Y-16515238D01*
X10550952Y-16496190D01*
X10560476Y-16486667D01*
X10579524Y-16477143D01*
X10617619Y-16477143D01*
X10636667Y-16486667D01*
X10712857Y-16686667D02*
X10722381Y-16677143D01*
X10741429Y-16648571D01*
X10750952Y-16629524D01*
X10760476Y-16600952D01*
X10770000Y-16553333D01*
X10770000Y-16515238D01*
X10760476Y-16467619D01*
X10750952Y-16439048D01*
X10741429Y-16420000D01*
X10722381Y-16391428D01*
X10712857Y-16381905D01*
X3960000Y-16840000D02*
G75*
G03*
X3960000Y-16840000I-100000J0D01*
G01*
X4198571Y-16730476D02*
X4322381Y-16730476D01*
X4255714Y-16806667D01*
X4284286Y-16806667D01*
X4303333Y-16816190D01*
X4312857Y-16825714D01*
X4322381Y-16844762D01*
X4322381Y-16892381D01*
X4312857Y-16911429D01*
X4303333Y-16920952D01*
X4284286Y-16930476D01*
X4227143Y-16930476D01*
X4208095Y-16920952D01*
X4198571Y-16911429D01*
X4408095Y-16911429D02*
X4417619Y-16920952D01*
X4408095Y-16930476D01*
X4398571Y-16920952D01*
X4408095Y-16911429D01*
X4408095Y-16930476D01*
X4484286Y-16730476D02*
X4617619Y-16730476D01*
X4531905Y-16930476D01*
X4731905Y-16730476D02*
X4750952Y-16730476D01*
X4770000Y-16740000D01*
X4779524Y-16749524D01*
X4789048Y-16768571D01*
X4798571Y-16806667D01*
X4798571Y-16854286D01*
X4789048Y-16892381D01*
X4779524Y-16911429D01*
X4770000Y-16920952D01*
X4750952Y-16930476D01*
X4731905Y-16930476D01*
X4712857Y-16920952D01*
X4703333Y-16911429D01*
X4693810Y-16892381D01*
X4684286Y-16854286D01*
X4684286Y-16806667D01*
X4693810Y-16768571D01*
X4703333Y-16749524D01*
X4712857Y-16740000D01*
X4731905Y-16730476D01*
X4922381Y-16730476D02*
X4941429Y-16730476D01*
X4960476Y-16740000D01*
X4970000Y-16749524D01*
X4979524Y-16768571D01*
X4989048Y-16806667D01*
X4989048Y-16854286D01*
X4979524Y-16892381D01*
X4970000Y-16911429D01*
X4960476Y-16920952D01*
X4941429Y-16930476D01*
X4922381Y-16930476D01*
X4903333Y-16920952D01*
X4893810Y-16911429D01*
X4884286Y-16892381D01*
X4874762Y-16854286D01*
X4874762Y-16806667D01*
X4884286Y-16768571D01*
X4893810Y-16749524D01*
X4903333Y-16740000D01*
X4922381Y-16730476D01*
X5074762Y-16930476D02*
X5074762Y-16797143D01*
X5074762Y-16816190D02*
X5084286Y-16806667D01*
X5103333Y-16797143D01*
X5131905Y-16797143D01*
X5150952Y-16806667D01*
X5160476Y-16825714D01*
X5160476Y-16930476D01*
X5160476Y-16825714D02*
X5170000Y-16806667D01*
X5189048Y-16797143D01*
X5217619Y-16797143D01*
X5236667Y-16806667D01*
X5246190Y-16825714D01*
X5246190Y-16930476D01*
X5341429Y-16930476D02*
X5341429Y-16797143D01*
X5341429Y-16816190D02*
X5350952Y-16806667D01*
X5370000Y-16797143D01*
X5398571Y-16797143D01*
X5417619Y-16806667D01*
X5427143Y-16825714D01*
X5427143Y-16930476D01*
X5427143Y-16825714D02*
X5436667Y-16806667D01*
X5455714Y-16797143D01*
X5484286Y-16797143D01*
X5503333Y-16806667D01*
X5512857Y-16825714D01*
X5512857Y-16930476D01*
X5903333Y-16720952D02*
X5731905Y-16978095D01*
X6160476Y-16730476D02*
X6179524Y-16730476D01*
X6198571Y-16740000D01*
X6208095Y-16749524D01*
X6217619Y-16768571D01*
X6227143Y-16806667D01*
X6227143Y-16854286D01*
X6217619Y-16892381D01*
X6208095Y-16911429D01*
X6198571Y-16920952D01*
X6179524Y-16930476D01*
X6160476Y-16930476D01*
X6141428Y-16920952D01*
X6131905Y-16911429D01*
X6122381Y-16892381D01*
X6112857Y-16854286D01*
X6112857Y-16806667D01*
X6122381Y-16768571D01*
X6131905Y-16749524D01*
X6141428Y-16740000D01*
X6160476Y-16730476D01*
X6312857Y-16911429D02*
X6322381Y-16920952D01*
X6312857Y-16930476D01*
X6303333Y-16920952D01*
X6312857Y-16911429D01*
X6312857Y-16930476D01*
X6512857Y-16930476D02*
X6398571Y-16930476D01*
X6455714Y-16930476D02*
X6455714Y-16730476D01*
X6436667Y-16759048D01*
X6417619Y-16778095D01*
X6398571Y-16787619D01*
X6684286Y-16797143D02*
X6684286Y-16930476D01*
X6636667Y-16720952D02*
X6589048Y-16863810D01*
X6712857Y-16863810D01*
X6884286Y-16730476D02*
X6789048Y-16730476D01*
X6779524Y-16825714D01*
X6789048Y-16816190D01*
X6808095Y-16806667D01*
X6855714Y-16806667D01*
X6874762Y-16816190D01*
X6884286Y-16825714D01*
X6893809Y-16844762D01*
X6893809Y-16892381D01*
X6884286Y-16911429D01*
X6874762Y-16920952D01*
X6855714Y-16930476D01*
X6808095Y-16930476D01*
X6789048Y-16920952D01*
X6779524Y-16911429D01*
X6960476Y-16730476D02*
X7093809Y-16730476D01*
X7008095Y-16930476D01*
X7160476Y-16730476D02*
X7160476Y-16768571D01*
X7236667Y-16730476D02*
X7236667Y-16768571D01*
X7531905Y-17006667D02*
X7522381Y-16997143D01*
X7503333Y-16968571D01*
X7493809Y-16949524D01*
X7484286Y-16920952D01*
X7474762Y-16873333D01*
X7474762Y-16835238D01*
X7484286Y-16787619D01*
X7493809Y-16759048D01*
X7503333Y-16740000D01*
X7522381Y-16711428D01*
X7531905Y-16701905D01*
X7712857Y-16930476D02*
X7598571Y-16930476D01*
X7655714Y-16930476D02*
X7655714Y-16730476D01*
X7636667Y-16759048D01*
X7617619Y-16778095D01*
X7598571Y-16787619D01*
X7950952Y-16930476D02*
X7950952Y-16730476D01*
X8036667Y-16930476D02*
X8036667Y-16825714D01*
X8027143Y-16806667D01*
X8008095Y-16797143D01*
X7979524Y-16797143D01*
X7960476Y-16806667D01*
X7950952Y-16816190D01*
X8160476Y-16930476D02*
X8141428Y-16920952D01*
X8131905Y-16911429D01*
X8122381Y-16892381D01*
X8122381Y-16835238D01*
X8131905Y-16816190D01*
X8141428Y-16806667D01*
X8160476Y-16797143D01*
X8189048Y-16797143D01*
X8208095Y-16806667D01*
X8217619Y-16816190D01*
X8227143Y-16835238D01*
X8227143Y-16892381D01*
X8217619Y-16911429D01*
X8208095Y-16920952D01*
X8189048Y-16930476D01*
X8160476Y-16930476D01*
X8341428Y-16930476D02*
X8322381Y-16920952D01*
X8312857Y-16901905D01*
X8312857Y-16730476D01*
X8493810Y-16920952D02*
X8474762Y-16930476D01*
X8436667Y-16930476D01*
X8417619Y-16920952D01*
X8408095Y-16901905D01*
X8408095Y-16825714D01*
X8417619Y-16806667D01*
X8436667Y-16797143D01*
X8474762Y-16797143D01*
X8493810Y-16806667D01*
X8503333Y-16825714D01*
X8503333Y-16844762D01*
X8408095Y-16863810D01*
X8570000Y-17006667D02*
X8579524Y-16997143D01*
X8598571Y-16968571D01*
X8608095Y-16949524D01*
X8617619Y-16920952D01*
X8627143Y-16873333D01*
X8627143Y-16835238D01*
X8617619Y-16787619D01*
X8608095Y-16759048D01*
X8598571Y-16740000D01*
X8579524Y-16711428D01*
X8570000Y-16701905D01*
X8931905Y-17006667D02*
X8922381Y-16997143D01*
X8903333Y-16968571D01*
X8893810Y-16949524D01*
X8884286Y-16920952D01*
X8874762Y-16873333D01*
X8874762Y-16835238D01*
X8884286Y-16787619D01*
X8893810Y-16759048D01*
X8903333Y-16740000D01*
X8922381Y-16711428D01*
X8931905Y-16701905D01*
X9008095Y-16797143D02*
X9008095Y-16930476D01*
X9008095Y-16816190D02*
X9017619Y-16806667D01*
X9036667Y-16797143D01*
X9065238Y-16797143D01*
X9084286Y-16806667D01*
X9093810Y-16825714D01*
X9093810Y-16930476D01*
X9217619Y-16930476D02*
X9198571Y-16920952D01*
X9189048Y-16911429D01*
X9179524Y-16892381D01*
X9179524Y-16835238D01*
X9189048Y-16816190D01*
X9198571Y-16806667D01*
X9217619Y-16797143D01*
X9246190Y-16797143D01*
X9265238Y-16806667D01*
X9274762Y-16816190D01*
X9284286Y-16835238D01*
X9284286Y-16892381D01*
X9274762Y-16911429D01*
X9265238Y-16920952D01*
X9246190Y-16930476D01*
X9217619Y-16930476D01*
X9341429Y-16797143D02*
X9417619Y-16797143D01*
X9370000Y-16730476D02*
X9370000Y-16901905D01*
X9379524Y-16920952D01*
X9398571Y-16930476D01*
X9417619Y-16930476D01*
X9636667Y-16797143D02*
X9636667Y-16997143D01*
X9636667Y-16806667D02*
X9655714Y-16797143D01*
X9693810Y-16797143D01*
X9712857Y-16806667D01*
X9722381Y-16816190D01*
X9731905Y-16835238D01*
X9731905Y-16892381D01*
X9722381Y-16911429D01*
X9712857Y-16920952D01*
X9693810Y-16930476D01*
X9655714Y-16930476D01*
X9636667Y-16920952D01*
X9846190Y-16930476D02*
X9827143Y-16920952D01*
X9817619Y-16901905D01*
X9817619Y-16730476D01*
X10008095Y-16930476D02*
X10008095Y-16825714D01*
X9998571Y-16806667D01*
X9979524Y-16797143D01*
X9941429Y-16797143D01*
X9922381Y-16806667D01*
X10008095Y-16920952D02*
X9989048Y-16930476D01*
X9941429Y-16930476D01*
X9922381Y-16920952D01*
X9912857Y-16901905D01*
X9912857Y-16882857D01*
X9922381Y-16863810D01*
X9941429Y-16854286D01*
X9989048Y-16854286D01*
X10008095Y-16844762D01*
X10074762Y-16797143D02*
X10150952Y-16797143D01*
X10103333Y-16730476D02*
X10103333Y-16901905D01*
X10112857Y-16920952D01*
X10131905Y-16930476D01*
X10150952Y-16930476D01*
X10293810Y-16920952D02*
X10274762Y-16930476D01*
X10236667Y-16930476D01*
X10217619Y-16920952D01*
X10208095Y-16901905D01*
X10208095Y-16825714D01*
X10217619Y-16806667D01*
X10236667Y-16797143D01*
X10274762Y-16797143D01*
X10293810Y-16806667D01*
X10303333Y-16825714D01*
X10303333Y-16844762D01*
X10208095Y-16863810D01*
X10474762Y-16930476D02*
X10474762Y-16730476D01*
X10474762Y-16920952D02*
X10455714Y-16930476D01*
X10417619Y-16930476D01*
X10398571Y-16920952D01*
X10389048Y-16911429D01*
X10379524Y-16892381D01*
X10379524Y-16835238D01*
X10389048Y-16816190D01*
X10398571Y-16806667D01*
X10417619Y-16797143D01*
X10455714Y-16797143D01*
X10474762Y-16806667D01*
X10550952Y-17006667D02*
X10560476Y-16997143D01*
X10579524Y-16968571D01*
X10589048Y-16949524D01*
X10598571Y-16920952D01*
X10608095Y-16873333D01*
X10608095Y-16835238D01*
X10598571Y-16787619D01*
X10589048Y-16759048D01*
X10579524Y-16740000D01*
X10560476Y-16711428D01*
X10550952Y-16701905D01*
M02*
