%TF.GenerationSoftware,KiCad,Pcbnew,(6.0.2)*%
%TF.CreationDate,2022-04-22T14:35:52+01:00*%
%TF.ProjectId,DiscAdventure,44697363-4164-4766-956e-747572652e6b,rev?*%
%TF.SameCoordinates,Original*%
%TF.FileFunction,Legend,Top*%
%TF.FilePolarity,Positive*%
%FSLAX46Y46*%
G04 Gerber Fmt 4.6, Leading zero omitted, Abs format (unit mm)*
G04 Created by KiCad (PCBNEW (6.0.2)) date 2022-04-22 14:35:52*
%MOMM*%
%LPD*%
G01*
G04 APERTURE LIST*
G04 Aperture macros list*
%AMRoundRect*
0 Rectangle with rounded corners*
0 $1 Rounding radius*
0 $2 $3 $4 $5 $6 $7 $8 $9 X,Y pos of 4 corners*
0 Add a 4 corners polygon primitive as box body*
4,1,4,$2,$3,$4,$5,$6,$7,$8,$9,$2,$3,0*
0 Add four circle primitives for the rounded corners*
1,1,$1+$1,$2,$3*
1,1,$1+$1,$4,$5*
1,1,$1+$1,$6,$7*
1,1,$1+$1,$8,$9*
0 Add four rect primitives between the rounded corners*
20,1,$1+$1,$2,$3,$4,$5,0*
20,1,$1+$1,$4,$5,$6,$7,0*
20,1,$1+$1,$6,$7,$8,$9,0*
20,1,$1+$1,$8,$9,$2,$3,0*%
G04 Aperture macros list end*
%ADD10C,0.150000*%
%ADD11C,0.120000*%
%ADD12C,0.127000*%
%ADD13C,0.200000*%
%ADD14R,7.340000X6.350000*%
%ADD15RoundRect,0.250000X-0.350000X-0.625000X0.350000X-0.625000X0.350000X0.625000X-0.350000X0.625000X0*%
%ADD16O,1.200000X1.750000*%
%ADD17R,2.000000X2.000000*%
%ADD18C,3.700000*%
%ADD19C,3.200000*%
%ADD20R,5.750000X2.000000*%
%ADD21R,6.350000X7.340000*%
%ADD22O,1.750000X1.200000*%
%ADD23RoundRect,0.250000X0.625000X-0.350000X0.625000X0.350000X-0.625000X0.350000X-0.625000X-0.350000X0*%
%ADD24R,1.308000X1.308000*%
%ADD25C,1.308000*%
%ADD26R,1.600000X1.600000*%
%ADD27C,1.600000*%
%ADD28RoundRect,0.250000X0.350000X0.625000X-0.350000X0.625000X-0.350000X-0.625000X0.350000X-0.625000X0*%
%ADD29R,1.700000X1.700000*%
%ADD30O,1.700000X1.700000*%
G04 APERTURE END LIST*
D10*
%TO.C,BT2*%
X98714285Y-24428571D02*
X98857142Y-24476190D01*
X98904761Y-24523809D01*
X98952380Y-24619047D01*
X98952380Y-24761904D01*
X98904761Y-24857142D01*
X98857142Y-24904761D01*
X98761904Y-24952380D01*
X98380952Y-24952380D01*
X98380952Y-23952380D01*
X98714285Y-23952380D01*
X98809523Y-24000000D01*
X98857142Y-24047619D01*
X98904761Y-24142857D01*
X98904761Y-24238095D01*
X98857142Y-24333333D01*
X98809523Y-24380952D01*
X98714285Y-24428571D01*
X98380952Y-24428571D01*
X99238095Y-23952380D02*
X99809523Y-23952380D01*
X99523809Y-24952380D02*
X99523809Y-23952380D01*
X100095238Y-24047619D02*
X100142857Y-24000000D01*
X100238095Y-23952380D01*
X100476190Y-23952380D01*
X100571428Y-24000000D01*
X100619047Y-24047619D01*
X100666666Y-24142857D01*
X100666666Y-24238095D01*
X100619047Y-24380952D01*
X100047619Y-24952380D01*
X100666666Y-24952380D01*
%TO.C,J7*%
X128171330Y-76092662D02*
X128171330Y-76806948D01*
X128123711Y-76949805D01*
X128028473Y-77045043D01*
X127885616Y-77092662D01*
X127790378Y-77092662D01*
X128552283Y-76092662D02*
X129218949Y-76092662D01*
X128790378Y-77092662D01*
X129375170Y-73583054D02*
X129375170Y-72583054D01*
X129946599Y-73583054D01*
X129946599Y-72583054D01*
X130803742Y-73535435D02*
X130708504Y-73583054D01*
X130518028Y-73583054D01*
X130422790Y-73535435D01*
X130375170Y-73440197D01*
X130375170Y-73059245D01*
X130422790Y-72964007D01*
X130518028Y-72916388D01*
X130708504Y-72916388D01*
X130803742Y-72964007D01*
X130851361Y-73059245D01*
X130851361Y-73154483D01*
X130375170Y-73249721D01*
X131422790Y-73583054D02*
X131327551Y-73535435D01*
X131279932Y-73487816D01*
X131232313Y-73392578D01*
X131232313Y-73106864D01*
X131279932Y-73011626D01*
X131327551Y-72964007D01*
X131422790Y-72916388D01*
X131565647Y-72916388D01*
X131660885Y-72964007D01*
X131708504Y-73011626D01*
X131756123Y-73106864D01*
X131756123Y-73392578D01*
X131708504Y-73487816D01*
X131660885Y-73535435D01*
X131565647Y-73583054D01*
X131422790Y-73583054D01*
X132184694Y-72916388D02*
X132184694Y-73916388D01*
X132184694Y-72964007D02*
X132279932Y-72916388D01*
X132470409Y-72916388D01*
X132565647Y-72964007D01*
X132613266Y-73011626D01*
X132660885Y-73106864D01*
X132660885Y-73392578D01*
X132613266Y-73487816D01*
X132565647Y-73535435D01*
X132470409Y-73583054D01*
X132279932Y-73583054D01*
X132184694Y-73535435D01*
X133089456Y-73583054D02*
X133089456Y-72916388D01*
X133089456Y-72583054D02*
X133041837Y-72630674D01*
X133089456Y-72678293D01*
X133137075Y-72630674D01*
X133089456Y-72583054D01*
X133089456Y-72678293D01*
X133470409Y-73583054D02*
X133994218Y-72916388D01*
X133470409Y-72916388D02*
X133994218Y-73583054D01*
X134756123Y-73535435D02*
X134660885Y-73583054D01*
X134470409Y-73583054D01*
X134375170Y-73535435D01*
X134327551Y-73440197D01*
X134327551Y-73059245D01*
X134375170Y-72964007D01*
X134470409Y-72916388D01*
X134660885Y-72916388D01*
X134756123Y-72964007D01*
X134803742Y-73059245D01*
X134803742Y-73154483D01*
X134327551Y-73249721D01*
X135375170Y-73583054D02*
X135279932Y-73535435D01*
X135232313Y-73440197D01*
X135232313Y-72583054D01*
X136518028Y-73583054D02*
X136518028Y-72583054D01*
X136898980Y-72583054D01*
X136994218Y-72630674D01*
X137041837Y-72678293D01*
X137089456Y-72773531D01*
X137089456Y-72916388D01*
X137041837Y-73011626D01*
X136994218Y-73059245D01*
X136898980Y-73106864D01*
X136518028Y-73106864D01*
X137518028Y-73583054D02*
X137518028Y-72583054D01*
X138565647Y-73487816D02*
X138518028Y-73535435D01*
X138375170Y-73583054D01*
X138279932Y-73583054D01*
X138137075Y-73535435D01*
X138041837Y-73440197D01*
X137994218Y-73344959D01*
X137946599Y-73154483D01*
X137946599Y-73011626D01*
X137994218Y-72821150D01*
X138041837Y-72725912D01*
X138137075Y-72630674D01*
X138279932Y-72583054D01*
X138375170Y-72583054D01*
X138518028Y-72630674D01*
X138565647Y-72678293D01*
X138946599Y-72678293D02*
X138994218Y-72630674D01*
X139089456Y-72583054D01*
X139327551Y-72583054D01*
X139422790Y-72630674D01*
X139470409Y-72678293D01*
X139518028Y-72773531D01*
X139518028Y-72868769D01*
X139470409Y-73011626D01*
X138898980Y-73583054D01*
X139518028Y-73583054D01*
%TO.C,SW2*%
X124595418Y-152480905D02*
X124643037Y-152338048D01*
X124643037Y-152099952D01*
X124595418Y-152004714D01*
X124547799Y-151957095D01*
X124452561Y-151909476D01*
X124357323Y-151909476D01*
X124262085Y-151957095D01*
X124214466Y-152004714D01*
X124166847Y-152099952D01*
X124119228Y-152290429D01*
X124071609Y-152385667D01*
X124023990Y-152433286D01*
X123928752Y-152480905D01*
X123833514Y-152480905D01*
X123738276Y-152433286D01*
X123690657Y-152385667D01*
X123643037Y-152290429D01*
X123643037Y-152052333D01*
X123690657Y-151909476D01*
X123643037Y-151576143D02*
X124643037Y-151338048D01*
X123928752Y-151147572D01*
X124643037Y-150957095D01*
X123643037Y-150719000D01*
X123738276Y-150385667D02*
X123690657Y-150338048D01*
X123643037Y-150242810D01*
X123643037Y-150004714D01*
X123690657Y-149909476D01*
X123738276Y-149861857D01*
X123833514Y-149814238D01*
X123928752Y-149814238D01*
X124071609Y-149861857D01*
X124643037Y-150433286D01*
X124643037Y-149814238D01*
X130338897Y-152600374D02*
X129862707Y-152933707D01*
X130338897Y-153171802D02*
X129338897Y-153171802D01*
X129338897Y-152790850D01*
X129386517Y-152695612D01*
X129434136Y-152647993D01*
X129529374Y-152600374D01*
X129672231Y-152600374D01*
X129767469Y-152647993D01*
X129815088Y-152695612D01*
X129862707Y-152790850D01*
X129862707Y-153171802D01*
X130291278Y-151790850D02*
X130338897Y-151886088D01*
X130338897Y-152076564D01*
X130291278Y-152171802D01*
X130196040Y-152219421D01*
X129815088Y-152219421D01*
X129719850Y-152171802D01*
X129672231Y-152076564D01*
X129672231Y-151886088D01*
X129719850Y-151790850D01*
X129815088Y-151743231D01*
X129910326Y-151743231D01*
X130005564Y-152219421D01*
X130291278Y-151362279D02*
X130338897Y-151267040D01*
X130338897Y-151076564D01*
X130291278Y-150981326D01*
X130196040Y-150933707D01*
X130148421Y-150933707D01*
X130053183Y-150981326D01*
X130005564Y-151076564D01*
X130005564Y-151219421D01*
X129957945Y-151314659D01*
X129862707Y-151362279D01*
X129815088Y-151362279D01*
X129719850Y-151314659D01*
X129672231Y-151219421D01*
X129672231Y-151076564D01*
X129719850Y-150981326D01*
X130291278Y-150124183D02*
X130338897Y-150219421D01*
X130338897Y-150409898D01*
X130291278Y-150505136D01*
X130196040Y-150552755D01*
X129815088Y-150552755D01*
X129719850Y-150505136D01*
X129672231Y-150409898D01*
X129672231Y-150219421D01*
X129719850Y-150124183D01*
X129815088Y-150076564D01*
X129910326Y-150076564D01*
X130005564Y-150552755D01*
X129672231Y-149790850D02*
X129672231Y-149409898D01*
X129338897Y-149647993D02*
X130196040Y-149647993D01*
X130291278Y-149600374D01*
X130338897Y-149505136D01*
X130338897Y-149409898D01*
%TO.C,SW3*%
X136987080Y-153315195D02*
X137034699Y-153172338D01*
X137034699Y-152934242D01*
X136987080Y-152839004D01*
X136939461Y-152791385D01*
X136844223Y-152743766D01*
X136748985Y-152743766D01*
X136653747Y-152791385D01*
X136606128Y-152839004D01*
X136558509Y-152934242D01*
X136510890Y-153124719D01*
X136463271Y-153219957D01*
X136415652Y-153267576D01*
X136320414Y-153315195D01*
X136225176Y-153315195D01*
X136129938Y-153267576D01*
X136082319Y-153219957D01*
X136034699Y-153124719D01*
X136034699Y-152886623D01*
X136082319Y-152743766D01*
X136034699Y-152410433D02*
X137034699Y-152172338D01*
X136320414Y-151981862D01*
X137034699Y-151791385D01*
X136034699Y-151553290D01*
X136034699Y-151267576D02*
X136034699Y-150648528D01*
X136415652Y-150981862D01*
X136415652Y-150839004D01*
X136463271Y-150743766D01*
X136510890Y-150696147D01*
X136606128Y-150648528D01*
X136844223Y-150648528D01*
X136939461Y-150696147D01*
X136987080Y-150743766D01*
X137034699Y-150839004D01*
X137034699Y-151124719D01*
X136987080Y-151219957D01*
X136939461Y-151267576D01*
%TO.C,BT4*%
X99462076Y-143615820D02*
X99604933Y-143663439D01*
X99652552Y-143711058D01*
X99700171Y-143806296D01*
X99700171Y-143949153D01*
X99652552Y-144044391D01*
X99604933Y-144092010D01*
X99509695Y-144139629D01*
X99128743Y-144139629D01*
X99128743Y-143139629D01*
X99462076Y-143139629D01*
X99557314Y-143187249D01*
X99604933Y-143234868D01*
X99652552Y-143330106D01*
X99652552Y-143425344D01*
X99604933Y-143520582D01*
X99557314Y-143568201D01*
X99462076Y-143615820D01*
X99128743Y-143615820D01*
X99985886Y-143139629D02*
X100557314Y-143139629D01*
X100271600Y-144139629D02*
X100271600Y-143139629D01*
X101319219Y-143472963D02*
X101319219Y-144139629D01*
X101081124Y-143092010D02*
X100843029Y-143806296D01*
X101462076Y-143806296D01*
%TO.C,SW1*%
X64172672Y-124400709D02*
X64315529Y-124448328D01*
X64553625Y-124448328D01*
X64648863Y-124400709D01*
X64696482Y-124353090D01*
X64744101Y-124257852D01*
X64744101Y-124162614D01*
X64696482Y-124067376D01*
X64648863Y-124019757D01*
X64553625Y-123972138D01*
X64363148Y-123924519D01*
X64267910Y-123876900D01*
X64220291Y-123829281D01*
X64172672Y-123734043D01*
X64172672Y-123638805D01*
X64220291Y-123543567D01*
X64267910Y-123495948D01*
X64363148Y-123448328D01*
X64601244Y-123448328D01*
X64744101Y-123495948D01*
X65077434Y-123448328D02*
X65315529Y-124448328D01*
X65506006Y-123734043D01*
X65696482Y-124448328D01*
X65934577Y-123448328D01*
X66839339Y-124448328D02*
X66267910Y-124448328D01*
X66553625Y-124448328D02*
X66553625Y-123448328D01*
X66458386Y-123591186D01*
X66363148Y-123686424D01*
X66267910Y-123734043D01*
X68356666Y-121342380D02*
X68356666Y-120342380D01*
X68737619Y-120342380D01*
X68832857Y-120390000D01*
X68880476Y-120437619D01*
X68928095Y-120532857D01*
X68928095Y-120675714D01*
X68880476Y-120770952D01*
X68832857Y-120818571D01*
X68737619Y-120866190D01*
X68356666Y-120866190D01*
X69499523Y-121342380D02*
X69404285Y-121294761D01*
X69356666Y-121247142D01*
X69309047Y-121151904D01*
X69309047Y-120866190D01*
X69356666Y-120770952D01*
X69404285Y-120723333D01*
X69499523Y-120675714D01*
X69642380Y-120675714D01*
X69737619Y-120723333D01*
X69785238Y-120770952D01*
X69832857Y-120866190D01*
X69832857Y-121151904D01*
X69785238Y-121247142D01*
X69737619Y-121294761D01*
X69642380Y-121342380D01*
X69499523Y-121342380D01*
X70166190Y-120675714D02*
X70356666Y-121342380D01*
X70547142Y-120866190D01*
X70737619Y-121342380D01*
X70928095Y-120675714D01*
X71690000Y-121294761D02*
X71594761Y-121342380D01*
X71404285Y-121342380D01*
X71309047Y-121294761D01*
X71261428Y-121199523D01*
X71261428Y-120818571D01*
X71309047Y-120723333D01*
X71404285Y-120675714D01*
X71594761Y-120675714D01*
X71690000Y-120723333D01*
X71737619Y-120818571D01*
X71737619Y-120913809D01*
X71261428Y-121009047D01*
X72166190Y-121342380D02*
X72166190Y-120675714D01*
X72166190Y-120866190D02*
X72213809Y-120770952D01*
X72261428Y-120723333D01*
X72356666Y-120675714D01*
X72451904Y-120675714D01*
X73737619Y-120342380D02*
X73928095Y-120342380D01*
X74023333Y-120390000D01*
X74118571Y-120485238D01*
X74166190Y-120675714D01*
X74166190Y-121009047D01*
X74118571Y-121199523D01*
X74023333Y-121294761D01*
X73928095Y-121342380D01*
X73737619Y-121342380D01*
X73642380Y-121294761D01*
X73547142Y-121199523D01*
X73499523Y-121009047D01*
X73499523Y-120675714D01*
X73547142Y-120485238D01*
X73642380Y-120390000D01*
X73737619Y-120342380D01*
X74594761Y-120675714D02*
X74594761Y-121342380D01*
X74594761Y-120770952D02*
X74642380Y-120723333D01*
X74737619Y-120675714D01*
X74880476Y-120675714D01*
X74975714Y-120723333D01*
X75023333Y-120818571D01*
X75023333Y-121342380D01*
%TO.C,J4*%
X111363065Y-106671733D02*
X112077351Y-106671733D01*
X112220208Y-106719352D01*
X112315446Y-106814590D01*
X112363065Y-106957447D01*
X112363065Y-107052685D01*
X111696399Y-105766971D02*
X112363065Y-105766971D01*
X111315446Y-106005066D02*
X112029732Y-106243161D01*
X112029732Y-105624114D01*
X110829486Y-110908148D02*
X109829486Y-110908148D01*
X109829486Y-110670053D01*
X109877106Y-110527196D01*
X109972344Y-110431958D01*
X110067582Y-110384339D01*
X110258058Y-110336719D01*
X110400915Y-110336719D01*
X110591391Y-110384339D01*
X110686629Y-110431958D01*
X110781867Y-110527196D01*
X110829486Y-110670053D01*
X110829486Y-110908148D01*
X110305677Y-109574815D02*
X110305677Y-109908148D01*
X110829486Y-109908148D02*
X109829486Y-109908148D01*
X109829486Y-109431958D01*
X110829486Y-108479577D02*
X110353296Y-108812910D01*
X110829486Y-109051005D02*
X109829486Y-109051005D01*
X109829486Y-108670053D01*
X109877106Y-108574815D01*
X109924725Y-108527196D01*
X110019963Y-108479577D01*
X110162820Y-108479577D01*
X110258058Y-108527196D01*
X110305677Y-108574815D01*
X110353296Y-108670053D01*
X110353296Y-109051005D01*
X110781867Y-107336719D02*
X110829486Y-107193862D01*
X110829486Y-106955767D01*
X110781867Y-106860529D01*
X110734248Y-106812910D01*
X110639010Y-106765291D01*
X110543772Y-106765291D01*
X110448534Y-106812910D01*
X110400915Y-106860529D01*
X110353296Y-106955767D01*
X110305677Y-107146243D01*
X110258058Y-107241481D01*
X110210439Y-107289100D01*
X110115201Y-107336719D01*
X110019963Y-107336719D01*
X109924725Y-107289100D01*
X109877106Y-107241481D01*
X109829486Y-107146243D01*
X109829486Y-106908148D01*
X109877106Y-106765291D01*
X110162820Y-106336719D02*
X111162820Y-106336719D01*
X110210439Y-106336719D02*
X110162820Y-106241481D01*
X110162820Y-106051005D01*
X110210439Y-105955767D01*
X110258058Y-105908148D01*
X110353296Y-105860529D01*
X110639010Y-105860529D01*
X110734248Y-105908148D01*
X110781867Y-105955767D01*
X110829486Y-106051005D01*
X110829486Y-106241481D01*
X110781867Y-106336719D01*
X110781867Y-105051005D02*
X110829486Y-105146243D01*
X110829486Y-105336719D01*
X110781867Y-105431958D01*
X110686629Y-105479577D01*
X110305677Y-105479577D01*
X110210439Y-105431958D01*
X110162820Y-105336719D01*
X110162820Y-105146243D01*
X110210439Y-105051005D01*
X110305677Y-105003386D01*
X110400915Y-105003386D01*
X110496153Y-105479577D01*
X110829486Y-104146243D02*
X110305677Y-104146243D01*
X110210439Y-104193862D01*
X110162820Y-104289100D01*
X110162820Y-104479577D01*
X110210439Y-104574815D01*
X110781867Y-104146243D02*
X110829486Y-104241481D01*
X110829486Y-104479577D01*
X110781867Y-104574815D01*
X110686629Y-104622434D01*
X110591391Y-104622434D01*
X110496153Y-104574815D01*
X110448534Y-104479577D01*
X110448534Y-104241481D01*
X110400915Y-104146243D01*
X110829486Y-103670053D02*
X109829486Y-103670053D01*
X110448534Y-103574815D02*
X110829486Y-103289100D01*
X110162820Y-103289100D02*
X110543772Y-103670053D01*
X110781867Y-102479577D02*
X110829486Y-102574815D01*
X110829486Y-102765291D01*
X110781867Y-102860529D01*
X110686629Y-102908148D01*
X110305677Y-102908148D01*
X110210439Y-102860529D01*
X110162820Y-102765291D01*
X110162820Y-102574815D01*
X110210439Y-102479577D01*
X110305677Y-102431958D01*
X110400915Y-102431958D01*
X110496153Y-102908148D01*
X110829486Y-102003386D02*
X110162820Y-102003386D01*
X110353296Y-102003386D02*
X110258058Y-101955767D01*
X110210439Y-101908148D01*
X110162820Y-101812910D01*
X110162820Y-101717672D01*
%TO.C,U3*%
X123676668Y-88218311D02*
X123676668Y-89027835D01*
X123724287Y-89123073D01*
X123771906Y-89170692D01*
X123867144Y-89218311D01*
X124057620Y-89218311D01*
X124152858Y-89170692D01*
X124200477Y-89123073D01*
X124248096Y-89027835D01*
X124248096Y-88218311D01*
X124629049Y-88218311D02*
X125248096Y-88218311D01*
X124914763Y-88599264D01*
X125057620Y-88599264D01*
X125152858Y-88646883D01*
X125200477Y-88694502D01*
X125248096Y-88789740D01*
X125248096Y-89027835D01*
X125200477Y-89123073D01*
X125152858Y-89170692D01*
X125057620Y-89218311D01*
X124771906Y-89218311D01*
X124676668Y-89170692D01*
X124629049Y-89123073D01*
%TO.C,C5*%
X128683051Y-60141717D02*
X128635432Y-60189336D01*
X128492575Y-60236955D01*
X128397337Y-60236955D01*
X128254479Y-60189336D01*
X128159241Y-60094098D01*
X128111622Y-59998860D01*
X128064003Y-59808384D01*
X128064003Y-59665527D01*
X128111622Y-59475051D01*
X128159241Y-59379813D01*
X128254479Y-59284575D01*
X128397337Y-59236955D01*
X128492575Y-59236955D01*
X128635432Y-59284575D01*
X128683051Y-59332194D01*
X129587813Y-59236955D02*
X129111622Y-59236955D01*
X129064003Y-59713146D01*
X129111622Y-59665527D01*
X129206860Y-59617908D01*
X129444956Y-59617908D01*
X129540194Y-59665527D01*
X129587813Y-59713146D01*
X129635432Y-59808384D01*
X129635432Y-60046479D01*
X129587813Y-60141717D01*
X129540194Y-60189336D01*
X129444956Y-60236955D01*
X129206860Y-60236955D01*
X129111622Y-60189336D01*
X129064003Y-60141717D01*
%TO.C,C10*%
X122050137Y-83956461D02*
X122002518Y-84004080D01*
X121859661Y-84051699D01*
X121764423Y-84051699D01*
X121621566Y-84004080D01*
X121526328Y-83908842D01*
X121478709Y-83813604D01*
X121431090Y-83623128D01*
X121431090Y-83480271D01*
X121478709Y-83289795D01*
X121526328Y-83194557D01*
X121621566Y-83099319D01*
X121764423Y-83051699D01*
X121859661Y-83051699D01*
X122002518Y-83099319D01*
X122050137Y-83146938D01*
X123002518Y-84051699D02*
X122431090Y-84051699D01*
X122716804Y-84051699D02*
X122716804Y-83051699D01*
X122621566Y-83194557D01*
X122526328Y-83289795D01*
X122431090Y-83337414D01*
X123621566Y-83051699D02*
X123716804Y-83051699D01*
X123812042Y-83099319D01*
X123859661Y-83146938D01*
X123907280Y-83242176D01*
X123954899Y-83432652D01*
X123954899Y-83670747D01*
X123907280Y-83861223D01*
X123859661Y-83956461D01*
X123812042Y-84004080D01*
X123716804Y-84051699D01*
X123621566Y-84051699D01*
X123526328Y-84004080D01*
X123478709Y-83956461D01*
X123431090Y-83861223D01*
X123383471Y-83670747D01*
X123383471Y-83432652D01*
X123431090Y-83242176D01*
X123478709Y-83146938D01*
X123526328Y-83099319D01*
X123621566Y-83051699D01*
%TO.C,J3*%
X128046616Y-68559941D02*
X128046616Y-69274227D01*
X127998997Y-69417084D01*
X127903759Y-69512322D01*
X127760902Y-69559941D01*
X127665664Y-69559941D01*
X128427569Y-68559941D02*
X129046616Y-68559941D01*
X128713283Y-68940894D01*
X128856140Y-68940894D01*
X128951378Y-68988513D01*
X128998997Y-69036132D01*
X129046616Y-69131370D01*
X129046616Y-69369465D01*
X128998997Y-69464703D01*
X128951378Y-69512322D01*
X128856140Y-69559941D01*
X128570426Y-69559941D01*
X128475188Y-69512322D01*
X128427569Y-69464703D01*
X129518140Y-65344611D02*
X129518140Y-64344611D01*
X130089569Y-65344611D01*
X130089569Y-64344611D01*
X130946712Y-65296992D02*
X130851474Y-65344611D01*
X130660998Y-65344611D01*
X130565760Y-65296992D01*
X130518140Y-65201754D01*
X130518140Y-64820802D01*
X130565760Y-64725564D01*
X130660998Y-64677945D01*
X130851474Y-64677945D01*
X130946712Y-64725564D01*
X130994331Y-64820802D01*
X130994331Y-64916040D01*
X130518140Y-65011278D01*
X131565760Y-65344611D02*
X131470521Y-65296992D01*
X131422902Y-65249373D01*
X131375283Y-65154135D01*
X131375283Y-64868421D01*
X131422902Y-64773183D01*
X131470521Y-64725564D01*
X131565760Y-64677945D01*
X131708617Y-64677945D01*
X131803855Y-64725564D01*
X131851474Y-64773183D01*
X131899093Y-64868421D01*
X131899093Y-65154135D01*
X131851474Y-65249373D01*
X131803855Y-65296992D01*
X131708617Y-65344611D01*
X131565760Y-65344611D01*
X132327664Y-64677945D02*
X132327664Y-65677945D01*
X132327664Y-64725564D02*
X132422902Y-64677945D01*
X132613379Y-64677945D01*
X132708617Y-64725564D01*
X132756236Y-64773183D01*
X132803855Y-64868421D01*
X132803855Y-65154135D01*
X132756236Y-65249373D01*
X132708617Y-65296992D01*
X132613379Y-65344611D01*
X132422902Y-65344611D01*
X132327664Y-65296992D01*
X133232426Y-65344611D02*
X133232426Y-64677945D01*
X133232426Y-64344611D02*
X133184807Y-64392231D01*
X133232426Y-64439850D01*
X133280045Y-64392231D01*
X133232426Y-64344611D01*
X133232426Y-64439850D01*
X133613379Y-65344611D02*
X134137188Y-64677945D01*
X133613379Y-64677945D02*
X134137188Y-65344611D01*
X134899093Y-65296992D02*
X134803855Y-65344611D01*
X134613379Y-65344611D01*
X134518140Y-65296992D01*
X134470521Y-65201754D01*
X134470521Y-64820802D01*
X134518140Y-64725564D01*
X134613379Y-64677945D01*
X134803855Y-64677945D01*
X134899093Y-64725564D01*
X134946712Y-64820802D01*
X134946712Y-64916040D01*
X134470521Y-65011278D01*
X135518140Y-65344611D02*
X135422902Y-65296992D01*
X135375283Y-65201754D01*
X135375283Y-64344611D01*
X136660998Y-65344611D02*
X136660998Y-64344611D01*
X137041950Y-64344611D01*
X137137188Y-64392231D01*
X137184807Y-64439850D01*
X137232426Y-64535088D01*
X137232426Y-64677945D01*
X137184807Y-64773183D01*
X137137188Y-64820802D01*
X137041950Y-64868421D01*
X136660998Y-64868421D01*
X137660998Y-65344611D02*
X137660998Y-64344611D01*
X138708617Y-65249373D02*
X138660998Y-65296992D01*
X138518140Y-65344611D01*
X138422902Y-65344611D01*
X138280045Y-65296992D01*
X138184807Y-65201754D01*
X138137188Y-65106516D01*
X138089569Y-64916040D01*
X138089569Y-64773183D01*
X138137188Y-64582707D01*
X138184807Y-64487469D01*
X138280045Y-64392231D01*
X138422902Y-64344611D01*
X138518140Y-64344611D01*
X138660998Y-64392231D01*
X138708617Y-64439850D01*
X139660998Y-65344611D02*
X139089569Y-65344611D01*
X139375283Y-65344611D02*
X139375283Y-64344611D01*
X139280045Y-64487469D01*
X139184807Y-64582707D01*
X139089569Y-64630326D01*
%TO.C,SW4*%
X141054849Y-132828322D02*
X141007230Y-132971179D01*
X141007230Y-133209275D01*
X141054849Y-133304513D01*
X141102468Y-133352132D01*
X141197706Y-133399751D01*
X141292944Y-133399751D01*
X141388182Y-133352132D01*
X141435801Y-133304513D01*
X141483420Y-133209275D01*
X141531039Y-133018798D01*
X141578658Y-132923560D01*
X141626277Y-132875941D01*
X141721515Y-132828322D01*
X141816753Y-132828322D01*
X141911991Y-132875941D01*
X141959611Y-132923560D01*
X142007230Y-133018798D01*
X142007230Y-133256894D01*
X141959611Y-133399751D01*
X142007230Y-133733084D02*
X141007230Y-133971179D01*
X141721515Y-134161656D01*
X141007230Y-134352132D01*
X142007230Y-134590227D01*
X141673896Y-135399751D02*
X141007230Y-135399751D01*
X142054849Y-135161656D02*
X141340563Y-134923560D01*
X141340563Y-135542608D01*
%TO.C,J8*%
X73595200Y-130858190D02*
X73595200Y-131572476D01*
X73547581Y-131715333D01*
X73452343Y-131810571D01*
X73309486Y-131858190D01*
X73214248Y-131858190D01*
X74214248Y-131286762D02*
X74119010Y-131239143D01*
X74071391Y-131191524D01*
X74023772Y-131096286D01*
X74023772Y-131048667D01*
X74071391Y-130953429D01*
X74119010Y-130905810D01*
X74214248Y-130858190D01*
X74404724Y-130858190D01*
X74499962Y-130905810D01*
X74547581Y-130953429D01*
X74595200Y-131048667D01*
X74595200Y-131096286D01*
X74547581Y-131191524D01*
X74499962Y-131239143D01*
X74404724Y-131286762D01*
X74214248Y-131286762D01*
X74119010Y-131334381D01*
X74071391Y-131382000D01*
X74023772Y-131477238D01*
X74023772Y-131667714D01*
X74071391Y-131762952D01*
X74119010Y-131810571D01*
X74214248Y-131858190D01*
X74404724Y-131858190D01*
X74499962Y-131810571D01*
X74547581Y-131762952D01*
X74595200Y-131667714D01*
X74595200Y-131477238D01*
X74547581Y-131382000D01*
X74499962Y-131334381D01*
X74404724Y-131286762D01*
X67215446Y-128002809D02*
X67167827Y-128050428D01*
X67024970Y-128098047D01*
X66929732Y-128098047D01*
X66786875Y-128050428D01*
X66691637Y-127955190D01*
X66644018Y-127859952D01*
X66596399Y-127669476D01*
X66596399Y-127526619D01*
X66644018Y-127336143D01*
X66691637Y-127240905D01*
X66786875Y-127145667D01*
X66929732Y-127098047D01*
X67024970Y-127098047D01*
X67167827Y-127145667D01*
X67215446Y-127193286D01*
X67644018Y-128098047D02*
X67644018Y-127098047D01*
X68072589Y-128098047D02*
X68072589Y-127574238D01*
X68024970Y-127479000D01*
X67929732Y-127431381D01*
X67786875Y-127431381D01*
X67691637Y-127479000D01*
X67644018Y-127526619D01*
X68977351Y-128098047D02*
X68977351Y-127574238D01*
X68929732Y-127479000D01*
X68834494Y-127431381D01*
X68644018Y-127431381D01*
X68548780Y-127479000D01*
X68977351Y-128050428D02*
X68882113Y-128098047D01*
X68644018Y-128098047D01*
X68548780Y-128050428D01*
X68501161Y-127955190D01*
X68501161Y-127859952D01*
X68548780Y-127764714D01*
X68644018Y-127717095D01*
X68882113Y-127717095D01*
X68977351Y-127669476D01*
X69453542Y-128098047D02*
X69453542Y-127431381D01*
X69453542Y-127621857D02*
X69501161Y-127526619D01*
X69548780Y-127479000D01*
X69644018Y-127431381D01*
X69739256Y-127431381D01*
X70501161Y-127431381D02*
X70501161Y-128240905D01*
X70453542Y-128336143D01*
X70405923Y-128383762D01*
X70310685Y-128431381D01*
X70167827Y-128431381D01*
X70072589Y-128383762D01*
X70501161Y-128050428D02*
X70405923Y-128098047D01*
X70215446Y-128098047D01*
X70120208Y-128050428D01*
X70072589Y-128002809D01*
X70024970Y-127907571D01*
X70024970Y-127621857D01*
X70072589Y-127526619D01*
X70120208Y-127479000D01*
X70215446Y-127431381D01*
X70405923Y-127431381D01*
X70501161Y-127479000D01*
X71358304Y-128050428D02*
X71263065Y-128098047D01*
X71072589Y-128098047D01*
X70977351Y-128050428D01*
X70929732Y-127955190D01*
X70929732Y-127574238D01*
X70977351Y-127479000D01*
X71072589Y-127431381D01*
X71263065Y-127431381D01*
X71358304Y-127479000D01*
X71405923Y-127574238D01*
X71405923Y-127669476D01*
X70929732Y-127764714D01*
X71834494Y-128098047D02*
X71834494Y-127431381D01*
X71834494Y-127621857D02*
X71882113Y-127526619D01*
X71929732Y-127479000D01*
X72024970Y-127431381D01*
X72120208Y-127431381D01*
D11*
%TO.C,BT2*%
X139900000Y-39444418D02*
X139900000Y-32572230D01*
X55750000Y-30000000D02*
X58250000Y-30000000D01*
X139900000Y-32572230D02*
X138175328Y-32572230D01*
X138140000Y-25580000D02*
X60600000Y-25600000D01*
X139900000Y-39444418D02*
X138175328Y-39444418D01*
X138140000Y-32560000D02*
X138140000Y-25580000D01*
X60650000Y-39400000D02*
X59160000Y-39400000D01*
X60650000Y-46450000D02*
X60650000Y-39400000D01*
X138140000Y-39440000D02*
X138140000Y-46440000D01*
X60600000Y-32600000D02*
X60600000Y-25600000D01*
X57000000Y-31250000D02*
X57000000Y-28750000D01*
X138140000Y-46440000D02*
X60650000Y-46440000D01*
X59160000Y-39400000D02*
X59160000Y-32600000D01*
X60600000Y-32600000D02*
X59160000Y-32600000D01*
%TO.C,J7*%
X138370547Y-75709849D02*
X137760547Y-75709849D01*
X130250547Y-79119849D02*
X138370547Y-79119849D01*
X130250547Y-74399849D02*
X130250547Y-79119849D01*
X129950547Y-74099849D02*
X129950547Y-75349849D01*
X130860547Y-75009849D02*
X130860547Y-78509849D01*
X132810547Y-75009849D02*
X130860547Y-75009849D01*
X131710547Y-74199849D02*
X131710547Y-74399849D01*
X137760547Y-75009849D02*
X135810547Y-75009849D01*
X130250547Y-75709849D02*
X130860547Y-75709849D01*
X131200547Y-74099849D02*
X129950547Y-74099849D01*
X135210547Y-78009849D02*
X135410547Y-78009849D01*
X137760547Y-78509849D02*
X137760547Y-75009849D01*
X133310547Y-78509849D02*
X133310547Y-78009849D01*
X135310547Y-78509849D02*
X135310547Y-78009849D01*
X132810547Y-74399849D02*
X132810547Y-75009849D01*
X133210547Y-78509849D02*
X133210547Y-78009849D01*
X133210547Y-78009849D02*
X133410547Y-78009849D01*
X132010547Y-74299849D02*
X131710547Y-74299849D01*
X135810547Y-75009849D02*
X135810547Y-74399849D01*
X133410547Y-78009849D02*
X133410547Y-78509849D01*
X132010547Y-74399849D02*
X132010547Y-74199849D01*
X135210547Y-78509849D02*
X135210547Y-78009849D01*
X130860547Y-78509849D02*
X137760547Y-78509849D01*
X138370547Y-74399849D02*
X130250547Y-74399849D01*
X132010547Y-74199849D02*
X131710547Y-74199849D01*
X130250547Y-77009849D02*
X130860547Y-77009849D01*
X138370547Y-79119849D02*
X138370547Y-74399849D01*
X138370547Y-77009849D02*
X137760547Y-77009849D01*
X135410547Y-78009849D02*
X135410547Y-78509849D01*
%TO.C,SW2*%
X128718655Y-155962279D02*
X125318655Y-155962279D01*
X125318655Y-146762279D02*
X125318655Y-155962279D01*
X128718655Y-146762279D02*
X125318655Y-146762279D01*
X128718655Y-146762279D02*
X128718655Y-155962279D01*
%TO.C,SW3*%
X133055000Y-150075000D02*
X139135000Y-150075000D01*
X139135000Y-150075000D02*
X139135000Y-130735000D01*
X139135000Y-130735000D02*
X133055000Y-130735000D01*
X133055000Y-130735000D02*
X133055000Y-150075000D01*
%TO.C,BT4*%
X63115980Y-129432500D02*
X63095980Y-51892500D01*
X42255980Y-129432500D02*
X42255980Y-51942500D01*
X42245980Y-51942500D02*
X49295980Y-51942500D01*
X56095980Y-51892500D02*
X56095980Y-50452500D01*
X49295980Y-51942500D02*
X49295980Y-50452500D01*
X49255980Y-129432500D02*
X42255980Y-129432500D01*
X49251562Y-131192500D02*
X49251562Y-129467828D01*
X57445980Y-48292500D02*
X59945980Y-48292500D01*
X49295980Y-50452500D02*
X56095980Y-50452500D01*
X58695980Y-47042500D02*
X58695980Y-49542500D01*
X56123750Y-131192500D02*
X56123750Y-129467828D01*
X56095980Y-51892500D02*
X63095980Y-51892500D01*
X56135980Y-129432500D02*
X63115980Y-129432500D01*
X49251562Y-131192500D02*
X56123750Y-131192500D01*
%TO.C,SW1*%
X76800000Y-125700000D02*
X76800000Y-122300000D01*
X67600000Y-125700000D02*
X67600000Y-122300000D01*
X76800000Y-122300000D02*
X67600000Y-122300000D01*
X76800000Y-125700000D02*
X67600000Y-125700000D01*
%TO.C,J4*%
X113610685Y-106838400D02*
X113610685Y-108788400D01*
X113000685Y-107638400D02*
X112800685Y-107638400D01*
X115610685Y-109398400D02*
X115610685Y-108788400D01*
X116610685Y-106238400D02*
X117110685Y-106238400D01*
X112800685Y-107938400D02*
X113000685Y-107938400D01*
X117110685Y-106438400D02*
X116610685Y-106438400D01*
X113610685Y-108788400D02*
X117110685Y-108788400D01*
X113000685Y-106838400D02*
X113610685Y-106838400D01*
X116610685Y-106438400D02*
X116610685Y-106238400D01*
X113000685Y-109398400D02*
X117720685Y-109398400D01*
X112700685Y-108448400D02*
X112700685Y-109698400D01*
X115610685Y-103278400D02*
X115610685Y-103888400D01*
X113610685Y-103888400D02*
X113610685Y-105838400D01*
X117110685Y-108788400D02*
X117110685Y-103888400D01*
X112900685Y-107638400D02*
X112900685Y-107938400D01*
X117720685Y-109398400D02*
X117720685Y-103278400D01*
X114310685Y-103278400D02*
X114310685Y-103888400D01*
X117110685Y-106338400D02*
X116610685Y-106338400D01*
X112700685Y-109698400D02*
X113950685Y-109698400D01*
X114310685Y-109398400D02*
X114310685Y-108788400D01*
X117720685Y-103278400D02*
X113000685Y-103278400D01*
X117110685Y-103888400D02*
X113610685Y-103888400D01*
X113000685Y-103278400D02*
X113000685Y-109398400D01*
X112800685Y-107638400D02*
X112800685Y-107938400D01*
X113610685Y-105838400D02*
X113000685Y-105838400D01*
D12*
%TO.C,U3*%
X138816919Y-89679918D02*
X138816919Y-109999918D01*
X118496919Y-89679918D02*
X138816919Y-89679918D01*
X138816919Y-109999918D02*
X118496919Y-109999918D01*
X118496919Y-109999918D02*
X118496919Y-89679918D01*
D13*
X117956919Y-90949918D02*
G75*
G03*
X117956919Y-90949918I-100000J0D01*
G01*
D11*
%TO.C,C5*%
X136696653Y-56427399D02*
X136696653Y-58696399D01*
X137376653Y-57039399D02*
X137376653Y-62433399D01*
X137496653Y-57180399D02*
X137496653Y-62292399D01*
X135896653Y-55979399D02*
X135896653Y-58696399D01*
X136976653Y-60776399D02*
X136976653Y-62826399D01*
X136776653Y-56486399D02*
X136776653Y-58696399D01*
X134375653Y-55656399D02*
X134375653Y-63816399D01*
X138336653Y-58968399D02*
X138336653Y-60504399D01*
X137016653Y-56681399D02*
X137016653Y-58696399D01*
X136376653Y-56219399D02*
X136376653Y-58696399D01*
X135336653Y-55789399D02*
X135336653Y-58696399D01*
X136856653Y-60776399D02*
X136856653Y-62925399D01*
X137096653Y-60776399D02*
X137096653Y-62719399D01*
X136536653Y-56318399D02*
X136536653Y-58696399D01*
X135616653Y-55873399D02*
X135616653Y-58696399D01*
X137136653Y-60776399D02*
X137136653Y-62681399D01*
X138176653Y-58390399D02*
X138176653Y-61082399D01*
X136976653Y-56646399D02*
X136976653Y-58696399D01*
X137416653Y-57085399D02*
X137416653Y-62387399D01*
X135176653Y-55751399D02*
X135176653Y-58696399D01*
X135896653Y-60776399D02*
X135896653Y-63493399D01*
X135696653Y-55901399D02*
X135696653Y-58696399D01*
X136576653Y-60776399D02*
X136576653Y-63128399D01*
X134935653Y-55706399D02*
X134935653Y-63766399D01*
X135296653Y-60776399D02*
X135296653Y-63693399D01*
X137176653Y-56829399D02*
X137176653Y-58696399D01*
X136776653Y-60776399D02*
X136776653Y-62986399D01*
X136096653Y-60776399D02*
X136096653Y-63402399D01*
X136376653Y-60776399D02*
X136376653Y-63253399D01*
X137096653Y-56753399D02*
X137096653Y-58696399D01*
X136656653Y-60776399D02*
X136656653Y-63074399D01*
X136816653Y-56516399D02*
X136816653Y-58696399D01*
X135536653Y-55847399D02*
X135536653Y-58696399D01*
X135736653Y-60776399D02*
X135736653Y-63557399D01*
X138056653Y-58091399D02*
X138056653Y-61381399D01*
X137856653Y-57702399D02*
X137856653Y-61770399D01*
X135576653Y-55859399D02*
X135576653Y-58696399D01*
X134695653Y-55675399D02*
X134695653Y-63797399D01*
X136496653Y-60776399D02*
X136496653Y-63180399D01*
X135376653Y-55800399D02*
X135376653Y-58696399D01*
X135176653Y-60776399D02*
X135176653Y-63721399D01*
X137136653Y-56791399D02*
X137136653Y-58696399D01*
X138296653Y-58788399D02*
X138296653Y-60684399D01*
X136256653Y-56152399D02*
X136256653Y-58696399D01*
X136736653Y-56456399D02*
X136736653Y-58696399D01*
X135136653Y-55742399D02*
X135136653Y-63730399D01*
X138376653Y-59203399D02*
X138376653Y-60269399D01*
X137016653Y-60776399D02*
X137016653Y-62791399D01*
X134775653Y-55684399D02*
X134775653Y-63788399D01*
X136216653Y-56130399D02*
X136216653Y-58696399D01*
X134895653Y-55699399D02*
X134895653Y-63773399D01*
X135536653Y-60776399D02*
X135536653Y-63625399D01*
X136416653Y-60776399D02*
X136416653Y-63229399D01*
X135496653Y-60776399D02*
X135496653Y-63638399D01*
X136896653Y-60776399D02*
X136896653Y-62892399D01*
X137216653Y-60776399D02*
X137216653Y-62603399D01*
X135816653Y-60776399D02*
X135816653Y-63526399D01*
X135496653Y-55834399D02*
X135496653Y-58696399D01*
X137616653Y-57336399D02*
X137616653Y-62136399D01*
X135696653Y-60776399D02*
X135696653Y-63571399D01*
X134495653Y-55660399D02*
X134495653Y-63812399D01*
X135336653Y-60776399D02*
X135336653Y-63683399D01*
X134815653Y-55688399D02*
X134815653Y-63784399D01*
X134735653Y-55679399D02*
X134735653Y-63793399D01*
X137056653Y-60776399D02*
X137056653Y-62755399D01*
X136456653Y-56267399D02*
X136456653Y-58696399D01*
X136496653Y-56292399D02*
X136496653Y-58696399D01*
X138096653Y-58184399D02*
X138096653Y-61288399D01*
X135736653Y-55915399D02*
X135736653Y-58696399D01*
X135776653Y-55931399D02*
X135776653Y-58696399D01*
X135576653Y-60776399D02*
X135576653Y-63613399D01*
X137256653Y-56910399D02*
X137256653Y-62562399D01*
X136856653Y-56547399D02*
X136856653Y-58696399D01*
X135976653Y-56014399D02*
X135976653Y-58696399D01*
X134335653Y-55656399D02*
X134335653Y-63816399D01*
X137536653Y-57231399D02*
X137536653Y-62241399D01*
X137896653Y-57772399D02*
X137896653Y-61700399D01*
X136936653Y-56612399D02*
X136936653Y-58696399D01*
X135256653Y-60776399D02*
X135256653Y-63703399D01*
X130285955Y-57021399D02*
X130285955Y-57821399D01*
X137936653Y-57846399D02*
X137936653Y-61626399D01*
X135656653Y-60776399D02*
X135656653Y-63586399D01*
X137776653Y-57570399D02*
X137776653Y-61902399D01*
X137816653Y-57634399D02*
X137816653Y-61838399D01*
X135096653Y-55734399D02*
X135096653Y-63738399D01*
X136616653Y-56371399D02*
X136616653Y-58696399D01*
X136256653Y-60776399D02*
X136256653Y-63320399D01*
X135216653Y-60776399D02*
X135216653Y-63712399D01*
X135456653Y-55822399D02*
X135456653Y-58696399D01*
X135416653Y-55811399D02*
X135416653Y-58696399D01*
X136416653Y-56243399D02*
X136416653Y-58696399D01*
X136016653Y-56032399D02*
X136016653Y-58696399D01*
X136016653Y-60776399D02*
X136016653Y-63440399D01*
X135456653Y-60776399D02*
X135456653Y-63650399D01*
X135256653Y-55769399D02*
X135256653Y-58696399D01*
X134455653Y-55659399D02*
X134455653Y-63813399D01*
X134855653Y-55694399D02*
X134855653Y-63778399D01*
X136296653Y-60776399D02*
X136296653Y-63298399D01*
X136296653Y-56174399D02*
X136296653Y-58696399D01*
X135856653Y-60776399D02*
X135856653Y-63510399D01*
X135616653Y-60776399D02*
X135616653Y-63599399D01*
X136616653Y-60776399D02*
X136616653Y-63101399D01*
X136056653Y-60776399D02*
X136056653Y-63422399D01*
X136576653Y-56344399D02*
X136576653Y-58696399D01*
X135216653Y-55760399D02*
X135216653Y-58696399D01*
X136216653Y-60776399D02*
X136216653Y-63342399D01*
X134655653Y-55671399D02*
X134655653Y-63801399D01*
X135416653Y-60776399D02*
X135416653Y-63661399D01*
X135936653Y-60776399D02*
X135936653Y-63476399D01*
X138216653Y-58507399D02*
X138216653Y-60965399D01*
X129885955Y-57421399D02*
X130685955Y-57421399D01*
X137656653Y-57391399D02*
X137656653Y-62081399D01*
X135776653Y-60776399D02*
X135776653Y-63541399D01*
X135816653Y-55946399D02*
X135816653Y-58696399D01*
X136056653Y-56050399D02*
X136056653Y-58696399D01*
X136336653Y-56196399D02*
X136336653Y-58696399D01*
X134295653Y-55656399D02*
X134295653Y-63816399D01*
X137696653Y-57449399D02*
X137696653Y-62023399D01*
X134535653Y-55662399D02*
X134535653Y-63810399D01*
X136176653Y-56109399D02*
X136176653Y-58696399D01*
X136936653Y-60776399D02*
X136936653Y-62860399D01*
X136736653Y-60776399D02*
X136736653Y-63016399D01*
X136456653Y-60776399D02*
X136456653Y-63205399D01*
X135976653Y-60776399D02*
X135976653Y-63458399D01*
X135936653Y-55996399D02*
X135936653Y-58696399D01*
X136696653Y-60776399D02*
X136696653Y-63045399D01*
X137296653Y-56952399D02*
X137296653Y-62520399D01*
X138256653Y-58638399D02*
X138256653Y-60834399D01*
X137056653Y-56717399D02*
X137056653Y-58696399D01*
X137736653Y-57508399D02*
X137736653Y-61964399D01*
X137576653Y-57282399D02*
X137576653Y-62190399D01*
X137456653Y-57132399D02*
X137456653Y-62340399D01*
X136176653Y-60776399D02*
X136176653Y-63363399D01*
X135296653Y-55779399D02*
X135296653Y-58696399D01*
X136656653Y-56398399D02*
X136656653Y-58696399D01*
X138016653Y-58005399D02*
X138016653Y-61467399D01*
X134415653Y-55657399D02*
X134415653Y-63815399D01*
X136896653Y-56580399D02*
X136896653Y-58696399D01*
X136336653Y-60776399D02*
X136336653Y-63276399D01*
X136136653Y-60776399D02*
X136136653Y-63383399D01*
X134575653Y-55665399D02*
X134575653Y-63807399D01*
X136536653Y-60776399D02*
X136536653Y-63154399D01*
X135056653Y-55726399D02*
X135056653Y-63746399D01*
X136096653Y-56070399D02*
X136096653Y-58696399D01*
X137976653Y-57923399D02*
X137976653Y-61549399D01*
X136136653Y-56089399D02*
X136136653Y-58696399D01*
X137336653Y-56995399D02*
X137336653Y-62477399D01*
X137176653Y-60776399D02*
X137176653Y-62643399D01*
X136816653Y-60776399D02*
X136816653Y-62956399D01*
X135376653Y-60776399D02*
X135376653Y-63672399D01*
X134615653Y-55668399D02*
X134615653Y-63804399D01*
X135856653Y-55962399D02*
X135856653Y-58696399D01*
X137216653Y-56869399D02*
X137216653Y-58696399D01*
X134975653Y-55712399D02*
X134975653Y-63760399D01*
X135016653Y-55719399D02*
X135016653Y-63753399D01*
X135656653Y-55886399D02*
X135656653Y-58696399D01*
X138136653Y-58283399D02*
X138136653Y-61189399D01*
X138415653Y-59736399D02*
G75*
G03*
X138415653Y-59736399I-4120000J0D01*
G01*
%TO.C,C10*%
X131450380Y-82026481D02*
X131450380Y-87678481D01*
X132330380Y-83399481D02*
X132330380Y-86305481D01*
X129730380Y-85892481D02*
X129730380Y-88741481D01*
X131010380Y-85892481D02*
X131010380Y-88072481D01*
X130170380Y-85892481D02*
X130170380Y-88574481D01*
X130010380Y-85892481D02*
X130010380Y-88642481D01*
X130970380Y-85892481D02*
X130970380Y-88102481D01*
X130770380Y-85892481D02*
X130770380Y-88244481D01*
X132250380Y-83207481D02*
X132250380Y-86497481D01*
X129530380Y-80905481D02*
X129530380Y-83812481D01*
X130970380Y-81602481D02*
X130970380Y-83812481D01*
X131170380Y-81762481D02*
X131170380Y-83812481D01*
X130610380Y-81359481D02*
X130610380Y-83812481D01*
X131210380Y-81797481D02*
X131210380Y-83812481D01*
X132530380Y-84084481D02*
X132530380Y-85620481D01*
X129410380Y-80876481D02*
X129410380Y-83812481D01*
X129970380Y-81047481D02*
X129970380Y-83812481D01*
X124079682Y-82537481D02*
X124879682Y-82537481D01*
X131930380Y-82624481D02*
X131930380Y-87080481D01*
X131090380Y-85892481D02*
X131090380Y-88008481D01*
X130490380Y-81290481D02*
X130490380Y-83812481D01*
X129890380Y-81017481D02*
X129890380Y-83812481D01*
X131650380Y-82248481D02*
X131650380Y-87456481D01*
X130330380Y-85892481D02*
X130330380Y-88499481D01*
X130090380Y-81095481D02*
X130090380Y-83812481D01*
X131130380Y-81728481D02*
X131130380Y-83812481D01*
X130610380Y-85892481D02*
X130610380Y-88345481D01*
X129450380Y-80885481D02*
X129450380Y-83812481D01*
X131130380Y-85892481D02*
X131130380Y-87976481D01*
X130690380Y-81408481D02*
X130690380Y-83812481D01*
X130650380Y-81383481D02*
X130650380Y-83812481D01*
X128929380Y-80795481D02*
X128929380Y-88909481D01*
X130810380Y-81487481D02*
X130810380Y-83812481D01*
X128849380Y-80787481D02*
X128849380Y-88917481D01*
X132170380Y-83039481D02*
X132170380Y-86665481D01*
X128689380Y-80776481D02*
X128689380Y-88928481D01*
X129570380Y-80916481D02*
X129570380Y-83812481D01*
X132210380Y-83121481D02*
X132210380Y-86583481D01*
X129610380Y-80927481D02*
X129610380Y-83812481D01*
X131170380Y-85892481D02*
X131170380Y-87942481D01*
X131610380Y-82201481D02*
X131610380Y-87503481D01*
X129210380Y-80835481D02*
X129210380Y-88869481D01*
X132410380Y-83623481D02*
X132410380Y-86081481D01*
X128889380Y-80791481D02*
X128889380Y-88913481D01*
X129490380Y-85892481D02*
X129490380Y-88809481D01*
X130570380Y-85892481D02*
X130570380Y-88369481D01*
X130410380Y-81246481D02*
X130410380Y-83812481D01*
X131250380Y-81833481D02*
X131250380Y-83812481D01*
X129250380Y-80842481D02*
X129250380Y-88862481D01*
X128969380Y-80800481D02*
X128969380Y-88904481D01*
X130250380Y-81166481D02*
X130250380Y-83812481D01*
X131010380Y-81632481D02*
X131010380Y-83812481D01*
X130130380Y-81112481D02*
X130130380Y-83812481D01*
X129049380Y-80810481D02*
X129049380Y-88894481D01*
X124479682Y-82137481D02*
X124479682Y-82937481D01*
X128609380Y-80773481D02*
X128609380Y-88931481D01*
X128769380Y-80781481D02*
X128769380Y-88923481D01*
X132370380Y-83506481D02*
X132370380Y-86198481D01*
X130890380Y-81543481D02*
X130890380Y-83812481D01*
X130170380Y-81130481D02*
X130170380Y-83812481D01*
X130010380Y-81062481D02*
X130010380Y-83812481D01*
X129930380Y-81031481D02*
X129930380Y-83812481D01*
X130290380Y-81186481D02*
X130290380Y-83812481D01*
X130890380Y-85892481D02*
X130890380Y-88161481D01*
X130450380Y-85892481D02*
X130450380Y-88436481D01*
X130050380Y-85892481D02*
X130050380Y-88626481D01*
X131050380Y-85892481D02*
X131050380Y-88041481D01*
X130690380Y-85892481D02*
X130690380Y-88296481D01*
X129690380Y-85892481D02*
X129690380Y-88754481D01*
X131410380Y-81985481D02*
X131410380Y-83812481D01*
X130250380Y-85892481D02*
X130250380Y-88538481D01*
X130210380Y-81148481D02*
X130210380Y-83812481D01*
X131290380Y-81869481D02*
X131290380Y-83812481D01*
X130410380Y-85892481D02*
X130410380Y-88458481D01*
X131370380Y-81945481D02*
X131370380Y-83812481D01*
X130930380Y-81572481D02*
X130930380Y-83812481D01*
X129610380Y-85892481D02*
X129610380Y-88777481D01*
X130450380Y-81268481D02*
X130450380Y-83812481D01*
X131290380Y-85892481D02*
X131290380Y-87835481D01*
X132290380Y-83300481D02*
X132290380Y-86404481D01*
X131810380Y-82452481D02*
X131810380Y-87252481D01*
X131090380Y-81696481D02*
X131090380Y-83812481D01*
X128729380Y-80778481D02*
X128729380Y-88926481D01*
X131970380Y-82686481D02*
X131970380Y-87018481D01*
X132090380Y-82888481D02*
X132090380Y-86816481D01*
X131490380Y-82068481D02*
X131490380Y-87636481D01*
X132570380Y-84319481D02*
X132570380Y-85385481D01*
X129690380Y-80950481D02*
X129690380Y-83812481D01*
X130850380Y-81514481D02*
X130850380Y-83812481D01*
X131530380Y-82111481D02*
X131530380Y-87593481D01*
X130850380Y-85892481D02*
X130850380Y-88190481D01*
X129770380Y-80975481D02*
X129770380Y-83812481D01*
X129810380Y-80989481D02*
X129810380Y-83812481D01*
X129370380Y-85892481D02*
X129370380Y-88837481D01*
X130130380Y-85892481D02*
X130130380Y-88592481D01*
X130290380Y-85892481D02*
X130290380Y-88518481D01*
X129650380Y-80938481D02*
X129650380Y-83812481D01*
X131370380Y-85892481D02*
X131370380Y-87759481D01*
X130370380Y-81225481D02*
X130370380Y-83812481D01*
X129890380Y-85892481D02*
X129890380Y-88687481D01*
X129850380Y-85892481D02*
X129850380Y-88702481D01*
X129530380Y-85892481D02*
X129530380Y-88799481D01*
X131410380Y-85892481D02*
X131410380Y-87719481D01*
X130770380Y-81460481D02*
X130770380Y-83812481D01*
X130490380Y-85892481D02*
X130490380Y-88414481D01*
X131890380Y-82565481D02*
X131890380Y-87139481D01*
X131770380Y-82398481D02*
X131770380Y-87306481D01*
X130530380Y-85892481D02*
X130530380Y-88392481D01*
X129490380Y-80895481D02*
X129490380Y-83812481D01*
X131330380Y-81907481D02*
X131330380Y-83812481D01*
X131210380Y-85892481D02*
X131210380Y-87907481D01*
X131250380Y-85892481D02*
X131250380Y-87871481D01*
X131050380Y-81663481D02*
X131050380Y-83812481D01*
X130050380Y-81078481D02*
X130050380Y-83812481D01*
X130370380Y-85892481D02*
X130370380Y-88479481D01*
X130650380Y-85892481D02*
X130650380Y-88321481D01*
X129450380Y-85892481D02*
X129450380Y-88819481D01*
X131730380Y-82347481D02*
X131730380Y-87357481D01*
X128649380Y-80775481D02*
X128649380Y-88929481D01*
X132450380Y-83754481D02*
X132450380Y-85950481D01*
X129169380Y-80828481D02*
X129169380Y-88876481D01*
X129129380Y-80822481D02*
X129129380Y-88882481D01*
X129370380Y-80867481D02*
X129370380Y-83812481D01*
X132010380Y-82750481D02*
X132010380Y-86954481D01*
X129330380Y-80858481D02*
X129330380Y-88846481D01*
X129810380Y-85892481D02*
X129810380Y-88715481D01*
X129650380Y-85892481D02*
X129650380Y-88766481D01*
X128809380Y-80784481D02*
X128809380Y-88920481D01*
X128569380Y-80772481D02*
X128569380Y-88932481D01*
X129930380Y-85892481D02*
X129930380Y-88673481D01*
X130330380Y-81205481D02*
X130330380Y-83812481D01*
X130930380Y-85892481D02*
X130930380Y-88132481D01*
X129570380Y-85892481D02*
X129570380Y-88788481D01*
X131330380Y-85892481D02*
X131330380Y-87797481D01*
X129290380Y-80850481D02*
X129290380Y-88854481D01*
X130730380Y-81434481D02*
X130730380Y-83812481D01*
X130810380Y-85892481D02*
X130810380Y-88217481D01*
X131570380Y-82155481D02*
X131570380Y-87549481D01*
X129850380Y-81002481D02*
X129850380Y-83812481D01*
X130090380Y-85892481D02*
X130090380Y-88609481D01*
X129089380Y-80815481D02*
X129089380Y-88889481D01*
X130570380Y-81335481D02*
X130570380Y-83812481D01*
X131690380Y-82296481D02*
X131690380Y-87408481D01*
X129770380Y-85892481D02*
X129770380Y-88729481D01*
X128529380Y-80772481D02*
X128529380Y-88932481D01*
X130730380Y-85892481D02*
X130730380Y-88270481D01*
X129009380Y-80804481D02*
X129009380Y-88900481D01*
X130530380Y-81312481D02*
X130530380Y-83812481D01*
X130210380Y-85892481D02*
X130210380Y-88556481D01*
X132050380Y-82818481D02*
X132050380Y-86886481D01*
X129730380Y-80963481D02*
X129730380Y-83812481D01*
X129410380Y-85892481D02*
X129410380Y-88828481D01*
X132490380Y-83904481D02*
X132490380Y-85800481D01*
X132130380Y-82962481D02*
X132130380Y-86742481D01*
X131850380Y-82507481D02*
X131850380Y-87197481D01*
X129970380Y-85892481D02*
X129970380Y-88657481D01*
X128489380Y-80772481D02*
X128489380Y-88932481D01*
X132609380Y-84852481D02*
G75*
G03*
X132609380Y-84852481I-4120000J0D01*
G01*
%TO.C,J3*%
X130175718Y-67665801D02*
X130785718Y-67665801D01*
X131935718Y-66355801D02*
X131935718Y-66155801D01*
X130785718Y-66965801D02*
X130785718Y-70465801D01*
X133335718Y-69965801D02*
X133335718Y-70465801D01*
X138295718Y-71075801D02*
X138295718Y-66355801D01*
X131635718Y-66155801D02*
X131635718Y-66355801D01*
X130175718Y-66355801D02*
X130175718Y-71075801D01*
X131935718Y-66155801D02*
X131635718Y-66155801D01*
X132735718Y-66965801D02*
X130785718Y-66965801D01*
X138295718Y-68965801D02*
X137685718Y-68965801D01*
X135135718Y-69965801D02*
X135335718Y-69965801D01*
X130785718Y-70465801D02*
X137685718Y-70465801D01*
X135235718Y-70465801D02*
X135235718Y-69965801D01*
X135335718Y-69965801D02*
X135335718Y-70465801D01*
X133235718Y-70465801D02*
X133235718Y-69965801D01*
X133135718Y-70465801D02*
X133135718Y-69965801D01*
X130175718Y-71075801D02*
X138295718Y-71075801D01*
X135135718Y-70465801D02*
X135135718Y-69965801D01*
X137685718Y-66965801D02*
X135735718Y-66965801D01*
X137685718Y-70465801D02*
X137685718Y-66965801D01*
X135735718Y-66965801D02*
X135735718Y-66355801D01*
X133135718Y-69965801D02*
X133335718Y-69965801D01*
X138295718Y-67665801D02*
X137685718Y-67665801D01*
X130175718Y-68965801D02*
X130785718Y-68965801D01*
X131935718Y-66255801D02*
X131635718Y-66255801D01*
X132735718Y-66355801D02*
X132735718Y-66965801D01*
X129875718Y-66055801D02*
X129875718Y-67305801D01*
X131125718Y-66055801D02*
X129875718Y-66055801D01*
X138295718Y-66355801D02*
X130175718Y-66355801D01*
%TO.C,SW4*%
X148773443Y-136144212D02*
X139773443Y-136144212D01*
X139773443Y-136144212D02*
X139773443Y-148944212D01*
X139773443Y-148944212D02*
X148773443Y-148944212D01*
X148773443Y-148944212D02*
X148773443Y-136144212D01*
%TO.C,J8*%
X66250685Y-128735667D02*
X66250685Y-133455667D01*
X66250685Y-133455667D02*
X72370685Y-133455667D01*
X69410685Y-129845667D02*
X69210685Y-129845667D01*
X69410685Y-129345667D02*
X69410685Y-129845667D01*
X71420685Y-133755667D02*
X72670685Y-133755667D01*
X71760685Y-129345667D02*
X66860685Y-129345667D01*
X70910685Y-133655667D02*
X70910685Y-133455667D01*
X72370685Y-133455667D02*
X72370685Y-128735667D01*
X72370685Y-130845667D02*
X71760685Y-130845667D01*
X66860685Y-129345667D02*
X66860685Y-132845667D01*
X69810685Y-132845667D02*
X71760685Y-132845667D01*
X66250685Y-130845667D02*
X66860685Y-130845667D01*
X68810685Y-132845667D02*
X68810685Y-133455667D01*
X69810685Y-133455667D02*
X69810685Y-132845667D01*
X70610685Y-133655667D02*
X70910685Y-133655667D01*
X69310685Y-129345667D02*
X69310685Y-129845667D01*
X66250685Y-132145667D02*
X66860685Y-132145667D01*
X72670685Y-133755667D02*
X72670685Y-132505667D01*
X72370685Y-128735667D02*
X66250685Y-128735667D01*
X70610685Y-133455667D02*
X70610685Y-133655667D01*
X70610685Y-133555667D02*
X70910685Y-133555667D01*
X71760685Y-132845667D02*
X71760685Y-129345667D01*
X72370685Y-132145667D02*
X71760685Y-132145667D01*
X69210685Y-129845667D02*
X69210685Y-129345667D01*
X66860685Y-132845667D02*
X68810685Y-132845667D01*
%TO.C,BT1*%
X44392500Y-141850000D02*
X42952500Y-141850000D01*
X42952500Y-148650000D02*
X42952500Y-141850000D01*
X121932500Y-141810000D02*
X121932500Y-134830000D01*
X123692500Y-148694418D02*
X121967828Y-148694418D01*
X123692500Y-148694418D02*
X123692500Y-141822230D01*
X44442500Y-148650000D02*
X42952500Y-148650000D01*
X121932500Y-148690000D02*
X121932500Y-155690000D01*
X40792500Y-140500000D02*
X40792500Y-138000000D01*
X121932500Y-134830000D02*
X44392500Y-134850000D01*
X123692500Y-141822230D02*
X121967828Y-141822230D01*
X39542500Y-139250000D02*
X42042500Y-139250000D01*
X121932500Y-155690000D02*
X44442500Y-155690000D01*
X44442500Y-155700000D02*
X44442500Y-148650000D01*
X44392500Y-141850000D02*
X44392500Y-134850000D01*
%TD*%
%LPC*%
D14*
%TO.C,BT2*%
X63050000Y-36000000D03*
X135950000Y-36000000D03*
%TD*%
D15*
%TO.C,J7*%
X132310547Y-76209849D03*
D16*
X134310547Y-76209849D03*
X136310547Y-76209849D03*
%TD*%
D17*
%TO.C,SW2*%
X127018655Y-148062279D03*
X127018655Y-154562279D03*
%TD*%
D18*
%TO.C,H3*%
X113361260Y-51094373D03*
%TD*%
D19*
%TO.C,H1*%
X70000000Y-45000000D03*
%TD*%
D20*
%TO.C,SW3*%
X136095000Y-148575000D03*
X136095000Y-132575000D03*
X136095000Y-139775000D03*
%TD*%
D21*
%TO.C,BT4*%
X52695980Y-54342500D03*
X52695980Y-127242500D03*
%TD*%
D17*
%TO.C,SW1*%
X75500000Y-124000000D03*
X69000000Y-124000000D03*
%TD*%
D22*
%TO.C,J4*%
X114810685Y-105338400D03*
D23*
X114810685Y-107338400D03*
%TD*%
D24*
%TO.C,U3*%
X119639919Y-90949918D03*
D25*
X119639919Y-93489918D03*
X119639919Y-96029918D03*
X119639919Y-98569918D03*
X119639919Y-101109918D03*
X119639919Y-103649918D03*
X119639919Y-106189918D03*
X119639919Y-108729918D03*
X137673919Y-108729918D03*
X137673919Y-106189918D03*
X137673919Y-103649918D03*
X137673919Y-101109918D03*
X137673919Y-98569918D03*
X137673919Y-96029918D03*
X137673919Y-93489918D03*
X137673919Y-90949918D03*
%TD*%
D26*
%TO.C,C5*%
X132395653Y-59736399D03*
D27*
X136195653Y-59736399D03*
%TD*%
D26*
%TO.C,C10*%
X126589380Y-84852481D03*
D27*
X130389380Y-84852481D03*
%TD*%
D15*
%TO.C,J3*%
X132235718Y-68165801D03*
D16*
X134235718Y-68165801D03*
X136235718Y-68165801D03*
%TD*%
D17*
%TO.C,SW4*%
X141383443Y-137414212D03*
X141383443Y-147714212D03*
X141383443Y-142564212D03*
%TD*%
D28*
%TO.C,J8*%
X70310685Y-131645667D03*
D16*
X68310685Y-131645667D03*
%TD*%
D19*
%TO.C,H2*%
X63500000Y-28000000D03*
%TD*%
D14*
%TO.C,BT1*%
X46842500Y-145250000D03*
X119742500Y-145250000D03*
%TD*%
D29*
%TO.C,J2*%
X74907839Y-53872651D03*
D30*
X77447839Y-53872651D03*
X79987839Y-53872651D03*
X82527839Y-53872651D03*
X85067839Y-53872651D03*
X87607839Y-53872651D03*
X90147839Y-53872651D03*
X92687839Y-53872651D03*
%TD*%
M02*
