%TF.GenerationSoftware,KiCad,Pcbnew,(6.0.2)*%
%TF.CreationDate,2022-04-22T14:35:52+01:00*%
%TF.ProjectId,DiscAdventure,44697363-4164-4766-956e-747572652e6b,rev?*%
%TF.SameCoordinates,Original*%
%TF.FileFunction,Legend,Bot*%
%TF.FilePolarity,Positive*%
%FSLAX46Y46*%
G04 Gerber Fmt 4.6, Leading zero omitted, Abs format (unit mm)*
G04 Created by KiCad (PCBNEW (6.0.2)) date 2022-04-22 14:35:52*
%MOMM*%
%LPD*%
G01*
G04 APERTURE LIST*
G04 Aperture macros list*
%AMRoundRect*
0 Rectangle with rounded corners*
0 $1 Rounding radius*
0 $2 $3 $4 $5 $6 $7 $8 $9 X,Y pos of 4 corners*
0 Add a 4 corners polygon primitive as box body*
4,1,4,$2,$3,$4,$5,$6,$7,$8,$9,$2,$3,0*
0 Add four circle primitives for the rounded corners*
1,1,$1+$1,$2,$3*
1,1,$1+$1,$4,$5*
1,1,$1+$1,$6,$7*
1,1,$1+$1,$8,$9*
0 Add four rect primitives between the rounded corners*
20,1,$1+$1,$2,$3,$4,$5,0*
20,1,$1+$1,$4,$5,$6,$7,0*
20,1,$1+$1,$6,$7,$8,$9,0*
20,1,$1+$1,$8,$9,$2,$3,0*%
G04 Aperture macros list end*
%ADD10C,0.200000*%
%ADD11C,0.150000*%
%ADD12C,0.254000*%
%ADD13C,0.120000*%
%ADD14R,0.650000X1.500000*%
%ADD15R,3.350000X2.710000*%
%ADD16C,0.208000*%
%ADD17R,7.340000X6.350000*%
%ADD18RoundRect,0.250000X-0.350000X-0.625000X0.350000X-0.625000X0.350000X0.625000X-0.350000X0.625000X0*%
%ADD19O,1.200000X1.750000*%
%ADD20R,2.000000X2.000000*%
%ADD21C,3.700000*%
%ADD22C,3.200000*%
%ADD23R,5.750000X2.000000*%
%ADD24R,6.350000X7.340000*%
%ADD25O,1.750000X1.200000*%
%ADD26RoundRect,0.250000X0.625000X-0.350000X0.625000X0.350000X-0.625000X0.350000X-0.625000X-0.350000X0*%
%ADD27R,1.308000X1.308000*%
%ADD28C,1.308000*%
%ADD29R,1.600000X1.600000*%
%ADD30C,1.600000*%
%ADD31RoundRect,0.250000X0.350000X0.625000X-0.350000X0.625000X-0.350000X-0.625000X0.350000X-0.625000X0*%
%ADD32R,2.550000X3.200000*%
%ADD33R,2.000000X0.900000*%
%ADD34R,2.500000X2.500000*%
%ADD35RoundRect,0.250000X-0.250000X-0.475000X0.250000X-0.475000X0.250000X0.475000X-0.250000X0.475000X0*%
%ADD36RoundRect,0.200000X-0.200000X-0.275000X0.200000X-0.275000X0.200000X0.275000X-0.200000X0.275000X0*%
%ADD37RoundRect,0.150000X-0.150000X0.587500X-0.150000X-0.587500X0.150000X-0.587500X0.150000X0.587500X0*%
%ADD38R,2.510000X1.000000*%
%ADD39RoundRect,0.200000X0.200000X0.275000X-0.200000X0.275000X-0.200000X-0.275000X0.200000X-0.275000X0*%
%ADD40RoundRect,0.150000X0.875000X0.150000X-0.875000X0.150000X-0.875000X-0.150000X0.875000X-0.150000X0*%
%ADD41RoundRect,0.250000X-0.375000X-0.850000X0.375000X-0.850000X0.375000X0.850000X-0.375000X0.850000X0*%
%ADD42R,1.700000X1.700000*%
%ADD43O,1.700000X1.700000*%
%ADD44RoundRect,0.250000X0.475000X-0.250000X0.475000X0.250000X-0.475000X0.250000X-0.475000X-0.250000X0*%
%ADD45RoundRect,0.250000X-0.475000X0.250000X-0.475000X-0.250000X0.475000X-0.250000X0.475000X0.250000X0*%
%ADD46RoundRect,0.200000X-0.275000X0.200000X-0.275000X-0.200000X0.275000X-0.200000X0.275000X0.200000X0*%
%ADD47RoundRect,0.218750X-0.256250X0.218750X-0.256250X-0.218750X0.256250X-0.218750X0.256250X0.218750X0*%
%ADD48RoundRect,0.200000X0.275000X-0.200000X0.275000X0.200000X-0.275000X0.200000X-0.275000X-0.200000X0*%
G04 APERTURE END LIST*
D10*
X64032839Y-51522651D02*
X104032839Y-51522651D01*
X104032839Y-51522651D02*
X104032839Y-111522651D01*
X104032839Y-111522651D02*
X64032839Y-111522651D01*
X64032839Y-111522651D02*
X64032839Y-51522651D01*
D11*
X132761904Y-26147380D02*
X132761904Y-25147380D01*
X132523809Y-25147380D01*
X132380952Y-25195000D01*
X132285714Y-25290238D01*
X132238095Y-25385476D01*
X132190476Y-25575952D01*
X132190476Y-25718809D01*
X132238095Y-25909285D01*
X132285714Y-26004523D01*
X132380952Y-26099761D01*
X132523809Y-26147380D01*
X132761904Y-26147380D01*
X131761904Y-26147380D02*
X131761904Y-25480714D01*
X131761904Y-25147380D02*
X131809523Y-25195000D01*
X131761904Y-25242619D01*
X131714285Y-25195000D01*
X131761904Y-25147380D01*
X131761904Y-25242619D01*
X131333333Y-26099761D02*
X131238095Y-26147380D01*
X131047619Y-26147380D01*
X130952380Y-26099761D01*
X130904761Y-26004523D01*
X130904761Y-25956904D01*
X130952380Y-25861666D01*
X131047619Y-25814047D01*
X131190476Y-25814047D01*
X131285714Y-25766428D01*
X131333333Y-25671190D01*
X131333333Y-25623571D01*
X131285714Y-25528333D01*
X131190476Y-25480714D01*
X131047619Y-25480714D01*
X130952380Y-25528333D01*
X130047619Y-26099761D02*
X130142857Y-26147380D01*
X130333333Y-26147380D01*
X130428571Y-26099761D01*
X130476190Y-26052142D01*
X130523809Y-25956904D01*
X130523809Y-25671190D01*
X130476190Y-25575952D01*
X130428571Y-25528333D01*
X130333333Y-25480714D01*
X130142857Y-25480714D01*
X130047619Y-25528333D01*
X129666666Y-25861666D02*
X129190476Y-25861666D01*
X129761904Y-26147380D02*
X129428571Y-25147380D01*
X129095238Y-26147380D01*
X128333333Y-26147380D02*
X128333333Y-25147380D01*
X128333333Y-26099761D02*
X128428571Y-26147380D01*
X128619047Y-26147380D01*
X128714285Y-26099761D01*
X128761904Y-26052142D01*
X128809523Y-25956904D01*
X128809523Y-25671190D01*
X128761904Y-25575952D01*
X128714285Y-25528333D01*
X128619047Y-25480714D01*
X128428571Y-25480714D01*
X128333333Y-25528333D01*
X127952380Y-25480714D02*
X127714285Y-26147380D01*
X127476190Y-25480714D01*
X126714285Y-26099761D02*
X126809523Y-26147380D01*
X127000000Y-26147380D01*
X127095238Y-26099761D01*
X127142857Y-26004523D01*
X127142857Y-25623571D01*
X127095238Y-25528333D01*
X127000000Y-25480714D01*
X126809523Y-25480714D01*
X126714285Y-25528333D01*
X126666666Y-25623571D01*
X126666666Y-25718809D01*
X127142857Y-25814047D01*
X126238095Y-25480714D02*
X126238095Y-26147380D01*
X126238095Y-25575952D02*
X126190476Y-25528333D01*
X126095238Y-25480714D01*
X125952380Y-25480714D01*
X125857142Y-25528333D01*
X125809523Y-25623571D01*
X125809523Y-26147380D01*
X125476190Y-25480714D02*
X125095238Y-25480714D01*
X125333333Y-25147380D02*
X125333333Y-26004523D01*
X125285714Y-26099761D01*
X125190476Y-26147380D01*
X125095238Y-26147380D01*
X124333333Y-25480714D02*
X124333333Y-26147380D01*
X124761904Y-25480714D02*
X124761904Y-26004523D01*
X124714285Y-26099761D01*
X124619047Y-26147380D01*
X124476190Y-26147380D01*
X124380952Y-26099761D01*
X124333333Y-26052142D01*
X123857142Y-26147380D02*
X123857142Y-25480714D01*
X123857142Y-25671190D02*
X123809523Y-25575952D01*
X123761904Y-25528333D01*
X123666666Y-25480714D01*
X123571428Y-25480714D01*
X122857142Y-26099761D02*
X122952380Y-26147380D01*
X123142857Y-26147380D01*
X123238095Y-26099761D01*
X123285714Y-26004523D01*
X123285714Y-25623571D01*
X123238095Y-25528333D01*
X123142857Y-25480714D01*
X122952380Y-25480714D01*
X122857142Y-25528333D01*
X122809523Y-25623571D01*
X122809523Y-25718809D01*
X123285714Y-25814047D01*
X121714285Y-25480714D02*
X121476190Y-26147380D01*
X121238095Y-25480714D01*
X120904761Y-25242619D02*
X120857142Y-25195000D01*
X120761904Y-25147380D01*
X120523809Y-25147380D01*
X120428571Y-25195000D01*
X120380952Y-25242619D01*
X120333333Y-25337857D01*
X120333333Y-25433095D01*
X120380952Y-25575952D01*
X120952380Y-26147380D01*
X120333333Y-26147380D01*
X119904761Y-25766428D02*
X119142857Y-25766428D01*
X118476190Y-25147380D02*
X118380952Y-25147380D01*
X118285714Y-25195000D01*
X118238095Y-25242619D01*
X118190476Y-25337857D01*
X118142857Y-25528333D01*
X118142857Y-25766428D01*
X118190476Y-25956904D01*
X118238095Y-26052142D01*
X118285714Y-26099761D01*
X118380952Y-26147380D01*
X118476190Y-26147380D01*
X118571428Y-26099761D01*
X118619047Y-26052142D01*
X118666666Y-25956904D01*
X118714285Y-25766428D01*
X118714285Y-25528333D01*
X118666666Y-25337857D01*
X118619047Y-25242619D01*
X118571428Y-25195000D01*
X118476190Y-25147380D01*
X117523809Y-25147380D02*
X117428571Y-25147380D01*
X117333333Y-25195000D01*
X117285714Y-25242619D01*
X117238095Y-25337857D01*
X117190476Y-25528333D01*
X117190476Y-25766428D01*
X117238095Y-25956904D01*
X117285714Y-26052142D01*
X117333333Y-26099761D01*
X117428571Y-26147380D01*
X117523809Y-26147380D01*
X117619047Y-26099761D01*
X117666666Y-26052142D01*
X117714285Y-25956904D01*
X117761904Y-25766428D01*
X117761904Y-25528333D01*
X117714285Y-25337857D01*
X117666666Y-25242619D01*
X117619047Y-25195000D01*
X117523809Y-25147380D01*
X135928571Y-27662142D02*
X135976190Y-27709761D01*
X136119047Y-27757380D01*
X136214285Y-27757380D01*
X136357142Y-27709761D01*
X136452380Y-27614523D01*
X136500000Y-27519285D01*
X136547619Y-27328809D01*
X136547619Y-27185952D01*
X136500000Y-26995476D01*
X136452380Y-26900238D01*
X136357142Y-26805000D01*
X136214285Y-26757380D01*
X136119047Y-26757380D01*
X135976190Y-26805000D01*
X135928571Y-26852619D01*
X135357142Y-27757380D02*
X135452380Y-27709761D01*
X135500000Y-27662142D01*
X135547619Y-27566904D01*
X135547619Y-27281190D01*
X135500000Y-27185952D01*
X135452380Y-27138333D01*
X135357142Y-27090714D01*
X135214285Y-27090714D01*
X135119047Y-27138333D01*
X135071428Y-27185952D01*
X135023809Y-27281190D01*
X135023809Y-27566904D01*
X135071428Y-27662142D01*
X135119047Y-27709761D01*
X135214285Y-27757380D01*
X135357142Y-27757380D01*
X134595238Y-27090714D02*
X134595238Y-28090714D01*
X134595238Y-27138333D02*
X134500000Y-27090714D01*
X134309523Y-27090714D01*
X134214285Y-27138333D01*
X134166666Y-27185952D01*
X134119047Y-27281190D01*
X134119047Y-27566904D01*
X134166666Y-27662142D01*
X134214285Y-27709761D01*
X134309523Y-27757380D01*
X134500000Y-27757380D01*
X134595238Y-27709761D01*
X133785714Y-27090714D02*
X133547619Y-27757380D01*
X133309523Y-27090714D02*
X133547619Y-27757380D01*
X133642857Y-27995476D01*
X133690476Y-28043095D01*
X133785714Y-28090714D01*
X132928571Y-27757380D02*
X132928571Y-27090714D01*
X132928571Y-27281190D02*
X132880952Y-27185952D01*
X132833333Y-27138333D01*
X132738095Y-27090714D01*
X132642857Y-27090714D01*
X132309523Y-27757380D02*
X132309523Y-27090714D01*
X132309523Y-26757380D02*
X132357142Y-26805000D01*
X132309523Y-26852619D01*
X132261904Y-26805000D01*
X132309523Y-26757380D01*
X132309523Y-26852619D01*
X131404761Y-27090714D02*
X131404761Y-27900238D01*
X131452380Y-27995476D01*
X131500000Y-28043095D01*
X131595238Y-28090714D01*
X131738095Y-28090714D01*
X131833333Y-28043095D01*
X131404761Y-27709761D02*
X131500000Y-27757380D01*
X131690476Y-27757380D01*
X131785714Y-27709761D01*
X131833333Y-27662142D01*
X131880952Y-27566904D01*
X131880952Y-27281190D01*
X131833333Y-27185952D01*
X131785714Y-27138333D01*
X131690476Y-27090714D01*
X131500000Y-27090714D01*
X131404761Y-27138333D01*
X130928571Y-27757380D02*
X130928571Y-26757380D01*
X130500000Y-27757380D02*
X130500000Y-27233571D01*
X130547619Y-27138333D01*
X130642857Y-27090714D01*
X130785714Y-27090714D01*
X130880952Y-27138333D01*
X130928571Y-27185952D01*
X130166666Y-27090714D02*
X129785714Y-27090714D01*
X130023809Y-26757380D02*
X130023809Y-27614523D01*
X129976190Y-27709761D01*
X129880952Y-27757380D01*
X129785714Y-27757380D01*
X128738095Y-26852619D02*
X128690476Y-26805000D01*
X128595238Y-26757380D01*
X128357142Y-26757380D01*
X128261904Y-26805000D01*
X128214285Y-26852619D01*
X128166666Y-26947857D01*
X128166666Y-27043095D01*
X128214285Y-27185952D01*
X128785714Y-27757380D01*
X128166666Y-27757380D01*
X127547619Y-26757380D02*
X127452380Y-26757380D01*
X127357142Y-26805000D01*
X127309523Y-26852619D01*
X127261904Y-26947857D01*
X127214285Y-27138333D01*
X127214285Y-27376428D01*
X127261904Y-27566904D01*
X127309523Y-27662142D01*
X127357142Y-27709761D01*
X127452380Y-27757380D01*
X127547619Y-27757380D01*
X127642857Y-27709761D01*
X127690476Y-27662142D01*
X127738095Y-27566904D01*
X127785714Y-27376428D01*
X127785714Y-27138333D01*
X127738095Y-26947857D01*
X127690476Y-26852619D01*
X127642857Y-26805000D01*
X127547619Y-26757380D01*
X126833333Y-26852619D02*
X126785714Y-26805000D01*
X126690476Y-26757380D01*
X126452380Y-26757380D01*
X126357142Y-26805000D01*
X126309523Y-26852619D01*
X126261904Y-26947857D01*
X126261904Y-27043095D01*
X126309523Y-27185952D01*
X126880952Y-27757380D01*
X126261904Y-27757380D01*
X125880952Y-26852619D02*
X125833333Y-26805000D01*
X125738095Y-26757380D01*
X125500000Y-26757380D01*
X125404761Y-26805000D01*
X125357142Y-26852619D01*
X125309523Y-26947857D01*
X125309523Y-27043095D01*
X125357142Y-27185952D01*
X125928571Y-27757380D01*
X125309523Y-27757380D01*
X124119047Y-27757380D02*
X124119047Y-26757380D01*
X123785714Y-27471666D01*
X123452380Y-26757380D01*
X123452380Y-27757380D01*
X122976190Y-27757380D02*
X122976190Y-27090714D01*
X122976190Y-26757380D02*
X123023809Y-26805000D01*
X122976190Y-26852619D01*
X122928571Y-26805000D01*
X122976190Y-26757380D01*
X122976190Y-26852619D01*
X122071428Y-27709761D02*
X122166666Y-27757380D01*
X122357142Y-27757380D01*
X122452380Y-27709761D01*
X122500000Y-27662142D01*
X122547619Y-27566904D01*
X122547619Y-27281190D01*
X122500000Y-27185952D01*
X122452380Y-27138333D01*
X122357142Y-27090714D01*
X122166666Y-27090714D01*
X122071428Y-27138333D01*
X121642857Y-27757380D02*
X121642857Y-26757380D01*
X121214285Y-27757380D02*
X121214285Y-27233571D01*
X121261904Y-27138333D01*
X121357142Y-27090714D01*
X121500000Y-27090714D01*
X121595238Y-27138333D01*
X121642857Y-27185952D01*
X120309523Y-27757380D02*
X120309523Y-27233571D01*
X120357142Y-27138333D01*
X120452380Y-27090714D01*
X120642857Y-27090714D01*
X120738095Y-27138333D01*
X120309523Y-27709761D02*
X120404761Y-27757380D01*
X120642857Y-27757380D01*
X120738095Y-27709761D01*
X120785714Y-27614523D01*
X120785714Y-27519285D01*
X120738095Y-27424047D01*
X120642857Y-27376428D01*
X120404761Y-27376428D01*
X120309523Y-27328809D01*
X119452380Y-27709761D02*
X119547619Y-27757380D01*
X119738095Y-27757380D01*
X119833333Y-27709761D01*
X119880952Y-27614523D01*
X119880952Y-27233571D01*
X119833333Y-27138333D01*
X119738095Y-27090714D01*
X119547619Y-27090714D01*
X119452380Y-27138333D01*
X119404761Y-27233571D01*
X119404761Y-27328809D01*
X119880952Y-27424047D01*
X118833333Y-27757380D02*
X118928571Y-27709761D01*
X118976190Y-27614523D01*
X118976190Y-26757380D01*
X117833333Y-26757380D02*
X117261904Y-26757380D01*
X117547619Y-27757380D02*
X117547619Y-26757380D01*
X116500000Y-27090714D02*
X116500000Y-27757380D01*
X116928571Y-27090714D02*
X116928571Y-27614523D01*
X116880952Y-27709761D01*
X116785714Y-27757380D01*
X116642857Y-27757380D01*
X116547619Y-27709761D01*
X116500000Y-27662142D01*
X116023809Y-27757380D02*
X116023809Y-27090714D01*
X116023809Y-27281190D02*
X115976190Y-27185952D01*
X115928571Y-27138333D01*
X115833333Y-27090714D01*
X115738095Y-27090714D01*
X115404761Y-27090714D02*
X115404761Y-27757380D01*
X115404761Y-27185952D02*
X115357142Y-27138333D01*
X115261904Y-27090714D01*
X115119047Y-27090714D01*
X115023809Y-27138333D01*
X114976190Y-27233571D01*
X114976190Y-27757380D01*
X114119047Y-27709761D02*
X114214285Y-27757380D01*
X114404761Y-27757380D01*
X114500000Y-27709761D01*
X114547619Y-27614523D01*
X114547619Y-27233571D01*
X114500000Y-27138333D01*
X114404761Y-27090714D01*
X114214285Y-27090714D01*
X114119047Y-27138333D01*
X114071428Y-27233571D01*
X114071428Y-27328809D01*
X114547619Y-27424047D01*
X113642857Y-27757380D02*
X113642857Y-27090714D01*
X113642857Y-27281190D02*
X113595238Y-27185952D01*
X113547619Y-27138333D01*
X113452380Y-27090714D01*
X113357142Y-27090714D01*
D12*
%TO.C,IC3*%
X83529814Y-150143467D02*
X82259814Y-150143467D01*
X83408862Y-151473943D02*
X83469338Y-151413467D01*
X83529814Y-151232038D01*
X83529814Y-151111086D01*
X83469338Y-150929657D01*
X83348386Y-150808705D01*
X83227433Y-150748229D01*
X82985529Y-150687752D01*
X82804100Y-150687752D01*
X82562195Y-150748229D01*
X82441243Y-150808705D01*
X82320291Y-150929657D01*
X82259814Y-151111086D01*
X82259814Y-151232038D01*
X82320291Y-151413467D01*
X82380767Y-151473943D01*
X82259814Y-151897276D02*
X82259814Y-152683467D01*
X82743624Y-152260133D01*
X82743624Y-152441562D01*
X82804100Y-152562514D01*
X82864576Y-152622990D01*
X82985529Y-152683467D01*
X83287910Y-152683467D01*
X83408862Y-152622990D01*
X83469338Y-152562514D01*
X83529814Y-152441562D01*
X83529814Y-152078705D01*
X83469338Y-151957752D01*
X83408862Y-151897276D01*
%TO.C,IC2*%
X100230278Y-149672395D02*
X98960278Y-149672395D01*
X100109326Y-151002871D02*
X100169802Y-150942395D01*
X100230278Y-150760966D01*
X100230278Y-150640014D01*
X100169802Y-150458585D01*
X100048850Y-150337633D01*
X99927897Y-150277157D01*
X99685993Y-150216680D01*
X99504564Y-150216680D01*
X99262659Y-150277157D01*
X99141707Y-150337633D01*
X99020755Y-150458585D01*
X98960278Y-150640014D01*
X98960278Y-150760966D01*
X99020755Y-150942395D01*
X99081231Y-151002871D01*
X99081231Y-151486680D02*
X99020755Y-151547157D01*
X98960278Y-151668109D01*
X98960278Y-151970490D01*
X99020755Y-152091442D01*
X99081231Y-152151918D01*
X99202183Y-152212395D01*
X99323135Y-152212395D01*
X99504564Y-152151918D01*
X100230278Y-151426204D01*
X100230278Y-152212395D01*
%TO.C,L1*%
X91166957Y-149457752D02*
X91771719Y-149457752D01*
X91771719Y-148187752D01*
X90078386Y-149457752D02*
X90804100Y-149457752D01*
X90441243Y-149457752D02*
X90441243Y-148187752D01*
X90562195Y-148369181D01*
X90683148Y-148490133D01*
X90804100Y-148550609D01*
D11*
%TO.C,U1*%
X132505621Y-48496376D02*
X132505621Y-49305900D01*
X132458002Y-49401138D01*
X132410383Y-49448757D01*
X132315145Y-49496376D01*
X132124669Y-49496376D01*
X132029431Y-49448757D01*
X131981812Y-49401138D01*
X131934193Y-49305900D01*
X131934193Y-48496376D01*
X130934193Y-49496376D02*
X131505621Y-49496376D01*
X131219907Y-49496376D02*
X131219907Y-48496376D01*
X131315145Y-48639234D01*
X131410383Y-48734472D01*
X131505621Y-48782091D01*
X134600859Y-57227567D02*
X134267526Y-57227567D01*
X134124669Y-57751376D02*
X134600859Y-57751376D01*
X134600859Y-56751376D01*
X134124669Y-56751376D01*
X133743717Y-57703757D02*
X133600859Y-57751376D01*
X133362764Y-57751376D01*
X133267526Y-57703757D01*
X133219907Y-57656138D01*
X133172288Y-57560900D01*
X133172288Y-57465662D01*
X133219907Y-57370424D01*
X133267526Y-57322805D01*
X133362764Y-57275186D01*
X133553240Y-57227567D01*
X133648478Y-57179948D01*
X133696097Y-57132329D01*
X133743717Y-57037091D01*
X133743717Y-56941853D01*
X133696097Y-56846615D01*
X133648478Y-56798996D01*
X133553240Y-56751376D01*
X133315145Y-56751376D01*
X133172288Y-56798996D01*
X132743717Y-57751376D02*
X132743717Y-56751376D01*
X132362764Y-56751376D01*
X132267526Y-56798996D01*
X132219907Y-56846615D01*
X132172288Y-56941853D01*
X132172288Y-57084710D01*
X132219907Y-57179948D01*
X132267526Y-57227567D01*
X132362764Y-57275186D01*
X132743717Y-57275186D01*
X131743717Y-57370424D02*
X130981812Y-57370424D01*
X130505621Y-57751376D02*
X130505621Y-56751376D01*
X130172288Y-57465662D01*
X129838955Y-56751376D01*
X129838955Y-57751376D01*
X128838955Y-57751376D02*
X129410383Y-57751376D01*
X129124669Y-57751376D02*
X129124669Y-56751376D01*
X129219907Y-56894234D01*
X129315145Y-56989472D01*
X129410383Y-57037091D01*
%TO.C,C1*%
X85157042Y-147392548D02*
X85204661Y-147440167D01*
X85347518Y-147487786D01*
X85442756Y-147487786D01*
X85585614Y-147440167D01*
X85680852Y-147344929D01*
X85728471Y-147249691D01*
X85776090Y-147059215D01*
X85776090Y-146916358D01*
X85728471Y-146725882D01*
X85680852Y-146630644D01*
X85585614Y-146535406D01*
X85442756Y-146487786D01*
X85347518Y-146487786D01*
X85204661Y-146535406D01*
X85157042Y-146583025D01*
X84204661Y-147487786D02*
X84776090Y-147487786D01*
X84490376Y-147487786D02*
X84490376Y-146487786D01*
X84585614Y-146630644D01*
X84680852Y-146725882D01*
X84776090Y-146773501D01*
X82127357Y-144849757D02*
X82079738Y-144802138D01*
X81984500Y-144754518D01*
X81746404Y-144754518D01*
X81651166Y-144802138D01*
X81603547Y-144849757D01*
X81555928Y-144944995D01*
X81555928Y-145040233D01*
X81603547Y-145183090D01*
X82174976Y-145754518D01*
X81555928Y-145754518D01*
X81174976Y-144849757D02*
X81127357Y-144802138D01*
X81032119Y-144754518D01*
X80794023Y-144754518D01*
X80698785Y-144802138D01*
X80651166Y-144849757D01*
X80603547Y-144944995D01*
X80603547Y-145040233D01*
X80651166Y-145183090D01*
X81222595Y-145754518D01*
X80603547Y-145754518D01*
X79746404Y-145087852D02*
X79746404Y-145754518D01*
X80174976Y-145087852D02*
X80174976Y-145611661D01*
X80127357Y-145706899D01*
X80032119Y-145754518D01*
X79889261Y-145754518D01*
X79794023Y-145706899D01*
X79746404Y-145659280D01*
X78936880Y-145230709D02*
X79270214Y-145230709D01*
X79270214Y-145754518D02*
X79270214Y-144754518D01*
X78794023Y-144754518D01*
%TO.C,R18*%
X109916458Y-40293438D02*
X110249791Y-39817248D01*
X110487886Y-40293438D02*
X110487886Y-39293438D01*
X110106934Y-39293438D01*
X110011696Y-39341058D01*
X109964077Y-39388677D01*
X109916458Y-39483915D01*
X109916458Y-39626772D01*
X109964077Y-39722010D01*
X110011696Y-39769629D01*
X110106934Y-39817248D01*
X110487886Y-39817248D01*
X108964077Y-40293438D02*
X109535505Y-40293438D01*
X109249791Y-40293438D02*
X109249791Y-39293438D01*
X109345029Y-39436296D01*
X109440267Y-39531534D01*
X109535505Y-39579153D01*
X108392648Y-39722010D02*
X108487886Y-39674391D01*
X108535505Y-39626772D01*
X108583124Y-39531534D01*
X108583124Y-39483915D01*
X108535505Y-39388677D01*
X108487886Y-39341058D01*
X108392648Y-39293438D01*
X108202172Y-39293438D01*
X108106934Y-39341058D01*
X108059315Y-39388677D01*
X108011696Y-39483915D01*
X108011696Y-39531534D01*
X108059315Y-39626772D01*
X108106934Y-39674391D01*
X108202172Y-39722010D01*
X108392648Y-39722010D01*
X108487886Y-39769629D01*
X108535505Y-39817248D01*
X108583124Y-39912486D01*
X108583124Y-40102962D01*
X108535505Y-40198200D01*
X108487886Y-40245819D01*
X108392648Y-40293438D01*
X108202172Y-40293438D01*
X108106934Y-40245819D01*
X108059315Y-40198200D01*
X108011696Y-40102962D01*
X108011696Y-39912486D01*
X108059315Y-39817248D01*
X108106934Y-39769629D01*
X108202172Y-39722010D01*
X106170934Y-40434461D02*
X106742363Y-40434461D01*
X106456648Y-40434461D02*
X106456648Y-39434461D01*
X106551887Y-39577319D01*
X106647125Y-39672557D01*
X106742363Y-39720176D01*
X105551887Y-39434461D02*
X105456648Y-39434461D01*
X105361410Y-39482081D01*
X105313791Y-39529700D01*
X105266172Y-39624938D01*
X105218553Y-39815414D01*
X105218553Y-40053509D01*
X105266172Y-40243985D01*
X105313791Y-40339223D01*
X105361410Y-40386842D01*
X105456648Y-40434461D01*
X105551887Y-40434461D01*
X105647125Y-40386842D01*
X105694744Y-40339223D01*
X105742363Y-40243985D01*
X105789982Y-40053509D01*
X105789982Y-39815414D01*
X105742363Y-39624938D01*
X105694744Y-39529700D01*
X105647125Y-39482081D01*
X105551887Y-39434461D01*
X104599506Y-39434461D02*
X104504268Y-39434461D01*
X104409029Y-39482081D01*
X104361410Y-39529700D01*
X104313791Y-39624938D01*
X104266172Y-39815414D01*
X104266172Y-40053509D01*
X104313791Y-40243985D01*
X104361410Y-40339223D01*
X104409029Y-40386842D01*
X104504268Y-40434461D01*
X104599506Y-40434461D01*
X104694744Y-40386842D01*
X104742363Y-40339223D01*
X104789982Y-40243985D01*
X104837601Y-40053509D01*
X104837601Y-39815414D01*
X104789982Y-39624938D01*
X104742363Y-39529700D01*
X104694744Y-39482081D01*
X104599506Y-39434461D01*
X103266172Y-40434461D02*
X103599506Y-39958271D01*
X103837601Y-40434461D02*
X103837601Y-39434461D01*
X103456648Y-39434461D01*
X103361410Y-39482081D01*
X103313791Y-39529700D01*
X103266172Y-39624938D01*
X103266172Y-39767795D01*
X103313791Y-39863033D01*
X103361410Y-39910652D01*
X103456648Y-39958271D01*
X103837601Y-39958271D01*
%TO.C,Q4*%
X119498786Y-42643832D02*
X119594024Y-42596213D01*
X119689262Y-42500974D01*
X119832119Y-42358117D01*
X119927357Y-42310498D01*
X120022595Y-42310498D01*
X119974976Y-42548593D02*
X120070214Y-42500974D01*
X120165452Y-42405736D01*
X120213071Y-42215260D01*
X120213071Y-41881927D01*
X120165452Y-41691451D01*
X120070214Y-41596213D01*
X119974976Y-41548593D01*
X119784500Y-41548593D01*
X119689262Y-41596213D01*
X119594024Y-41691451D01*
X119546405Y-41881927D01*
X119546405Y-42215260D01*
X119594024Y-42405736D01*
X119689262Y-42500974D01*
X119784500Y-42548593D01*
X119974976Y-42548593D01*
X118689262Y-41881927D02*
X118689262Y-42548593D01*
X118927357Y-41500974D02*
X119165452Y-42215260D01*
X118546405Y-42215260D01*
%TO.C,J1*%
X45833333Y-27772380D02*
X45833333Y-28486666D01*
X45880952Y-28629523D01*
X45976190Y-28724761D01*
X46119047Y-28772380D01*
X46214285Y-28772380D01*
X44833333Y-28772380D02*
X45404761Y-28772380D01*
X45119047Y-28772380D02*
X45119047Y-27772380D01*
X45214285Y-27915238D01*
X45309523Y-28010476D01*
X45404761Y-28058095D01*
X48714285Y-45608571D02*
X48380952Y-45608571D01*
X48238095Y-46132380D02*
X48714285Y-46132380D01*
X48714285Y-45132380D01*
X48238095Y-45132380D01*
X47857142Y-46084761D02*
X47714285Y-46132380D01*
X47476190Y-46132380D01*
X47380952Y-46084761D01*
X47333333Y-46037142D01*
X47285714Y-45941904D01*
X47285714Y-45846666D01*
X47333333Y-45751428D01*
X47380952Y-45703809D01*
X47476190Y-45656190D01*
X47666666Y-45608571D01*
X47761904Y-45560952D01*
X47809523Y-45513333D01*
X47857142Y-45418095D01*
X47857142Y-45322857D01*
X47809523Y-45227619D01*
X47761904Y-45180000D01*
X47666666Y-45132380D01*
X47428571Y-45132380D01*
X47285714Y-45180000D01*
X46857142Y-46132380D02*
X46857142Y-45132380D01*
X46476190Y-45132380D01*
X46380952Y-45180000D01*
X46333333Y-45227619D01*
X46285714Y-45322857D01*
X46285714Y-45465714D01*
X46333333Y-45560952D01*
X46380952Y-45608571D01*
X46476190Y-45656190D01*
X46857142Y-45656190D01*
X45095238Y-46132380D02*
X45095238Y-45132380D01*
X44857142Y-45132380D01*
X44714285Y-45180000D01*
X44619047Y-45275238D01*
X44571428Y-45370476D01*
X44523809Y-45560952D01*
X44523809Y-45703809D01*
X44571428Y-45894285D01*
X44619047Y-45989523D01*
X44714285Y-46084761D01*
X44857142Y-46132380D01*
X45095238Y-46132380D01*
X44095238Y-46132380D02*
X44095238Y-45465714D01*
X44095238Y-45132380D02*
X44142857Y-45180000D01*
X44095238Y-45227619D01*
X44047619Y-45180000D01*
X44095238Y-45132380D01*
X44095238Y-45227619D01*
X43190476Y-46132380D02*
X43190476Y-45608571D01*
X43238095Y-45513333D01*
X43333333Y-45465714D01*
X43523809Y-45465714D01*
X43619047Y-45513333D01*
X43190476Y-46084761D02*
X43285714Y-46132380D01*
X43523809Y-46132380D01*
X43619047Y-46084761D01*
X43666666Y-45989523D01*
X43666666Y-45894285D01*
X43619047Y-45799047D01*
X43523809Y-45751428D01*
X43285714Y-45751428D01*
X43190476Y-45703809D01*
X42285714Y-45465714D02*
X42285714Y-46275238D01*
X42333333Y-46370476D01*
X42380952Y-46418095D01*
X42476190Y-46465714D01*
X42619047Y-46465714D01*
X42714285Y-46418095D01*
X42285714Y-46084761D02*
X42380952Y-46132380D01*
X42571428Y-46132380D01*
X42666666Y-46084761D01*
X42714285Y-46037142D01*
X42761904Y-45941904D01*
X42761904Y-45656190D01*
X42714285Y-45560952D01*
X42666666Y-45513333D01*
X42571428Y-45465714D01*
X42380952Y-45465714D01*
X42285714Y-45513333D01*
%TO.C,R14*%
X76060096Y-42804539D02*
X76393429Y-42328349D01*
X76631524Y-42804539D02*
X76631524Y-41804539D01*
X76250572Y-41804539D01*
X76155334Y-41852159D01*
X76107715Y-41899778D01*
X76060096Y-41995016D01*
X76060096Y-42137873D01*
X76107715Y-42233111D01*
X76155334Y-42280730D01*
X76250572Y-42328349D01*
X76631524Y-42328349D01*
X75107715Y-42804539D02*
X75679143Y-42804539D01*
X75393429Y-42804539D02*
X75393429Y-41804539D01*
X75488667Y-41947397D01*
X75583905Y-42042635D01*
X75679143Y-42090254D01*
X74250572Y-42137873D02*
X74250572Y-42804539D01*
X74488667Y-41756920D02*
X74726762Y-42471206D01*
X74107715Y-42471206D01*
X80303076Y-42984764D02*
X80874505Y-42984764D01*
X80588791Y-42984764D02*
X80588791Y-41984764D01*
X80684029Y-42127622D01*
X80779267Y-42222860D01*
X80874505Y-42270479D01*
X79874505Y-42984764D02*
X79874505Y-41984764D01*
X79303076Y-42984764D02*
X79731648Y-42413336D01*
X79303076Y-41984764D02*
X79874505Y-42556193D01*
%TO.C,R6*%
X118917544Y-33610762D02*
X119250878Y-33134572D01*
X119488973Y-33610762D02*
X119488973Y-32610762D01*
X119108020Y-32610762D01*
X119012782Y-32658382D01*
X118965163Y-32706001D01*
X118917544Y-32801239D01*
X118917544Y-32944096D01*
X118965163Y-33039334D01*
X119012782Y-33086953D01*
X119108020Y-33134572D01*
X119488973Y-33134572D01*
X118060401Y-32610762D02*
X118250878Y-32610762D01*
X118346116Y-32658382D01*
X118393735Y-32706001D01*
X118488973Y-32848858D01*
X118536592Y-33039334D01*
X118536592Y-33420286D01*
X118488973Y-33515524D01*
X118441354Y-33563143D01*
X118346116Y-33610762D01*
X118155639Y-33610762D01*
X118060401Y-33563143D01*
X118012782Y-33515524D01*
X117965163Y-33420286D01*
X117965163Y-33182191D01*
X118012782Y-33086953D01*
X118060401Y-33039334D01*
X118155639Y-32991715D01*
X118346116Y-32991715D01*
X118441354Y-33039334D01*
X118488973Y-33086953D01*
X118536592Y-33182191D01*
X119119375Y-34277397D02*
X119071756Y-34229778D01*
X118976518Y-34182158D01*
X118738423Y-34182158D01*
X118643185Y-34229778D01*
X118595566Y-34277397D01*
X118547947Y-34372635D01*
X118547947Y-34467873D01*
X118595566Y-34610730D01*
X119166994Y-35182158D01*
X118547947Y-35182158D01*
X117928899Y-34182158D02*
X117833661Y-34182158D01*
X117738423Y-34229778D01*
X117690804Y-34277397D01*
X117643185Y-34372635D01*
X117595566Y-34563111D01*
X117595566Y-34801206D01*
X117643185Y-34991682D01*
X117690804Y-35086920D01*
X117738423Y-35134539D01*
X117833661Y-35182158D01*
X117928899Y-35182158D01*
X118024137Y-35134539D01*
X118071756Y-35086920D01*
X118119375Y-34991682D01*
X118166994Y-34801206D01*
X118166994Y-34563111D01*
X118119375Y-34372635D01*
X118071756Y-34277397D01*
X118024137Y-34229778D01*
X117928899Y-34182158D01*
X117166994Y-35182158D02*
X117166994Y-34182158D01*
X117071756Y-34801206D02*
X116786042Y-35182158D01*
X116786042Y-34515492D02*
X117166994Y-34896444D01*
%TO.C,R19*%
X99164272Y-47553521D02*
X99497605Y-47077331D01*
X99735700Y-47553521D02*
X99735700Y-46553521D01*
X99354748Y-46553521D01*
X99259510Y-46601141D01*
X99211891Y-46648760D01*
X99164272Y-46743998D01*
X99164272Y-46886855D01*
X99211891Y-46982093D01*
X99259510Y-47029712D01*
X99354748Y-47077331D01*
X99735700Y-47077331D01*
X98211891Y-47553521D02*
X98783319Y-47553521D01*
X98497605Y-47553521D02*
X98497605Y-46553521D01*
X98592843Y-46696379D01*
X98688081Y-46791617D01*
X98783319Y-46839236D01*
X97735700Y-47553521D02*
X97545224Y-47553521D01*
X97449986Y-47505902D01*
X97402367Y-47458283D01*
X97307129Y-47315426D01*
X97259510Y-47124950D01*
X97259510Y-46743998D01*
X97307129Y-46648760D01*
X97354748Y-46601141D01*
X97449986Y-46553521D01*
X97640462Y-46553521D01*
X97735700Y-46601141D01*
X97783319Y-46648760D01*
X97830938Y-46743998D01*
X97830938Y-46982093D01*
X97783319Y-47077331D01*
X97735700Y-47124950D01*
X97640462Y-47172569D01*
X97449986Y-47172569D01*
X97354748Y-47124950D01*
X97307129Y-47077331D01*
X97259510Y-46982093D01*
X105172112Y-46600978D02*
X105124493Y-46553359D01*
X105029255Y-46505739D01*
X104791160Y-46505739D01*
X104695922Y-46553359D01*
X104648303Y-46600978D01*
X104600684Y-46696216D01*
X104600684Y-46791454D01*
X104648303Y-46934311D01*
X105219731Y-47505739D01*
X104600684Y-47505739D01*
X104172112Y-47505739D02*
X104172112Y-46505739D01*
X103838779Y-47220025D01*
X103505446Y-46505739D01*
X103505446Y-47505739D01*
%TO.C,IC1*%
X93282832Y-25025214D02*
X93282832Y-24025214D01*
X92235213Y-24929976D02*
X92282832Y-24977595D01*
X92425689Y-25025214D01*
X92520927Y-25025214D01*
X92663784Y-24977595D01*
X92759022Y-24882357D01*
X92806642Y-24787119D01*
X92854261Y-24596643D01*
X92854261Y-24453786D01*
X92806642Y-24263310D01*
X92759022Y-24168072D01*
X92663784Y-24072834D01*
X92520927Y-24025214D01*
X92425689Y-24025214D01*
X92282832Y-24072834D01*
X92235213Y-24120453D01*
X91282832Y-25025214D02*
X91854261Y-25025214D01*
X91568546Y-25025214D02*
X91568546Y-24025214D01*
X91663784Y-24168072D01*
X91759022Y-24263310D01*
X91854261Y-24310929D01*
%TO.C,L2*%
X100991945Y-146575989D02*
X101468136Y-146575989D01*
X101468136Y-145575989D01*
X100706231Y-145671228D02*
X100658612Y-145623609D01*
X100563374Y-145575989D01*
X100325279Y-145575989D01*
X100230040Y-145623609D01*
X100182421Y-145671228D01*
X100134802Y-145766466D01*
X100134802Y-145861704D01*
X100182421Y-146004561D01*
X100753850Y-146575989D01*
X100134802Y-146575989D01*
%TO.C,R7*%
X75916516Y-35008990D02*
X76249850Y-34532800D01*
X76487945Y-35008990D02*
X76487945Y-34008990D01*
X76106992Y-34008990D01*
X76011754Y-34056610D01*
X75964135Y-34104229D01*
X75916516Y-34199467D01*
X75916516Y-34342324D01*
X75964135Y-34437562D01*
X76011754Y-34485181D01*
X76106992Y-34532800D01*
X76487945Y-34532800D01*
X75583183Y-34008990D02*
X74916516Y-34008990D01*
X75345088Y-35008990D01*
X79282275Y-35053025D02*
X79853704Y-35053025D01*
X79567990Y-35053025D02*
X79567990Y-34053025D01*
X79663228Y-34195883D01*
X79758466Y-34291121D01*
X79853704Y-34338740D01*
X78853704Y-35053025D02*
X78853704Y-34053025D01*
X78282275Y-35053025D02*
X78710847Y-34481597D01*
X78282275Y-34053025D02*
X78853704Y-34624454D01*
%TO.C,R20*%
X107608706Y-43559560D02*
X107942039Y-43083370D01*
X108180134Y-43559560D02*
X108180134Y-42559560D01*
X107799182Y-42559560D01*
X107703944Y-42607180D01*
X107656325Y-42654799D01*
X107608706Y-42750037D01*
X107608706Y-42892894D01*
X107656325Y-42988132D01*
X107703944Y-43035751D01*
X107799182Y-43083370D01*
X108180134Y-43083370D01*
X107227753Y-42654799D02*
X107180134Y-42607180D01*
X107084896Y-42559560D01*
X106846801Y-42559560D01*
X106751563Y-42607180D01*
X106703944Y-42654799D01*
X106656325Y-42750037D01*
X106656325Y-42845275D01*
X106703944Y-42988132D01*
X107275372Y-43559560D01*
X106656325Y-43559560D01*
X106037277Y-42559560D02*
X105942039Y-42559560D01*
X105846801Y-42607180D01*
X105799182Y-42654799D01*
X105751563Y-42750037D01*
X105703944Y-42940513D01*
X105703944Y-43178608D01*
X105751563Y-43369084D01*
X105799182Y-43464322D01*
X105846801Y-43511941D01*
X105942039Y-43559560D01*
X106037277Y-43559560D01*
X106132515Y-43511941D01*
X106180134Y-43464322D01*
X106227753Y-43369084D01*
X106275372Y-43178608D01*
X106275372Y-42940513D01*
X106227753Y-42750037D01*
X106180134Y-42654799D01*
X106132515Y-42607180D01*
X106037277Y-42559560D01*
X104409557Y-43551788D02*
X104980985Y-43551788D01*
X104695271Y-43551788D02*
X104695271Y-42551788D01*
X104790509Y-42694646D01*
X104885747Y-42789884D01*
X104980985Y-42837503D01*
X103980985Y-43551788D02*
X103980985Y-42551788D01*
X103647652Y-43266074D01*
X103314319Y-42551788D01*
X103314319Y-43551788D01*
%TO.C,J2*%
X72030219Y-53539317D02*
X72744505Y-53539317D01*
X72887362Y-53491698D01*
X72982600Y-53396460D01*
X73030219Y-53253603D01*
X73030219Y-53158365D01*
X72125458Y-53967889D02*
X72077839Y-54015508D01*
X72030219Y-54110746D01*
X72030219Y-54348841D01*
X72077839Y-54444079D01*
X72125458Y-54491698D01*
X72220696Y-54539317D01*
X72315934Y-54539317D01*
X72458791Y-54491698D01*
X73030219Y-53920270D01*
X73030219Y-54539317D01*
X87092362Y-57225031D02*
X87425696Y-56748841D01*
X87663791Y-57225031D02*
X87663791Y-56225031D01*
X87282839Y-56225031D01*
X87187600Y-56272651D01*
X87139981Y-56320270D01*
X87092362Y-56415508D01*
X87092362Y-56558365D01*
X87139981Y-56653603D01*
X87187600Y-56701222D01*
X87282839Y-56748841D01*
X87663791Y-56748841D01*
X86330458Y-56701222D02*
X86663791Y-56701222D01*
X86663791Y-57225031D02*
X86663791Y-56225031D01*
X86187600Y-56225031D01*
X85806648Y-57225031D02*
X85806648Y-56225031D01*
X85330458Y-57225031D02*
X85330458Y-56225031D01*
X85092362Y-56225031D01*
X84949505Y-56272651D01*
X84854267Y-56367889D01*
X84806648Y-56463127D01*
X84759029Y-56653603D01*
X84759029Y-56796460D01*
X84806648Y-56986936D01*
X84854267Y-57082174D01*
X84949505Y-57177412D01*
X85092362Y-57225031D01*
X85330458Y-57225031D01*
X82997124Y-57225031D02*
X83330458Y-56748841D01*
X83568553Y-57225031D02*
X83568553Y-56225031D01*
X83187600Y-56225031D01*
X83092362Y-56272651D01*
X83044743Y-56320270D01*
X82997124Y-56415508D01*
X82997124Y-56558365D01*
X83044743Y-56653603D01*
X83092362Y-56701222D01*
X83187600Y-56748841D01*
X83568553Y-56748841D01*
X82187600Y-57177412D02*
X82282839Y-57225031D01*
X82473315Y-57225031D01*
X82568553Y-57177412D01*
X82616172Y-57082174D01*
X82616172Y-56701222D01*
X82568553Y-56605984D01*
X82473315Y-56558365D01*
X82282839Y-56558365D01*
X82187600Y-56605984D01*
X82139981Y-56701222D01*
X82139981Y-56796460D01*
X82616172Y-56891698D01*
X81282839Y-57225031D02*
X81282839Y-56701222D01*
X81330458Y-56605984D01*
X81425696Y-56558365D01*
X81616172Y-56558365D01*
X81711410Y-56605984D01*
X81282839Y-57177412D02*
X81378077Y-57225031D01*
X81616172Y-57225031D01*
X81711410Y-57177412D01*
X81759029Y-57082174D01*
X81759029Y-56986936D01*
X81711410Y-56891698D01*
X81616172Y-56844079D01*
X81378077Y-56844079D01*
X81282839Y-56796460D01*
X80378077Y-57225031D02*
X80378077Y-56225031D01*
X80378077Y-57177412D02*
X80473315Y-57225031D01*
X80663791Y-57225031D01*
X80759029Y-57177412D01*
X80806648Y-57129793D01*
X80854267Y-57034555D01*
X80854267Y-56748841D01*
X80806648Y-56653603D01*
X80759029Y-56605984D01*
X80663791Y-56558365D01*
X80473315Y-56558365D01*
X80378077Y-56605984D01*
X79520934Y-57177412D02*
X79616172Y-57225031D01*
X79806648Y-57225031D01*
X79901886Y-57177412D01*
X79949505Y-57082174D01*
X79949505Y-56701222D01*
X79901886Y-56605984D01*
X79806648Y-56558365D01*
X79616172Y-56558365D01*
X79520934Y-56605984D01*
X79473315Y-56701222D01*
X79473315Y-56796460D01*
X79949505Y-56891698D01*
X79044743Y-57225031D02*
X79044743Y-56558365D01*
X79044743Y-56748841D02*
X78997124Y-56653603D01*
X78949505Y-56605984D01*
X78854267Y-56558365D01*
X78759029Y-56558365D01*
%TO.C,R12*%
X110387893Y-32357613D02*
X110721226Y-31881423D01*
X110959321Y-32357613D02*
X110959321Y-31357613D01*
X110578369Y-31357613D01*
X110483131Y-31405233D01*
X110435512Y-31452852D01*
X110387893Y-31548090D01*
X110387893Y-31690947D01*
X110435512Y-31786185D01*
X110483131Y-31833804D01*
X110578369Y-31881423D01*
X110959321Y-31881423D01*
X109435512Y-32357613D02*
X110006940Y-32357613D01*
X109721226Y-32357613D02*
X109721226Y-31357613D01*
X109816464Y-31500471D01*
X109911702Y-31595709D01*
X110006940Y-31643328D01*
X109054559Y-31452852D02*
X109006940Y-31405233D01*
X108911702Y-31357613D01*
X108673607Y-31357613D01*
X108578369Y-31405233D01*
X108530750Y-31452852D01*
X108483131Y-31548090D01*
X108483131Y-31643328D01*
X108530750Y-31786185D01*
X109102178Y-32357613D01*
X108483131Y-32357613D01*
X106895176Y-31110005D02*
X106847557Y-31062386D01*
X106752319Y-31014766D01*
X106514223Y-31014766D01*
X106418985Y-31062386D01*
X106371366Y-31110005D01*
X106323747Y-31205243D01*
X106323747Y-31300481D01*
X106371366Y-31443338D01*
X106942795Y-32014766D01*
X106323747Y-32014766D01*
X105942795Y-31110005D02*
X105895176Y-31062386D01*
X105799938Y-31014766D01*
X105561842Y-31014766D01*
X105466604Y-31062386D01*
X105418985Y-31110005D01*
X105371366Y-31205243D01*
X105371366Y-31300481D01*
X105418985Y-31443338D01*
X105990414Y-32014766D01*
X105371366Y-32014766D01*
X104752319Y-31014766D02*
X104657081Y-31014766D01*
X104561842Y-31062386D01*
X104514223Y-31110005D01*
X104466604Y-31205243D01*
X104418985Y-31395719D01*
X104418985Y-31633814D01*
X104466604Y-31824290D01*
X104514223Y-31919528D01*
X104561842Y-31967147D01*
X104657081Y-32014766D01*
X104752319Y-32014766D01*
X104847557Y-31967147D01*
X104895176Y-31919528D01*
X104942795Y-31824290D01*
X104990414Y-31633814D01*
X104990414Y-31395719D01*
X104942795Y-31205243D01*
X104895176Y-31110005D01*
X104847557Y-31062386D01*
X104752319Y-31014766D01*
X103418985Y-32014766D02*
X103752319Y-31538576D01*
X103990414Y-32014766D02*
X103990414Y-31014766D01*
X103609461Y-31014766D01*
X103514223Y-31062386D01*
X103466604Y-31110005D01*
X103418985Y-31205243D01*
X103418985Y-31348100D01*
X103466604Y-31443338D01*
X103514223Y-31490957D01*
X103609461Y-31538576D01*
X103990414Y-31538576D01*
%TO.C,R17*%
X75961441Y-31990128D02*
X76294774Y-31513938D01*
X76532869Y-31990128D02*
X76532869Y-30990128D01*
X76151917Y-30990128D01*
X76056679Y-31037748D01*
X76009060Y-31085367D01*
X75961441Y-31180605D01*
X75961441Y-31323462D01*
X76009060Y-31418700D01*
X76056679Y-31466319D01*
X76151917Y-31513938D01*
X76532869Y-31513938D01*
X75009060Y-31990128D02*
X75580488Y-31990128D01*
X75294774Y-31990128D02*
X75294774Y-30990128D01*
X75390012Y-31132986D01*
X75485250Y-31228224D01*
X75580488Y-31275843D01*
X74675726Y-30990128D02*
X74009060Y-30990128D01*
X74437631Y-31990128D01*
X79298202Y-32037457D02*
X79869631Y-32037457D01*
X79583917Y-32037457D02*
X79583917Y-31037457D01*
X79679155Y-31180315D01*
X79774393Y-31275553D01*
X79869631Y-31323172D01*
X78869631Y-32037457D02*
X78869631Y-31037457D01*
X78298202Y-32037457D02*
X78726774Y-31466029D01*
X78298202Y-31037457D02*
X78869631Y-31608886D01*
%TO.C,C4*%
X83845290Y-38401918D02*
X83892909Y-38354299D01*
X83940528Y-38211442D01*
X83940528Y-38116204D01*
X83892909Y-37973346D01*
X83797671Y-37878108D01*
X83702433Y-37830489D01*
X83511957Y-37782870D01*
X83369100Y-37782870D01*
X83178624Y-37830489D01*
X83083386Y-37878108D01*
X82988148Y-37973346D01*
X82940528Y-38116204D01*
X82940528Y-38211442D01*
X82988148Y-38354299D01*
X83035767Y-38401918D01*
X83273862Y-39259061D02*
X83940528Y-39259061D01*
X82892909Y-39020965D02*
X83607195Y-38782870D01*
X83607195Y-39401918D01*
%TO.C,R1*%
X107768584Y-35061299D02*
X108101918Y-34585109D01*
X108340013Y-35061299D02*
X108340013Y-34061299D01*
X107959060Y-34061299D01*
X107863822Y-34108919D01*
X107816203Y-34156538D01*
X107768584Y-34251776D01*
X107768584Y-34394633D01*
X107816203Y-34489871D01*
X107863822Y-34537490D01*
X107959060Y-34585109D01*
X108340013Y-34585109D01*
X106816203Y-35061299D02*
X107387632Y-35061299D01*
X107101918Y-35061299D02*
X107101918Y-34061299D01*
X107197156Y-34204157D01*
X107292394Y-34299395D01*
X107387632Y-34347014D01*
X105209492Y-35033715D02*
X105780920Y-35033715D01*
X105495206Y-35033715D02*
X105495206Y-34033715D01*
X105590444Y-34176573D01*
X105685682Y-34271811D01*
X105780920Y-34319430D01*
X104590444Y-34033715D02*
X104495206Y-34033715D01*
X104399968Y-34081335D01*
X104352349Y-34128954D01*
X104304730Y-34224192D01*
X104257111Y-34414668D01*
X104257111Y-34652763D01*
X104304730Y-34843239D01*
X104352349Y-34938477D01*
X104399968Y-34986096D01*
X104495206Y-35033715D01*
X104590444Y-35033715D01*
X104685682Y-34986096D01*
X104733301Y-34938477D01*
X104780920Y-34843239D01*
X104828539Y-34652763D01*
X104828539Y-34414668D01*
X104780920Y-34224192D01*
X104733301Y-34128954D01*
X104685682Y-34081335D01*
X104590444Y-34033715D01*
X103828539Y-35033715D02*
X103828539Y-34033715D01*
X103733301Y-34652763D02*
X103447587Y-35033715D01*
X103447587Y-34367049D02*
X103828539Y-34748001D01*
%TO.C,Q2*%
X123581088Y-42677089D02*
X123676326Y-42629470D01*
X123771564Y-42534231D01*
X123914421Y-42391374D01*
X124009659Y-42343755D01*
X124104897Y-42343755D01*
X124057278Y-42581850D02*
X124152516Y-42534231D01*
X124247754Y-42438993D01*
X124295373Y-42248517D01*
X124295373Y-41915184D01*
X124247754Y-41724708D01*
X124152516Y-41629470D01*
X124057278Y-41581850D01*
X123866802Y-41581850D01*
X123771564Y-41629470D01*
X123676326Y-41724708D01*
X123628707Y-41915184D01*
X123628707Y-42248517D01*
X123676326Y-42438993D01*
X123771564Y-42534231D01*
X123866802Y-42581850D01*
X124057278Y-42581850D01*
X123247754Y-41677089D02*
X123200135Y-41629470D01*
X123104897Y-41581850D01*
X122866802Y-41581850D01*
X122771564Y-41629470D01*
X122723945Y-41677089D01*
X122676326Y-41772327D01*
X122676326Y-41867565D01*
X122723945Y-42010422D01*
X123295373Y-42581850D01*
X122676326Y-42581850D01*
%TO.C,C2*%
X86212711Y-156115788D02*
X86260330Y-156068169D01*
X86307949Y-155925312D01*
X86307949Y-155830074D01*
X86260330Y-155687216D01*
X86165092Y-155591978D01*
X86069854Y-155544359D01*
X85879378Y-155496740D01*
X85736521Y-155496740D01*
X85546045Y-155544359D01*
X85450807Y-155591978D01*
X85355569Y-155687216D01*
X85307949Y-155830074D01*
X85307949Y-155925312D01*
X85355569Y-156068169D01*
X85403188Y-156115788D01*
X85403188Y-156496740D02*
X85355569Y-156544359D01*
X85307949Y-156639597D01*
X85307949Y-156877693D01*
X85355569Y-156972931D01*
X85403188Y-157020550D01*
X85498426Y-157068169D01*
X85593664Y-157068169D01*
X85736521Y-157020550D01*
X86307949Y-156449121D01*
X86307949Y-157068169D01*
X90522658Y-157552158D02*
X91094086Y-157552158D01*
X90808372Y-157552158D02*
X90808372Y-156552158D01*
X90903610Y-156695016D01*
X90998848Y-156790254D01*
X91094086Y-156837873D01*
X89903610Y-156552158D02*
X89808372Y-156552158D01*
X89713134Y-156599778D01*
X89665515Y-156647397D01*
X89617896Y-156742635D01*
X89570277Y-156933111D01*
X89570277Y-157171206D01*
X89617896Y-157361682D01*
X89665515Y-157456920D01*
X89713134Y-157504539D01*
X89808372Y-157552158D01*
X89903610Y-157552158D01*
X89998848Y-157504539D01*
X90046467Y-157456920D01*
X90094086Y-157361682D01*
X90141705Y-157171206D01*
X90141705Y-156933111D01*
X90094086Y-156742635D01*
X90046467Y-156647397D01*
X89998848Y-156599778D01*
X89903610Y-156552158D01*
X88951229Y-156552158D02*
X88855991Y-156552158D01*
X88760753Y-156599778D01*
X88713134Y-156647397D01*
X88665515Y-156742635D01*
X88617896Y-156933111D01*
X88617896Y-157171206D01*
X88665515Y-157361682D01*
X88713134Y-157456920D01*
X88760753Y-157504539D01*
X88855991Y-157552158D01*
X88951229Y-157552158D01*
X89046467Y-157504539D01*
X89094086Y-157456920D01*
X89141705Y-157361682D01*
X89189324Y-157171206D01*
X89189324Y-156933111D01*
X89141705Y-156742635D01*
X89094086Y-156647397D01*
X89046467Y-156599778D01*
X88951229Y-156552158D01*
X88189324Y-156885492D02*
X88189324Y-157885492D01*
X88189324Y-156933111D02*
X88094086Y-156885492D01*
X87903610Y-156885492D01*
X87808372Y-156933111D01*
X87760753Y-156980730D01*
X87713134Y-157075968D01*
X87713134Y-157361682D01*
X87760753Y-157456920D01*
X87808372Y-157504539D01*
X87903610Y-157552158D01*
X88094086Y-157552158D01*
X88189324Y-157504539D01*
X86951229Y-157028349D02*
X87284562Y-157028349D01*
X87284562Y-157552158D02*
X87284562Y-156552158D01*
X86808372Y-156552158D01*
%TO.C,R15*%
X76106098Y-41248147D02*
X76439431Y-40771957D01*
X76677526Y-41248147D02*
X76677526Y-40248147D01*
X76296574Y-40248147D01*
X76201336Y-40295767D01*
X76153717Y-40343386D01*
X76106098Y-40438624D01*
X76106098Y-40581481D01*
X76153717Y-40676719D01*
X76201336Y-40724338D01*
X76296574Y-40771957D01*
X76677526Y-40771957D01*
X75153717Y-41248147D02*
X75725145Y-41248147D01*
X75439431Y-41248147D02*
X75439431Y-40248147D01*
X75534669Y-40391005D01*
X75629907Y-40486243D01*
X75725145Y-40533862D01*
X74248955Y-40248147D02*
X74725145Y-40248147D01*
X74772764Y-40724338D01*
X74725145Y-40676719D01*
X74629907Y-40629100D01*
X74391812Y-40629100D01*
X74296574Y-40676719D01*
X74248955Y-40724338D01*
X74201336Y-40819576D01*
X74201336Y-41057671D01*
X74248955Y-41152909D01*
X74296574Y-41200528D01*
X74391812Y-41248147D01*
X74629907Y-41248147D01*
X74725145Y-41200528D01*
X74772764Y-41152909D01*
X80453259Y-41310219D02*
X81024688Y-41310219D01*
X80738974Y-41310219D02*
X80738974Y-40310219D01*
X80834212Y-40453077D01*
X80929450Y-40548315D01*
X81024688Y-40595934D01*
X80024688Y-41310219D02*
X80024688Y-40310219D01*
X79453259Y-41310219D02*
X79881831Y-40738791D01*
X79453259Y-40310219D02*
X80024688Y-40881648D01*
%TO.C,C9*%
X95747197Y-144670330D02*
X95794816Y-144622711D01*
X95842435Y-144479854D01*
X95842435Y-144384616D01*
X95794816Y-144241758D01*
X95699578Y-144146520D01*
X95604340Y-144098901D01*
X95413864Y-144051282D01*
X95271007Y-144051282D01*
X95080531Y-144098901D01*
X94985293Y-144146520D01*
X94890055Y-144241758D01*
X94842435Y-144384616D01*
X94842435Y-144479854D01*
X94890055Y-144622711D01*
X94937674Y-144670330D01*
X95842435Y-145146520D02*
X95842435Y-145336997D01*
X95794816Y-145432235D01*
X95747197Y-145479854D01*
X95604340Y-145575092D01*
X95413864Y-145622711D01*
X95032912Y-145622711D01*
X94937674Y-145575092D01*
X94890055Y-145527473D01*
X94842435Y-145432235D01*
X94842435Y-145241758D01*
X94890055Y-145146520D01*
X94937674Y-145098901D01*
X95032912Y-145051282D01*
X95271007Y-145051282D01*
X95366245Y-145098901D01*
X95413864Y-145146520D01*
X95461483Y-145241758D01*
X95461483Y-145432235D01*
X95413864Y-145527473D01*
X95366245Y-145575092D01*
X95271007Y-145622711D01*
X96442796Y-148772379D02*
X96395177Y-148819998D01*
X96347557Y-148915237D01*
X96347557Y-149153332D01*
X96395177Y-149248570D01*
X96442796Y-149296189D01*
X96538034Y-149343808D01*
X96633272Y-149343808D01*
X96776129Y-149296189D01*
X97347557Y-148724760D01*
X97347557Y-149343808D01*
X96442796Y-149724760D02*
X96395177Y-149772379D01*
X96347557Y-149867617D01*
X96347557Y-150105713D01*
X96395177Y-150200951D01*
X96442796Y-150248570D01*
X96538034Y-150296189D01*
X96633272Y-150296189D01*
X96776129Y-150248570D01*
X97347557Y-149677141D01*
X97347557Y-150296189D01*
X96680891Y-151153332D02*
X97347557Y-151153332D01*
X96680891Y-150724760D02*
X97204700Y-150724760D01*
X97299938Y-150772379D01*
X97347557Y-150867617D01*
X97347557Y-151010475D01*
X97299938Y-151105713D01*
X97252319Y-151153332D01*
X96823748Y-151962856D02*
X96823748Y-151629522D01*
X97347557Y-151629522D02*
X96347557Y-151629522D01*
X96347557Y-152105713D01*
%TO.C,R11*%
X110388241Y-29426887D02*
X110721574Y-28950697D01*
X110959669Y-29426887D02*
X110959669Y-28426887D01*
X110578717Y-28426887D01*
X110483479Y-28474507D01*
X110435860Y-28522126D01*
X110388241Y-28617364D01*
X110388241Y-28760221D01*
X110435860Y-28855459D01*
X110483479Y-28903078D01*
X110578717Y-28950697D01*
X110959669Y-28950697D01*
X109435860Y-29426887D02*
X110007288Y-29426887D01*
X109721574Y-29426887D02*
X109721574Y-28426887D01*
X109816812Y-28569745D01*
X109912050Y-28664983D01*
X110007288Y-28712602D01*
X108483479Y-29426887D02*
X109054907Y-29426887D01*
X108769193Y-29426887D02*
X108769193Y-28426887D01*
X108864431Y-28569745D01*
X108959669Y-28664983D01*
X109054907Y-28712602D01*
X106364524Y-29419553D02*
X106935953Y-29419553D01*
X106650238Y-29419553D02*
X106650238Y-28419553D01*
X106745477Y-28562411D01*
X106840715Y-28657649D01*
X106935953Y-28705268D01*
X105745477Y-28419553D02*
X105650238Y-28419553D01*
X105555000Y-28467173D01*
X105507381Y-28514792D01*
X105459762Y-28610030D01*
X105412143Y-28800506D01*
X105412143Y-29038601D01*
X105459762Y-29229077D01*
X105507381Y-29324315D01*
X105555000Y-29371934D01*
X105650238Y-29419553D01*
X105745477Y-29419553D01*
X105840715Y-29371934D01*
X105888334Y-29324315D01*
X105935953Y-29229077D01*
X105983572Y-29038601D01*
X105983572Y-28800506D01*
X105935953Y-28610030D01*
X105888334Y-28514792D01*
X105840715Y-28467173D01*
X105745477Y-28419553D01*
X104793096Y-28419553D02*
X104697858Y-28419553D01*
X104602619Y-28467173D01*
X104555000Y-28514792D01*
X104507381Y-28610030D01*
X104459762Y-28800506D01*
X104459762Y-29038601D01*
X104507381Y-29229077D01*
X104555000Y-29324315D01*
X104602619Y-29371934D01*
X104697858Y-29419553D01*
X104793096Y-29419553D01*
X104888334Y-29371934D01*
X104935953Y-29324315D01*
X104983572Y-29229077D01*
X105031191Y-29038601D01*
X105031191Y-28800506D01*
X104983572Y-28610030D01*
X104935953Y-28514792D01*
X104888334Y-28467173D01*
X104793096Y-28419553D01*
X103459762Y-29419553D02*
X103793096Y-28943363D01*
X104031191Y-29419553D02*
X104031191Y-28419553D01*
X103650238Y-28419553D01*
X103555000Y-28467173D01*
X103507381Y-28514792D01*
X103459762Y-28610030D01*
X103459762Y-28752887D01*
X103507381Y-28848125D01*
X103555000Y-28895744D01*
X103650238Y-28943363D01*
X104031191Y-28943363D01*
%TO.C,R13*%
X109839789Y-41581486D02*
X110173122Y-41105296D01*
X110411217Y-41581486D02*
X110411217Y-40581486D01*
X110030265Y-40581486D01*
X109935027Y-40629106D01*
X109887408Y-40676725D01*
X109839789Y-40771963D01*
X109839789Y-40914820D01*
X109887408Y-41010058D01*
X109935027Y-41057677D01*
X110030265Y-41105296D01*
X110411217Y-41105296D01*
X108887408Y-41581486D02*
X109458836Y-41581486D01*
X109173122Y-41581486D02*
X109173122Y-40581486D01*
X109268360Y-40724344D01*
X109363598Y-40819582D01*
X109458836Y-40867201D01*
X108554074Y-40581486D02*
X107935027Y-40581486D01*
X108268360Y-40962439D01*
X108125503Y-40962439D01*
X108030265Y-41010058D01*
X107982646Y-41057677D01*
X107935027Y-41152915D01*
X107935027Y-41391010D01*
X107982646Y-41486248D01*
X108030265Y-41533867D01*
X108125503Y-41581486D01*
X108411217Y-41581486D01*
X108506455Y-41533867D01*
X108554074Y-41486248D01*
X106747230Y-41036600D02*
X106699611Y-40988981D01*
X106604373Y-40941361D01*
X106366277Y-40941361D01*
X106271039Y-40988981D01*
X106223420Y-41036600D01*
X106175801Y-41131838D01*
X106175801Y-41227076D01*
X106223420Y-41369933D01*
X106794849Y-41941361D01*
X106175801Y-41941361D01*
X105794849Y-41036600D02*
X105747230Y-40988981D01*
X105651992Y-40941361D01*
X105413896Y-40941361D01*
X105318658Y-40988981D01*
X105271039Y-41036600D01*
X105223420Y-41131838D01*
X105223420Y-41227076D01*
X105271039Y-41369933D01*
X105842468Y-41941361D01*
X105223420Y-41941361D01*
X104604373Y-40941361D02*
X104509135Y-40941361D01*
X104413896Y-40988981D01*
X104366277Y-41036600D01*
X104318658Y-41131838D01*
X104271039Y-41322314D01*
X104271039Y-41560409D01*
X104318658Y-41750885D01*
X104366277Y-41846123D01*
X104413896Y-41893742D01*
X104509135Y-41941361D01*
X104604373Y-41941361D01*
X104699611Y-41893742D01*
X104747230Y-41846123D01*
X104794849Y-41750885D01*
X104842468Y-41560409D01*
X104842468Y-41322314D01*
X104794849Y-41131838D01*
X104747230Y-41036600D01*
X104699611Y-40988981D01*
X104604373Y-40941361D01*
X103271039Y-41941361D02*
X103604373Y-41465171D01*
X103842468Y-41941361D02*
X103842468Y-40941361D01*
X103461515Y-40941361D01*
X103366277Y-40988981D01*
X103318658Y-41036600D01*
X103271039Y-41131838D01*
X103271039Y-41274695D01*
X103318658Y-41369933D01*
X103366277Y-41417552D01*
X103461515Y-41465171D01*
X103842468Y-41465171D01*
%TO.C,R5*%
X74907671Y-153716562D02*
X74431481Y-153383229D01*
X74907671Y-153145133D02*
X73907671Y-153145133D01*
X73907671Y-153526086D01*
X73955291Y-153621324D01*
X74002910Y-153668943D01*
X74098148Y-153716562D01*
X74241005Y-153716562D01*
X74336243Y-153668943D01*
X74383862Y-153621324D01*
X74431481Y-153526086D01*
X74431481Y-153145133D01*
X73907671Y-154621324D02*
X73907671Y-154145133D01*
X74383862Y-154097514D01*
X74336243Y-154145133D01*
X74288624Y-154240371D01*
X74288624Y-154478467D01*
X74336243Y-154573705D01*
X74383862Y-154621324D01*
X74479100Y-154668943D01*
X74717195Y-154668943D01*
X74812433Y-154621324D01*
X74860052Y-154573705D01*
X74907671Y-154478467D01*
X74907671Y-154240371D01*
X74860052Y-154145133D01*
X74812433Y-154097514D01*
X74871834Y-146884622D02*
X74871834Y-146313193D01*
X74871834Y-146598908D02*
X73871834Y-146598908D01*
X74014692Y-146503670D01*
X74109930Y-146408431D01*
X74157549Y-146313193D01*
X73871834Y-147789384D02*
X73871834Y-147313193D01*
X74348025Y-147265574D01*
X74300406Y-147313193D01*
X74252787Y-147408431D01*
X74252787Y-147646527D01*
X74300406Y-147741765D01*
X74348025Y-147789384D01*
X74443263Y-147837003D01*
X74681358Y-147837003D01*
X74776596Y-147789384D01*
X74824215Y-147741765D01*
X74871834Y-147646527D01*
X74871834Y-147408431D01*
X74824215Y-147313193D01*
X74776596Y-147265574D01*
X73871834Y-148456051D02*
X73871834Y-148551289D01*
X73919454Y-148646527D01*
X73967073Y-148694146D01*
X74062311Y-148741765D01*
X74252787Y-148789384D01*
X74490882Y-148789384D01*
X74681358Y-148741765D01*
X74776596Y-148694146D01*
X74824215Y-148646527D01*
X74871834Y-148551289D01*
X74871834Y-148456051D01*
X74824215Y-148360812D01*
X74776596Y-148313193D01*
X74681358Y-148265574D01*
X74490882Y-148217955D01*
X74252787Y-148217955D01*
X74062311Y-148265574D01*
X73967073Y-148313193D01*
X73919454Y-148360812D01*
X73871834Y-148456051D01*
X74871834Y-149217955D02*
X73871834Y-149217955D01*
X74490882Y-149313193D02*
X74871834Y-149598908D01*
X74205168Y-149598908D02*
X74586120Y-149217955D01*
%TO.C,R16*%
X76013193Y-30403068D02*
X76346526Y-29926878D01*
X76584621Y-30403068D02*
X76584621Y-29403068D01*
X76203669Y-29403068D01*
X76108431Y-29450688D01*
X76060812Y-29498307D01*
X76013193Y-29593545D01*
X76013193Y-29736402D01*
X76060812Y-29831640D01*
X76108431Y-29879259D01*
X76203669Y-29926878D01*
X76584621Y-29926878D01*
X75060812Y-30403068D02*
X75632240Y-30403068D01*
X75346526Y-30403068D02*
X75346526Y-29403068D01*
X75441764Y-29545926D01*
X75537002Y-29641164D01*
X75632240Y-29688783D01*
X74203669Y-29403068D02*
X74394145Y-29403068D01*
X74489383Y-29450688D01*
X74537002Y-29498307D01*
X74632240Y-29641164D01*
X74679859Y-29831640D01*
X74679859Y-30212592D01*
X74632240Y-30307830D01*
X74584621Y-30355449D01*
X74489383Y-30403068D01*
X74298907Y-30403068D01*
X74203669Y-30355449D01*
X74156050Y-30307830D01*
X74108431Y-30212592D01*
X74108431Y-29974497D01*
X74156050Y-29879259D01*
X74203669Y-29831640D01*
X74298907Y-29784021D01*
X74489383Y-29784021D01*
X74584621Y-29831640D01*
X74632240Y-29879259D01*
X74679859Y-29974497D01*
X79287584Y-30434109D02*
X79859013Y-30434109D01*
X79573299Y-30434109D02*
X79573299Y-29434109D01*
X79668537Y-29576967D01*
X79763775Y-29672205D01*
X79859013Y-29719824D01*
X78859013Y-30434109D02*
X78859013Y-29434109D01*
X78287584Y-30434109D02*
X78716156Y-29862681D01*
X78287584Y-29434109D02*
X78859013Y-30005538D01*
%TO.C,C8*%
X105176223Y-153100364D02*
X105223842Y-153052745D01*
X105271461Y-152909888D01*
X105271461Y-152814650D01*
X105223842Y-152671792D01*
X105128604Y-152576554D01*
X105033366Y-152528935D01*
X104842890Y-152481316D01*
X104700033Y-152481316D01*
X104509557Y-152528935D01*
X104414319Y-152576554D01*
X104319081Y-152671792D01*
X104271461Y-152814650D01*
X104271461Y-152909888D01*
X104319081Y-153052745D01*
X104366700Y-153100364D01*
X104700033Y-153671792D02*
X104652414Y-153576554D01*
X104604795Y-153528935D01*
X104509557Y-153481316D01*
X104461938Y-153481316D01*
X104366700Y-153528935D01*
X104319081Y-153576554D01*
X104271461Y-153671792D01*
X104271461Y-153862269D01*
X104319081Y-153957507D01*
X104366700Y-154005126D01*
X104461938Y-154052745D01*
X104509557Y-154052745D01*
X104604795Y-154005126D01*
X104652414Y-153957507D01*
X104700033Y-153862269D01*
X104700033Y-153671792D01*
X104747652Y-153576554D01*
X104795271Y-153528935D01*
X104890509Y-153481316D01*
X105080985Y-153481316D01*
X105176223Y-153528935D01*
X105223842Y-153576554D01*
X105271461Y-153671792D01*
X105271461Y-153862269D01*
X105223842Y-153957507D01*
X105176223Y-154005126D01*
X105080985Y-154052745D01*
X104890509Y-154052745D01*
X104795271Y-154005126D01*
X104747652Y-153957507D01*
X104700033Y-153862269D01*
%TO.C,R8*%
X75933766Y-33387430D02*
X76267100Y-32911240D01*
X76505195Y-33387430D02*
X76505195Y-32387430D01*
X76124242Y-32387430D01*
X76029004Y-32435050D01*
X75981385Y-32482669D01*
X75933766Y-32577907D01*
X75933766Y-32720764D01*
X75981385Y-32816002D01*
X76029004Y-32863621D01*
X76124242Y-32911240D01*
X76505195Y-32911240D01*
X75362338Y-32816002D02*
X75457576Y-32768383D01*
X75505195Y-32720764D01*
X75552814Y-32625526D01*
X75552814Y-32577907D01*
X75505195Y-32482669D01*
X75457576Y-32435050D01*
X75362338Y-32387430D01*
X75171861Y-32387430D01*
X75076623Y-32435050D01*
X75029004Y-32482669D01*
X74981385Y-32577907D01*
X74981385Y-32625526D01*
X75029004Y-32720764D01*
X75076623Y-32768383D01*
X75171861Y-32816002D01*
X75362338Y-32816002D01*
X75457576Y-32863621D01*
X75505195Y-32911240D01*
X75552814Y-33006478D01*
X75552814Y-33196954D01*
X75505195Y-33292192D01*
X75457576Y-33339811D01*
X75362338Y-33387430D01*
X75171861Y-33387430D01*
X75076623Y-33339811D01*
X75029004Y-33292192D01*
X74981385Y-33196954D01*
X74981385Y-33006478D01*
X75029004Y-32911240D01*
X75076623Y-32863621D01*
X75171861Y-32816002D01*
X80221383Y-33407205D02*
X80792812Y-33407205D01*
X80507097Y-33407205D02*
X80507097Y-32407205D01*
X80602336Y-32550063D01*
X80697574Y-32645301D01*
X80792812Y-32692920D01*
X79602336Y-32407205D02*
X79507097Y-32407205D01*
X79411859Y-32454825D01*
X79364240Y-32502444D01*
X79316621Y-32597682D01*
X79269002Y-32788158D01*
X79269002Y-33026253D01*
X79316621Y-33216729D01*
X79364240Y-33311967D01*
X79411859Y-33359586D01*
X79507097Y-33407205D01*
X79602336Y-33407205D01*
X79697574Y-33359586D01*
X79745193Y-33311967D01*
X79792812Y-33216729D01*
X79840431Y-33026253D01*
X79840431Y-32788158D01*
X79792812Y-32597682D01*
X79745193Y-32502444D01*
X79697574Y-32454825D01*
X79602336Y-32407205D01*
X78649955Y-32407205D02*
X78554717Y-32407205D01*
X78459478Y-32454825D01*
X78411859Y-32502444D01*
X78364240Y-32597682D01*
X78316621Y-32788158D01*
X78316621Y-33026253D01*
X78364240Y-33216729D01*
X78411859Y-33311967D01*
X78459478Y-33359586D01*
X78554717Y-33407205D01*
X78649955Y-33407205D01*
X78745193Y-33359586D01*
X78792812Y-33311967D01*
X78840431Y-33216729D01*
X78888050Y-33026253D01*
X78888050Y-32788158D01*
X78840431Y-32597682D01*
X78792812Y-32502444D01*
X78745193Y-32454825D01*
X78649955Y-32407205D01*
X77316621Y-33407205D02*
X77649955Y-32931015D01*
X77888050Y-33407205D02*
X77888050Y-32407205D01*
X77507097Y-32407205D01*
X77411859Y-32454825D01*
X77364240Y-32502444D01*
X77316621Y-32597682D01*
X77316621Y-32740539D01*
X77364240Y-32835777D01*
X77411859Y-32883396D01*
X77507097Y-32931015D01*
X77888050Y-32931015D01*
%TO.C,R4*%
X76968805Y-36469545D02*
X77302139Y-35993355D01*
X77540234Y-36469545D02*
X77540234Y-35469545D01*
X77159281Y-35469545D01*
X77064043Y-35517165D01*
X77016424Y-35564784D01*
X76968805Y-35660022D01*
X76968805Y-35802879D01*
X77016424Y-35898117D01*
X77064043Y-35945736D01*
X77159281Y-35993355D01*
X77540234Y-35993355D01*
X76111662Y-35802879D02*
X76111662Y-36469545D01*
X76349758Y-35421926D02*
X76587853Y-36136212D01*
X75968805Y-36136212D01*
X80287047Y-36425428D02*
X80858475Y-36425428D01*
X80572761Y-36425428D02*
X80572761Y-35425428D01*
X80667999Y-35568286D01*
X80763237Y-35663524D01*
X80858475Y-35711143D01*
X79667999Y-35425428D02*
X79572761Y-35425428D01*
X79477523Y-35473048D01*
X79429904Y-35520667D01*
X79382285Y-35615905D01*
X79334666Y-35806381D01*
X79334666Y-36044476D01*
X79382285Y-36234952D01*
X79429904Y-36330190D01*
X79477523Y-36377809D01*
X79572761Y-36425428D01*
X79667999Y-36425428D01*
X79763237Y-36377809D01*
X79810856Y-36330190D01*
X79858475Y-36234952D01*
X79906094Y-36044476D01*
X79906094Y-35806381D01*
X79858475Y-35615905D01*
X79810856Y-35520667D01*
X79763237Y-35473048D01*
X79667999Y-35425428D01*
X78906094Y-36425428D02*
X78906094Y-35425428D01*
X78810856Y-36044476D02*
X78525142Y-36425428D01*
X78525142Y-35758762D02*
X78906094Y-36139714D01*
%TO.C,Q1*%
X114460344Y-42677089D02*
X114555582Y-42629470D01*
X114650820Y-42534231D01*
X114793677Y-42391374D01*
X114888915Y-42343755D01*
X114984153Y-42343755D01*
X114936534Y-42581850D02*
X115031772Y-42534231D01*
X115127010Y-42438993D01*
X115174629Y-42248517D01*
X115174629Y-41915184D01*
X115127010Y-41724708D01*
X115031772Y-41629470D01*
X114936534Y-41581850D01*
X114746058Y-41581850D01*
X114650820Y-41629470D01*
X114555582Y-41724708D01*
X114507963Y-41915184D01*
X114507963Y-42248517D01*
X114555582Y-42438993D01*
X114650820Y-42534231D01*
X114746058Y-42581850D01*
X114936534Y-42581850D01*
X113555582Y-42581850D02*
X114127010Y-42581850D01*
X113841296Y-42581850D02*
X113841296Y-41581850D01*
X113936534Y-41724708D01*
X114031772Y-41819946D01*
X114127010Y-41867565D01*
%TO.C,R3*%
X91378139Y-154331931D02*
X90901949Y-153998598D01*
X91378139Y-153760502D02*
X90378139Y-153760502D01*
X90378139Y-154141455D01*
X90425759Y-154236693D01*
X90473378Y-154284312D01*
X90568616Y-154331931D01*
X90711473Y-154331931D01*
X90806711Y-154284312D01*
X90854330Y-154236693D01*
X90901949Y-154141455D01*
X90901949Y-153760502D01*
X90378139Y-154665264D02*
X90378139Y-155284312D01*
X90759092Y-154950978D01*
X90759092Y-155093836D01*
X90806711Y-155189074D01*
X90854330Y-155236693D01*
X90949568Y-155284312D01*
X91187663Y-155284312D01*
X91282901Y-155236693D01*
X91330520Y-155189074D01*
X91378139Y-155093836D01*
X91378139Y-154808121D01*
X91330520Y-154712883D01*
X91282901Y-154665264D01*
X91764310Y-153277023D02*
X91764310Y-153086547D01*
X91811930Y-152991309D01*
X91859549Y-152943690D01*
X92002406Y-152848451D01*
X92192882Y-152800832D01*
X92573834Y-152800832D01*
X92669072Y-152848451D01*
X92716691Y-152896070D01*
X92764310Y-152991309D01*
X92764310Y-153181785D01*
X92716691Y-153277023D01*
X92669072Y-153324642D01*
X92573834Y-153372261D01*
X92335739Y-153372261D01*
X92240501Y-153324642D01*
X92192882Y-153277023D01*
X92145263Y-153181785D01*
X92145263Y-152991309D01*
X92192882Y-152896070D01*
X92240501Y-152848451D01*
X92335739Y-152800832D01*
X92192882Y-153943690D02*
X92145263Y-153848451D01*
X92097644Y-153800832D01*
X92002406Y-153753213D01*
X91954787Y-153753213D01*
X91859549Y-153800832D01*
X91811930Y-153848451D01*
X91764310Y-153943690D01*
X91764310Y-154134166D01*
X91811930Y-154229404D01*
X91859549Y-154277023D01*
X91954787Y-154324642D01*
X92002406Y-154324642D01*
X92097644Y-154277023D01*
X92145263Y-154229404D01*
X92192882Y-154134166D01*
X92192882Y-153943690D01*
X92240501Y-153848451D01*
X92288120Y-153800832D01*
X92383358Y-153753213D01*
X92573834Y-153753213D01*
X92669072Y-153800832D01*
X92716691Y-153848451D01*
X92764310Y-153943690D01*
X92764310Y-154134166D01*
X92716691Y-154229404D01*
X92669072Y-154277023D01*
X92573834Y-154324642D01*
X92383358Y-154324642D01*
X92288120Y-154277023D01*
X92240501Y-154229404D01*
X92192882Y-154134166D01*
X91764310Y-154943690D02*
X91764310Y-155038928D01*
X91811930Y-155134166D01*
X91859549Y-155181785D01*
X91954787Y-155229404D01*
X92145263Y-155277023D01*
X92383358Y-155277023D01*
X92573834Y-155229404D01*
X92669072Y-155181785D01*
X92716691Y-155134166D01*
X92764310Y-155038928D01*
X92764310Y-154943690D01*
X92716691Y-154848451D01*
X92669072Y-154800832D01*
X92573834Y-154753213D01*
X92383358Y-154705594D01*
X92145263Y-154705594D01*
X91954787Y-154753213D01*
X91859549Y-154800832D01*
X91811930Y-154848451D01*
X91764310Y-154943690D01*
X92764310Y-155705594D02*
X91764310Y-155705594D01*
X92383358Y-155800832D02*
X92764310Y-156086547D01*
X92097644Y-156086547D02*
X92478596Y-155705594D01*
%TO.C,C7*%
X102487118Y-154983317D02*
X102534737Y-155030936D01*
X102677594Y-155078555D01*
X102772832Y-155078555D01*
X102915690Y-155030936D01*
X103010928Y-154935698D01*
X103058547Y-154840460D01*
X103106166Y-154649984D01*
X103106166Y-154507127D01*
X103058547Y-154316651D01*
X103010928Y-154221413D01*
X102915690Y-154126175D01*
X102772832Y-154078555D01*
X102677594Y-154078555D01*
X102534737Y-154126175D01*
X102487118Y-154173794D01*
X102153785Y-154078555D02*
X101487118Y-154078555D01*
X101915690Y-155078555D01*
%TO.C,C3*%
X89739266Y-50812413D02*
X89786885Y-50860032D01*
X89929742Y-50907651D01*
X90024980Y-50907651D01*
X90167838Y-50860032D01*
X90263076Y-50764794D01*
X90310695Y-50669556D01*
X90358314Y-50479080D01*
X90358314Y-50336223D01*
X90310695Y-50145747D01*
X90263076Y-50050509D01*
X90167838Y-49955271D01*
X90024980Y-49907651D01*
X89929742Y-49907651D01*
X89786885Y-49955271D01*
X89739266Y-50002890D01*
X89405933Y-49907651D02*
X88786885Y-49907651D01*
X89120219Y-50288604D01*
X88977361Y-50288604D01*
X88882123Y-50336223D01*
X88834504Y-50383842D01*
X88786885Y-50479080D01*
X88786885Y-50717175D01*
X88834504Y-50812413D01*
X88882123Y-50860032D01*
X88977361Y-50907651D01*
X89263076Y-50907651D01*
X89358314Y-50860032D01*
X89405933Y-50812413D01*
X94080896Y-48254338D02*
X94033277Y-48206719D01*
X93938039Y-48159099D01*
X93699943Y-48159099D01*
X93604705Y-48206719D01*
X93557086Y-48254338D01*
X93509467Y-48349576D01*
X93509467Y-48444814D01*
X93557086Y-48587671D01*
X94128515Y-49159099D01*
X93509467Y-49159099D01*
X93128515Y-48254338D02*
X93080896Y-48206719D01*
X92985658Y-48159099D01*
X92747562Y-48159099D01*
X92652324Y-48206719D01*
X92604705Y-48254338D01*
X92557086Y-48349576D01*
X92557086Y-48444814D01*
X92604705Y-48587671D01*
X93176134Y-49159099D01*
X92557086Y-49159099D01*
X91699943Y-48492433D02*
X91699943Y-49159099D01*
X92128515Y-48492433D02*
X92128515Y-49016242D01*
X92080896Y-49111480D01*
X91985658Y-49159099D01*
X91842800Y-49159099D01*
X91747562Y-49111480D01*
X91699943Y-49063861D01*
X90890419Y-48635290D02*
X91223753Y-48635290D01*
X91223753Y-49159099D02*
X91223753Y-48159099D01*
X90747562Y-48159099D01*
%TO.C,F1*%
X70953862Y-151012395D02*
X70953862Y-150679062D01*
X71477671Y-150679062D02*
X70477671Y-150679062D01*
X70477671Y-151155252D01*
X71477671Y-152060014D02*
X71477671Y-151488586D01*
X71477671Y-151774300D02*
X70477671Y-151774300D01*
X70620529Y-151679062D01*
X70715767Y-151583824D01*
X70763386Y-151488586D01*
X72383862Y-146740371D02*
X72383862Y-146407038D01*
X72907671Y-146407038D02*
X71907671Y-146407038D01*
X71907671Y-146883229D01*
X72241005Y-147692752D02*
X72907671Y-147692752D01*
X72241005Y-147264181D02*
X72764814Y-147264181D01*
X72860052Y-147311800D01*
X72907671Y-147407038D01*
X72907671Y-147549895D01*
X72860052Y-147645133D01*
X72812433Y-147692752D01*
X72860052Y-148121324D02*
X72907671Y-148216562D01*
X72907671Y-148407038D01*
X72860052Y-148502276D01*
X72764814Y-148549895D01*
X72717195Y-148549895D01*
X72621957Y-148502276D01*
X72574338Y-148407038D01*
X72574338Y-148264181D01*
X72526719Y-148168943D01*
X72431481Y-148121324D01*
X72383862Y-148121324D01*
X72288624Y-148168943D01*
X72241005Y-148264181D01*
X72241005Y-148407038D01*
X72288624Y-148502276D01*
X72860052Y-149359419D02*
X72907671Y-149264181D01*
X72907671Y-149073705D01*
X72860052Y-148978467D01*
X72764814Y-148930848D01*
X72383862Y-148930848D01*
X72288624Y-148978467D01*
X72241005Y-149073705D01*
X72241005Y-149264181D01*
X72288624Y-149359419D01*
X72383862Y-149407038D01*
X72479100Y-149407038D01*
X72574338Y-148930848D01*
%TO.C,C11*%
X117853565Y-87837134D02*
X117901184Y-87884753D01*
X118044041Y-87932372D01*
X118139279Y-87932372D01*
X118282136Y-87884753D01*
X118377374Y-87789515D01*
X118424993Y-87694277D01*
X118472612Y-87503801D01*
X118472612Y-87360944D01*
X118424993Y-87170468D01*
X118377374Y-87075230D01*
X118282136Y-86979992D01*
X118139279Y-86932372D01*
X118044041Y-86932372D01*
X117901184Y-86979992D01*
X117853565Y-87027611D01*
X116901184Y-87932372D02*
X117472612Y-87932372D01*
X117186898Y-87932372D02*
X117186898Y-86932372D01*
X117282136Y-87075230D01*
X117377374Y-87170468D01*
X117472612Y-87218087D01*
X115948803Y-87932372D02*
X116520231Y-87932372D01*
X116234517Y-87932372D02*
X116234517Y-86932372D01*
X116329755Y-87075230D01*
X116424993Y-87170468D01*
X116520231Y-87218087D01*
X122215325Y-85301678D02*
X122167706Y-85254059D01*
X122072468Y-85206439D01*
X121834372Y-85206439D01*
X121739134Y-85254059D01*
X121691515Y-85301678D01*
X121643896Y-85396916D01*
X121643896Y-85492154D01*
X121691515Y-85635011D01*
X122262944Y-86206439D01*
X121643896Y-86206439D01*
X121262944Y-85301678D02*
X121215325Y-85254059D01*
X121120087Y-85206439D01*
X120881991Y-85206439D01*
X120786753Y-85254059D01*
X120739134Y-85301678D01*
X120691515Y-85396916D01*
X120691515Y-85492154D01*
X120739134Y-85635011D01*
X121310563Y-86206439D01*
X120691515Y-86206439D01*
X119834372Y-85539773D02*
X119834372Y-86206439D01*
X120262944Y-85539773D02*
X120262944Y-86063582D01*
X120215325Y-86158820D01*
X120120087Y-86206439D01*
X119977229Y-86206439D01*
X119881991Y-86158820D01*
X119834372Y-86111201D01*
X119024848Y-85682630D02*
X119358182Y-85682630D01*
X119358182Y-86206439D02*
X119358182Y-85206439D01*
X118881991Y-85206439D01*
%TO.C,J6*%
X54333333Y-27772380D02*
X54333333Y-28486666D01*
X54380952Y-28629523D01*
X54476190Y-28724761D01*
X54619047Y-28772380D01*
X54714285Y-28772380D01*
X53428571Y-27772380D02*
X53619047Y-27772380D01*
X53714285Y-27820000D01*
X53761904Y-27867619D01*
X53857142Y-28010476D01*
X53904761Y-28200952D01*
X53904761Y-28581904D01*
X53857142Y-28677142D01*
X53809523Y-28724761D01*
X53714285Y-28772380D01*
X53523809Y-28772380D01*
X53428571Y-28724761D01*
X53380952Y-28677142D01*
X53333333Y-28581904D01*
X53333333Y-28343809D01*
X53380952Y-28248571D01*
X53428571Y-28200952D01*
X53523809Y-28153333D01*
X53714285Y-28153333D01*
X53809523Y-28200952D01*
X53857142Y-28248571D01*
X53904761Y-28343809D01*
X57023809Y-46132380D02*
X57023809Y-45132380D01*
X56642857Y-45132380D01*
X56547619Y-45180000D01*
X56500000Y-45227619D01*
X56452380Y-45322857D01*
X56452380Y-45465714D01*
X56500000Y-45560952D01*
X56547619Y-45608571D01*
X56642857Y-45656190D01*
X57023809Y-45656190D01*
X56023809Y-46132380D02*
X56023809Y-45132380D01*
X54976190Y-46037142D02*
X55023809Y-46084761D01*
X55166666Y-46132380D01*
X55261904Y-46132380D01*
X55404761Y-46084761D01*
X55500000Y-45989523D01*
X55547619Y-45894285D01*
X55595238Y-45703809D01*
X55595238Y-45560952D01*
X55547619Y-45370476D01*
X55500000Y-45275238D01*
X55404761Y-45180000D01*
X55261904Y-45132380D01*
X55166666Y-45132380D01*
X55023809Y-45180000D01*
X54976190Y-45227619D01*
X53785714Y-46132380D02*
X53785714Y-45132380D01*
X53547619Y-45132380D01*
X53404761Y-45180000D01*
X53309523Y-45275238D01*
X53261904Y-45370476D01*
X53214285Y-45560952D01*
X53214285Y-45703809D01*
X53261904Y-45894285D01*
X53309523Y-45989523D01*
X53404761Y-46084761D01*
X53547619Y-46132380D01*
X53785714Y-46132380D01*
X52785714Y-46132380D02*
X52785714Y-45465714D01*
X52785714Y-45132380D02*
X52833333Y-45180000D01*
X52785714Y-45227619D01*
X52738095Y-45180000D01*
X52785714Y-45132380D01*
X52785714Y-45227619D01*
X51880952Y-46132380D02*
X51880952Y-45608571D01*
X51928571Y-45513333D01*
X52023809Y-45465714D01*
X52214285Y-45465714D01*
X52309523Y-45513333D01*
X51880952Y-46084761D02*
X51976190Y-46132380D01*
X52214285Y-46132380D01*
X52309523Y-46084761D01*
X52357142Y-45989523D01*
X52357142Y-45894285D01*
X52309523Y-45799047D01*
X52214285Y-45751428D01*
X51976190Y-45751428D01*
X51880952Y-45703809D01*
X50976190Y-45465714D02*
X50976190Y-46275238D01*
X51023809Y-46370476D01*
X51071428Y-46418095D01*
X51166666Y-46465714D01*
X51309523Y-46465714D01*
X51404761Y-46418095D01*
X50976190Y-46084761D02*
X51071428Y-46132380D01*
X51261904Y-46132380D01*
X51357142Y-46084761D01*
X51404761Y-46037142D01*
X51452380Y-45941904D01*
X51452380Y-45656190D01*
X51404761Y-45560952D01*
X51357142Y-45513333D01*
X51261904Y-45465714D01*
X51071428Y-45465714D01*
X50976190Y-45513333D01*
%TO.C,R23*%
X113781609Y-33635705D02*
X114114942Y-33159515D01*
X114353037Y-33635705D02*
X114353037Y-32635705D01*
X113972085Y-32635705D01*
X113876847Y-32683325D01*
X113829228Y-32730944D01*
X113781609Y-32826182D01*
X113781609Y-32969039D01*
X113829228Y-33064277D01*
X113876847Y-33111896D01*
X113972085Y-33159515D01*
X114353037Y-33159515D01*
X113400656Y-32730944D02*
X113353037Y-32683325D01*
X113257799Y-32635705D01*
X113019704Y-32635705D01*
X112924466Y-32683325D01*
X112876847Y-32730944D01*
X112829228Y-32826182D01*
X112829228Y-32921420D01*
X112876847Y-33064277D01*
X113448275Y-33635705D01*
X112829228Y-33635705D01*
X112495894Y-32635705D02*
X111876847Y-32635705D01*
X112210180Y-33016658D01*
X112067323Y-33016658D01*
X111972085Y-33064277D01*
X111924466Y-33111896D01*
X111876847Y-33207134D01*
X111876847Y-33445229D01*
X111924466Y-33540467D01*
X111972085Y-33588086D01*
X112067323Y-33635705D01*
X112353037Y-33635705D01*
X112448275Y-33588086D01*
X112495894Y-33540467D01*
X114101718Y-34277397D02*
X114054099Y-34229778D01*
X113958861Y-34182158D01*
X113720766Y-34182158D01*
X113625528Y-34229778D01*
X113577909Y-34277397D01*
X113530290Y-34372635D01*
X113530290Y-34467873D01*
X113577909Y-34610730D01*
X114149337Y-35182158D01*
X113530290Y-35182158D01*
X112911242Y-34182158D02*
X112816004Y-34182158D01*
X112720766Y-34229778D01*
X112673147Y-34277397D01*
X112625528Y-34372635D01*
X112577909Y-34563111D01*
X112577909Y-34801206D01*
X112625528Y-34991682D01*
X112673147Y-35086920D01*
X112720766Y-35134539D01*
X112816004Y-35182158D01*
X112911242Y-35182158D01*
X113006480Y-35134539D01*
X113054099Y-35086920D01*
X113101718Y-34991682D01*
X113149337Y-34801206D01*
X113149337Y-34563111D01*
X113101718Y-34372635D01*
X113054099Y-34277397D01*
X113006480Y-34229778D01*
X112911242Y-34182158D01*
X112149337Y-35182158D02*
X112149337Y-34182158D01*
X112054099Y-34801206D02*
X111768385Y-35182158D01*
X111768385Y-34515492D02*
X112149337Y-34896444D01*
%TO.C,R24*%
X123309752Y-33660648D02*
X123643085Y-33184458D01*
X123881180Y-33660648D02*
X123881180Y-32660648D01*
X123500228Y-32660648D01*
X123404990Y-32708268D01*
X123357371Y-32755887D01*
X123309752Y-32851125D01*
X123309752Y-32993982D01*
X123357371Y-33089220D01*
X123404990Y-33136839D01*
X123500228Y-33184458D01*
X123881180Y-33184458D01*
X122928799Y-32755887D02*
X122881180Y-32708268D01*
X122785942Y-32660648D01*
X122547847Y-32660648D01*
X122452609Y-32708268D01*
X122404990Y-32755887D01*
X122357371Y-32851125D01*
X122357371Y-32946363D01*
X122404990Y-33089220D01*
X122976418Y-33660648D01*
X122357371Y-33660648D01*
X121500228Y-32993982D02*
X121500228Y-33660648D01*
X121738323Y-32613029D02*
X121976418Y-33327315D01*
X121357371Y-33327315D01*
X123439010Y-35157215D02*
X124010439Y-35157215D01*
X123724724Y-35157215D02*
X123724724Y-34157215D01*
X123819962Y-34300073D01*
X123915201Y-34395311D01*
X124010439Y-34442930D01*
X122534248Y-34157215D02*
X123010439Y-34157215D01*
X123058058Y-34633406D01*
X123010439Y-34585787D01*
X122915201Y-34538168D01*
X122677105Y-34538168D01*
X122581867Y-34585787D01*
X122534248Y-34633406D01*
X122486629Y-34728644D01*
X122486629Y-34966739D01*
X122534248Y-35061977D01*
X122581867Y-35109596D01*
X122677105Y-35157215D01*
X122915201Y-35157215D01*
X123010439Y-35109596D01*
X123058058Y-35061977D01*
X121867582Y-34157215D02*
X121772343Y-34157215D01*
X121677105Y-34204835D01*
X121629486Y-34252454D01*
X121581867Y-34347692D01*
X121534248Y-34538168D01*
X121534248Y-34776263D01*
X121581867Y-34966739D01*
X121629486Y-35061977D01*
X121677105Y-35109596D01*
X121772343Y-35157215D01*
X121867582Y-35157215D01*
X121962820Y-35109596D01*
X122010439Y-35061977D01*
X122058058Y-34966739D01*
X122105677Y-34776263D01*
X122105677Y-34538168D01*
X122058058Y-34347692D01*
X122010439Y-34252454D01*
X121962820Y-34204835D01*
X121867582Y-34157215D01*
X121105677Y-35157215D02*
X121105677Y-34157215D01*
X121010439Y-34776263D02*
X120724724Y-35157215D01*
X120724724Y-34490549D02*
X121105677Y-34871501D01*
%TO.C,R22*%
X78892464Y-147719748D02*
X78416274Y-147386415D01*
X78892464Y-147148320D02*
X77892464Y-147148320D01*
X77892464Y-147529272D01*
X77940084Y-147624510D01*
X77987703Y-147672129D01*
X78082941Y-147719748D01*
X78225798Y-147719748D01*
X78321036Y-147672129D01*
X78368655Y-147624510D01*
X78416274Y-147529272D01*
X78416274Y-147148320D01*
X77987703Y-148100701D02*
X77940084Y-148148320D01*
X77892464Y-148243558D01*
X77892464Y-148481653D01*
X77940084Y-148576891D01*
X77987703Y-148624510D01*
X78082941Y-148672129D01*
X78178179Y-148672129D01*
X78321036Y-148624510D01*
X78892464Y-148053082D01*
X78892464Y-148672129D01*
X77987703Y-149053082D02*
X77940084Y-149100701D01*
X77892464Y-149195939D01*
X77892464Y-149434034D01*
X77940084Y-149529272D01*
X77987703Y-149576891D01*
X78082941Y-149624510D01*
X78178179Y-149624510D01*
X78321036Y-149576891D01*
X78892464Y-149005463D01*
X78892464Y-149624510D01*
X77987703Y-153122848D02*
X77940084Y-153170467D01*
X77892464Y-153265705D01*
X77892464Y-153503801D01*
X77940084Y-153599039D01*
X77987703Y-153646658D01*
X78082941Y-153694277D01*
X78178179Y-153694277D01*
X78321036Y-153646658D01*
X78892464Y-153075229D01*
X78892464Y-153694277D01*
X77987703Y-154075229D02*
X77940084Y-154122848D01*
X77892464Y-154218086D01*
X77892464Y-154456182D01*
X77940084Y-154551420D01*
X77987703Y-154599039D01*
X78082941Y-154646658D01*
X78178179Y-154646658D01*
X78321036Y-154599039D01*
X78892464Y-154027610D01*
X78892464Y-154646658D01*
X77892464Y-155265705D02*
X77892464Y-155360944D01*
X77940084Y-155456182D01*
X77987703Y-155503801D01*
X78082941Y-155551420D01*
X78273417Y-155599039D01*
X78511512Y-155599039D01*
X78701988Y-155551420D01*
X78797226Y-155503801D01*
X78844845Y-155456182D01*
X78892464Y-155360944D01*
X78892464Y-155265705D01*
X78844845Y-155170467D01*
X78797226Y-155122848D01*
X78701988Y-155075229D01*
X78511512Y-155027610D01*
X78273417Y-155027610D01*
X78082941Y-155075229D01*
X77987703Y-155122848D01*
X77940084Y-155170467D01*
X77892464Y-155265705D01*
X78892464Y-156027610D02*
X77892464Y-156027610D01*
X78892464Y-156599039D02*
X78321036Y-156170467D01*
X77892464Y-156599039D02*
X78463893Y-156027610D01*
%TO.C,C6*%
X98998664Y-45236425D02*
X99046283Y-45284044D01*
X99189140Y-45331663D01*
X99284378Y-45331663D01*
X99427236Y-45284044D01*
X99522474Y-45188806D01*
X99570093Y-45093568D01*
X99617712Y-44903092D01*
X99617712Y-44760235D01*
X99570093Y-44569759D01*
X99522474Y-44474521D01*
X99427236Y-44379283D01*
X99284378Y-44331663D01*
X99189140Y-44331663D01*
X99046283Y-44379283D01*
X98998664Y-44426902D01*
X98141521Y-44331663D02*
X98331998Y-44331663D01*
X98427236Y-44379283D01*
X98474855Y-44426902D01*
X98570093Y-44569759D01*
X98617712Y-44760235D01*
X98617712Y-45141187D01*
X98570093Y-45236425D01*
X98522474Y-45284044D01*
X98427236Y-45331663D01*
X98236759Y-45331663D01*
X98141521Y-45284044D01*
X98093902Y-45236425D01*
X98046283Y-45141187D01*
X98046283Y-44903092D01*
X98093902Y-44807854D01*
X98141521Y-44760235D01*
X98236759Y-44712616D01*
X98427236Y-44712616D01*
X98522474Y-44760235D01*
X98570093Y-44807854D01*
X98617712Y-44903092D01*
%TO.C,R21*%
X76942255Y-147840088D02*
X76466065Y-147506755D01*
X76942255Y-147268660D02*
X75942255Y-147268660D01*
X75942255Y-147649612D01*
X75989875Y-147744850D01*
X76037494Y-147792469D01*
X76132732Y-147840088D01*
X76275589Y-147840088D01*
X76370827Y-147792469D01*
X76418446Y-147744850D01*
X76466065Y-147649612D01*
X76466065Y-147268660D01*
X76037494Y-148221041D02*
X75989875Y-148268660D01*
X75942255Y-148363898D01*
X75942255Y-148601993D01*
X75989875Y-148697231D01*
X76037494Y-148744850D01*
X76132732Y-148792469D01*
X76227970Y-148792469D01*
X76370827Y-148744850D01*
X76942255Y-148173422D01*
X76942255Y-148792469D01*
X76942255Y-149744850D02*
X76942255Y-149173422D01*
X76942255Y-149459136D02*
X75942255Y-149459136D01*
X76085113Y-149363898D01*
X76180351Y-149268660D01*
X76227970Y-149173422D01*
X76860848Y-153633781D02*
X76860848Y-153062352D01*
X76860848Y-153348067D02*
X75860848Y-153348067D01*
X76003706Y-153252829D01*
X76098944Y-153157590D01*
X76146563Y-153062352D01*
X75860848Y-154538543D02*
X75860848Y-154062352D01*
X76337039Y-154014733D01*
X76289420Y-154062352D01*
X76241801Y-154157590D01*
X76241801Y-154395686D01*
X76289420Y-154490924D01*
X76337039Y-154538543D01*
X76432277Y-154586162D01*
X76670372Y-154586162D01*
X76765610Y-154538543D01*
X76813229Y-154490924D01*
X76860848Y-154395686D01*
X76860848Y-154157590D01*
X76813229Y-154062352D01*
X76765610Y-154014733D01*
X75860848Y-155205210D02*
X75860848Y-155300448D01*
X75908468Y-155395686D01*
X75956087Y-155443305D01*
X76051325Y-155490924D01*
X76241801Y-155538543D01*
X76479896Y-155538543D01*
X76670372Y-155490924D01*
X76765610Y-155443305D01*
X76813229Y-155395686D01*
X76860848Y-155300448D01*
X76860848Y-155205210D01*
X76813229Y-155109971D01*
X76765610Y-155062352D01*
X76670372Y-155014733D01*
X76479896Y-154967114D01*
X76241801Y-154967114D01*
X76051325Y-155014733D01*
X75956087Y-155062352D01*
X75908468Y-155109971D01*
X75860848Y-155205210D01*
X76860848Y-155967114D02*
X75860848Y-155967114D01*
X76479896Y-156062352D02*
X76860848Y-156348067D01*
X76194182Y-156348067D02*
X76575134Y-155967114D01*
%TO.C,R2*%
X136267016Y-40920939D02*
X136600350Y-40444749D01*
X136838445Y-40920939D02*
X136838445Y-39920939D01*
X136457492Y-39920939D01*
X136362254Y-39968559D01*
X136314635Y-40016178D01*
X136267016Y-40111416D01*
X136267016Y-40254273D01*
X136314635Y-40349511D01*
X136362254Y-40397130D01*
X136457492Y-40444749D01*
X136838445Y-40444749D01*
X135886064Y-40016178D02*
X135838445Y-39968559D01*
X135743207Y-39920939D01*
X135505111Y-39920939D01*
X135409873Y-39968559D01*
X135362254Y-40016178D01*
X135314635Y-40111416D01*
X135314635Y-40206654D01*
X135362254Y-40349511D01*
X135933683Y-40920939D01*
X135314635Y-40920939D01*
X131195588Y-40920939D02*
X131767016Y-40920939D01*
X131481302Y-40920939D02*
X131481302Y-39920939D01*
X131576540Y-40063797D01*
X131671778Y-40159035D01*
X131767016Y-40206654D01*
X130576540Y-39920939D02*
X130481302Y-39920939D01*
X130386064Y-39968559D01*
X130338445Y-40016178D01*
X130290826Y-40111416D01*
X130243207Y-40301892D01*
X130243207Y-40539987D01*
X130290826Y-40730463D01*
X130338445Y-40825701D01*
X130386064Y-40873320D01*
X130481302Y-40920939D01*
X130576540Y-40920939D01*
X130671778Y-40873320D01*
X130719397Y-40825701D01*
X130767016Y-40730463D01*
X130814635Y-40539987D01*
X130814635Y-40301892D01*
X130767016Y-40111416D01*
X130719397Y-40016178D01*
X130671778Y-39968559D01*
X130576540Y-39920939D01*
X129814635Y-40920939D02*
X129814635Y-39920939D01*
X129719397Y-40539987D02*
X129433683Y-40920939D01*
X129433683Y-40254273D02*
X129814635Y-40635225D01*
D10*
%TO.C,IC3*%
X80375291Y-147933229D02*
X80375291Y-149433229D01*
%TO.C,IC2*%
X103169755Y-151566157D02*
X103169755Y-150258157D01*
X103169755Y-150258157D02*
X101915755Y-150258157D01*
X101461755Y-150712157D02*
X101461755Y-151566157D01*
X101461755Y-151566157D02*
X103169755Y-151566157D01*
X101915755Y-150258157D02*
X101461755Y-150712157D01*
X101561755Y-150258157D02*
G75*
G03*
X101561755Y-150258157I-100000J0D01*
G01*
%TO.C,L1*%
X87255291Y-145583229D02*
X94655291Y-145583229D01*
X94655291Y-152183229D02*
X87255291Y-152183229D01*
D11*
%TO.C,U1*%
X137893717Y-56443996D02*
X137893717Y-41443996D01*
X125583717Y-56443996D02*
X125583717Y-41443996D01*
X137893717Y-41443996D02*
X125593717Y-41443996D01*
X125593717Y-56443996D02*
X137893717Y-56443996D01*
D13*
%TO.C,C1*%
X84351760Y-144655069D02*
X84874264Y-144655069D01*
X84351760Y-146125069D02*
X84874264Y-146125069D01*
%TO.C,R18*%
X101262742Y-40522500D02*
X101737258Y-40522500D01*
X101262742Y-39477500D02*
X101737258Y-39477500D01*
%TO.C,Q4*%
X120764006Y-39402393D02*
X120764006Y-40052393D01*
X117644006Y-39402393D02*
X117644006Y-37727393D01*
X117644006Y-39402393D02*
X117644006Y-40052393D01*
X120764006Y-39402393D02*
X120764006Y-38752393D01*
%TO.C,J1*%
X46830000Y-31410000D02*
X46830000Y-34970000D01*
X44170000Y-33950000D02*
X44170000Y-37510000D01*
X44170000Y-44110000D02*
X44170000Y-44680000D01*
X46830000Y-36490000D02*
X46830000Y-40050000D01*
X46830000Y-41570000D02*
X46830000Y-44680000D01*
X46830000Y-29320000D02*
X44170000Y-29320000D01*
X44170000Y-29320000D02*
X44170000Y-32430000D01*
X44170000Y-39030000D02*
X44170000Y-42590000D01*
X46830000Y-29320000D02*
X46830000Y-29890000D01*
X46830000Y-29890000D02*
X48350000Y-29890000D01*
X46830000Y-44680000D02*
X44170000Y-44680000D01*
%TO.C,R14*%
X82247660Y-41878935D02*
X82722176Y-41878935D01*
X82247660Y-42923935D02*
X82722176Y-42923935D01*
%TO.C,R6*%
X118904392Y-35741259D02*
X119378908Y-35741259D01*
X118904392Y-36786259D02*
X119378908Y-36786259D01*
%TO.C,R19*%
X101737258Y-46477500D02*
X101262742Y-46477500D01*
X101737258Y-47522500D02*
X101262742Y-47522500D01*
%TO.C,IC1*%
X96166642Y-25412834D02*
X96166642Y-25657834D01*
X92306642Y-43532834D02*
X96166642Y-43532834D01*
X96166642Y-25657834D02*
X97981642Y-25657834D01*
X92306642Y-25412834D02*
X96166642Y-25412834D01*
X92306642Y-25412834D02*
X88446642Y-25412834D01*
X92306642Y-43532834D02*
X88446642Y-43532834D01*
X96166642Y-43532834D02*
X96166642Y-43287834D01*
X88446642Y-43532834D02*
X88446642Y-43287834D01*
X88446642Y-25412834D02*
X88446642Y-25657834D01*
%TO.C,L2*%
X100936112Y-149567151D02*
X101458616Y-149567151D01*
X100936112Y-147347151D02*
X101458616Y-147347151D01*
%TO.C,R7*%
X82732272Y-33977272D02*
X82257756Y-33977272D01*
X82732272Y-35022272D02*
X82257756Y-35022272D01*
%TO.C,R20*%
X101262742Y-42477500D02*
X101737258Y-42477500D01*
X101262742Y-43522500D02*
X101737258Y-43522500D01*
%TO.C,J2*%
X73577839Y-52542651D02*
X73577839Y-53872651D01*
X76177839Y-52542651D02*
X76177839Y-55202651D01*
X76177839Y-55202651D02*
X94017839Y-55202651D01*
X76177839Y-52542651D02*
X94017839Y-52542651D01*
X74907839Y-52542651D02*
X73577839Y-52542651D01*
X94017839Y-52542651D02*
X94017839Y-55202651D01*
%TO.C,R12*%
X101753361Y-32012054D02*
X101278845Y-32012054D01*
X101753361Y-30967054D02*
X101278845Y-30967054D01*
%TO.C,R17*%
X82262742Y-30977500D02*
X82737258Y-30977500D01*
X82262742Y-32022500D02*
X82737258Y-32022500D01*
%TO.C,C4*%
X85735000Y-38261252D02*
X85735000Y-37738748D01*
X84265000Y-38261252D02*
X84265000Y-37738748D01*
%TO.C,R1*%
X101376996Y-34058835D02*
X101851512Y-34058835D01*
X101376996Y-35103835D02*
X101851512Y-35103835D01*
%TO.C,Q2*%
X122050564Y-39402393D02*
X122050564Y-37727393D01*
X125170564Y-39402393D02*
X125170564Y-38752393D01*
X125170564Y-39402393D02*
X125170564Y-40052393D01*
X122050564Y-39402393D02*
X122050564Y-40052393D01*
%TO.C,C2*%
X88190291Y-154121977D02*
X88190291Y-154644481D01*
X86720291Y-154121977D02*
X86720291Y-154644481D01*
%TO.C,R15*%
X82293994Y-41225005D02*
X82768510Y-41225005D01*
X82293994Y-40180005D02*
X82768510Y-40180005D01*
%TO.C,C9*%
X97289731Y-147057010D02*
X97289731Y-146534506D01*
X95819731Y-147057010D02*
X95819731Y-146534506D01*
%TO.C,R11*%
X101332010Y-28545977D02*
X101806526Y-28545977D01*
X101332010Y-29590977D02*
X101806526Y-29590977D01*
%TO.C,R13*%
X101746369Y-42035372D02*
X101271853Y-42035372D01*
X101746369Y-40990372D02*
X101271853Y-40990372D01*
%TO.C,R5*%
X74977791Y-151145971D02*
X74977791Y-151620487D01*
X73932791Y-151145971D02*
X73932791Y-151620487D01*
%TO.C,R16*%
X82262742Y-29477500D02*
X82737258Y-29477500D01*
X82262742Y-30522500D02*
X82737258Y-30522500D01*
%TO.C,C8*%
X105221407Y-149950619D02*
X105221407Y-150473123D01*
X103751407Y-149950619D02*
X103751407Y-150473123D01*
%TO.C,R8*%
X82265719Y-33509179D02*
X82740235Y-33509179D01*
X82265719Y-32464179D02*
X82740235Y-32464179D01*
%TO.C,R4*%
X82262742Y-36522500D02*
X82737258Y-36522500D01*
X82262742Y-35477500D02*
X82737258Y-35477500D01*
%TO.C,Q1*%
X112771849Y-39352507D02*
X112771849Y-40002507D01*
X112771849Y-39352507D02*
X112771849Y-37677507D01*
X115891849Y-39352507D02*
X115891849Y-38702507D01*
X115891849Y-39352507D02*
X115891849Y-40002507D01*
%TO.C,R3*%
X88932791Y-154145971D02*
X88932791Y-154620487D01*
X89977791Y-154145971D02*
X89977791Y-154620487D01*
%TO.C,C7*%
X102060547Y-153650056D02*
X102583051Y-153650056D01*
X102060547Y-152180056D02*
X102583051Y-152180056D01*
%TO.C,C3*%
X92176787Y-51121719D02*
X92699291Y-51121719D01*
X92176787Y-49651719D02*
X92699291Y-49651719D01*
%TO.C,F1*%
X72965291Y-151182950D02*
X72965291Y-151508508D01*
X71945291Y-151182950D02*
X71945291Y-151508508D01*
%TO.C,C11*%
X120311216Y-86699059D02*
X120833720Y-86699059D01*
X120311216Y-88169059D02*
X120833720Y-88169059D01*
%TO.C,J6*%
X55330000Y-31410000D02*
X55330000Y-34970000D01*
X55330000Y-36490000D02*
X55330000Y-40050000D01*
X52670000Y-29320000D02*
X52670000Y-32430000D01*
X55330000Y-29320000D02*
X55330000Y-29890000D01*
X55330000Y-29890000D02*
X56850000Y-29890000D01*
X52670000Y-33950000D02*
X52670000Y-37510000D01*
X55330000Y-44680000D02*
X52670000Y-44680000D01*
X52670000Y-39030000D02*
X52670000Y-42590000D01*
X55330000Y-41570000D02*
X55330000Y-44680000D01*
X52670000Y-44110000D02*
X52670000Y-44680000D01*
X55330000Y-29320000D02*
X52670000Y-29320000D01*
%TO.C,R23*%
X114069965Y-35677037D02*
X114544481Y-35677037D01*
X114069965Y-36722037D02*
X114544481Y-36722037D01*
%TO.C,R24*%
X123356960Y-36773820D02*
X123831476Y-36773820D01*
X123356960Y-35728820D02*
X123831476Y-35728820D01*
%TO.C,R22*%
X78977791Y-151620487D02*
X78977791Y-151145971D01*
X77932791Y-151620487D02*
X77932791Y-151145971D01*
%TO.C,C6*%
X101238748Y-44265000D02*
X101761252Y-44265000D01*
X101238748Y-45735000D02*
X101761252Y-45735000D01*
%TO.C,R21*%
X75932791Y-151620487D02*
X75932791Y-151145971D01*
X76977791Y-151620487D02*
X76977791Y-151145971D01*
%TO.C,R2*%
X133363092Y-40991059D02*
X133837608Y-40991059D01*
X133363092Y-39946059D02*
X133837608Y-39946059D01*
%TD*%
%LPC*%
D14*
%TO.C,IC3*%
X81050291Y-148683229D03*
X82320291Y-148683229D03*
X83590291Y-148683229D03*
X84860291Y-148683229D03*
X84860291Y-154083229D03*
X83590291Y-154083229D03*
X82320291Y-154083229D03*
X81050291Y-154083229D03*
D15*
X82955291Y-151383229D03*
%TD*%
D16*
%TO.C,IC2*%
X101915755Y-150712157D03*
X101915755Y-151112157D03*
X102315755Y-150712157D03*
X102315755Y-151112157D03*
X102715755Y-150712157D03*
X102715755Y-151112157D03*
%TD*%
D17*
%TO.C,BT2*%
X63050000Y-36000000D03*
X135950000Y-36000000D03*
%TD*%
D18*
%TO.C,J7*%
X132310547Y-76209849D03*
D19*
X134310547Y-76209849D03*
X136310547Y-76209849D03*
%TD*%
D20*
%TO.C,SW2*%
X127018655Y-148062279D03*
X127018655Y-154562279D03*
%TD*%
D21*
%TO.C,H3*%
X113361260Y-51094373D03*
%TD*%
D22*
%TO.C,H1*%
X70000000Y-45000000D03*
%TD*%
D23*
%TO.C,SW3*%
X136095000Y-148575000D03*
X136095000Y-132575000D03*
X136095000Y-139775000D03*
%TD*%
D24*
%TO.C,BT4*%
X52695980Y-54342500D03*
X52695980Y-127242500D03*
%TD*%
D20*
%TO.C,SW1*%
X75500000Y-124000000D03*
X69000000Y-124000000D03*
%TD*%
D25*
%TO.C,J4*%
X114810685Y-105338400D03*
D26*
X114810685Y-107338400D03*
%TD*%
D27*
%TO.C,U3*%
X119639919Y-90949918D03*
D28*
X119639919Y-93489918D03*
X119639919Y-96029918D03*
X119639919Y-98569918D03*
X119639919Y-101109918D03*
X119639919Y-103649918D03*
X119639919Y-106189918D03*
X119639919Y-108729918D03*
X137673919Y-108729918D03*
X137673919Y-106189918D03*
X137673919Y-103649918D03*
X137673919Y-101109918D03*
X137673919Y-98569918D03*
X137673919Y-96029918D03*
X137673919Y-93489918D03*
X137673919Y-90949918D03*
%TD*%
D29*
%TO.C,C5*%
X132395653Y-59736399D03*
D30*
X136195653Y-59736399D03*
%TD*%
D29*
%TO.C,C10*%
X126589380Y-84852481D03*
D30*
X130389380Y-84852481D03*
%TD*%
D18*
%TO.C,J3*%
X132235718Y-68165801D03*
D19*
X134235718Y-68165801D03*
X136235718Y-68165801D03*
%TD*%
D20*
%TO.C,SW4*%
X141383443Y-137414212D03*
X141383443Y-147714212D03*
X141383443Y-142564212D03*
%TD*%
D31*
%TO.C,J8*%
X70310685Y-131645667D03*
D19*
X68310685Y-131645667D03*
%TD*%
D22*
%TO.C,H2*%
X63500000Y-28000000D03*
%TD*%
D17*
%TO.C,BT1*%
X46842500Y-145250000D03*
X119742500Y-145250000D03*
%TD*%
D32*
%TO.C,L1*%
X87955291Y-148883229D03*
X93955291Y-148883229D03*
%TD*%
D33*
%TO.C,U1*%
X137893717Y-46043996D03*
X137893717Y-47543996D03*
X137893717Y-49043996D03*
X137893717Y-50543996D03*
X137893717Y-52043996D03*
X137893717Y-53543996D03*
X137893717Y-55043996D03*
X125593717Y-55043996D03*
X125593717Y-53543996D03*
X125593717Y-52043996D03*
X125593717Y-50543996D03*
X125593717Y-49043996D03*
X125593717Y-47543996D03*
X125593717Y-46043996D03*
X125593717Y-44543996D03*
D34*
X133043717Y-51243996D03*
%TD*%
D35*
%TO.C,C1*%
X83663012Y-145390069D03*
X85563012Y-145390069D03*
%TD*%
D36*
%TO.C,R18*%
X100675000Y-40000000D03*
X102325000Y-40000000D03*
%TD*%
D37*
%TO.C,Q4*%
X118254006Y-38464893D03*
X120154006Y-38464893D03*
X119204006Y-40339893D03*
%TD*%
D38*
%TO.C,J1*%
X47155000Y-30650000D03*
X43845000Y-33190000D03*
X47155000Y-35730000D03*
X43845000Y-38270000D03*
X47155000Y-40810000D03*
X43845000Y-43350000D03*
%TD*%
D36*
%TO.C,R14*%
X81659918Y-42401435D03*
X83309918Y-42401435D03*
%TD*%
%TO.C,R6*%
X118316650Y-36263759D03*
X119966650Y-36263759D03*
%TD*%
D39*
%TO.C,R19*%
X102325000Y-47000000D03*
X100675000Y-47000000D03*
%TD*%
D40*
%TO.C,IC1*%
X96956642Y-26217834D03*
X96956642Y-27487834D03*
X96956642Y-28757834D03*
X96956642Y-30027834D03*
X96956642Y-31297834D03*
X96956642Y-32567834D03*
X96956642Y-33837834D03*
X96956642Y-35107834D03*
X96956642Y-36377834D03*
X96956642Y-37647834D03*
X96956642Y-38917834D03*
X96956642Y-40187834D03*
X96956642Y-41457834D03*
X96956642Y-42727834D03*
X87656642Y-42727834D03*
X87656642Y-41457834D03*
X87656642Y-40187834D03*
X87656642Y-38917834D03*
X87656642Y-37647834D03*
X87656642Y-36377834D03*
X87656642Y-35107834D03*
X87656642Y-33837834D03*
X87656642Y-32567834D03*
X87656642Y-31297834D03*
X87656642Y-30027834D03*
X87656642Y-28757834D03*
X87656642Y-27487834D03*
X87656642Y-26217834D03*
%TD*%
D41*
%TO.C,L2*%
X100122364Y-148457151D03*
X102272364Y-148457151D03*
%TD*%
D39*
%TO.C,R7*%
X83320014Y-34499772D03*
X81670014Y-34499772D03*
%TD*%
D36*
%TO.C,R20*%
X100675000Y-43000000D03*
X102325000Y-43000000D03*
%TD*%
D42*
%TO.C,J2*%
X74907839Y-53872651D03*
D43*
X77447839Y-53872651D03*
X79987839Y-53872651D03*
X82527839Y-53872651D03*
X85067839Y-53872651D03*
X87607839Y-53872651D03*
X90147839Y-53872651D03*
X92687839Y-53872651D03*
%TD*%
D39*
%TO.C,R12*%
X102341103Y-31489554D03*
X100691103Y-31489554D03*
%TD*%
D36*
%TO.C,R17*%
X81675000Y-31500000D03*
X83325000Y-31500000D03*
%TD*%
D44*
%TO.C,C4*%
X85000000Y-38950000D03*
X85000000Y-37050000D03*
%TD*%
D36*
%TO.C,R1*%
X100789254Y-34581335D03*
X102439254Y-34581335D03*
%TD*%
D37*
%TO.C,Q2*%
X122660564Y-38464893D03*
X124560564Y-38464893D03*
X123610564Y-40339893D03*
%TD*%
D45*
%TO.C,C2*%
X87455291Y-153433229D03*
X87455291Y-155333229D03*
%TD*%
D36*
%TO.C,R15*%
X81706252Y-40702505D03*
X83356252Y-40702505D03*
%TD*%
D44*
%TO.C,C9*%
X96554731Y-147745758D03*
X96554731Y-145845758D03*
%TD*%
D36*
%TO.C,R11*%
X100744268Y-29068477D03*
X102394268Y-29068477D03*
%TD*%
D39*
%TO.C,R13*%
X102334111Y-41512872D03*
X100684111Y-41512872D03*
%TD*%
D46*
%TO.C,R5*%
X74455291Y-150558229D03*
X74455291Y-152208229D03*
%TD*%
D36*
%TO.C,R16*%
X81675000Y-30000000D03*
X83325000Y-30000000D03*
%TD*%
D45*
%TO.C,C8*%
X104486407Y-149261871D03*
X104486407Y-151161871D03*
%TD*%
D36*
%TO.C,R8*%
X81677977Y-32986679D03*
X83327977Y-32986679D03*
%TD*%
%TO.C,R4*%
X81675000Y-36000000D03*
X83325000Y-36000000D03*
%TD*%
D37*
%TO.C,Q1*%
X113381849Y-38415007D03*
X115281849Y-38415007D03*
X114331849Y-40290007D03*
%TD*%
D46*
%TO.C,R3*%
X89455291Y-153558229D03*
X89455291Y-155208229D03*
%TD*%
D35*
%TO.C,C7*%
X101371799Y-152915056D03*
X103271799Y-152915056D03*
%TD*%
%TO.C,C3*%
X91488039Y-50386719D03*
X93388039Y-50386719D03*
%TD*%
D47*
%TO.C,F1*%
X72455291Y-150558229D03*
X72455291Y-152133229D03*
%TD*%
D35*
%TO.C,C11*%
X119622468Y-87434059D03*
X121522468Y-87434059D03*
%TD*%
D38*
%TO.C,J6*%
X55655000Y-30650000D03*
X52345000Y-33190000D03*
X55655000Y-35730000D03*
X52345000Y-38270000D03*
X55655000Y-40810000D03*
X52345000Y-43350000D03*
%TD*%
D36*
%TO.C,R23*%
X113482223Y-36199537D03*
X115132223Y-36199537D03*
%TD*%
%TO.C,R24*%
X122769218Y-36251320D03*
X124419218Y-36251320D03*
%TD*%
D48*
%TO.C,R22*%
X78455291Y-152208229D03*
X78455291Y-150558229D03*
%TD*%
D35*
%TO.C,C6*%
X100550000Y-45000000D03*
X102450000Y-45000000D03*
%TD*%
D48*
%TO.C,R21*%
X76455291Y-152208229D03*
X76455291Y-150558229D03*
%TD*%
D36*
%TO.C,R2*%
X132775350Y-40468559D03*
X134425350Y-40468559D03*
%TD*%
M02*
