%TF.GenerationSoftware,KiCad,Pcbnew,(6.0.2)*%
%TF.CreationDate,2022-04-22T14:35:52+01:00*%
%TF.ProjectId,DiscAdventure,44697363-4164-4766-956e-747572652e6b,rev?*%
%TF.SameCoordinates,Original*%
%TF.FileFunction,Soldermask,Bot*%
%TF.FilePolarity,Negative*%
%FSLAX46Y46*%
G04 Gerber Fmt 4.6, Leading zero omitted, Abs format (unit mm)*
G04 Created by KiCad (PCBNEW (6.0.2)) date 2022-04-22 14:35:52*
%MOMM*%
%LPD*%
G01*
G04 APERTURE LIST*
G04 Aperture macros list*
%AMRoundRect*
0 Rectangle with rounded corners*
0 $1 Rounding radius*
0 $2 $3 $4 $5 $6 $7 $8 $9 X,Y pos of 4 corners*
0 Add a 4 corners polygon primitive as box body*
4,1,4,$2,$3,$4,$5,$6,$7,$8,$9,$2,$3,0*
0 Add four circle primitives for the rounded corners*
1,1,$1+$1,$2,$3*
1,1,$1+$1,$4,$5*
1,1,$1+$1,$6,$7*
1,1,$1+$1,$8,$9*
0 Add four rect primitives between the rounded corners*
20,1,$1+$1,$2,$3,$4,$5,0*
20,1,$1+$1,$4,$5,$6,$7,0*
20,1,$1+$1,$6,$7,$8,$9,0*
20,1,$1+$1,$8,$9,$2,$3,0*%
G04 Aperture macros list end*
%ADD10R,0.650000X1.500000*%
%ADD11R,3.350000X2.710000*%
%ADD12C,0.208000*%
%ADD13R,7.340000X6.350000*%
%ADD14RoundRect,0.250000X-0.350000X-0.625000X0.350000X-0.625000X0.350000X0.625000X-0.350000X0.625000X0*%
%ADD15O,1.200000X1.750000*%
%ADD16R,2.000000X2.000000*%
%ADD17C,3.700000*%
%ADD18C,3.200000*%
%ADD19R,5.750000X2.000000*%
%ADD20R,6.350000X7.340000*%
%ADD21O,1.750000X1.200000*%
%ADD22RoundRect,0.250000X0.625000X-0.350000X0.625000X0.350000X-0.625000X0.350000X-0.625000X-0.350000X0*%
%ADD23R,1.308000X1.308000*%
%ADD24C,1.308000*%
%ADD25R,1.600000X1.600000*%
%ADD26C,1.600000*%
%ADD27RoundRect,0.250000X0.350000X0.625000X-0.350000X0.625000X-0.350000X-0.625000X0.350000X-0.625000X0*%
%ADD28R,2.550000X3.200000*%
%ADD29R,2.000000X0.900000*%
%ADD30R,2.500000X2.500000*%
%ADD31RoundRect,0.250000X-0.250000X-0.475000X0.250000X-0.475000X0.250000X0.475000X-0.250000X0.475000X0*%
%ADD32RoundRect,0.200000X-0.200000X-0.275000X0.200000X-0.275000X0.200000X0.275000X-0.200000X0.275000X0*%
%ADD33RoundRect,0.150000X-0.150000X0.587500X-0.150000X-0.587500X0.150000X-0.587500X0.150000X0.587500X0*%
%ADD34R,2.510000X1.000000*%
%ADD35RoundRect,0.200000X0.200000X0.275000X-0.200000X0.275000X-0.200000X-0.275000X0.200000X-0.275000X0*%
%ADD36RoundRect,0.150000X0.875000X0.150000X-0.875000X0.150000X-0.875000X-0.150000X0.875000X-0.150000X0*%
%ADD37RoundRect,0.250000X-0.375000X-0.850000X0.375000X-0.850000X0.375000X0.850000X-0.375000X0.850000X0*%
%ADD38R,1.700000X1.700000*%
%ADD39O,1.700000X1.700000*%
%ADD40RoundRect,0.250000X0.475000X-0.250000X0.475000X0.250000X-0.475000X0.250000X-0.475000X-0.250000X0*%
%ADD41RoundRect,0.250000X-0.475000X0.250000X-0.475000X-0.250000X0.475000X-0.250000X0.475000X0.250000X0*%
%ADD42RoundRect,0.200000X-0.275000X0.200000X-0.275000X-0.200000X0.275000X-0.200000X0.275000X0.200000X0*%
%ADD43RoundRect,0.218750X-0.256250X0.218750X-0.256250X-0.218750X0.256250X-0.218750X0.256250X0.218750X0*%
%ADD44RoundRect,0.200000X0.275000X-0.200000X0.275000X0.200000X-0.275000X0.200000X-0.275000X-0.200000X0*%
G04 APERTURE END LIST*
D10*
%TO.C,IC3*%
X81050291Y-148683229D03*
X82320291Y-148683229D03*
X83590291Y-148683229D03*
X84860291Y-148683229D03*
X84860291Y-154083229D03*
X83590291Y-154083229D03*
X82320291Y-154083229D03*
X81050291Y-154083229D03*
D11*
X82955291Y-151383229D03*
%TD*%
D12*
%TO.C,IC2*%
X101915755Y-150712157D03*
X101915755Y-151112157D03*
X102315755Y-150712157D03*
X102315755Y-151112157D03*
X102715755Y-150712157D03*
X102715755Y-151112157D03*
%TD*%
D13*
%TO.C,BT2*%
X63050000Y-36000000D03*
X135950000Y-36000000D03*
%TD*%
D14*
%TO.C,J7*%
X132310547Y-76209849D03*
D15*
X134310547Y-76209849D03*
X136310547Y-76209849D03*
%TD*%
D16*
%TO.C,SW2*%
X127018655Y-148062279D03*
X127018655Y-154562279D03*
%TD*%
D17*
%TO.C,H3*%
X113361260Y-51094373D03*
%TD*%
D18*
%TO.C,H1*%
X70000000Y-45000000D03*
%TD*%
D19*
%TO.C,SW3*%
X136095000Y-148575000D03*
X136095000Y-132575000D03*
X136095000Y-139775000D03*
%TD*%
D20*
%TO.C,BT4*%
X52695980Y-54342500D03*
X52695980Y-127242500D03*
%TD*%
D16*
%TO.C,SW1*%
X75500000Y-124000000D03*
X69000000Y-124000000D03*
%TD*%
D21*
%TO.C,J4*%
X114810685Y-105338400D03*
D22*
X114810685Y-107338400D03*
%TD*%
D23*
%TO.C,U3*%
X119639919Y-90949918D03*
D24*
X119639919Y-93489918D03*
X119639919Y-96029918D03*
X119639919Y-98569918D03*
X119639919Y-101109918D03*
X119639919Y-103649918D03*
X119639919Y-106189918D03*
X119639919Y-108729918D03*
X137673919Y-108729918D03*
X137673919Y-106189918D03*
X137673919Y-103649918D03*
X137673919Y-101109918D03*
X137673919Y-98569918D03*
X137673919Y-96029918D03*
X137673919Y-93489918D03*
X137673919Y-90949918D03*
%TD*%
D25*
%TO.C,C5*%
X132395653Y-59736399D03*
D26*
X136195653Y-59736399D03*
%TD*%
D25*
%TO.C,C10*%
X126589380Y-84852481D03*
D26*
X130389380Y-84852481D03*
%TD*%
D14*
%TO.C,J3*%
X132235718Y-68165801D03*
D15*
X134235718Y-68165801D03*
X136235718Y-68165801D03*
%TD*%
D16*
%TO.C,SW4*%
X141383443Y-137414212D03*
X141383443Y-147714212D03*
X141383443Y-142564212D03*
%TD*%
D27*
%TO.C,J8*%
X70310685Y-131645667D03*
D15*
X68310685Y-131645667D03*
%TD*%
D18*
%TO.C,H2*%
X63500000Y-28000000D03*
%TD*%
D13*
%TO.C,BT1*%
X46842500Y-145250000D03*
X119742500Y-145250000D03*
%TD*%
D28*
%TO.C,L1*%
X87955291Y-148883229D03*
X93955291Y-148883229D03*
%TD*%
D29*
%TO.C,U1*%
X137893717Y-46043996D03*
X137893717Y-47543996D03*
X137893717Y-49043996D03*
X137893717Y-50543996D03*
X137893717Y-52043996D03*
X137893717Y-53543996D03*
X137893717Y-55043996D03*
X125593717Y-55043996D03*
X125593717Y-53543996D03*
X125593717Y-52043996D03*
X125593717Y-50543996D03*
X125593717Y-49043996D03*
X125593717Y-47543996D03*
X125593717Y-46043996D03*
X125593717Y-44543996D03*
D30*
X133043717Y-51243996D03*
%TD*%
D31*
%TO.C,C1*%
X83663012Y-145390069D03*
X85563012Y-145390069D03*
%TD*%
D32*
%TO.C,R18*%
X100675000Y-40000000D03*
X102325000Y-40000000D03*
%TD*%
D33*
%TO.C,Q4*%
X118254006Y-38464893D03*
X120154006Y-38464893D03*
X119204006Y-40339893D03*
%TD*%
D34*
%TO.C,J1*%
X47155000Y-30650000D03*
X43845000Y-33190000D03*
X47155000Y-35730000D03*
X43845000Y-38270000D03*
X47155000Y-40810000D03*
X43845000Y-43350000D03*
%TD*%
D32*
%TO.C,R14*%
X81659918Y-42401435D03*
X83309918Y-42401435D03*
%TD*%
%TO.C,R6*%
X118316650Y-36263759D03*
X119966650Y-36263759D03*
%TD*%
D35*
%TO.C,R19*%
X102325000Y-47000000D03*
X100675000Y-47000000D03*
%TD*%
D36*
%TO.C,IC1*%
X96956642Y-26217834D03*
X96956642Y-27487834D03*
X96956642Y-28757834D03*
X96956642Y-30027834D03*
X96956642Y-31297834D03*
X96956642Y-32567834D03*
X96956642Y-33837834D03*
X96956642Y-35107834D03*
X96956642Y-36377834D03*
X96956642Y-37647834D03*
X96956642Y-38917834D03*
X96956642Y-40187834D03*
X96956642Y-41457834D03*
X96956642Y-42727834D03*
X87656642Y-42727834D03*
X87656642Y-41457834D03*
X87656642Y-40187834D03*
X87656642Y-38917834D03*
X87656642Y-37647834D03*
X87656642Y-36377834D03*
X87656642Y-35107834D03*
X87656642Y-33837834D03*
X87656642Y-32567834D03*
X87656642Y-31297834D03*
X87656642Y-30027834D03*
X87656642Y-28757834D03*
X87656642Y-27487834D03*
X87656642Y-26217834D03*
%TD*%
D37*
%TO.C,L2*%
X100122364Y-148457151D03*
X102272364Y-148457151D03*
%TD*%
D35*
%TO.C,R7*%
X83320014Y-34499772D03*
X81670014Y-34499772D03*
%TD*%
D32*
%TO.C,R20*%
X100675000Y-43000000D03*
X102325000Y-43000000D03*
%TD*%
D38*
%TO.C,J2*%
X74907839Y-53872651D03*
D39*
X77447839Y-53872651D03*
X79987839Y-53872651D03*
X82527839Y-53872651D03*
X85067839Y-53872651D03*
X87607839Y-53872651D03*
X90147839Y-53872651D03*
X92687839Y-53872651D03*
%TD*%
D35*
%TO.C,R12*%
X102341103Y-31489554D03*
X100691103Y-31489554D03*
%TD*%
D32*
%TO.C,R17*%
X81675000Y-31500000D03*
X83325000Y-31500000D03*
%TD*%
D40*
%TO.C,C4*%
X85000000Y-38950000D03*
X85000000Y-37050000D03*
%TD*%
D32*
%TO.C,R1*%
X100789254Y-34581335D03*
X102439254Y-34581335D03*
%TD*%
D33*
%TO.C,Q2*%
X122660564Y-38464893D03*
X124560564Y-38464893D03*
X123610564Y-40339893D03*
%TD*%
D41*
%TO.C,C2*%
X87455291Y-153433229D03*
X87455291Y-155333229D03*
%TD*%
D32*
%TO.C,R15*%
X81706252Y-40702505D03*
X83356252Y-40702505D03*
%TD*%
D40*
%TO.C,C9*%
X96554731Y-147745758D03*
X96554731Y-145845758D03*
%TD*%
D32*
%TO.C,R11*%
X100744268Y-29068477D03*
X102394268Y-29068477D03*
%TD*%
D35*
%TO.C,R13*%
X102334111Y-41512872D03*
X100684111Y-41512872D03*
%TD*%
D42*
%TO.C,R5*%
X74455291Y-150558229D03*
X74455291Y-152208229D03*
%TD*%
D32*
%TO.C,R16*%
X81675000Y-30000000D03*
X83325000Y-30000000D03*
%TD*%
D41*
%TO.C,C8*%
X104486407Y-149261871D03*
X104486407Y-151161871D03*
%TD*%
D32*
%TO.C,R8*%
X81677977Y-32986679D03*
X83327977Y-32986679D03*
%TD*%
%TO.C,R4*%
X81675000Y-36000000D03*
X83325000Y-36000000D03*
%TD*%
D33*
%TO.C,Q1*%
X113381849Y-38415007D03*
X115281849Y-38415007D03*
X114331849Y-40290007D03*
%TD*%
D42*
%TO.C,R3*%
X89455291Y-153558229D03*
X89455291Y-155208229D03*
%TD*%
D31*
%TO.C,C7*%
X101371799Y-152915056D03*
X103271799Y-152915056D03*
%TD*%
%TO.C,C3*%
X91488039Y-50386719D03*
X93388039Y-50386719D03*
%TD*%
D43*
%TO.C,F1*%
X72455291Y-150558229D03*
X72455291Y-152133229D03*
%TD*%
D31*
%TO.C,C11*%
X119622468Y-87434059D03*
X121522468Y-87434059D03*
%TD*%
D34*
%TO.C,J6*%
X55655000Y-30650000D03*
X52345000Y-33190000D03*
X55655000Y-35730000D03*
X52345000Y-38270000D03*
X55655000Y-40810000D03*
X52345000Y-43350000D03*
%TD*%
D32*
%TO.C,R23*%
X113482223Y-36199537D03*
X115132223Y-36199537D03*
%TD*%
%TO.C,R24*%
X122769218Y-36251320D03*
X124419218Y-36251320D03*
%TD*%
D44*
%TO.C,R22*%
X78455291Y-152208229D03*
X78455291Y-150558229D03*
%TD*%
D31*
%TO.C,C6*%
X100550000Y-45000000D03*
X102450000Y-45000000D03*
%TD*%
D44*
%TO.C,R21*%
X76455291Y-152208229D03*
X76455291Y-150558229D03*
%TD*%
D32*
%TO.C,R2*%
X132775350Y-40468559D03*
X134425350Y-40468559D03*
%TD*%
M02*
