%FSLAX45Y45*%
G04 Gerber Fmt 4.5, Leading zero omitted, Abs format (unit mm)*
G04 Created by KiCad (PCBNEW (6.0.0)) date 2022-01-10 19:29:48*
%MOMM*%
%LPD*%
G01*
G04 APERTURE LIST*
%TA.AperFunction,Profile*%
%ADD10C,0.200000*%
%TD*%
%ADD11C,0.200000*%
%ADD12C,0.075000*%
%ADD13C,0.100000*%
%ADD14C,0.320000*%
%ADD15C,0.650000*%
G04 APERTURE END LIST*
D10*
X4750000Y-2560000D02*
X12225000Y-2560000D01*
X12225000Y-2560000D02*
X12225000Y-5825000D01*
X12225000Y-5825000D02*
X4750000Y-5825000D01*
X4750000Y-5825000D02*
X4750000Y-2560000D01*
D11*
D12*
X5912500Y-4187500D02*
X5987500Y-4262500D01*
X5987500Y-4187500D02*
X5912500Y-4262500D01*
X6112500Y-4187500D02*
X6187500Y-4262500D01*
X6187500Y-4187500D02*
X6112500Y-4262500D01*
D13*
X5250000Y-3530000D02*
G75*
G03*
X5250000Y-3530000I-50000J0D01*
G01*
X5250000Y-3784000D02*
G75*
G03*
X5250000Y-3784000I-50000J0D01*
G01*
X5250000Y-4038000D02*
G75*
G03*
X5250000Y-4038000I-50000J0D01*
G01*
X5250000Y-4292000D02*
G75*
G03*
X5250000Y-4292000I-50000J0D01*
G01*
X5250000Y-4546000D02*
G75*
G03*
X5250000Y-4546000I-50000J0D01*
G01*
X5250000Y-4800000D02*
G75*
G03*
X5250000Y-4800000I-50000J0D01*
G01*
X5865000Y-4800000D02*
G75*
G03*
X5865000Y-4800000I-50000J0D01*
G01*
X5922000Y-3500000D02*
G75*
G03*
X5922000Y-3500000I-50000J0D01*
G01*
X6119000Y-4800000D02*
G75*
G03*
X6119000Y-4800000I-50000J0D01*
G01*
X6176000Y-3500000D02*
G75*
G03*
X6176000Y-3500000I-50000J0D01*
G01*
X6373000Y-4800000D02*
G75*
G03*
X6373000Y-4800000I-50000J0D01*
G01*
X6430000Y-3500000D02*
G75*
G03*
X6430000Y-3500000I-50000J0D01*
G01*
X6627000Y-4800000D02*
G75*
G03*
X6627000Y-4800000I-50000J0D01*
G01*
X6684000Y-3500000D02*
G75*
G03*
X6684000Y-3500000I-50000J0D01*
G01*
X6881000Y-4800000D02*
G75*
G03*
X6881000Y-4800000I-50000J0D01*
G01*
X6938000Y-3500000D02*
G75*
G03*
X6938000Y-3500000I-50000J0D01*
G01*
X7135000Y-4800000D02*
G75*
G03*
X7135000Y-4800000I-50000J0D01*
G01*
X7192000Y-3500000D02*
G75*
G03*
X7192000Y-3500000I-50000J0D01*
G01*
X7446000Y-3500000D02*
G75*
G03*
X7446000Y-3500000I-50000J0D01*
G01*
X7700000Y-3500000D02*
G75*
G03*
X7700000Y-3500000I-50000J0D01*
G01*
X8940000Y-3805000D02*
G75*
G03*
X8940000Y-3805000I-50000J0D01*
G01*
X8940000Y-4310000D02*
G75*
G03*
X8940000Y-4310000I-50000J0D01*
G01*
X8940000Y-4820000D02*
G75*
G03*
X8940000Y-4820000I-50000J0D01*
G01*
X9270000Y-3550000D02*
G75*
G03*
X9270000Y-3550000I-50000J0D01*
G01*
X9270000Y-4060000D02*
G75*
G03*
X9270000Y-4060000I-50000J0D01*
G01*
X9270000Y-4565000D02*
G75*
G03*
X9270000Y-4565000I-50000J0D01*
G01*
X9790000Y-3805000D02*
G75*
G03*
X9790000Y-3805000I-50000J0D01*
G01*
X9790000Y-4820000D02*
G75*
G03*
X9790000Y-4820000I-50000J0D01*
G01*
X10120000Y-4060000D02*
G75*
G03*
X10120000Y-4060000I-50000J0D01*
G01*
X10740000Y-4110000D02*
G75*
G03*
X10740000Y-4110000I-50000J0D01*
G01*
D14*
X7700000Y-2790000D02*
X7700000Y-3110000D01*
X7540000Y-2950000D02*
X7860000Y-2950000D01*
X10855000Y-3125000D02*
X10855000Y-3445000D01*
X10695000Y-3285000D02*
X11015000Y-3285000D01*
X11505000Y-4825000D02*
X11505000Y-5145000D01*
X11345000Y-4985000D02*
X11665000Y-4985000D01*
D15*
X9194812Y-5659812D02*
X9194812Y-5200188D01*
X8735188Y-5200188D01*
X8735188Y-5659812D01*
X9194812Y-5659812D01*
X9854812Y-3179812D02*
X9854812Y-2720188D01*
X9395188Y-2720188D01*
X9395188Y-3179812D01*
X9854812Y-3179812D01*
D11*
X4997619Y-6145476D02*
X4997619Y-5945476D01*
X5045238Y-5945476D01*
X5073810Y-5955000D01*
X5092857Y-5974048D01*
X5102381Y-5993095D01*
X5111905Y-6031190D01*
X5111905Y-6059762D01*
X5102381Y-6097857D01*
X5092857Y-6116905D01*
X5073810Y-6135952D01*
X5045238Y-6145476D01*
X4997619Y-6145476D01*
X5197619Y-6145476D02*
X5197619Y-6012143D01*
X5197619Y-6050238D02*
X5207143Y-6031190D01*
X5216667Y-6021667D01*
X5235714Y-6012143D01*
X5254762Y-6012143D01*
X5321429Y-6145476D02*
X5321429Y-6012143D01*
X5321429Y-5945476D02*
X5311905Y-5955000D01*
X5321429Y-5964524D01*
X5330952Y-5955000D01*
X5321429Y-5945476D01*
X5321429Y-5964524D01*
X5445238Y-6145476D02*
X5426190Y-6135952D01*
X5416667Y-6116905D01*
X5416667Y-5945476D01*
X5550000Y-6145476D02*
X5530952Y-6135952D01*
X5521429Y-6116905D01*
X5521429Y-5945476D01*
X5778571Y-6145476D02*
X5778571Y-5945476D01*
X5845238Y-6088333D01*
X5911905Y-5945476D01*
X5911905Y-6145476D01*
X6092857Y-6145476D02*
X6092857Y-6040714D01*
X6083333Y-6021667D01*
X6064286Y-6012143D01*
X6026190Y-6012143D01*
X6007143Y-6021667D01*
X6092857Y-6135952D02*
X6073809Y-6145476D01*
X6026190Y-6145476D01*
X6007143Y-6135952D01*
X5997619Y-6116905D01*
X5997619Y-6097857D01*
X6007143Y-6078809D01*
X6026190Y-6069286D01*
X6073809Y-6069286D01*
X6092857Y-6059762D01*
X6188095Y-6012143D02*
X6188095Y-6212143D01*
X6188095Y-6021667D02*
X6207143Y-6012143D01*
X6245238Y-6012143D01*
X6264286Y-6021667D01*
X6273809Y-6031190D01*
X6283333Y-6050238D01*
X6283333Y-6107381D01*
X6273809Y-6126428D01*
X6264286Y-6135952D01*
X6245238Y-6145476D01*
X6207143Y-6145476D01*
X6188095Y-6135952D01*
X6369048Y-6126428D02*
X6378571Y-6135952D01*
X6369048Y-6145476D01*
X6359524Y-6135952D01*
X6369048Y-6126428D01*
X6369048Y-6145476D01*
X6369048Y-6021667D02*
X6378571Y-6031190D01*
X6369048Y-6040714D01*
X6359524Y-6031190D01*
X6369048Y-6021667D01*
X6369048Y-6040714D01*
D12*
X4665000Y-6437500D02*
X4740000Y-6512500D01*
X4740000Y-6437500D02*
X4665000Y-6512500D01*
D11*
X5035714Y-6365476D02*
X5054762Y-6365476D01*
X5073810Y-6375000D01*
X5083333Y-6384524D01*
X5092857Y-6403571D01*
X5102381Y-6441667D01*
X5102381Y-6489286D01*
X5092857Y-6527381D01*
X5083333Y-6546428D01*
X5073810Y-6555952D01*
X5054762Y-6565476D01*
X5035714Y-6565476D01*
X5016667Y-6555952D01*
X5007143Y-6546428D01*
X4997619Y-6527381D01*
X4988095Y-6489286D01*
X4988095Y-6441667D01*
X4997619Y-6403571D01*
X5007143Y-6384524D01*
X5016667Y-6375000D01*
X5035714Y-6365476D01*
X5188095Y-6546428D02*
X5197619Y-6555952D01*
X5188095Y-6565476D01*
X5178571Y-6555952D01*
X5188095Y-6546428D01*
X5188095Y-6565476D01*
X5264286Y-6365476D02*
X5397619Y-6365476D01*
X5311905Y-6565476D01*
X5569048Y-6365476D02*
X5473810Y-6365476D01*
X5464286Y-6460714D01*
X5473810Y-6451190D01*
X5492857Y-6441667D01*
X5540476Y-6441667D01*
X5559524Y-6451190D01*
X5569048Y-6460714D01*
X5578571Y-6479762D01*
X5578571Y-6527381D01*
X5569048Y-6546428D01*
X5559524Y-6555952D01*
X5540476Y-6565476D01*
X5492857Y-6565476D01*
X5473810Y-6555952D01*
X5464286Y-6546428D01*
X5702381Y-6365476D02*
X5721428Y-6365476D01*
X5740476Y-6375000D01*
X5750000Y-6384524D01*
X5759524Y-6403571D01*
X5769048Y-6441667D01*
X5769048Y-6489286D01*
X5759524Y-6527381D01*
X5750000Y-6546428D01*
X5740476Y-6555952D01*
X5721428Y-6565476D01*
X5702381Y-6565476D01*
X5683333Y-6555952D01*
X5673809Y-6546428D01*
X5664286Y-6527381D01*
X5654762Y-6489286D01*
X5654762Y-6441667D01*
X5664286Y-6403571D01*
X5673809Y-6384524D01*
X5683333Y-6375000D01*
X5702381Y-6365476D01*
X5854762Y-6565476D02*
X5854762Y-6432143D01*
X5854762Y-6451190D02*
X5864286Y-6441667D01*
X5883333Y-6432143D01*
X5911905Y-6432143D01*
X5930952Y-6441667D01*
X5940476Y-6460714D01*
X5940476Y-6565476D01*
X5940476Y-6460714D02*
X5950000Y-6441667D01*
X5969048Y-6432143D01*
X5997619Y-6432143D01*
X6016667Y-6441667D01*
X6026190Y-6460714D01*
X6026190Y-6565476D01*
X6121428Y-6565476D02*
X6121428Y-6432143D01*
X6121428Y-6451190D02*
X6130952Y-6441667D01*
X6150000Y-6432143D01*
X6178571Y-6432143D01*
X6197619Y-6441667D01*
X6207143Y-6460714D01*
X6207143Y-6565476D01*
X6207143Y-6460714D02*
X6216667Y-6441667D01*
X6235714Y-6432143D01*
X6264286Y-6432143D01*
X6283333Y-6441667D01*
X6292857Y-6460714D01*
X6292857Y-6565476D01*
X6683333Y-6355952D02*
X6511905Y-6613095D01*
X6940476Y-6365476D02*
X6959524Y-6365476D01*
X6978571Y-6375000D01*
X6988095Y-6384524D01*
X6997619Y-6403571D01*
X7007143Y-6441667D01*
X7007143Y-6489286D01*
X6997619Y-6527381D01*
X6988095Y-6546428D01*
X6978571Y-6555952D01*
X6959524Y-6565476D01*
X6940476Y-6565476D01*
X6921428Y-6555952D01*
X6911905Y-6546428D01*
X6902381Y-6527381D01*
X6892857Y-6489286D01*
X6892857Y-6441667D01*
X6902381Y-6403571D01*
X6911905Y-6384524D01*
X6921428Y-6375000D01*
X6940476Y-6365476D01*
X7092857Y-6546428D02*
X7102381Y-6555952D01*
X7092857Y-6565476D01*
X7083333Y-6555952D01*
X7092857Y-6546428D01*
X7092857Y-6565476D01*
X7226190Y-6365476D02*
X7245238Y-6365476D01*
X7264286Y-6375000D01*
X7273809Y-6384524D01*
X7283333Y-6403571D01*
X7292857Y-6441667D01*
X7292857Y-6489286D01*
X7283333Y-6527381D01*
X7273809Y-6546428D01*
X7264286Y-6555952D01*
X7245238Y-6565476D01*
X7226190Y-6565476D01*
X7207143Y-6555952D01*
X7197619Y-6546428D01*
X7188095Y-6527381D01*
X7178571Y-6489286D01*
X7178571Y-6441667D01*
X7188095Y-6403571D01*
X7197619Y-6384524D01*
X7207143Y-6375000D01*
X7226190Y-6365476D01*
X7369048Y-6384524D02*
X7378571Y-6375000D01*
X7397619Y-6365476D01*
X7445238Y-6365476D01*
X7464286Y-6375000D01*
X7473809Y-6384524D01*
X7483333Y-6403571D01*
X7483333Y-6422619D01*
X7473809Y-6451190D01*
X7359524Y-6565476D01*
X7483333Y-6565476D01*
X7578571Y-6565476D02*
X7616667Y-6565476D01*
X7635714Y-6555952D01*
X7645238Y-6546428D01*
X7664286Y-6517857D01*
X7673809Y-6479762D01*
X7673809Y-6403571D01*
X7664286Y-6384524D01*
X7654762Y-6375000D01*
X7635714Y-6365476D01*
X7597619Y-6365476D01*
X7578571Y-6375000D01*
X7569048Y-6384524D01*
X7559524Y-6403571D01*
X7559524Y-6451190D01*
X7569048Y-6470238D01*
X7578571Y-6479762D01*
X7597619Y-6489286D01*
X7635714Y-6489286D01*
X7654762Y-6479762D01*
X7664286Y-6470238D01*
X7673809Y-6451190D01*
X7854762Y-6365476D02*
X7759524Y-6365476D01*
X7750000Y-6460714D01*
X7759524Y-6451190D01*
X7778571Y-6441667D01*
X7826190Y-6441667D01*
X7845238Y-6451190D01*
X7854762Y-6460714D01*
X7864286Y-6479762D01*
X7864286Y-6527381D01*
X7854762Y-6546428D01*
X7845238Y-6555952D01*
X7826190Y-6565476D01*
X7778571Y-6565476D01*
X7759524Y-6555952D01*
X7750000Y-6546428D01*
X7940476Y-6365476D02*
X7940476Y-6403571D01*
X8016667Y-6365476D02*
X8016667Y-6403571D01*
X8311905Y-6641667D02*
X8302381Y-6632143D01*
X8283333Y-6603571D01*
X8273809Y-6584524D01*
X8264286Y-6555952D01*
X8254762Y-6508333D01*
X8254762Y-6470238D01*
X8264286Y-6422619D01*
X8273809Y-6394048D01*
X8283333Y-6375000D01*
X8302381Y-6346428D01*
X8311905Y-6336905D01*
X8378571Y-6384524D02*
X8388095Y-6375000D01*
X8407143Y-6365476D01*
X8454762Y-6365476D01*
X8473810Y-6375000D01*
X8483333Y-6384524D01*
X8492857Y-6403571D01*
X8492857Y-6422619D01*
X8483333Y-6451190D01*
X8369048Y-6565476D01*
X8492857Y-6565476D01*
X8730952Y-6565476D02*
X8730952Y-6365476D01*
X8816667Y-6565476D02*
X8816667Y-6460714D01*
X8807143Y-6441667D01*
X8788095Y-6432143D01*
X8759524Y-6432143D01*
X8740476Y-6441667D01*
X8730952Y-6451190D01*
X8940476Y-6565476D02*
X8921429Y-6555952D01*
X8911905Y-6546428D01*
X8902381Y-6527381D01*
X8902381Y-6470238D01*
X8911905Y-6451190D01*
X8921429Y-6441667D01*
X8940476Y-6432143D01*
X8969048Y-6432143D01*
X8988095Y-6441667D01*
X8997619Y-6451190D01*
X9007143Y-6470238D01*
X9007143Y-6527381D01*
X8997619Y-6546428D01*
X8988095Y-6555952D01*
X8969048Y-6565476D01*
X8940476Y-6565476D01*
X9121429Y-6565476D02*
X9102381Y-6555952D01*
X9092857Y-6536905D01*
X9092857Y-6365476D01*
X9273810Y-6555952D02*
X9254762Y-6565476D01*
X9216667Y-6565476D01*
X9197619Y-6555952D01*
X9188095Y-6536905D01*
X9188095Y-6460714D01*
X9197619Y-6441667D01*
X9216667Y-6432143D01*
X9254762Y-6432143D01*
X9273810Y-6441667D01*
X9283333Y-6460714D01*
X9283333Y-6479762D01*
X9188095Y-6498809D01*
X9359524Y-6555952D02*
X9378571Y-6565476D01*
X9416667Y-6565476D01*
X9435714Y-6555952D01*
X9445238Y-6536905D01*
X9445238Y-6527381D01*
X9435714Y-6508333D01*
X9416667Y-6498809D01*
X9388095Y-6498809D01*
X9369048Y-6489286D01*
X9359524Y-6470238D01*
X9359524Y-6460714D01*
X9369048Y-6441667D01*
X9388095Y-6432143D01*
X9416667Y-6432143D01*
X9435714Y-6441667D01*
X9511905Y-6641667D02*
X9521429Y-6632143D01*
X9540476Y-6603571D01*
X9550000Y-6584524D01*
X9559524Y-6555952D01*
X9569048Y-6508333D01*
X9569048Y-6470238D01*
X9559524Y-6422619D01*
X9550000Y-6394048D01*
X9540476Y-6375000D01*
X9521429Y-6346428D01*
X9511905Y-6336905D01*
D13*
X4740000Y-6739000D02*
G75*
G03*
X4740000Y-6739000I-50000J0D01*
G01*
D11*
X5102381Y-6829476D02*
X4988095Y-6829476D01*
X5045238Y-6829476D02*
X5045238Y-6629476D01*
X5026190Y-6658048D01*
X5007143Y-6677095D01*
X4988095Y-6686619D01*
X5188095Y-6810428D02*
X5197619Y-6819952D01*
X5188095Y-6829476D01*
X5178571Y-6819952D01*
X5188095Y-6810428D01*
X5188095Y-6829476D01*
X5321429Y-6629476D02*
X5340476Y-6629476D01*
X5359524Y-6639000D01*
X5369048Y-6648524D01*
X5378571Y-6667571D01*
X5388095Y-6705667D01*
X5388095Y-6753286D01*
X5378571Y-6791381D01*
X5369048Y-6810428D01*
X5359524Y-6819952D01*
X5340476Y-6829476D01*
X5321429Y-6829476D01*
X5302381Y-6819952D01*
X5292857Y-6810428D01*
X5283333Y-6791381D01*
X5273810Y-6753286D01*
X5273810Y-6705667D01*
X5283333Y-6667571D01*
X5292857Y-6648524D01*
X5302381Y-6639000D01*
X5321429Y-6629476D01*
X5511905Y-6629476D02*
X5530952Y-6629476D01*
X5550000Y-6639000D01*
X5559524Y-6648524D01*
X5569048Y-6667571D01*
X5578571Y-6705667D01*
X5578571Y-6753286D01*
X5569048Y-6791381D01*
X5559524Y-6810428D01*
X5550000Y-6819952D01*
X5530952Y-6829476D01*
X5511905Y-6829476D01*
X5492857Y-6819952D01*
X5483333Y-6810428D01*
X5473810Y-6791381D01*
X5464286Y-6753286D01*
X5464286Y-6705667D01*
X5473810Y-6667571D01*
X5483333Y-6648524D01*
X5492857Y-6639000D01*
X5511905Y-6629476D01*
X5702381Y-6629476D02*
X5721428Y-6629476D01*
X5740476Y-6639000D01*
X5750000Y-6648524D01*
X5759524Y-6667571D01*
X5769048Y-6705667D01*
X5769048Y-6753286D01*
X5759524Y-6791381D01*
X5750000Y-6810428D01*
X5740476Y-6819952D01*
X5721428Y-6829476D01*
X5702381Y-6829476D01*
X5683333Y-6819952D01*
X5673809Y-6810428D01*
X5664286Y-6791381D01*
X5654762Y-6753286D01*
X5654762Y-6705667D01*
X5664286Y-6667571D01*
X5673809Y-6648524D01*
X5683333Y-6639000D01*
X5702381Y-6629476D01*
X5854762Y-6829476D02*
X5854762Y-6696143D01*
X5854762Y-6715190D02*
X5864286Y-6705667D01*
X5883333Y-6696143D01*
X5911905Y-6696143D01*
X5930952Y-6705667D01*
X5940476Y-6724714D01*
X5940476Y-6829476D01*
X5940476Y-6724714D02*
X5950000Y-6705667D01*
X5969048Y-6696143D01*
X5997619Y-6696143D01*
X6016667Y-6705667D01*
X6026190Y-6724714D01*
X6026190Y-6829476D01*
X6121428Y-6829476D02*
X6121428Y-6696143D01*
X6121428Y-6715190D02*
X6130952Y-6705667D01*
X6150000Y-6696143D01*
X6178571Y-6696143D01*
X6197619Y-6705667D01*
X6207143Y-6724714D01*
X6207143Y-6829476D01*
X6207143Y-6724714D02*
X6216667Y-6705667D01*
X6235714Y-6696143D01*
X6264286Y-6696143D01*
X6283333Y-6705667D01*
X6292857Y-6724714D01*
X6292857Y-6829476D01*
X6683333Y-6619952D02*
X6511905Y-6877095D01*
X6940476Y-6629476D02*
X6959524Y-6629476D01*
X6978571Y-6639000D01*
X6988095Y-6648524D01*
X6997619Y-6667571D01*
X7007143Y-6705667D01*
X7007143Y-6753286D01*
X6997619Y-6791381D01*
X6988095Y-6810428D01*
X6978571Y-6819952D01*
X6959524Y-6829476D01*
X6940476Y-6829476D01*
X6921428Y-6819952D01*
X6911905Y-6810428D01*
X6902381Y-6791381D01*
X6892857Y-6753286D01*
X6892857Y-6705667D01*
X6902381Y-6667571D01*
X6911905Y-6648524D01*
X6921428Y-6639000D01*
X6940476Y-6629476D01*
X7092857Y-6810428D02*
X7102381Y-6819952D01*
X7092857Y-6829476D01*
X7083333Y-6819952D01*
X7092857Y-6810428D01*
X7092857Y-6829476D01*
X7226190Y-6629476D02*
X7245238Y-6629476D01*
X7264286Y-6639000D01*
X7273809Y-6648524D01*
X7283333Y-6667571D01*
X7292857Y-6705667D01*
X7292857Y-6753286D01*
X7283333Y-6791381D01*
X7273809Y-6810428D01*
X7264286Y-6819952D01*
X7245238Y-6829476D01*
X7226190Y-6829476D01*
X7207143Y-6819952D01*
X7197619Y-6810428D01*
X7188095Y-6791381D01*
X7178571Y-6753286D01*
X7178571Y-6705667D01*
X7188095Y-6667571D01*
X7197619Y-6648524D01*
X7207143Y-6639000D01*
X7226190Y-6629476D01*
X7359524Y-6629476D02*
X7483333Y-6629476D01*
X7416667Y-6705667D01*
X7445238Y-6705667D01*
X7464286Y-6715190D01*
X7473809Y-6724714D01*
X7483333Y-6743762D01*
X7483333Y-6791381D01*
X7473809Y-6810428D01*
X7464286Y-6819952D01*
X7445238Y-6829476D01*
X7388095Y-6829476D01*
X7369048Y-6819952D01*
X7359524Y-6810428D01*
X7578571Y-6829476D02*
X7616667Y-6829476D01*
X7635714Y-6819952D01*
X7645238Y-6810428D01*
X7664286Y-6781857D01*
X7673809Y-6743762D01*
X7673809Y-6667571D01*
X7664286Y-6648524D01*
X7654762Y-6639000D01*
X7635714Y-6629476D01*
X7597619Y-6629476D01*
X7578571Y-6639000D01*
X7569048Y-6648524D01*
X7559524Y-6667571D01*
X7559524Y-6715190D01*
X7569048Y-6734238D01*
X7578571Y-6743762D01*
X7597619Y-6753286D01*
X7635714Y-6753286D01*
X7654762Y-6743762D01*
X7664286Y-6734238D01*
X7673809Y-6715190D01*
X7845238Y-6696143D02*
X7845238Y-6829476D01*
X7797619Y-6619952D02*
X7750000Y-6762809D01*
X7873809Y-6762809D01*
X7940476Y-6629476D02*
X7940476Y-6667571D01*
X8016667Y-6629476D02*
X8016667Y-6667571D01*
X8311905Y-6905667D02*
X8302381Y-6896143D01*
X8283333Y-6867571D01*
X8273809Y-6848524D01*
X8264286Y-6819952D01*
X8254762Y-6772333D01*
X8254762Y-6734238D01*
X8264286Y-6686619D01*
X8273809Y-6658048D01*
X8283333Y-6639000D01*
X8302381Y-6610428D01*
X8311905Y-6600905D01*
X8369048Y-6629476D02*
X8492857Y-6629476D01*
X8426190Y-6705667D01*
X8454762Y-6705667D01*
X8473810Y-6715190D01*
X8483333Y-6724714D01*
X8492857Y-6743762D01*
X8492857Y-6791381D01*
X8483333Y-6810428D01*
X8473810Y-6819952D01*
X8454762Y-6829476D01*
X8397619Y-6829476D01*
X8378571Y-6819952D01*
X8369048Y-6810428D01*
X8616667Y-6629476D02*
X8635714Y-6629476D01*
X8654762Y-6639000D01*
X8664286Y-6648524D01*
X8673810Y-6667571D01*
X8683333Y-6705667D01*
X8683333Y-6753286D01*
X8673810Y-6791381D01*
X8664286Y-6810428D01*
X8654762Y-6819952D01*
X8635714Y-6829476D01*
X8616667Y-6829476D01*
X8597619Y-6819952D01*
X8588095Y-6810428D01*
X8578571Y-6791381D01*
X8569048Y-6753286D01*
X8569048Y-6705667D01*
X8578571Y-6667571D01*
X8588095Y-6648524D01*
X8597619Y-6639000D01*
X8616667Y-6629476D01*
X8921429Y-6829476D02*
X8921429Y-6629476D01*
X9007143Y-6829476D02*
X9007143Y-6724714D01*
X8997619Y-6705667D01*
X8978571Y-6696143D01*
X8950000Y-6696143D01*
X8930952Y-6705667D01*
X8921429Y-6715190D01*
X9130952Y-6829476D02*
X9111905Y-6819952D01*
X9102381Y-6810428D01*
X9092857Y-6791381D01*
X9092857Y-6734238D01*
X9102381Y-6715190D01*
X9111905Y-6705667D01*
X9130952Y-6696143D01*
X9159524Y-6696143D01*
X9178571Y-6705667D01*
X9188095Y-6715190D01*
X9197619Y-6734238D01*
X9197619Y-6791381D01*
X9188095Y-6810428D01*
X9178571Y-6819952D01*
X9159524Y-6829476D01*
X9130952Y-6829476D01*
X9311905Y-6829476D02*
X9292857Y-6819952D01*
X9283333Y-6800905D01*
X9283333Y-6629476D01*
X9464286Y-6819952D02*
X9445238Y-6829476D01*
X9407143Y-6829476D01*
X9388095Y-6819952D01*
X9378571Y-6800905D01*
X9378571Y-6724714D01*
X9388095Y-6705667D01*
X9407143Y-6696143D01*
X9445238Y-6696143D01*
X9464286Y-6705667D01*
X9473810Y-6724714D01*
X9473810Y-6743762D01*
X9378571Y-6762809D01*
X9550000Y-6819952D02*
X9569048Y-6829476D01*
X9607143Y-6829476D01*
X9626190Y-6819952D01*
X9635714Y-6800905D01*
X9635714Y-6791381D01*
X9626190Y-6772333D01*
X9607143Y-6762809D01*
X9578571Y-6762809D01*
X9559524Y-6753286D01*
X9550000Y-6734238D01*
X9550000Y-6724714D01*
X9559524Y-6705667D01*
X9578571Y-6696143D01*
X9607143Y-6696143D01*
X9626190Y-6705667D01*
X9702381Y-6905667D02*
X9711905Y-6896143D01*
X9730952Y-6867571D01*
X9740476Y-6848524D01*
X9750000Y-6819952D01*
X9759524Y-6772333D01*
X9759524Y-6734238D01*
X9750000Y-6686619D01*
X9740476Y-6658048D01*
X9730952Y-6639000D01*
X9711905Y-6610428D01*
X9702381Y-6600905D01*
X4640000Y-6903000D02*
X4640000Y-7103000D01*
X4540000Y-7003000D02*
X4740000Y-7003000D01*
X4978571Y-6893476D02*
X5102381Y-6893476D01*
X5035714Y-6969667D01*
X5064286Y-6969667D01*
X5083333Y-6979190D01*
X5092857Y-6988714D01*
X5102381Y-7007762D01*
X5102381Y-7055381D01*
X5092857Y-7074428D01*
X5083333Y-7083952D01*
X5064286Y-7093476D01*
X5007143Y-7093476D01*
X4988095Y-7083952D01*
X4978571Y-7074428D01*
X5188095Y-7074428D02*
X5197619Y-7083952D01*
X5188095Y-7093476D01*
X5178571Y-7083952D01*
X5188095Y-7074428D01*
X5188095Y-7093476D01*
X5273810Y-6912524D02*
X5283333Y-6903000D01*
X5302381Y-6893476D01*
X5350000Y-6893476D01*
X5369048Y-6903000D01*
X5378571Y-6912524D01*
X5388095Y-6931571D01*
X5388095Y-6950619D01*
X5378571Y-6979190D01*
X5264286Y-7093476D01*
X5388095Y-7093476D01*
X5511905Y-6893476D02*
X5530952Y-6893476D01*
X5550000Y-6903000D01*
X5559524Y-6912524D01*
X5569048Y-6931571D01*
X5578571Y-6969667D01*
X5578571Y-7017286D01*
X5569048Y-7055381D01*
X5559524Y-7074428D01*
X5550000Y-7083952D01*
X5530952Y-7093476D01*
X5511905Y-7093476D01*
X5492857Y-7083952D01*
X5483333Y-7074428D01*
X5473810Y-7055381D01*
X5464286Y-7017286D01*
X5464286Y-6969667D01*
X5473810Y-6931571D01*
X5483333Y-6912524D01*
X5492857Y-6903000D01*
X5511905Y-6893476D01*
X5702381Y-6893476D02*
X5721428Y-6893476D01*
X5740476Y-6903000D01*
X5750000Y-6912524D01*
X5759524Y-6931571D01*
X5769048Y-6969667D01*
X5769048Y-7017286D01*
X5759524Y-7055381D01*
X5750000Y-7074428D01*
X5740476Y-7083952D01*
X5721428Y-7093476D01*
X5702381Y-7093476D01*
X5683333Y-7083952D01*
X5673809Y-7074428D01*
X5664286Y-7055381D01*
X5654762Y-7017286D01*
X5654762Y-6969667D01*
X5664286Y-6931571D01*
X5673809Y-6912524D01*
X5683333Y-6903000D01*
X5702381Y-6893476D01*
X5854762Y-7093476D02*
X5854762Y-6960143D01*
X5854762Y-6979190D02*
X5864286Y-6969667D01*
X5883333Y-6960143D01*
X5911905Y-6960143D01*
X5930952Y-6969667D01*
X5940476Y-6988714D01*
X5940476Y-7093476D01*
X5940476Y-6988714D02*
X5950000Y-6969667D01*
X5969048Y-6960143D01*
X5997619Y-6960143D01*
X6016667Y-6969667D01*
X6026190Y-6988714D01*
X6026190Y-7093476D01*
X6121428Y-7093476D02*
X6121428Y-6960143D01*
X6121428Y-6979190D02*
X6130952Y-6969667D01*
X6150000Y-6960143D01*
X6178571Y-6960143D01*
X6197619Y-6969667D01*
X6207143Y-6988714D01*
X6207143Y-7093476D01*
X6207143Y-6988714D02*
X6216667Y-6969667D01*
X6235714Y-6960143D01*
X6264286Y-6960143D01*
X6283333Y-6969667D01*
X6292857Y-6988714D01*
X6292857Y-7093476D01*
X6683333Y-6883952D02*
X6511905Y-7141095D01*
X6940476Y-6893476D02*
X6959524Y-6893476D01*
X6978571Y-6903000D01*
X6988095Y-6912524D01*
X6997619Y-6931571D01*
X7007143Y-6969667D01*
X7007143Y-7017286D01*
X6997619Y-7055381D01*
X6988095Y-7074428D01*
X6978571Y-7083952D01*
X6959524Y-7093476D01*
X6940476Y-7093476D01*
X6921428Y-7083952D01*
X6911905Y-7074428D01*
X6902381Y-7055381D01*
X6892857Y-7017286D01*
X6892857Y-6969667D01*
X6902381Y-6931571D01*
X6911905Y-6912524D01*
X6921428Y-6903000D01*
X6940476Y-6893476D01*
X7092857Y-7074428D02*
X7102381Y-7083952D01*
X7092857Y-7093476D01*
X7083333Y-7083952D01*
X7092857Y-7074428D01*
X7092857Y-7093476D01*
X7292857Y-7093476D02*
X7178571Y-7093476D01*
X7235714Y-7093476D02*
X7235714Y-6893476D01*
X7216667Y-6922048D01*
X7197619Y-6941095D01*
X7178571Y-6950619D01*
X7369048Y-6912524D02*
X7378571Y-6903000D01*
X7397619Y-6893476D01*
X7445238Y-6893476D01*
X7464286Y-6903000D01*
X7473809Y-6912524D01*
X7483333Y-6931571D01*
X7483333Y-6950619D01*
X7473809Y-6979190D01*
X7359524Y-7093476D01*
X7483333Y-7093476D01*
X7654762Y-6893476D02*
X7616667Y-6893476D01*
X7597619Y-6903000D01*
X7588095Y-6912524D01*
X7569048Y-6941095D01*
X7559524Y-6979190D01*
X7559524Y-7055381D01*
X7569048Y-7074428D01*
X7578571Y-7083952D01*
X7597619Y-7093476D01*
X7635714Y-7093476D01*
X7654762Y-7083952D01*
X7664286Y-7074428D01*
X7673809Y-7055381D01*
X7673809Y-7007762D01*
X7664286Y-6988714D01*
X7654762Y-6979190D01*
X7635714Y-6969667D01*
X7597619Y-6969667D01*
X7578571Y-6979190D01*
X7569048Y-6988714D01*
X7559524Y-7007762D01*
X7797619Y-6893476D02*
X7816667Y-6893476D01*
X7835714Y-6903000D01*
X7845238Y-6912524D01*
X7854762Y-6931571D01*
X7864286Y-6969667D01*
X7864286Y-7017286D01*
X7854762Y-7055381D01*
X7845238Y-7074428D01*
X7835714Y-7083952D01*
X7816667Y-7093476D01*
X7797619Y-7093476D01*
X7778571Y-7083952D01*
X7769048Y-7074428D01*
X7759524Y-7055381D01*
X7750000Y-7017286D01*
X7750000Y-6969667D01*
X7759524Y-6931571D01*
X7769048Y-6912524D01*
X7778571Y-6903000D01*
X7797619Y-6893476D01*
X7940476Y-6893476D02*
X7940476Y-6931571D01*
X8016667Y-6893476D02*
X8016667Y-6931571D01*
X8311905Y-7169667D02*
X8302381Y-7160143D01*
X8283333Y-7131571D01*
X8273809Y-7112524D01*
X8264286Y-7083952D01*
X8254762Y-7036333D01*
X8254762Y-6998238D01*
X8264286Y-6950619D01*
X8273809Y-6922048D01*
X8283333Y-6903000D01*
X8302381Y-6874428D01*
X8311905Y-6864905D01*
X8369048Y-6893476D02*
X8492857Y-6893476D01*
X8426190Y-6969667D01*
X8454762Y-6969667D01*
X8473810Y-6979190D01*
X8483333Y-6988714D01*
X8492857Y-7007762D01*
X8492857Y-7055381D01*
X8483333Y-7074428D01*
X8473810Y-7083952D01*
X8454762Y-7093476D01*
X8397619Y-7093476D01*
X8378571Y-7083952D01*
X8369048Y-7074428D01*
X8730952Y-7093476D02*
X8730952Y-6893476D01*
X8816667Y-7093476D02*
X8816667Y-6988714D01*
X8807143Y-6969667D01*
X8788095Y-6960143D01*
X8759524Y-6960143D01*
X8740476Y-6969667D01*
X8730952Y-6979190D01*
X8940476Y-7093476D02*
X8921429Y-7083952D01*
X8911905Y-7074428D01*
X8902381Y-7055381D01*
X8902381Y-6998238D01*
X8911905Y-6979190D01*
X8921429Y-6969667D01*
X8940476Y-6960143D01*
X8969048Y-6960143D01*
X8988095Y-6969667D01*
X8997619Y-6979190D01*
X9007143Y-6998238D01*
X9007143Y-7055381D01*
X8997619Y-7074428D01*
X8988095Y-7083952D01*
X8969048Y-7093476D01*
X8940476Y-7093476D01*
X9121429Y-7093476D02*
X9102381Y-7083952D01*
X9092857Y-7064905D01*
X9092857Y-6893476D01*
X9273810Y-7083952D02*
X9254762Y-7093476D01*
X9216667Y-7093476D01*
X9197619Y-7083952D01*
X9188095Y-7064905D01*
X9188095Y-6988714D01*
X9197619Y-6969667D01*
X9216667Y-6960143D01*
X9254762Y-6960143D01*
X9273810Y-6969667D01*
X9283333Y-6988714D01*
X9283333Y-7007762D01*
X9188095Y-7026809D01*
X9359524Y-7083952D02*
X9378571Y-7093476D01*
X9416667Y-7093476D01*
X9435714Y-7083952D01*
X9445238Y-7064905D01*
X9445238Y-7055381D01*
X9435714Y-7036333D01*
X9416667Y-7026809D01*
X9388095Y-7026809D01*
X9369048Y-7017286D01*
X9359524Y-6998238D01*
X9359524Y-6988714D01*
X9369048Y-6969667D01*
X9388095Y-6960143D01*
X9416667Y-6960143D01*
X9435714Y-6969667D01*
X9511905Y-7169667D02*
X9521429Y-7160143D01*
X9540476Y-7131571D01*
X9550000Y-7112524D01*
X9559524Y-7083952D01*
X9569048Y-7036333D01*
X9569048Y-6998238D01*
X9559524Y-6950619D01*
X9550000Y-6922048D01*
X9540476Y-6903000D01*
X9521429Y-6874428D01*
X9511905Y-6864905D01*
X9873810Y-7169667D02*
X9864286Y-7160143D01*
X9845238Y-7131571D01*
X9835714Y-7112524D01*
X9826190Y-7083952D01*
X9816667Y-7036333D01*
X9816667Y-6998238D01*
X9826190Y-6950619D01*
X9835714Y-6922048D01*
X9845238Y-6903000D01*
X9864286Y-6874428D01*
X9873810Y-6864905D01*
X9950000Y-6960143D02*
X9950000Y-7093476D01*
X9950000Y-6979190D02*
X9959524Y-6969667D01*
X9978571Y-6960143D01*
X10007143Y-6960143D01*
X10026190Y-6969667D01*
X10035714Y-6988714D01*
X10035714Y-7093476D01*
X10159524Y-7093476D02*
X10140476Y-7083952D01*
X10130952Y-7074428D01*
X10121429Y-7055381D01*
X10121429Y-6998238D01*
X10130952Y-6979190D01*
X10140476Y-6969667D01*
X10159524Y-6960143D01*
X10188095Y-6960143D01*
X10207143Y-6969667D01*
X10216667Y-6979190D01*
X10226190Y-6998238D01*
X10226190Y-7055381D01*
X10216667Y-7074428D01*
X10207143Y-7083952D01*
X10188095Y-7093476D01*
X10159524Y-7093476D01*
X10283333Y-6960143D02*
X10359524Y-6960143D01*
X10311905Y-6893476D02*
X10311905Y-7064905D01*
X10321429Y-7083952D01*
X10340476Y-7093476D01*
X10359524Y-7093476D01*
X10578571Y-6960143D02*
X10578571Y-7160143D01*
X10578571Y-6969667D02*
X10597619Y-6960143D01*
X10635714Y-6960143D01*
X10654762Y-6969667D01*
X10664286Y-6979190D01*
X10673810Y-6998238D01*
X10673810Y-7055381D01*
X10664286Y-7074428D01*
X10654762Y-7083952D01*
X10635714Y-7093476D01*
X10597619Y-7093476D01*
X10578571Y-7083952D01*
X10788095Y-7093476D02*
X10769048Y-7083952D01*
X10759524Y-7064905D01*
X10759524Y-6893476D01*
X10950000Y-7093476D02*
X10950000Y-6988714D01*
X10940476Y-6969667D01*
X10921429Y-6960143D01*
X10883333Y-6960143D01*
X10864286Y-6969667D01*
X10950000Y-7083952D02*
X10930952Y-7093476D01*
X10883333Y-7093476D01*
X10864286Y-7083952D01*
X10854762Y-7064905D01*
X10854762Y-7045857D01*
X10864286Y-7026809D01*
X10883333Y-7017286D01*
X10930952Y-7017286D01*
X10950000Y-7007762D01*
X11016667Y-6960143D02*
X11092857Y-6960143D01*
X11045238Y-6893476D02*
X11045238Y-7064905D01*
X11054762Y-7083952D01*
X11073810Y-7093476D01*
X11092857Y-7093476D01*
X11235714Y-7083952D02*
X11216667Y-7093476D01*
X11178571Y-7093476D01*
X11159524Y-7083952D01*
X11150000Y-7064905D01*
X11150000Y-6988714D01*
X11159524Y-6969667D01*
X11178571Y-6960143D01*
X11216667Y-6960143D01*
X11235714Y-6969667D01*
X11245238Y-6988714D01*
X11245238Y-7007762D01*
X11150000Y-7026809D01*
X11416667Y-7093476D02*
X11416667Y-6893476D01*
X11416667Y-7083952D02*
X11397619Y-7093476D01*
X11359524Y-7093476D01*
X11340476Y-7083952D01*
X11330952Y-7074428D01*
X11321428Y-7055381D01*
X11321428Y-6998238D01*
X11330952Y-6979190D01*
X11340476Y-6969667D01*
X11359524Y-6960143D01*
X11397619Y-6960143D01*
X11416667Y-6969667D01*
X11492857Y-7169667D02*
X11502381Y-7160143D01*
X11521428Y-7131571D01*
X11530952Y-7112524D01*
X11540476Y-7083952D01*
X11550000Y-7036333D01*
X11550000Y-6998238D01*
X11540476Y-6950619D01*
X11530952Y-6922048D01*
X11521428Y-6903000D01*
X11502381Y-6874428D01*
X11492857Y-6864905D01*
X4710711Y-7393711D02*
X4710711Y-7252289D01*
X4569289Y-7252289D01*
X4569289Y-7393711D01*
X4710711Y-7393711D01*
X5083333Y-7213476D02*
X5045238Y-7213476D01*
X5026190Y-7223000D01*
X5016667Y-7232524D01*
X4997619Y-7261095D01*
X4988095Y-7299190D01*
X4988095Y-7375381D01*
X4997619Y-7394428D01*
X5007143Y-7403952D01*
X5026190Y-7413476D01*
X5064286Y-7413476D01*
X5083333Y-7403952D01*
X5092857Y-7394428D01*
X5102381Y-7375381D01*
X5102381Y-7327762D01*
X5092857Y-7308714D01*
X5083333Y-7299190D01*
X5064286Y-7289667D01*
X5026190Y-7289667D01*
X5007143Y-7299190D01*
X4997619Y-7308714D01*
X4988095Y-7327762D01*
X5188095Y-7394428D02*
X5197619Y-7403952D01*
X5188095Y-7413476D01*
X5178571Y-7403952D01*
X5188095Y-7394428D01*
X5188095Y-7413476D01*
X5378571Y-7213476D02*
X5283333Y-7213476D01*
X5273810Y-7308714D01*
X5283333Y-7299190D01*
X5302381Y-7289667D01*
X5350000Y-7289667D01*
X5369048Y-7299190D01*
X5378571Y-7308714D01*
X5388095Y-7327762D01*
X5388095Y-7375381D01*
X5378571Y-7394428D01*
X5369048Y-7403952D01*
X5350000Y-7413476D01*
X5302381Y-7413476D01*
X5283333Y-7403952D01*
X5273810Y-7394428D01*
X5511905Y-7213476D02*
X5530952Y-7213476D01*
X5550000Y-7223000D01*
X5559524Y-7232524D01*
X5569048Y-7251571D01*
X5578571Y-7289667D01*
X5578571Y-7337286D01*
X5569048Y-7375381D01*
X5559524Y-7394428D01*
X5550000Y-7403952D01*
X5530952Y-7413476D01*
X5511905Y-7413476D01*
X5492857Y-7403952D01*
X5483333Y-7394428D01*
X5473810Y-7375381D01*
X5464286Y-7337286D01*
X5464286Y-7289667D01*
X5473810Y-7251571D01*
X5483333Y-7232524D01*
X5492857Y-7223000D01*
X5511905Y-7213476D01*
X5702381Y-7213476D02*
X5721428Y-7213476D01*
X5740476Y-7223000D01*
X5750000Y-7232524D01*
X5759524Y-7251571D01*
X5769048Y-7289667D01*
X5769048Y-7337286D01*
X5759524Y-7375381D01*
X5750000Y-7394428D01*
X5740476Y-7403952D01*
X5721428Y-7413476D01*
X5702381Y-7413476D01*
X5683333Y-7403952D01*
X5673809Y-7394428D01*
X5664286Y-7375381D01*
X5654762Y-7337286D01*
X5654762Y-7289667D01*
X5664286Y-7251571D01*
X5673809Y-7232524D01*
X5683333Y-7223000D01*
X5702381Y-7213476D01*
X5854762Y-7413476D02*
X5854762Y-7280143D01*
X5854762Y-7299190D02*
X5864286Y-7289667D01*
X5883333Y-7280143D01*
X5911905Y-7280143D01*
X5930952Y-7289667D01*
X5940476Y-7308714D01*
X5940476Y-7413476D01*
X5940476Y-7308714D02*
X5950000Y-7289667D01*
X5969048Y-7280143D01*
X5997619Y-7280143D01*
X6016667Y-7289667D01*
X6026190Y-7308714D01*
X6026190Y-7413476D01*
X6121428Y-7413476D02*
X6121428Y-7280143D01*
X6121428Y-7299190D02*
X6130952Y-7289667D01*
X6150000Y-7280143D01*
X6178571Y-7280143D01*
X6197619Y-7289667D01*
X6207143Y-7308714D01*
X6207143Y-7413476D01*
X6207143Y-7308714D02*
X6216667Y-7289667D01*
X6235714Y-7280143D01*
X6264286Y-7280143D01*
X6283333Y-7289667D01*
X6292857Y-7308714D01*
X6292857Y-7413476D01*
X6683333Y-7203952D02*
X6511905Y-7461095D01*
X6940476Y-7213476D02*
X6959524Y-7213476D01*
X6978571Y-7223000D01*
X6988095Y-7232524D01*
X6997619Y-7251571D01*
X7007143Y-7289667D01*
X7007143Y-7337286D01*
X6997619Y-7375381D01*
X6988095Y-7394428D01*
X6978571Y-7403952D01*
X6959524Y-7413476D01*
X6940476Y-7413476D01*
X6921428Y-7403952D01*
X6911905Y-7394428D01*
X6902381Y-7375381D01*
X6892857Y-7337286D01*
X6892857Y-7289667D01*
X6902381Y-7251571D01*
X6911905Y-7232524D01*
X6921428Y-7223000D01*
X6940476Y-7213476D01*
X7092857Y-7394428D02*
X7102381Y-7403952D01*
X7092857Y-7413476D01*
X7083333Y-7403952D01*
X7092857Y-7394428D01*
X7092857Y-7413476D01*
X7178571Y-7232524D02*
X7188095Y-7223000D01*
X7207143Y-7213476D01*
X7254762Y-7213476D01*
X7273809Y-7223000D01*
X7283333Y-7232524D01*
X7292857Y-7251571D01*
X7292857Y-7270619D01*
X7283333Y-7299190D01*
X7169048Y-7413476D01*
X7292857Y-7413476D01*
X7473809Y-7213476D02*
X7378571Y-7213476D01*
X7369048Y-7308714D01*
X7378571Y-7299190D01*
X7397619Y-7289667D01*
X7445238Y-7289667D01*
X7464286Y-7299190D01*
X7473809Y-7308714D01*
X7483333Y-7327762D01*
X7483333Y-7375381D01*
X7473809Y-7394428D01*
X7464286Y-7403952D01*
X7445238Y-7413476D01*
X7397619Y-7413476D01*
X7378571Y-7403952D01*
X7369048Y-7394428D01*
X7664286Y-7213476D02*
X7569048Y-7213476D01*
X7559524Y-7308714D01*
X7569048Y-7299190D01*
X7588095Y-7289667D01*
X7635714Y-7289667D01*
X7654762Y-7299190D01*
X7664286Y-7308714D01*
X7673809Y-7327762D01*
X7673809Y-7375381D01*
X7664286Y-7394428D01*
X7654762Y-7403952D01*
X7635714Y-7413476D01*
X7588095Y-7413476D01*
X7569048Y-7403952D01*
X7559524Y-7394428D01*
X7769048Y-7413476D02*
X7807143Y-7413476D01*
X7826190Y-7403952D01*
X7835714Y-7394428D01*
X7854762Y-7365857D01*
X7864286Y-7327762D01*
X7864286Y-7251571D01*
X7854762Y-7232524D01*
X7845238Y-7223000D01*
X7826190Y-7213476D01*
X7788095Y-7213476D01*
X7769048Y-7223000D01*
X7759524Y-7232524D01*
X7750000Y-7251571D01*
X7750000Y-7299190D01*
X7759524Y-7318238D01*
X7769048Y-7327762D01*
X7788095Y-7337286D01*
X7826190Y-7337286D01*
X7845238Y-7327762D01*
X7854762Y-7318238D01*
X7864286Y-7299190D01*
X7940476Y-7213476D02*
X7940476Y-7251571D01*
X8016667Y-7213476D02*
X8016667Y-7251571D01*
X8311905Y-7489667D02*
X8302381Y-7480143D01*
X8283333Y-7451571D01*
X8273809Y-7432524D01*
X8264286Y-7403952D01*
X8254762Y-7356333D01*
X8254762Y-7318238D01*
X8264286Y-7270619D01*
X8273809Y-7242048D01*
X8283333Y-7223000D01*
X8302381Y-7194428D01*
X8311905Y-7184905D01*
X8378571Y-7232524D02*
X8388095Y-7223000D01*
X8407143Y-7213476D01*
X8454762Y-7213476D01*
X8473810Y-7223000D01*
X8483333Y-7232524D01*
X8492857Y-7251571D01*
X8492857Y-7270619D01*
X8483333Y-7299190D01*
X8369048Y-7413476D01*
X8492857Y-7413476D01*
X8730952Y-7413476D02*
X8730952Y-7213476D01*
X8816667Y-7413476D02*
X8816667Y-7308714D01*
X8807143Y-7289667D01*
X8788095Y-7280143D01*
X8759524Y-7280143D01*
X8740476Y-7289667D01*
X8730952Y-7299190D01*
X8940476Y-7413476D02*
X8921429Y-7403952D01*
X8911905Y-7394428D01*
X8902381Y-7375381D01*
X8902381Y-7318238D01*
X8911905Y-7299190D01*
X8921429Y-7289667D01*
X8940476Y-7280143D01*
X8969048Y-7280143D01*
X8988095Y-7289667D01*
X8997619Y-7299190D01*
X9007143Y-7318238D01*
X9007143Y-7375381D01*
X8997619Y-7394428D01*
X8988095Y-7403952D01*
X8969048Y-7413476D01*
X8940476Y-7413476D01*
X9121429Y-7413476D02*
X9102381Y-7403952D01*
X9092857Y-7384905D01*
X9092857Y-7213476D01*
X9273810Y-7403952D02*
X9254762Y-7413476D01*
X9216667Y-7413476D01*
X9197619Y-7403952D01*
X9188095Y-7384905D01*
X9188095Y-7308714D01*
X9197619Y-7289667D01*
X9216667Y-7280143D01*
X9254762Y-7280143D01*
X9273810Y-7289667D01*
X9283333Y-7308714D01*
X9283333Y-7327762D01*
X9188095Y-7346809D01*
X9359524Y-7403952D02*
X9378571Y-7413476D01*
X9416667Y-7413476D01*
X9435714Y-7403952D01*
X9445238Y-7384905D01*
X9445238Y-7375381D01*
X9435714Y-7356333D01*
X9416667Y-7346809D01*
X9388095Y-7346809D01*
X9369048Y-7337286D01*
X9359524Y-7318238D01*
X9359524Y-7308714D01*
X9369048Y-7289667D01*
X9388095Y-7280143D01*
X9416667Y-7280143D01*
X9435714Y-7289667D01*
X9511905Y-7489667D02*
X9521429Y-7480143D01*
X9540476Y-7451571D01*
X9550000Y-7432524D01*
X9559524Y-7403952D01*
X9569048Y-7356333D01*
X9569048Y-7318238D01*
X9559524Y-7270619D01*
X9550000Y-7242048D01*
X9540476Y-7223000D01*
X9521429Y-7194428D01*
X9511905Y-7184905D01*
X9873810Y-7489667D02*
X9864286Y-7480143D01*
X9845238Y-7451571D01*
X9835714Y-7432524D01*
X9826190Y-7403952D01*
X9816667Y-7356333D01*
X9816667Y-7318238D01*
X9826190Y-7270619D01*
X9835714Y-7242048D01*
X9845238Y-7223000D01*
X9864286Y-7194428D01*
X9873810Y-7184905D01*
X9950000Y-7280143D02*
X9950000Y-7413476D01*
X9950000Y-7299190D02*
X9959524Y-7289667D01*
X9978571Y-7280143D01*
X10007143Y-7280143D01*
X10026190Y-7289667D01*
X10035714Y-7308714D01*
X10035714Y-7413476D01*
X10159524Y-7413476D02*
X10140476Y-7403952D01*
X10130952Y-7394428D01*
X10121429Y-7375381D01*
X10121429Y-7318238D01*
X10130952Y-7299190D01*
X10140476Y-7289667D01*
X10159524Y-7280143D01*
X10188095Y-7280143D01*
X10207143Y-7289667D01*
X10216667Y-7299190D01*
X10226190Y-7318238D01*
X10226190Y-7375381D01*
X10216667Y-7394428D01*
X10207143Y-7403952D01*
X10188095Y-7413476D01*
X10159524Y-7413476D01*
X10283333Y-7280143D02*
X10359524Y-7280143D01*
X10311905Y-7213476D02*
X10311905Y-7384905D01*
X10321429Y-7403952D01*
X10340476Y-7413476D01*
X10359524Y-7413476D01*
X10578571Y-7280143D02*
X10578571Y-7480143D01*
X10578571Y-7289667D02*
X10597619Y-7280143D01*
X10635714Y-7280143D01*
X10654762Y-7289667D01*
X10664286Y-7299190D01*
X10673810Y-7318238D01*
X10673810Y-7375381D01*
X10664286Y-7394428D01*
X10654762Y-7403952D01*
X10635714Y-7413476D01*
X10597619Y-7413476D01*
X10578571Y-7403952D01*
X10788095Y-7413476D02*
X10769048Y-7403952D01*
X10759524Y-7384905D01*
X10759524Y-7213476D01*
X10950000Y-7413476D02*
X10950000Y-7308714D01*
X10940476Y-7289667D01*
X10921429Y-7280143D01*
X10883333Y-7280143D01*
X10864286Y-7289667D01*
X10950000Y-7403952D02*
X10930952Y-7413476D01*
X10883333Y-7413476D01*
X10864286Y-7403952D01*
X10854762Y-7384905D01*
X10854762Y-7365857D01*
X10864286Y-7346809D01*
X10883333Y-7337286D01*
X10930952Y-7337286D01*
X10950000Y-7327762D01*
X11016667Y-7280143D02*
X11092857Y-7280143D01*
X11045238Y-7213476D02*
X11045238Y-7384905D01*
X11054762Y-7403952D01*
X11073810Y-7413476D01*
X11092857Y-7413476D01*
X11235714Y-7403952D02*
X11216667Y-7413476D01*
X11178571Y-7413476D01*
X11159524Y-7403952D01*
X11150000Y-7384905D01*
X11150000Y-7308714D01*
X11159524Y-7289667D01*
X11178571Y-7280143D01*
X11216667Y-7280143D01*
X11235714Y-7289667D01*
X11245238Y-7308714D01*
X11245238Y-7327762D01*
X11150000Y-7346809D01*
X11416667Y-7413476D02*
X11416667Y-7213476D01*
X11416667Y-7403952D02*
X11397619Y-7413476D01*
X11359524Y-7413476D01*
X11340476Y-7403952D01*
X11330952Y-7394428D01*
X11321428Y-7375381D01*
X11321428Y-7318238D01*
X11330952Y-7299190D01*
X11340476Y-7289667D01*
X11359524Y-7280143D01*
X11397619Y-7280143D01*
X11416667Y-7289667D01*
X11492857Y-7489667D02*
X11502381Y-7480143D01*
X11521428Y-7451571D01*
X11530952Y-7432524D01*
X11540476Y-7403952D01*
X11550000Y-7356333D01*
X11550000Y-7318238D01*
X11540476Y-7270619D01*
X11530952Y-7242048D01*
X11521428Y-7223000D01*
X11502381Y-7194428D01*
X11492857Y-7184905D01*
M02*
