%TF.GenerationSoftware,KiCad,Pcbnew,(6.0.0)*%
%TF.CreationDate,2022-01-10T19:28:16+00:00*%
%TF.ProjectId,DiscProgrammer,44697363-5072-46f6-9772-616d6d65722e,rev?*%
%TF.SameCoordinates,Original*%
%TF.FileFunction,Copper,L2,Bot*%
%TF.FilePolarity,Positive*%
%FSLAX46Y46*%
G04 Gerber Fmt 4.6, Leading zero omitted, Abs format (unit mm)*
G04 Created by KiCad (PCBNEW (6.0.0)) date 2022-01-10 19:28:16*
%MOMM*%
%LPD*%
G01*
G04 APERTURE LIST*
G04 Aperture macros list*
%AMRoundRect*
0 Rectangle with rounded corners*
0 $1 Rounding radius*
0 $2 $3 $4 $5 $6 $7 $8 $9 X,Y pos of 4 corners*
0 Add a 4 corners polygon primitive as box body*
4,1,4,$2,$3,$4,$5,$6,$7,$8,$9,$2,$3,0*
0 Add four circle primitives for the rounded corners*
1,1,$1+$1,$2,$3*
1,1,$1+$1,$4,$5*
1,1,$1+$1,$6,$7*
1,1,$1+$1,$8,$9*
0 Add four rect primitives between the rounded corners*
20,1,$1+$1,$2,$3,$4,$5,0*
20,1,$1+$1,$4,$5,$6,$7,0*
20,1,$1+$1,$6,$7,$8,$9,0*
20,1,$1+$1,$8,$9,$2,$3,0*%
G04 Aperture macros list end*
%TA.AperFunction,ComponentPad*%
%ADD10R,1.700000X1.700000*%
%TD*%
%TA.AperFunction,ComponentPad*%
%ADD11O,1.700000X1.700000*%
%TD*%
%TA.AperFunction,ComponentPad*%
%ADD12C,2.000000*%
%TD*%
%TA.AperFunction,ComponentPad*%
%ADD13RoundRect,0.250000X0.350000X0.625000X-0.350000X0.625000X-0.350000X-0.625000X0.350000X-0.625000X0*%
%TD*%
%TA.AperFunction,ComponentPad*%
%ADD14O,1.200000X1.750000*%
%TD*%
%TA.AperFunction,Conductor*%
%ADD15C,0.250000*%
%TD*%
G04 APERTURE END LIST*
D10*
%TO.P,J4,1,Pin_1*%
%TO.N,unconnected-(J4-Pad1)*%
X52000000Y-48000000D03*
D11*
%TO.P,J4,2,Pin_2*%
%TO.N,Net-(J1-Pad5)*%
X52000000Y-45460000D03*
%TO.P,J4,3,Pin_3*%
%TO.N,Net-(J1-Pad6)*%
X52000000Y-42920000D03*
%TO.P,J4,4,Pin_4*%
%TO.N,GND*%
X52000000Y-40380000D03*
%TO.P,J4,5,Pin_5*%
%TO.N,+3V3*%
X52000000Y-37840000D03*
%TO.P,J4,6,Pin_6*%
%TO.N,Net-(J4-Pad6)*%
X52000000Y-35300000D03*
%TD*%
D10*
%TO.P,J3,1,Pin_1*%
%TO.N,Net-(J13-Pad1)*%
X58150000Y-48000000D03*
D11*
%TO.P,J3,2,Pin_2*%
%TO.N,Net-(J12-Pad1)*%
X60690000Y-48000000D03*
%TO.P,J3,3,Pin_3*%
%TO.N,Net-(J11-Pad1)*%
X63230000Y-48000000D03*
%TO.P,J3,4,Pin_4*%
%TO.N,Net-(J10-Pad1)*%
X65770000Y-48000000D03*
%TO.P,J3,5,Pin_5*%
%TO.N,GND*%
X68310000Y-48000000D03*
%TO.P,J3,6,Pin_6*%
%TO.N,+3V3*%
X70850000Y-48000000D03*
%TD*%
D10*
%TO.P,J1,1,Pin_1*%
%TO.N,+BATT*%
X76500000Y-35000000D03*
D11*
%TO.P,J1,2,Pin_2*%
%TO.N,+4V*%
X73960000Y-35000000D03*
%TO.P,J1,3,Pin_3*%
%TO.N,unconnected-(J1-Pad3)*%
X71420000Y-35000000D03*
%TO.P,J1,4,Pin_4*%
%TO.N,unconnected-(J1-Pad4)*%
X68880000Y-35000000D03*
%TO.P,J1,5,Pin_5*%
%TO.N,Net-(J1-Pad5)*%
X66340000Y-35000000D03*
%TO.P,J1,6,Pin_6*%
%TO.N,Net-(J1-Pad6)*%
X63800000Y-35000000D03*
%TO.P,J1,7,Pin_7*%
%TO.N,GND*%
X61260000Y-35000000D03*
%TO.P,J1,8,Pin_8*%
%TO.N,+3V3*%
X58720000Y-35000000D03*
%TD*%
D12*
%TO.P,J14,1,Pin_1*%
%TO.N,+BATT*%
X106900000Y-41100000D03*
%TD*%
%TO.P,J13,1,Pin_1*%
%TO.N,Net-(J13-Pad1)*%
X92200000Y-35500000D03*
%TD*%
%TO.P,J12,1,Pin_1*%
%TO.N,Net-(J12-Pad1)*%
X88900000Y-38050000D03*
%TD*%
%TO.P,J11,1,Pin_1*%
%TO.N,Net-(J11-Pad1)*%
X92200000Y-40600000D03*
%TD*%
%TO.P,J10,1,Pin_1*%
%TO.N,Net-(J10-Pad1)*%
X88900000Y-43100000D03*
%TD*%
%TO.P,J9,1,Pin_1*%
%TO.N,Net-(J1-Pad5)*%
X97400000Y-38050000D03*
%TD*%
%TO.P,J8,1,Pin_1*%
%TO.N,Net-(J1-Pad6)*%
X100700000Y-40600000D03*
%TD*%
%TO.P,J7,1,Pin_1*%
%TO.N,GND*%
X92200000Y-45650000D03*
%TD*%
%TO.P,J6,1,Pin_1*%
%TO.N,+3V3*%
X88900000Y-48200000D03*
%TD*%
%TO.P,J5,1,Pin_1*%
%TO.N,Net-(J4-Pad6)*%
X97400000Y-48200000D03*
%TD*%
D13*
%TO.P,J2,1,Pin_1*%
%TO.N,+4V*%
X61500000Y-42250000D03*
D14*
%TO.P,J2,2,Pin_2*%
%TO.N,GND*%
X59500000Y-42250000D03*
%TD*%
D15*
%TO.N,Net-(J4-Pad6)*%
X95100000Y-50500000D02*
X97400000Y-48200000D01*
X49950000Y-50500000D02*
X95100000Y-50500000D01*
X49950000Y-37350000D02*
X49950000Y-50500000D01*
%TO.N,Net-(J1-Pad6)*%
X94625969Y-33375969D02*
X100700000Y-39450000D01*
X65424031Y-33375969D02*
X94625969Y-33375969D01*
X100700000Y-39450000D02*
X100700000Y-40600000D01*
X63800000Y-35000000D02*
X65424031Y-33375969D01*
%TO.N,Net-(J1-Pad5)*%
X67514511Y-33825489D02*
X93175489Y-33825489D01*
X93175489Y-33825489D02*
X97400000Y-38050000D01*
X66340000Y-35000000D02*
X67514511Y-33825489D01*
%TO.N,Net-(J13-Pad1)*%
X87450000Y-35500000D02*
X92200000Y-35500000D01*
X80000000Y-37750000D02*
X80850000Y-36900000D01*
X75700000Y-37750000D02*
X80000000Y-37750000D01*
X80850000Y-36900000D02*
X86050000Y-36900000D01*
X69350000Y-44100000D02*
X75700000Y-37750000D01*
X59700000Y-44100000D02*
X69350000Y-44100000D01*
X58150000Y-45650000D02*
X59700000Y-44100000D01*
X58150000Y-48000000D02*
X58150000Y-45650000D01*
X86050000Y-36900000D02*
X87450000Y-35500000D01*
%TO.N,Net-(J4-Pad6)*%
X52000000Y-35300000D02*
X49950000Y-37350000D01*
%TO.N,Net-(J11-Pad1)*%
X77150000Y-40600000D02*
X92200000Y-40600000D01*
X71900000Y-45850000D02*
X77150000Y-40600000D01*
X63500000Y-45850000D02*
X71900000Y-45850000D01*
X63230000Y-46120000D02*
X63500000Y-45850000D01*
X63230000Y-48000000D02*
X63230000Y-46120000D01*
%TO.N,Net-(J10-Pad1)*%
X85600000Y-46400000D02*
X88900000Y-43100000D01*
X67370000Y-46400000D02*
X85600000Y-46400000D01*
X65770000Y-48000000D02*
X67370000Y-46400000D01*
%TO.N,Net-(J12-Pad1)*%
X81200000Y-38050000D02*
X88900000Y-38050000D01*
X80600000Y-38650000D02*
X81200000Y-38050000D01*
X76000000Y-38650000D02*
X80600000Y-38650000D01*
X61700000Y-45150000D02*
X69500000Y-45150000D01*
X69500000Y-45150000D02*
X76000000Y-38650000D01*
X60690000Y-46160000D02*
X61700000Y-45150000D01*
X60690000Y-48000000D02*
X60690000Y-46160000D01*
%TO.N,Net-(J1-Pad5)*%
X61340000Y-40000000D02*
X66340000Y-35000000D01*
X59250000Y-40000000D02*
X61340000Y-40000000D01*
X53790000Y-45460000D02*
X59250000Y-40000000D01*
X52000000Y-45460000D02*
X53790000Y-45460000D01*
%TO.N,Net-(J1-Pad6)*%
X58750000Y-38000000D02*
X60800000Y-38000000D01*
X60800000Y-38000000D02*
X63800000Y-35000000D01*
X53830000Y-42920000D02*
X58750000Y-38000000D01*
X52000000Y-42920000D02*
X53830000Y-42920000D01*
%TD*%
M02*
