%TF.GenerationSoftware,KiCad,Pcbnew,(6.0.0)*%
%TF.CreationDate,2022-01-10T19:28:16+00:00*%
%TF.ProjectId,DiscProgrammer,44697363-5072-46f6-9772-616d6d65722e,rev?*%
%TF.SameCoordinates,Original*%
%TF.FileFunction,Copper,L1,Top*%
%TF.FilePolarity,Positive*%
%FSLAX46Y46*%
G04 Gerber Fmt 4.6, Leading zero omitted, Abs format (unit mm)*
G04 Created by KiCad (PCBNEW (6.0.0)) date 2022-01-10 19:28:16*
%MOMM*%
%LPD*%
G01*
G04 APERTURE LIST*
G04 Aperture macros list*
%AMRoundRect*
0 Rectangle with rounded corners*
0 $1 Rounding radius*
0 $2 $3 $4 $5 $6 $7 $8 $9 X,Y pos of 4 corners*
0 Add a 4 corners polygon primitive as box body*
4,1,4,$2,$3,$4,$5,$6,$7,$8,$9,$2,$3,0*
0 Add four circle primitives for the rounded corners*
1,1,$1+$1,$2,$3*
1,1,$1+$1,$4,$5*
1,1,$1+$1,$6,$7*
1,1,$1+$1,$8,$9*
0 Add four rect primitives between the rounded corners*
20,1,$1+$1,$2,$3,$4,$5,0*
20,1,$1+$1,$4,$5,$6,$7,0*
20,1,$1+$1,$6,$7,$8,$9,0*
20,1,$1+$1,$8,$9,$2,$3,0*%
G04 Aperture macros list end*
%TA.AperFunction,ComponentPad*%
%ADD10R,1.700000X1.700000*%
%TD*%
%TA.AperFunction,ComponentPad*%
%ADD11O,1.700000X1.700000*%
%TD*%
%TA.AperFunction,ComponentPad*%
%ADD12C,2.000000*%
%TD*%
%TA.AperFunction,ComponentPad*%
%ADD13RoundRect,0.250000X0.350000X0.625000X-0.350000X0.625000X-0.350000X-0.625000X0.350000X-0.625000X0*%
%TD*%
%TA.AperFunction,ComponentPad*%
%ADD14O,1.200000X1.750000*%
%TD*%
%TA.AperFunction,Conductor*%
%ADD15C,0.800000*%
%TD*%
%TA.AperFunction,Conductor*%
%ADD16C,0.250000*%
%TD*%
G04 APERTURE END LIST*
D10*
%TO.P,J4,1,Pin_1*%
%TO.N,unconnected-(J4-Pad1)*%
X52000000Y-48000000D03*
D11*
%TO.P,J4,2,Pin_2*%
%TO.N,Net-(J1-Pad5)*%
X52000000Y-45460000D03*
%TO.P,J4,3,Pin_3*%
%TO.N,Net-(J1-Pad6)*%
X52000000Y-42920000D03*
%TO.P,J4,4,Pin_4*%
%TO.N,GND*%
X52000000Y-40380000D03*
%TO.P,J4,5,Pin_5*%
%TO.N,+3V3*%
X52000000Y-37840000D03*
%TO.P,J4,6,Pin_6*%
%TO.N,Net-(J4-Pad6)*%
X52000000Y-35300000D03*
%TD*%
D10*
%TO.P,J3,1,Pin_1*%
%TO.N,Net-(J13-Pad1)*%
X58150000Y-48000000D03*
D11*
%TO.P,J3,2,Pin_2*%
%TO.N,Net-(J12-Pad1)*%
X60690000Y-48000000D03*
%TO.P,J3,3,Pin_3*%
%TO.N,Net-(J11-Pad1)*%
X63230000Y-48000000D03*
%TO.P,J3,4,Pin_4*%
%TO.N,Net-(J10-Pad1)*%
X65770000Y-48000000D03*
%TO.P,J3,5,Pin_5*%
%TO.N,GND*%
X68310000Y-48000000D03*
%TO.P,J3,6,Pin_6*%
%TO.N,+3V3*%
X70850000Y-48000000D03*
%TD*%
D10*
%TO.P,J1,1,Pin_1*%
%TO.N,+BATT*%
X76500000Y-35000000D03*
D11*
%TO.P,J1,2,Pin_2*%
%TO.N,+4V*%
X73960000Y-35000000D03*
%TO.P,J1,3,Pin_3*%
%TO.N,unconnected-(J1-Pad3)*%
X71420000Y-35000000D03*
%TO.P,J1,4,Pin_4*%
%TO.N,unconnected-(J1-Pad4)*%
X68880000Y-35000000D03*
%TO.P,J1,5,Pin_5*%
%TO.N,Net-(J1-Pad5)*%
X66340000Y-35000000D03*
%TO.P,J1,6,Pin_6*%
%TO.N,Net-(J1-Pad6)*%
X63800000Y-35000000D03*
%TO.P,J1,7,Pin_7*%
%TO.N,GND*%
X61260000Y-35000000D03*
%TO.P,J1,8,Pin_8*%
%TO.N,+3V3*%
X58720000Y-35000000D03*
%TD*%
D12*
%TO.P,J14,1,Pin_1*%
%TO.N,+BATT*%
X106900000Y-41100000D03*
%TD*%
%TO.P,J13,1,Pin_1*%
%TO.N,Net-(J13-Pad1)*%
X92200000Y-35500000D03*
%TD*%
%TO.P,J12,1,Pin_1*%
%TO.N,Net-(J12-Pad1)*%
X88900000Y-38050000D03*
%TD*%
%TO.P,J11,1,Pin_1*%
%TO.N,Net-(J11-Pad1)*%
X92200000Y-40600000D03*
%TD*%
%TO.P,J10,1,Pin_1*%
%TO.N,Net-(J10-Pad1)*%
X88900000Y-43100000D03*
%TD*%
%TO.P,J9,1,Pin_1*%
%TO.N,Net-(J1-Pad5)*%
X97400000Y-38050000D03*
%TD*%
%TO.P,J8,1,Pin_1*%
%TO.N,Net-(J1-Pad6)*%
X100700000Y-40600000D03*
%TD*%
%TO.P,J7,1,Pin_1*%
%TO.N,GND*%
X92200000Y-45650000D03*
%TD*%
%TO.P,J6,1,Pin_1*%
%TO.N,+3V3*%
X88900000Y-48200000D03*
%TD*%
%TO.P,J5,1,Pin_1*%
%TO.N,Net-(J4-Pad6)*%
X97400000Y-48200000D03*
%TD*%
D13*
%TO.P,J2,1,Pin_1*%
%TO.N,+4V*%
X61500000Y-42250000D03*
D14*
%TO.P,J2,2,Pin_2*%
%TO.N,GND*%
X59500000Y-42250000D03*
%TD*%
D15*
%TO.N,+BATT*%
X99700489Y-33900489D02*
X106900000Y-41100000D01*
X85600000Y-35000000D02*
X86699511Y-33900489D01*
X76500000Y-35000000D02*
X85600000Y-35000000D01*
X86699511Y-33900489D02*
X99700489Y-33900489D01*
%TO.N,+3V3*%
X50750000Y-51150000D02*
X68100000Y-51150000D01*
X49900000Y-50300000D02*
X50750000Y-51150000D01*
X49900000Y-38400000D02*
X49900000Y-50300000D01*
X50460000Y-37840000D02*
X49900000Y-38400000D01*
X52000000Y-37840000D02*
X50460000Y-37840000D01*
X68100000Y-51150000D02*
X71050000Y-48200000D01*
D16*
X71050000Y-48200000D02*
X70850000Y-48000000D01*
D15*
X88900000Y-48200000D02*
X71050000Y-48200000D01*
%TO.N,+4V*%
X73960000Y-38290000D02*
X73960000Y-35000000D01*
X70000000Y-42250000D02*
X73960000Y-38290000D01*
X61500000Y-42250000D02*
X70000000Y-42250000D01*
%TO.N,GND*%
X69150000Y-45650000D02*
X92200000Y-45650000D01*
X67750000Y-44250000D02*
X69150000Y-45650000D01*
X59500000Y-42250000D02*
X59500000Y-39250000D01*
X59500000Y-39250000D02*
X61260000Y-37490000D01*
X61260000Y-37490000D02*
X61260000Y-35000000D01*
X68310000Y-44810000D02*
X68310000Y-48000000D01*
X67750000Y-44250000D02*
X68310000Y-44810000D01*
X60375000Y-44250000D02*
X67750000Y-44250000D01*
X59500000Y-43375000D02*
X60375000Y-44250000D01*
X59500000Y-42250000D02*
X59500000Y-43375000D01*
%TO.N,+3V3*%
X55880000Y-37840000D02*
X58720000Y-35000000D01*
X52000000Y-37840000D02*
X55880000Y-37840000D01*
%TO.N,GND*%
X57630000Y-40380000D02*
X59500000Y-42250000D01*
X52000000Y-40380000D02*
X57630000Y-40380000D01*
%TD*%
%TA.AperFunction,Conductor*%
%TO.N,GND*%
G36*
X94215004Y-26128002D02*
G01*
X94261497Y-26181658D01*
X94271601Y-26251932D01*
X94242107Y-26316512D01*
X94214490Y-26340326D01*
X94069881Y-26432275D01*
X93766090Y-26672625D01*
X93488615Y-26942929D01*
X93240395Y-27240324D01*
X93238590Y-27243005D01*
X93238584Y-27243013D01*
X93025869Y-27558970D01*
X93024059Y-27561659D01*
X92841901Y-27903530D01*
X92840678Y-27906535D01*
X92840674Y-27906543D01*
X92775550Y-28066525D01*
X92695849Y-28262314D01*
X92587451Y-28634210D01*
X92517855Y-29015279D01*
X92517603Y-29018514D01*
X92517603Y-29018516D01*
X92492510Y-29340964D01*
X92487800Y-29401483D01*
X92497602Y-29788731D01*
X92498017Y-29791946D01*
X92498017Y-29791950D01*
X92516490Y-29935159D01*
X92547158Y-30172920D01*
X92547898Y-30176063D01*
X92547899Y-30176068D01*
X92553295Y-30198984D01*
X92635944Y-30549980D01*
X92637011Y-30553052D01*
X92727776Y-30814426D01*
X92763019Y-30915916D01*
X92927036Y-31266852D01*
X92951561Y-31307750D01*
X93123317Y-31594165D01*
X93126257Y-31599068D01*
X93128203Y-31601665D01*
X93128206Y-31601669D01*
X93244611Y-31756987D01*
X93358573Y-31909046D01*
X93621521Y-32193502D01*
X93623955Y-32195644D01*
X93888117Y-32428124D01*
X93912317Y-32449422D01*
X93914959Y-32451303D01*
X93914964Y-32451307D01*
X94080927Y-32569469D01*
X94227878Y-32674095D01*
X94230694Y-32675692D01*
X94230698Y-32675694D01*
X94373017Y-32756378D01*
X94422412Y-32807375D01*
X94436396Y-32876981D01*
X94410527Y-32943097D01*
X94353020Y-32984732D01*
X94310876Y-32991989D01*
X86780927Y-32991989D01*
X86761218Y-32990438D01*
X86747320Y-32988237D01*
X86740733Y-32988582D01*
X86740728Y-32988582D01*
X86679030Y-32991816D01*
X86672436Y-32991989D01*
X86651901Y-32991989D01*
X86645733Y-32992637D01*
X86631471Y-32994136D01*
X86624896Y-32994653D01*
X86563207Y-32997886D01*
X86563206Y-32997886D01*
X86556607Y-32998232D01*
X86543019Y-33001873D01*
X86523572Y-33005477D01*
X86516155Y-33006256D01*
X86516151Y-33006257D01*
X86509583Y-33006947D01*
X86503154Y-33009036D01*
X86444520Y-33028087D01*
X86438196Y-33029960D01*
X86378521Y-33045950D01*
X86378517Y-33045951D01*
X86372141Y-33047660D01*
X86366259Y-33050657D01*
X86359604Y-33054048D01*
X86341337Y-33061614D01*
X86334239Y-33063920D01*
X86334237Y-33063921D01*
X86327955Y-33065962D01*
X86322233Y-33069265D01*
X86322232Y-33069266D01*
X86268729Y-33100156D01*
X86262934Y-33103303D01*
X86201981Y-33134360D01*
X86196853Y-33138513D01*
X86196851Y-33138514D01*
X86191045Y-33143216D01*
X86174748Y-33154416D01*
X86168287Y-33158146D01*
X86168283Y-33158149D01*
X86162567Y-33161449D01*
X86157661Y-33165866D01*
X86157656Y-33165870D01*
X86111742Y-33207211D01*
X86106727Y-33211495D01*
X86098229Y-33218377D01*
X86090770Y-33224417D01*
X86076255Y-33238932D01*
X86071470Y-33243473D01*
X86020645Y-33289236D01*
X86016766Y-33294575D01*
X86016765Y-33294576D01*
X86012371Y-33300624D01*
X85999530Y-33315657D01*
X85260592Y-34054595D01*
X85198280Y-34088621D01*
X85171497Y-34091500D01*
X77958498Y-34091500D01*
X77890377Y-34071498D01*
X77843884Y-34017842D01*
X77840516Y-34009730D01*
X77803767Y-33911703D01*
X77800615Y-33903295D01*
X77713261Y-33786739D01*
X77596705Y-33699385D01*
X77460316Y-33648255D01*
X77398134Y-33641500D01*
X75601866Y-33641500D01*
X75539684Y-33648255D01*
X75403295Y-33699385D01*
X75286739Y-33786739D01*
X75199385Y-33903295D01*
X75196233Y-33911703D01*
X75154919Y-34021907D01*
X75112277Y-34078671D01*
X75045716Y-34103371D01*
X74976367Y-34088163D01*
X74943743Y-34062476D01*
X74893151Y-34006875D01*
X74893142Y-34006866D01*
X74889670Y-34003051D01*
X74885619Y-33999852D01*
X74885615Y-33999848D01*
X74718414Y-33867800D01*
X74718410Y-33867798D01*
X74714359Y-33864598D01*
X74678028Y-33844542D01*
X74607346Y-33805524D01*
X74518789Y-33756638D01*
X74513920Y-33754914D01*
X74513916Y-33754912D01*
X74313087Y-33683795D01*
X74313083Y-33683794D01*
X74308212Y-33682069D01*
X74303119Y-33681162D01*
X74303116Y-33681161D01*
X74093373Y-33643800D01*
X74093367Y-33643799D01*
X74088284Y-33642894D01*
X74014452Y-33641992D01*
X73870081Y-33640228D01*
X73870079Y-33640228D01*
X73864911Y-33640165D01*
X73644091Y-33673955D01*
X73431756Y-33743357D01*
X73233607Y-33846507D01*
X73229474Y-33849610D01*
X73229471Y-33849612D01*
X73059100Y-33977530D01*
X73054965Y-33980635D01*
X73029541Y-34007240D01*
X72961280Y-34078671D01*
X72900629Y-34142138D01*
X72793201Y-34299621D01*
X72738293Y-34344621D01*
X72667768Y-34352792D01*
X72604021Y-34321538D01*
X72583324Y-34297054D01*
X72502822Y-34172617D01*
X72502820Y-34172614D01*
X72500014Y-34168277D01*
X72349670Y-34003051D01*
X72345619Y-33999852D01*
X72345615Y-33999848D01*
X72178414Y-33867800D01*
X72178410Y-33867798D01*
X72174359Y-33864598D01*
X72138028Y-33844542D01*
X72067346Y-33805524D01*
X71978789Y-33756638D01*
X71973920Y-33754914D01*
X71973916Y-33754912D01*
X71773087Y-33683795D01*
X71773083Y-33683794D01*
X71768212Y-33682069D01*
X71763119Y-33681162D01*
X71763116Y-33681161D01*
X71553373Y-33643800D01*
X71553367Y-33643799D01*
X71548284Y-33642894D01*
X71474452Y-33641992D01*
X71330081Y-33640228D01*
X71330079Y-33640228D01*
X71324911Y-33640165D01*
X71104091Y-33673955D01*
X70891756Y-33743357D01*
X70693607Y-33846507D01*
X70689474Y-33849610D01*
X70689471Y-33849612D01*
X70519100Y-33977530D01*
X70514965Y-33980635D01*
X70489541Y-34007240D01*
X70421280Y-34078671D01*
X70360629Y-34142138D01*
X70253201Y-34299621D01*
X70198293Y-34344621D01*
X70127768Y-34352792D01*
X70064021Y-34321538D01*
X70043324Y-34297054D01*
X69962822Y-34172617D01*
X69962820Y-34172614D01*
X69960014Y-34168277D01*
X69809670Y-34003051D01*
X69805619Y-33999852D01*
X69805615Y-33999848D01*
X69638414Y-33867800D01*
X69638410Y-33867798D01*
X69634359Y-33864598D01*
X69598028Y-33844542D01*
X69527346Y-33805524D01*
X69438789Y-33756638D01*
X69433920Y-33754914D01*
X69433916Y-33754912D01*
X69233087Y-33683795D01*
X69233083Y-33683794D01*
X69228212Y-33682069D01*
X69223119Y-33681162D01*
X69223116Y-33681161D01*
X69013373Y-33643800D01*
X69013367Y-33643799D01*
X69008284Y-33642894D01*
X68934452Y-33641992D01*
X68790081Y-33640228D01*
X68790079Y-33640228D01*
X68784911Y-33640165D01*
X68564091Y-33673955D01*
X68351756Y-33743357D01*
X68153607Y-33846507D01*
X68149474Y-33849610D01*
X68149471Y-33849612D01*
X67979100Y-33977530D01*
X67974965Y-33980635D01*
X67949541Y-34007240D01*
X67881280Y-34078671D01*
X67820629Y-34142138D01*
X67713201Y-34299621D01*
X67658293Y-34344621D01*
X67587768Y-34352792D01*
X67524021Y-34321538D01*
X67503324Y-34297054D01*
X67422822Y-34172617D01*
X67422820Y-34172614D01*
X67420014Y-34168277D01*
X67269670Y-34003051D01*
X67265619Y-33999852D01*
X67265615Y-33999848D01*
X67098414Y-33867800D01*
X67098410Y-33867798D01*
X67094359Y-33864598D01*
X67058028Y-33844542D01*
X66987346Y-33805524D01*
X66898789Y-33756638D01*
X66893920Y-33754914D01*
X66893916Y-33754912D01*
X66693087Y-33683795D01*
X66693083Y-33683794D01*
X66688212Y-33682069D01*
X66683119Y-33681162D01*
X66683116Y-33681161D01*
X66473373Y-33643800D01*
X66473367Y-33643799D01*
X66468284Y-33642894D01*
X66394452Y-33641992D01*
X66250081Y-33640228D01*
X66250079Y-33640228D01*
X66244911Y-33640165D01*
X66024091Y-33673955D01*
X65811756Y-33743357D01*
X65613607Y-33846507D01*
X65609474Y-33849610D01*
X65609471Y-33849612D01*
X65439100Y-33977530D01*
X65434965Y-33980635D01*
X65409541Y-34007240D01*
X65341280Y-34078671D01*
X65280629Y-34142138D01*
X65173201Y-34299621D01*
X65118293Y-34344621D01*
X65047768Y-34352792D01*
X64984021Y-34321538D01*
X64963324Y-34297054D01*
X64882822Y-34172617D01*
X64882820Y-34172614D01*
X64880014Y-34168277D01*
X64729670Y-34003051D01*
X64725619Y-33999852D01*
X64725615Y-33999848D01*
X64558414Y-33867800D01*
X64558410Y-33867798D01*
X64554359Y-33864598D01*
X64518028Y-33844542D01*
X64447346Y-33805524D01*
X64358789Y-33756638D01*
X64353920Y-33754914D01*
X64353916Y-33754912D01*
X64153087Y-33683795D01*
X64153083Y-33683794D01*
X64148212Y-33682069D01*
X64143119Y-33681162D01*
X64143116Y-33681161D01*
X63933373Y-33643800D01*
X63933367Y-33643799D01*
X63928284Y-33642894D01*
X63854452Y-33641992D01*
X63710081Y-33640228D01*
X63710079Y-33640228D01*
X63704911Y-33640165D01*
X63484091Y-33673955D01*
X63271756Y-33743357D01*
X63073607Y-33846507D01*
X63069474Y-33849610D01*
X63069471Y-33849612D01*
X62899100Y-33977530D01*
X62894965Y-33980635D01*
X62869541Y-34007240D01*
X62801280Y-34078671D01*
X62740629Y-34142138D01*
X62737720Y-34146403D01*
X62737714Y-34146411D01*
X62722798Y-34168277D01*
X62633204Y-34299618D01*
X62632898Y-34300066D01*
X62577987Y-34345069D01*
X62507462Y-34353240D01*
X62443715Y-34321986D01*
X62423018Y-34297502D01*
X62342426Y-34172926D01*
X62336136Y-34164757D01*
X62192806Y-34007240D01*
X62185273Y-34000215D01*
X62018139Y-33868222D01*
X62009552Y-33862517D01*
X61823117Y-33759599D01*
X61813705Y-33755369D01*
X61612959Y-33684280D01*
X61602988Y-33681646D01*
X61531837Y-33668972D01*
X61518540Y-33670432D01*
X61514000Y-33684989D01*
X61514000Y-36318517D01*
X61518064Y-36332359D01*
X61531478Y-36334393D01*
X61538184Y-36333534D01*
X61548262Y-36331392D01*
X61752255Y-36270191D01*
X61761842Y-36266433D01*
X61953095Y-36172739D01*
X61961945Y-36167464D01*
X62135328Y-36043792D01*
X62143200Y-36037139D01*
X62294052Y-35886812D01*
X62300730Y-35878965D01*
X62428022Y-35701819D01*
X62429279Y-35702722D01*
X62476373Y-35659362D01*
X62546311Y-35647145D01*
X62611751Y-35674678D01*
X62639579Y-35706511D01*
X62699987Y-35805088D01*
X62846250Y-35973938D01*
X63018126Y-36116632D01*
X63211000Y-36229338D01*
X63419692Y-36309030D01*
X63424760Y-36310061D01*
X63424763Y-36310062D01*
X63519862Y-36329410D01*
X63638597Y-36353567D01*
X63643772Y-36353757D01*
X63643774Y-36353757D01*
X63856673Y-36361564D01*
X63856677Y-36361564D01*
X63861837Y-36361753D01*
X63866957Y-36361097D01*
X63866959Y-36361097D01*
X64078288Y-36334025D01*
X64078289Y-36334025D01*
X64083416Y-36333368D01*
X64088366Y-36331883D01*
X64292429Y-36270661D01*
X64292434Y-36270659D01*
X64297384Y-36269174D01*
X64497994Y-36170896D01*
X64679860Y-36041173D01*
X64838096Y-35883489D01*
X64933276Y-35751032D01*
X64968453Y-35702077D01*
X64969776Y-35703028D01*
X65016645Y-35659857D01*
X65086580Y-35647625D01*
X65152026Y-35675144D01*
X65179875Y-35706994D01*
X65239987Y-35805088D01*
X65386250Y-35973938D01*
X65558126Y-36116632D01*
X65751000Y-36229338D01*
X65959692Y-36309030D01*
X65964760Y-36310061D01*
X65964763Y-36310062D01*
X66059862Y-36329410D01*
X66178597Y-36353567D01*
X66183772Y-36353757D01*
X66183774Y-36353757D01*
X66396673Y-36361564D01*
X66396677Y-36361564D01*
X66401837Y-36361753D01*
X66406957Y-36361097D01*
X66406959Y-36361097D01*
X66618288Y-36334025D01*
X66618289Y-36334025D01*
X66623416Y-36333368D01*
X66628366Y-36331883D01*
X66832429Y-36270661D01*
X66832434Y-36270659D01*
X66837384Y-36269174D01*
X67037994Y-36170896D01*
X67219860Y-36041173D01*
X67378096Y-35883489D01*
X67473276Y-35751032D01*
X67508453Y-35702077D01*
X67509776Y-35703028D01*
X67556645Y-35659857D01*
X67626580Y-35647625D01*
X67692026Y-35675144D01*
X67719875Y-35706994D01*
X67779987Y-35805088D01*
X67926250Y-35973938D01*
X68098126Y-36116632D01*
X68291000Y-36229338D01*
X68499692Y-36309030D01*
X68504760Y-36310061D01*
X68504763Y-36310062D01*
X68599862Y-36329410D01*
X68718597Y-36353567D01*
X68723772Y-36353757D01*
X68723774Y-36353757D01*
X68936673Y-36361564D01*
X68936677Y-36361564D01*
X68941837Y-36361753D01*
X68946957Y-36361097D01*
X68946959Y-36361097D01*
X69158288Y-36334025D01*
X69158289Y-36334025D01*
X69163416Y-36333368D01*
X69168366Y-36331883D01*
X69372429Y-36270661D01*
X69372434Y-36270659D01*
X69377384Y-36269174D01*
X69577994Y-36170896D01*
X69759860Y-36041173D01*
X69918096Y-35883489D01*
X70013276Y-35751032D01*
X70048453Y-35702077D01*
X70049776Y-35703028D01*
X70096645Y-35659857D01*
X70166580Y-35647625D01*
X70232026Y-35675144D01*
X70259875Y-35706994D01*
X70319987Y-35805088D01*
X70466250Y-35973938D01*
X70638126Y-36116632D01*
X70831000Y-36229338D01*
X71039692Y-36309030D01*
X71044760Y-36310061D01*
X71044763Y-36310062D01*
X71139862Y-36329410D01*
X71258597Y-36353567D01*
X71263772Y-36353757D01*
X71263774Y-36353757D01*
X71476673Y-36361564D01*
X71476677Y-36361564D01*
X71481837Y-36361753D01*
X71486957Y-36361097D01*
X71486959Y-36361097D01*
X71698288Y-36334025D01*
X71698289Y-36334025D01*
X71703416Y-36333368D01*
X71708366Y-36331883D01*
X71912429Y-36270661D01*
X71912434Y-36270659D01*
X71917384Y-36269174D01*
X72117994Y-36170896D01*
X72299860Y-36041173D01*
X72458096Y-35883489D01*
X72553276Y-35751032D01*
X72588453Y-35702077D01*
X72589776Y-35703028D01*
X72636645Y-35659857D01*
X72706580Y-35647625D01*
X72772026Y-35675144D01*
X72799875Y-35706994D01*
X72859987Y-35805088D01*
X72863367Y-35808990D01*
X73002866Y-35970032D01*
X73002869Y-35970035D01*
X73006250Y-35973938D01*
X73010224Y-35977237D01*
X73013658Y-35980600D01*
X73048334Y-36042553D01*
X73051500Y-36070623D01*
X73051500Y-37861497D01*
X73031498Y-37929618D01*
X73014595Y-37950592D01*
X69660592Y-41304595D01*
X69598280Y-41338621D01*
X69571497Y-41341500D01*
X62636781Y-41341500D01*
X62568660Y-41321498D01*
X62529637Y-41281803D01*
X62452332Y-41156880D01*
X62448478Y-41150652D01*
X62323303Y-41025695D01*
X62317072Y-41021854D01*
X62178968Y-40936725D01*
X62178966Y-40936724D01*
X62172738Y-40932885D01*
X62064005Y-40896820D01*
X62011389Y-40879368D01*
X62011387Y-40879368D01*
X62004861Y-40877203D01*
X61998025Y-40876503D01*
X61998022Y-40876502D01*
X61954969Y-40872091D01*
X61900400Y-40866500D01*
X61099600Y-40866500D01*
X61096354Y-40866837D01*
X61096350Y-40866837D01*
X61000692Y-40876762D01*
X61000688Y-40876763D01*
X60993834Y-40877474D01*
X60987298Y-40879655D01*
X60987296Y-40879655D01*
X60923117Y-40901067D01*
X60826054Y-40933450D01*
X60675652Y-41026522D01*
X60550695Y-41151697D01*
X60546853Y-41157929D01*
X60546852Y-41157931D01*
X60518645Y-41203690D01*
X60465873Y-41251183D01*
X60395801Y-41262605D01*
X60330677Y-41234331D01*
X60312298Y-41215403D01*
X60309738Y-41212144D01*
X60301501Y-41203494D01*
X60150877Y-41072788D01*
X60141153Y-41065853D01*
X59968533Y-40965990D01*
X59957669Y-40961016D01*
X59769273Y-40895593D01*
X59768284Y-40895352D01*
X59757992Y-40896820D01*
X59754000Y-40910385D01*
X59754000Y-43585402D01*
X59757973Y-43598933D01*
X59767399Y-43600288D01*
X59856537Y-43578806D01*
X59867832Y-43574917D01*
X60049382Y-43492371D01*
X60059724Y-43486424D01*
X60222397Y-43371032D01*
X60231425Y-43363239D01*
X60318535Y-43272243D01*
X60380090Y-43236867D01*
X60451000Y-43240386D01*
X60508750Y-43281683D01*
X60516685Y-43293053D01*
X60551522Y-43349348D01*
X60676697Y-43474305D01*
X60682927Y-43478145D01*
X60682928Y-43478146D01*
X60820233Y-43562782D01*
X60827262Y-43567115D01*
X60882396Y-43585402D01*
X60988611Y-43620632D01*
X60988613Y-43620632D01*
X60995139Y-43622797D01*
X61001975Y-43623497D01*
X61001978Y-43623498D01*
X61045031Y-43627909D01*
X61099600Y-43633500D01*
X61900400Y-43633500D01*
X61903646Y-43633163D01*
X61903650Y-43633163D01*
X61999308Y-43623238D01*
X61999312Y-43623237D01*
X62006166Y-43622526D01*
X62012702Y-43620345D01*
X62012704Y-43620345D01*
X62157110Y-43572167D01*
X62173946Y-43566550D01*
X62324348Y-43473478D01*
X62449305Y-43348303D01*
X62453484Y-43341524D01*
X62529389Y-43218384D01*
X62582162Y-43170890D01*
X62636649Y-43158500D01*
X69918583Y-43158500D01*
X69938292Y-43160051D01*
X69952190Y-43162252D01*
X69958777Y-43161907D01*
X69958782Y-43161907D01*
X70020480Y-43158673D01*
X70027074Y-43158500D01*
X70047610Y-43158500D01*
X70050882Y-43158156D01*
X70050884Y-43158156D01*
X70068042Y-43156353D01*
X70074616Y-43155836D01*
X70136308Y-43152603D01*
X70136312Y-43152602D01*
X70142903Y-43152257D01*
X70149284Y-43150547D01*
X70149286Y-43150547D01*
X70156491Y-43148617D01*
X70175925Y-43145015D01*
X70183354Y-43144234D01*
X70183363Y-43144232D01*
X70189928Y-43143542D01*
X70254997Y-43122400D01*
X70261299Y-43120533D01*
X70327370Y-43102829D01*
X70332922Y-43100000D01*
X87386835Y-43100000D01*
X87405465Y-43336711D01*
X87406619Y-43341518D01*
X87406620Y-43341524D01*
X87427010Y-43426453D01*
X87460895Y-43567594D01*
X87462788Y-43572165D01*
X87462789Y-43572167D01*
X87526131Y-43725088D01*
X87551760Y-43786963D01*
X87554346Y-43791183D01*
X87673241Y-43985202D01*
X87673245Y-43985208D01*
X87675824Y-43989416D01*
X87830031Y-44169969D01*
X88010584Y-44324176D01*
X88014792Y-44326755D01*
X88014798Y-44326759D01*
X88182799Y-44429710D01*
X88213037Y-44448240D01*
X88217607Y-44450133D01*
X88217611Y-44450135D01*
X88427833Y-44537211D01*
X88432406Y-44539105D01*
X88512609Y-44558360D01*
X88658476Y-44593380D01*
X88658482Y-44593381D01*
X88663289Y-44594535D01*
X88900000Y-44613165D01*
X89136711Y-44594535D01*
X89141518Y-44593381D01*
X89141524Y-44593380D01*
X89287391Y-44558360D01*
X89367594Y-44539105D01*
X89372167Y-44537211D01*
X89582389Y-44450135D01*
X89582393Y-44450133D01*
X89586963Y-44448240D01*
X89617201Y-44429710D01*
X89636490Y-44417890D01*
X91332093Y-44417890D01*
X91335876Y-44426666D01*
X92187188Y-45277978D01*
X92201132Y-45285592D01*
X92202965Y-45285461D01*
X92209580Y-45281210D01*
X93061080Y-44429710D01*
X93067840Y-44417330D01*
X93062113Y-44409680D01*
X92890958Y-44304795D01*
X92882163Y-44300313D01*
X92672012Y-44213266D01*
X92662627Y-44210217D01*
X92441446Y-44157115D01*
X92431699Y-44155572D01*
X92204930Y-44137725D01*
X92195070Y-44137725D01*
X91968301Y-44155572D01*
X91958554Y-44157115D01*
X91737373Y-44210217D01*
X91727988Y-44213266D01*
X91517837Y-44300313D01*
X91509042Y-44304795D01*
X91341555Y-44407432D01*
X91332093Y-44417890D01*
X89636490Y-44417890D01*
X89785202Y-44326759D01*
X89785208Y-44326755D01*
X89789416Y-44324176D01*
X89969969Y-44169969D01*
X90124176Y-43989416D01*
X90126755Y-43985208D01*
X90126759Y-43985202D01*
X90245654Y-43791183D01*
X90248240Y-43786963D01*
X90273870Y-43725088D01*
X90337211Y-43572167D01*
X90337212Y-43572165D01*
X90339105Y-43567594D01*
X90372990Y-43426453D01*
X90393380Y-43341524D01*
X90393381Y-43341518D01*
X90394535Y-43336711D01*
X90413165Y-43100000D01*
X90394535Y-42863289D01*
X90392765Y-42855913D01*
X90340260Y-42637218D01*
X90339105Y-42632406D01*
X90331135Y-42613165D01*
X90250135Y-42417611D01*
X90250133Y-42417607D01*
X90248240Y-42413037D01*
X90245654Y-42408817D01*
X90126759Y-42214798D01*
X90126755Y-42214792D01*
X90124176Y-42210584D01*
X89969969Y-42030031D01*
X89789416Y-41875824D01*
X89785208Y-41873245D01*
X89785202Y-41873241D01*
X89591183Y-41754346D01*
X89586963Y-41751760D01*
X89582393Y-41749867D01*
X89582389Y-41749865D01*
X89372167Y-41662789D01*
X89372165Y-41662788D01*
X89367594Y-41660895D01*
X89287391Y-41641640D01*
X89141524Y-41606620D01*
X89141518Y-41606619D01*
X89136711Y-41605465D01*
X88900000Y-41586835D01*
X88663289Y-41605465D01*
X88658482Y-41606619D01*
X88658476Y-41606620D01*
X88512609Y-41641640D01*
X88432406Y-41660895D01*
X88427835Y-41662788D01*
X88427833Y-41662789D01*
X88217611Y-41749865D01*
X88217607Y-41749867D01*
X88213037Y-41751760D01*
X88208817Y-41754346D01*
X88014798Y-41873241D01*
X88014792Y-41873245D01*
X88010584Y-41875824D01*
X87830031Y-42030031D01*
X87675824Y-42210584D01*
X87673245Y-42214792D01*
X87673241Y-42214798D01*
X87554346Y-42408817D01*
X87551760Y-42413037D01*
X87549867Y-42417607D01*
X87549865Y-42417611D01*
X87468865Y-42613165D01*
X87460895Y-42632406D01*
X87459740Y-42637218D01*
X87407236Y-42855913D01*
X87405465Y-42863289D01*
X87386835Y-43100000D01*
X70332922Y-43100000D01*
X70339908Y-43096440D01*
X70358174Y-43088875D01*
X70365272Y-43086569D01*
X70365274Y-43086568D01*
X70371556Y-43084527D01*
X70430785Y-43050331D01*
X70436579Y-43047185D01*
X70468018Y-43031166D01*
X70497530Y-43016129D01*
X70508467Y-43007273D01*
X70524763Y-42996073D01*
X70531224Y-42992343D01*
X70531228Y-42992340D01*
X70536944Y-42989040D01*
X70541850Y-42984623D01*
X70541855Y-42984619D01*
X70587769Y-42943278D01*
X70592784Y-42938994D01*
X70606177Y-42928148D01*
X70608741Y-42926072D01*
X70623256Y-42911557D01*
X70628041Y-42907016D01*
X70673957Y-42865673D01*
X70678866Y-42861253D01*
X70687140Y-42849865D01*
X70699981Y-42834832D01*
X72934813Y-40600000D01*
X90686835Y-40600000D01*
X90705465Y-40836711D01*
X90706619Y-40841518D01*
X90706620Y-40841524D01*
X90726681Y-40925083D01*
X90760895Y-41067594D01*
X90762788Y-41072165D01*
X90762789Y-41072167D01*
X90849623Y-41281803D01*
X90851760Y-41286963D01*
X90854346Y-41291183D01*
X90973241Y-41485202D01*
X90973245Y-41485208D01*
X90975824Y-41489416D01*
X91130031Y-41669969D01*
X91310584Y-41824176D01*
X91314792Y-41826755D01*
X91314798Y-41826759D01*
X91508817Y-41945654D01*
X91513037Y-41948240D01*
X91517607Y-41950133D01*
X91517611Y-41950135D01*
X91702754Y-42026823D01*
X91732406Y-42039105D01*
X91812609Y-42058360D01*
X91958476Y-42093380D01*
X91958482Y-42093381D01*
X91963289Y-42094535D01*
X92200000Y-42113165D01*
X92436711Y-42094535D01*
X92441518Y-42093381D01*
X92441524Y-42093380D01*
X92587391Y-42058360D01*
X92667594Y-42039105D01*
X92697246Y-42026823D01*
X92882389Y-41950135D01*
X92882393Y-41950133D01*
X92886963Y-41948240D01*
X92891183Y-41945654D01*
X93085202Y-41826759D01*
X93085208Y-41826755D01*
X93089416Y-41824176D01*
X93269969Y-41669969D01*
X93424176Y-41489416D01*
X93426755Y-41485208D01*
X93426759Y-41485202D01*
X93545654Y-41291183D01*
X93548240Y-41286963D01*
X93550378Y-41281803D01*
X93637211Y-41072167D01*
X93637212Y-41072165D01*
X93639105Y-41067594D01*
X93673319Y-40925083D01*
X93693380Y-40841524D01*
X93693381Y-40841518D01*
X93694535Y-40836711D01*
X93713165Y-40600000D01*
X99186835Y-40600000D01*
X99205465Y-40836711D01*
X99206619Y-40841518D01*
X99206620Y-40841524D01*
X99226681Y-40925083D01*
X99260895Y-41067594D01*
X99262788Y-41072165D01*
X99262789Y-41072167D01*
X99349623Y-41281803D01*
X99351760Y-41286963D01*
X99354346Y-41291183D01*
X99473241Y-41485202D01*
X99473245Y-41485208D01*
X99475824Y-41489416D01*
X99630031Y-41669969D01*
X99810584Y-41824176D01*
X99814792Y-41826755D01*
X99814798Y-41826759D01*
X100008817Y-41945654D01*
X100013037Y-41948240D01*
X100017607Y-41950133D01*
X100017611Y-41950135D01*
X100202754Y-42026823D01*
X100232406Y-42039105D01*
X100312609Y-42058360D01*
X100458476Y-42093380D01*
X100458482Y-42093381D01*
X100463289Y-42094535D01*
X100700000Y-42113165D01*
X100936711Y-42094535D01*
X100941518Y-42093381D01*
X100941524Y-42093380D01*
X101087391Y-42058360D01*
X101167594Y-42039105D01*
X101197246Y-42026823D01*
X101382389Y-41950135D01*
X101382393Y-41950133D01*
X101386963Y-41948240D01*
X101391183Y-41945654D01*
X101585202Y-41826759D01*
X101585208Y-41826755D01*
X101589416Y-41824176D01*
X101769969Y-41669969D01*
X101924176Y-41489416D01*
X101926755Y-41485208D01*
X101926759Y-41485202D01*
X102045654Y-41291183D01*
X102048240Y-41286963D01*
X102050378Y-41281803D01*
X102137211Y-41072167D01*
X102137212Y-41072165D01*
X102139105Y-41067594D01*
X102173319Y-40925083D01*
X102193380Y-40841524D01*
X102193381Y-40841518D01*
X102194535Y-40836711D01*
X102213165Y-40600000D01*
X102194535Y-40363289D01*
X102139105Y-40132406D01*
X102096700Y-40030031D01*
X102050135Y-39917611D01*
X102050133Y-39917607D01*
X102048240Y-39913037D01*
X102045654Y-39908817D01*
X101926759Y-39714798D01*
X101926755Y-39714792D01*
X101924176Y-39710584D01*
X101769969Y-39530031D01*
X101589416Y-39375824D01*
X101585208Y-39373245D01*
X101585202Y-39373241D01*
X101391183Y-39254346D01*
X101386963Y-39251760D01*
X101382393Y-39249867D01*
X101382389Y-39249865D01*
X101172167Y-39162789D01*
X101172165Y-39162788D01*
X101167594Y-39160895D01*
X101087391Y-39141640D01*
X100941524Y-39106620D01*
X100941518Y-39106619D01*
X100936711Y-39105465D01*
X100700000Y-39086835D01*
X100463289Y-39105465D01*
X100458482Y-39106619D01*
X100458476Y-39106620D01*
X100312609Y-39141640D01*
X100232406Y-39160895D01*
X100227835Y-39162788D01*
X100227833Y-39162789D01*
X100017611Y-39249865D01*
X100017607Y-39249867D01*
X100013037Y-39251760D01*
X100008817Y-39254346D01*
X99814798Y-39373241D01*
X99814792Y-39373245D01*
X99810584Y-39375824D01*
X99630031Y-39530031D01*
X99475824Y-39710584D01*
X99473245Y-39714792D01*
X99473241Y-39714798D01*
X99354346Y-39908817D01*
X99351760Y-39913037D01*
X99349867Y-39917607D01*
X99349865Y-39917611D01*
X99303300Y-40030031D01*
X99260895Y-40132406D01*
X99205465Y-40363289D01*
X99186835Y-40600000D01*
X93713165Y-40600000D01*
X93694535Y-40363289D01*
X93639105Y-40132406D01*
X93596700Y-40030031D01*
X93550135Y-39917611D01*
X93550133Y-39917607D01*
X93548240Y-39913037D01*
X93545654Y-39908817D01*
X93426759Y-39714798D01*
X93426755Y-39714792D01*
X93424176Y-39710584D01*
X93269969Y-39530031D01*
X93089416Y-39375824D01*
X93085208Y-39373245D01*
X93085202Y-39373241D01*
X92891183Y-39254346D01*
X92886963Y-39251760D01*
X92882393Y-39249867D01*
X92882389Y-39249865D01*
X92672167Y-39162789D01*
X92672165Y-39162788D01*
X92667594Y-39160895D01*
X92587391Y-39141640D01*
X92441524Y-39106620D01*
X92441518Y-39106619D01*
X92436711Y-39105465D01*
X92200000Y-39086835D01*
X91963289Y-39105465D01*
X91958482Y-39106619D01*
X91958476Y-39106620D01*
X91812609Y-39141640D01*
X91732406Y-39160895D01*
X91727835Y-39162788D01*
X91727833Y-39162789D01*
X91517611Y-39249865D01*
X91517607Y-39249867D01*
X91513037Y-39251760D01*
X91508817Y-39254346D01*
X91314798Y-39373241D01*
X91314792Y-39373245D01*
X91310584Y-39375824D01*
X91130031Y-39530031D01*
X90975824Y-39710584D01*
X90973245Y-39714792D01*
X90973241Y-39714798D01*
X90854346Y-39908817D01*
X90851760Y-39913037D01*
X90849867Y-39917607D01*
X90849865Y-39917611D01*
X90803300Y-40030031D01*
X90760895Y-40132406D01*
X90705465Y-40363289D01*
X90686835Y-40600000D01*
X72934813Y-40600000D01*
X74544832Y-38989981D01*
X74559865Y-38977140D01*
X74565913Y-38972746D01*
X74565914Y-38972745D01*
X74571253Y-38968866D01*
X74617016Y-38918041D01*
X74621557Y-38913256D01*
X74636072Y-38898741D01*
X74642112Y-38891282D01*
X74648994Y-38882784D01*
X74653278Y-38877769D01*
X74694619Y-38831855D01*
X74694623Y-38831850D01*
X74699040Y-38826944D01*
X74702340Y-38821228D01*
X74702343Y-38821224D01*
X74706073Y-38814763D01*
X74717273Y-38798466D01*
X74721975Y-38792660D01*
X74721976Y-38792658D01*
X74726129Y-38787530D01*
X74731845Y-38776313D01*
X74757188Y-38726574D01*
X74760336Y-38720777D01*
X74791224Y-38667277D01*
X74794527Y-38661556D01*
X74798875Y-38648174D01*
X74806438Y-38629915D01*
X74812830Y-38617370D01*
X74815040Y-38609125D01*
X74830535Y-38551294D01*
X74832409Y-38544969D01*
X74836926Y-38531069D01*
X74853542Y-38479928D01*
X74855014Y-38465925D01*
X74858615Y-38446496D01*
X74862257Y-38432903D01*
X74865836Y-38364616D01*
X74866353Y-38358042D01*
X74868156Y-38340884D01*
X74868156Y-38340882D01*
X74868500Y-38337610D01*
X74868500Y-38317074D01*
X74868673Y-38310480D01*
X74871907Y-38248782D01*
X74871907Y-38248777D01*
X74872252Y-38242190D01*
X74870051Y-38228293D01*
X74868500Y-38208583D01*
X74868500Y-38050000D01*
X87386835Y-38050000D01*
X87405465Y-38286711D01*
X87406619Y-38291518D01*
X87406620Y-38291524D01*
X87424168Y-38364616D01*
X87460895Y-38517594D01*
X87462788Y-38522165D01*
X87462789Y-38522167D01*
X87547457Y-38726574D01*
X87551760Y-38736963D01*
X87554346Y-38741183D01*
X87673241Y-38935202D01*
X87673245Y-38935208D01*
X87675824Y-38939416D01*
X87830031Y-39119969D01*
X88010584Y-39274176D01*
X88014792Y-39276755D01*
X88014798Y-39276759D01*
X88181697Y-39379035D01*
X88213037Y-39398240D01*
X88217607Y-39400133D01*
X88217611Y-39400135D01*
X88427833Y-39487211D01*
X88432406Y-39489105D01*
X88512609Y-39508360D01*
X88658476Y-39543380D01*
X88658482Y-39543381D01*
X88663289Y-39544535D01*
X88889204Y-39562315D01*
X88890560Y-39562422D01*
X88900000Y-39563165D01*
X88909441Y-39562422D01*
X88910796Y-39562315D01*
X89136711Y-39544535D01*
X89141518Y-39543381D01*
X89141524Y-39543380D01*
X89287391Y-39508360D01*
X89367594Y-39489105D01*
X89372167Y-39487211D01*
X89582389Y-39400135D01*
X89582393Y-39400133D01*
X89586963Y-39398240D01*
X89618303Y-39379035D01*
X89785202Y-39276759D01*
X89785208Y-39276755D01*
X89789416Y-39274176D01*
X89969969Y-39119969D01*
X90124176Y-38939416D01*
X90126755Y-38935208D01*
X90126759Y-38935202D01*
X90245654Y-38741183D01*
X90248240Y-38736963D01*
X90252544Y-38726574D01*
X90337211Y-38522167D01*
X90337212Y-38522165D01*
X90339105Y-38517594D01*
X90375832Y-38364616D01*
X90393380Y-38291524D01*
X90393381Y-38291518D01*
X90394535Y-38286711D01*
X90413165Y-38050000D01*
X95886835Y-38050000D01*
X95905465Y-38286711D01*
X95906619Y-38291518D01*
X95906620Y-38291524D01*
X95924168Y-38364616D01*
X95960895Y-38517594D01*
X95962788Y-38522165D01*
X95962789Y-38522167D01*
X96047457Y-38726574D01*
X96051760Y-38736963D01*
X96054346Y-38741183D01*
X96173241Y-38935202D01*
X96173245Y-38935208D01*
X96175824Y-38939416D01*
X96330031Y-39119969D01*
X96510584Y-39274176D01*
X96514792Y-39276755D01*
X96514798Y-39276759D01*
X96681697Y-39379035D01*
X96713037Y-39398240D01*
X96717607Y-39400133D01*
X96717611Y-39400135D01*
X96927833Y-39487211D01*
X96932406Y-39489105D01*
X97012609Y-39508360D01*
X97158476Y-39543380D01*
X97158482Y-39543381D01*
X97163289Y-39544535D01*
X97389204Y-39562315D01*
X97390560Y-39562422D01*
X97400000Y-39563165D01*
X97409441Y-39562422D01*
X97410796Y-39562315D01*
X97636711Y-39544535D01*
X97641518Y-39543381D01*
X97641524Y-39543380D01*
X97787391Y-39508360D01*
X97867594Y-39489105D01*
X97872167Y-39487211D01*
X98082389Y-39400135D01*
X98082393Y-39400133D01*
X98086963Y-39398240D01*
X98118303Y-39379035D01*
X98285202Y-39276759D01*
X98285208Y-39276755D01*
X98289416Y-39274176D01*
X98469969Y-39119969D01*
X98624176Y-38939416D01*
X98626755Y-38935208D01*
X98626759Y-38935202D01*
X98745654Y-38741183D01*
X98748240Y-38736963D01*
X98752544Y-38726574D01*
X98837211Y-38522167D01*
X98837212Y-38522165D01*
X98839105Y-38517594D01*
X98875832Y-38364616D01*
X98893380Y-38291524D01*
X98893381Y-38291518D01*
X98894535Y-38286711D01*
X98913165Y-38050000D01*
X98894535Y-37813289D01*
X98889247Y-37791259D01*
X98840260Y-37587218D01*
X98839105Y-37582406D01*
X98748240Y-37363037D01*
X98745654Y-37358817D01*
X98626759Y-37164798D01*
X98626755Y-37164792D01*
X98624176Y-37160584D01*
X98469969Y-36980031D01*
X98289416Y-36825824D01*
X98285208Y-36823245D01*
X98285202Y-36823241D01*
X98091183Y-36704346D01*
X98086963Y-36701760D01*
X98082393Y-36699867D01*
X98082389Y-36699865D01*
X97872167Y-36612789D01*
X97872165Y-36612788D01*
X97867594Y-36610895D01*
X97752890Y-36583357D01*
X97641524Y-36556620D01*
X97641518Y-36556619D01*
X97636711Y-36555465D01*
X97400000Y-36536835D01*
X97163289Y-36555465D01*
X97158482Y-36556619D01*
X97158476Y-36556620D01*
X97047110Y-36583357D01*
X96932406Y-36610895D01*
X96927835Y-36612788D01*
X96927833Y-36612789D01*
X96717611Y-36699865D01*
X96717607Y-36699867D01*
X96713037Y-36701760D01*
X96708817Y-36704346D01*
X96514798Y-36823241D01*
X96514792Y-36823245D01*
X96510584Y-36825824D01*
X96330031Y-36980031D01*
X96175824Y-37160584D01*
X96173245Y-37164792D01*
X96173241Y-37164798D01*
X96054346Y-37358817D01*
X96051760Y-37363037D01*
X95960895Y-37582406D01*
X95959740Y-37587218D01*
X95910754Y-37791259D01*
X95905465Y-37813289D01*
X95886835Y-38050000D01*
X90413165Y-38050000D01*
X90394535Y-37813289D01*
X90389247Y-37791259D01*
X90340260Y-37587218D01*
X90339105Y-37582406D01*
X90248240Y-37363037D01*
X90245654Y-37358817D01*
X90126759Y-37164798D01*
X90126755Y-37164792D01*
X90124176Y-37160584D01*
X89969969Y-36980031D01*
X89789416Y-36825824D01*
X89785208Y-36823245D01*
X89785202Y-36823241D01*
X89591183Y-36704346D01*
X89586963Y-36701760D01*
X89582393Y-36699867D01*
X89582389Y-36699865D01*
X89372167Y-36612789D01*
X89372165Y-36612788D01*
X89367594Y-36610895D01*
X89252890Y-36583357D01*
X89141524Y-36556620D01*
X89141518Y-36556619D01*
X89136711Y-36555465D01*
X88900000Y-36536835D01*
X88663289Y-36555465D01*
X88658482Y-36556619D01*
X88658476Y-36556620D01*
X88547110Y-36583357D01*
X88432406Y-36610895D01*
X88427835Y-36612788D01*
X88427833Y-36612789D01*
X88217611Y-36699865D01*
X88217607Y-36699867D01*
X88213037Y-36701760D01*
X88208817Y-36704346D01*
X88014798Y-36823241D01*
X88014792Y-36823245D01*
X88010584Y-36825824D01*
X87830031Y-36980031D01*
X87675824Y-37160584D01*
X87673245Y-37164792D01*
X87673241Y-37164798D01*
X87554346Y-37358817D01*
X87551760Y-37363037D01*
X87460895Y-37582406D01*
X87459740Y-37587218D01*
X87410754Y-37791259D01*
X87405465Y-37813289D01*
X87386835Y-38050000D01*
X74868500Y-38050000D01*
X74868500Y-36064953D01*
X74888502Y-35996832D01*
X74905560Y-35975702D01*
X74907330Y-35973938D01*
X74948091Y-35933319D01*
X75010461Y-35899404D01*
X75081268Y-35904592D01*
X75138030Y-35947238D01*
X75155012Y-35978341D01*
X75165485Y-36006277D01*
X75199385Y-36096705D01*
X75286739Y-36213261D01*
X75403295Y-36300615D01*
X75539684Y-36351745D01*
X75601866Y-36358500D01*
X77398134Y-36358500D01*
X77460316Y-36351745D01*
X77596705Y-36300615D01*
X77713261Y-36213261D01*
X77800615Y-36096705D01*
X77834515Y-36006277D01*
X77840516Y-35990270D01*
X77883158Y-35933506D01*
X77949719Y-35908806D01*
X77958498Y-35908500D01*
X85518583Y-35908500D01*
X85538292Y-35910051D01*
X85552190Y-35912252D01*
X85558777Y-35911907D01*
X85558782Y-35911907D01*
X85620480Y-35908673D01*
X85627074Y-35908500D01*
X85647610Y-35908500D01*
X85650882Y-35908156D01*
X85650884Y-35908156D01*
X85668042Y-35906353D01*
X85674616Y-35905836D01*
X85736308Y-35902603D01*
X85736312Y-35902602D01*
X85742903Y-35902257D01*
X85749284Y-35900547D01*
X85749286Y-35900547D01*
X85756491Y-35898617D01*
X85775925Y-35895015D01*
X85783354Y-35894234D01*
X85783363Y-35894232D01*
X85789928Y-35893542D01*
X85854997Y-35872400D01*
X85861299Y-35870533D01*
X85927370Y-35852829D01*
X85939908Y-35846440D01*
X85958174Y-35838875D01*
X85965272Y-35836569D01*
X85965274Y-35836568D01*
X85971556Y-35834527D01*
X86030785Y-35800331D01*
X86036579Y-35797185D01*
X86037223Y-35796857D01*
X86097530Y-35766129D01*
X86108467Y-35757273D01*
X86124763Y-35746073D01*
X86131224Y-35742343D01*
X86131228Y-35742340D01*
X86136944Y-35739040D01*
X86141850Y-35734623D01*
X86141855Y-35734619D01*
X86187769Y-35693278D01*
X86192784Y-35688994D01*
X86206177Y-35678148D01*
X86208741Y-35676072D01*
X86223256Y-35661557D01*
X86228041Y-35657016D01*
X86273957Y-35615673D01*
X86278866Y-35611253D01*
X86287140Y-35599865D01*
X86299981Y-35584832D01*
X87038919Y-34845894D01*
X87101231Y-34811868D01*
X87128014Y-34808989D01*
X90664865Y-34808989D01*
X90732986Y-34828991D01*
X90779479Y-34882647D01*
X90789583Y-34952921D01*
X90781274Y-34983205D01*
X90760895Y-35032406D01*
X90752688Y-35066590D01*
X90723129Y-35189715D01*
X90705465Y-35263289D01*
X90686835Y-35500000D01*
X90705465Y-35736711D01*
X90706619Y-35741518D01*
X90706620Y-35741524D01*
X90728155Y-35831223D01*
X90760895Y-35967594D01*
X90762788Y-35972165D01*
X90762789Y-35972167D01*
X90848583Y-36179292D01*
X90851760Y-36186963D01*
X90854346Y-36191183D01*
X90973241Y-36385202D01*
X90973245Y-36385208D01*
X90975824Y-36389416D01*
X91130031Y-36569969D01*
X91310584Y-36724176D01*
X91314792Y-36726755D01*
X91314798Y-36726759D01*
X91504569Y-36843051D01*
X91513037Y-36848240D01*
X91517607Y-36850133D01*
X91517611Y-36850135D01*
X91720477Y-36934164D01*
X91732406Y-36939105D01*
X91763034Y-36946458D01*
X91958476Y-36993380D01*
X91958482Y-36993381D01*
X91963289Y-36994535D01*
X92200000Y-37013165D01*
X92436711Y-36994535D01*
X92441518Y-36993381D01*
X92441524Y-36993380D01*
X92636966Y-36946458D01*
X92667594Y-36939105D01*
X92679523Y-36934164D01*
X92882389Y-36850135D01*
X92882393Y-36850133D01*
X92886963Y-36848240D01*
X92895431Y-36843051D01*
X93085202Y-36726759D01*
X93085208Y-36726755D01*
X93089416Y-36724176D01*
X93269969Y-36569969D01*
X93424176Y-36389416D01*
X93426755Y-36385208D01*
X93426759Y-36385202D01*
X93545654Y-36191183D01*
X93548240Y-36186963D01*
X93551418Y-36179292D01*
X93637211Y-35972167D01*
X93637212Y-35972165D01*
X93639105Y-35967594D01*
X93671845Y-35831223D01*
X93693380Y-35741524D01*
X93693381Y-35741518D01*
X93694535Y-35736711D01*
X93713165Y-35500000D01*
X93694535Y-35263289D01*
X93676872Y-35189715D01*
X93647312Y-35066590D01*
X93639105Y-35032406D01*
X93618726Y-34983206D01*
X93611137Y-34912618D01*
X93642916Y-34849131D01*
X93703974Y-34812903D01*
X93735135Y-34808989D01*
X99271986Y-34808989D01*
X99340107Y-34828991D01*
X99361081Y-34845894D01*
X105362422Y-40847235D01*
X105396448Y-40909547D01*
X105398939Y-40946213D01*
X105386835Y-41100000D01*
X105405465Y-41336711D01*
X105406619Y-41341518D01*
X105406620Y-41341524D01*
X105424774Y-41417139D01*
X105460895Y-41567594D01*
X105462788Y-41572165D01*
X105462789Y-41572167D01*
X105542300Y-41764124D01*
X105551760Y-41786963D01*
X105554346Y-41791183D01*
X105673241Y-41985202D01*
X105673245Y-41985208D01*
X105675824Y-41989416D01*
X105830031Y-42169969D01*
X106010584Y-42324176D01*
X106014792Y-42326755D01*
X106014798Y-42326759D01*
X106155591Y-42413037D01*
X106213037Y-42448240D01*
X106217607Y-42450133D01*
X106217611Y-42450135D01*
X106380362Y-42517548D01*
X106432406Y-42539105D01*
X106512609Y-42558360D01*
X106658476Y-42593380D01*
X106658482Y-42593381D01*
X106663289Y-42594535D01*
X106900000Y-42613165D01*
X107136711Y-42594535D01*
X107141518Y-42593381D01*
X107141524Y-42593380D01*
X107287391Y-42558360D01*
X107367594Y-42539105D01*
X107419638Y-42517548D01*
X107582389Y-42450135D01*
X107582393Y-42450133D01*
X107586963Y-42448240D01*
X107644409Y-42413037D01*
X107785202Y-42326759D01*
X107785208Y-42326755D01*
X107789416Y-42324176D01*
X107969969Y-42169969D01*
X108124176Y-41989416D01*
X108126755Y-41985208D01*
X108126759Y-41985202D01*
X108245654Y-41791183D01*
X108248240Y-41786963D01*
X108257701Y-41764124D01*
X108337211Y-41572167D01*
X108337212Y-41572165D01*
X108339105Y-41567594D01*
X108375226Y-41417139D01*
X108393380Y-41341524D01*
X108393381Y-41341518D01*
X108394535Y-41336711D01*
X108413165Y-41100000D01*
X108394535Y-40863289D01*
X108388155Y-40836711D01*
X108343800Y-40651962D01*
X108339105Y-40632406D01*
X108323640Y-40595070D01*
X108250135Y-40417611D01*
X108250133Y-40417607D01*
X108248240Y-40413037D01*
X108149556Y-40252000D01*
X108126759Y-40214798D01*
X108126755Y-40214792D01*
X108124176Y-40210584D01*
X107969969Y-40030031D01*
X107789416Y-39875824D01*
X107785208Y-39873245D01*
X107785202Y-39873241D01*
X107591183Y-39754346D01*
X107586963Y-39751760D01*
X107582393Y-39749867D01*
X107582389Y-39749865D01*
X107372167Y-39662789D01*
X107372165Y-39662788D01*
X107367594Y-39660895D01*
X107287391Y-39641640D01*
X107141524Y-39606620D01*
X107141518Y-39606619D01*
X107136711Y-39605465D01*
X106900000Y-39586835D01*
X106746215Y-39598939D01*
X106676736Y-39584343D01*
X106647235Y-39562422D01*
X100400470Y-33315657D01*
X100387629Y-33300624D01*
X100383235Y-33294576D01*
X100383234Y-33294575D01*
X100379355Y-33289236D01*
X100328530Y-33243473D01*
X100323745Y-33238932D01*
X100309230Y-33224417D01*
X100301771Y-33218377D01*
X100293273Y-33211495D01*
X100288258Y-33207211D01*
X100242344Y-33165870D01*
X100242339Y-33165866D01*
X100237433Y-33161449D01*
X100231717Y-33158149D01*
X100231713Y-33158146D01*
X100225252Y-33154416D01*
X100208955Y-33143216D01*
X100203149Y-33138514D01*
X100203147Y-33138513D01*
X100198019Y-33134360D01*
X100137066Y-33103303D01*
X100131271Y-33100156D01*
X100077768Y-33069266D01*
X100077767Y-33069265D01*
X100072045Y-33065962D01*
X100065763Y-33063921D01*
X100065761Y-33063920D01*
X100058663Y-33061614D01*
X100040396Y-33054048D01*
X100027859Y-33047660D01*
X100021478Y-33045950D01*
X100003341Y-33041090D01*
X99961788Y-33029956D01*
X99955486Y-33028089D01*
X99890417Y-33006947D01*
X99883852Y-33006257D01*
X99883843Y-33006255D01*
X99876414Y-33005474D01*
X99856980Y-33001872D01*
X99849775Y-32999942D01*
X99849773Y-32999942D01*
X99843392Y-32998232D01*
X99836801Y-32997887D01*
X99836797Y-32997886D01*
X99775105Y-32994653D01*
X99768531Y-32994136D01*
X99751373Y-32992333D01*
X99751371Y-32992333D01*
X99748099Y-32991989D01*
X99727563Y-32991989D01*
X99720969Y-32991816D01*
X99659271Y-32988582D01*
X99659266Y-32988582D01*
X99652679Y-32988237D01*
X99638781Y-32990438D01*
X99619072Y-32991989D01*
X98195863Y-32991989D01*
X98164238Y-32982703D01*
X106440743Y-32982703D01*
X106441302Y-32986947D01*
X106441302Y-32986951D01*
X106449070Y-33045952D01*
X106478268Y-33267734D01*
X106554129Y-33545036D01*
X106555813Y-33548984D01*
X106657225Y-33786739D01*
X106666923Y-33809476D01*
X106699913Y-33864598D01*
X106804700Y-34039684D01*
X106814561Y-34056161D01*
X106994313Y-34280528D01*
X107117711Y-34397628D01*
X107196733Y-34472617D01*
X107202851Y-34478423D01*
X107436317Y-34646186D01*
X107440112Y-34648195D01*
X107440113Y-34648196D01*
X107461869Y-34659715D01*
X107690392Y-34780712D01*
X107960373Y-34879511D01*
X108241264Y-34940755D01*
X108269841Y-34943004D01*
X108464282Y-34958307D01*
X108464291Y-34958307D01*
X108466739Y-34958500D01*
X108622271Y-34958500D01*
X108624407Y-34958354D01*
X108624418Y-34958354D01*
X108832548Y-34944165D01*
X108832554Y-34944164D01*
X108836825Y-34943873D01*
X108841020Y-34943004D01*
X108841022Y-34943004D01*
X108987751Y-34912618D01*
X109118342Y-34885574D01*
X109389343Y-34789607D01*
X109644812Y-34657750D01*
X109648313Y-34655289D01*
X109648317Y-34655287D01*
X109834251Y-34524610D01*
X109880023Y-34492441D01*
X110027023Y-34355840D01*
X110087479Y-34299661D01*
X110087481Y-34299658D01*
X110090622Y-34296740D01*
X110272713Y-34074268D01*
X110422927Y-33829142D01*
X110538483Y-33565898D01*
X110617244Y-33289406D01*
X110657751Y-33004784D01*
X110657777Y-32999942D01*
X110659235Y-32721583D01*
X110659235Y-32721576D01*
X110659257Y-32717297D01*
X110653570Y-32674095D01*
X110624239Y-32451307D01*
X110621732Y-32432266D01*
X110545871Y-32154964D01*
X110441993Y-31911426D01*
X110434763Y-31894476D01*
X110434761Y-31894472D01*
X110433077Y-31890524D01*
X110285439Y-31643839D01*
X110105687Y-31419472D01*
X109944859Y-31266852D01*
X109900258Y-31224527D01*
X109900255Y-31224525D01*
X109897149Y-31221577D01*
X109663683Y-31053814D01*
X109641843Y-31042250D01*
X109618654Y-31029972D01*
X109409608Y-30919288D01*
X109139627Y-30820489D01*
X108858736Y-30759245D01*
X108827685Y-30756801D01*
X108635718Y-30741693D01*
X108635709Y-30741693D01*
X108633261Y-30741500D01*
X108477729Y-30741500D01*
X108475593Y-30741646D01*
X108475582Y-30741646D01*
X108267452Y-30755835D01*
X108267446Y-30755836D01*
X108263175Y-30756127D01*
X108258980Y-30756996D01*
X108258978Y-30756996D01*
X108122416Y-30785277D01*
X107981658Y-30814426D01*
X107710657Y-30910393D01*
X107455188Y-31042250D01*
X107451687Y-31044711D01*
X107451683Y-31044713D01*
X107337583Y-31124904D01*
X107219977Y-31207559D01*
X107009378Y-31403260D01*
X106827287Y-31625732D01*
X106677073Y-31870858D01*
X106561517Y-32134102D01*
X106482756Y-32410594D01*
X106442249Y-32695216D01*
X106442227Y-32699505D01*
X106442226Y-32699512D01*
X106441080Y-32918331D01*
X106440743Y-32982703D01*
X98164238Y-32982703D01*
X98127742Y-32971987D01*
X98081249Y-32918331D01*
X98071145Y-32848057D01*
X98100639Y-32783477D01*
X98128256Y-32759663D01*
X98427376Y-32569469D01*
X98430119Y-32567725D01*
X98733910Y-32327375D01*
X99011385Y-32057071D01*
X99259605Y-31759676D01*
X99261410Y-31756995D01*
X99261416Y-31756987D01*
X99474131Y-31441030D01*
X99474134Y-31441025D01*
X99475941Y-31438341D01*
X99658099Y-31096470D01*
X99675464Y-31053814D01*
X99744375Y-30884529D01*
X99804151Y-30737686D01*
X99912549Y-30365790D01*
X99982145Y-29984721D01*
X99985350Y-29943534D01*
X100011948Y-29601758D01*
X100011948Y-29601754D01*
X100012200Y-29598517D01*
X100002398Y-29211269D01*
X99985224Y-29078124D01*
X99953256Y-28830286D01*
X99953254Y-28830277D01*
X99952842Y-28827080D01*
X99947635Y-28804964D01*
X99864800Y-28453181D01*
X99864056Y-28450020D01*
X99736981Y-28084084D01*
X99572964Y-27733148D01*
X99471841Y-27564518D01*
X99375414Y-27403718D01*
X99375411Y-27403714D01*
X99373743Y-27400932D01*
X99141427Y-27090954D01*
X98878479Y-26806498D01*
X98587683Y-26550578D01*
X98585041Y-26548697D01*
X98585036Y-26548693D01*
X98419073Y-26430531D01*
X98287201Y-26336641D01*
X98243310Y-26280839D01*
X98236556Y-26210164D01*
X98269084Y-26147057D01*
X98330566Y-26111554D01*
X98360281Y-26108000D01*
X121616000Y-26108000D01*
X121684121Y-26128002D01*
X121730614Y-26181658D01*
X121742000Y-26234000D01*
X121742000Y-57616000D01*
X121721998Y-57684121D01*
X121668342Y-57730614D01*
X121616000Y-57742000D01*
X91674481Y-57742000D01*
X91606360Y-57721998D01*
X91559867Y-57668342D01*
X91549763Y-57598068D01*
X91579257Y-57533488D01*
X91606874Y-57509674D01*
X91662830Y-57474095D01*
X91830119Y-57367725D01*
X92133910Y-57127375D01*
X92411385Y-56857071D01*
X92659605Y-56559676D01*
X92661410Y-56556995D01*
X92661416Y-56556987D01*
X92874131Y-56241030D01*
X92874134Y-56241025D01*
X92875941Y-56238341D01*
X93058099Y-55896470D01*
X93204151Y-55537686D01*
X93312549Y-55165790D01*
X93382145Y-54784721D01*
X93412200Y-54398517D01*
X93402398Y-54011269D01*
X93352842Y-53627080D01*
X93264056Y-53250020D01*
X93136981Y-52884084D01*
X92972964Y-52533148D01*
X92773743Y-52200932D01*
X92669550Y-52061907D01*
X92543374Y-51893552D01*
X92541427Y-51890954D01*
X92278479Y-51606498D01*
X91987683Y-51350578D01*
X91985041Y-51348697D01*
X91985036Y-51348693D01*
X91674768Y-51127789D01*
X91672122Y-51125905D01*
X91335137Y-50934859D01*
X91332173Y-50933561D01*
X91332163Y-50933556D01*
X91137819Y-50848448D01*
X90980299Y-50779466D01*
X90977213Y-50778478D01*
X90977210Y-50778477D01*
X90781432Y-50715808D01*
X90611368Y-50661370D01*
X90418948Y-50620996D01*
X90235431Y-50582490D01*
X90235427Y-50582489D01*
X90232251Y-50581823D01*
X89846966Y-50541668D01*
X89844540Y-50541604D01*
X89844533Y-50541604D01*
X89842942Y-50541563D01*
X89840551Y-50541500D01*
X89553169Y-50541500D01*
X89263141Y-50556446D01*
X89259929Y-50556946D01*
X89259930Y-50556946D01*
X88883591Y-50615542D01*
X88883587Y-50615543D01*
X88880381Y-50616042D01*
X88505775Y-50714668D01*
X88502751Y-50715808D01*
X88502750Y-50715808D01*
X88146327Y-50850133D01*
X88146320Y-50850136D01*
X88143290Y-50851278D01*
X87796769Y-51024425D01*
X87469881Y-51232275D01*
X87166090Y-51472625D01*
X86888615Y-51742929D01*
X86640395Y-52040324D01*
X86638590Y-52043005D01*
X86638584Y-52043013D01*
X86625864Y-52061907D01*
X86424059Y-52361659D01*
X86241901Y-52703530D01*
X86095849Y-53062314D01*
X85987451Y-53434210D01*
X85917855Y-53815279D01*
X85887800Y-54201483D01*
X85897602Y-54588731D01*
X85947158Y-54972920D01*
X86035944Y-55349980D01*
X86163019Y-55715916D01*
X86327036Y-56066852D01*
X86526257Y-56399068D01*
X86758573Y-56709046D01*
X87021521Y-56993502D01*
X87312317Y-57249422D01*
X87314959Y-57251303D01*
X87314964Y-57251307D01*
X87480927Y-57369469D01*
X87627878Y-57474095D01*
X87630702Y-57475696D01*
X87630713Y-57475703D01*
X87684841Y-57506390D01*
X87734237Y-57557386D01*
X87748220Y-57626992D01*
X87722351Y-57693108D01*
X87664844Y-57734743D01*
X87622700Y-57742000D01*
X48134000Y-57742000D01*
X48065879Y-57721998D01*
X48019386Y-57668342D01*
X48008000Y-57616000D01*
X48008000Y-50252190D01*
X48987748Y-50252190D01*
X48988093Y-50258777D01*
X48988093Y-50258782D01*
X48991327Y-50320480D01*
X48991500Y-50327074D01*
X48991500Y-50347610D01*
X48991844Y-50350882D01*
X48991844Y-50350884D01*
X48993647Y-50368042D01*
X48994164Y-50374616D01*
X48997743Y-50442903D01*
X48999453Y-50449284D01*
X48999453Y-50449286D01*
X49001383Y-50456491D01*
X49004985Y-50475925D01*
X49005766Y-50483354D01*
X49005768Y-50483363D01*
X49006458Y-50489928D01*
X49027600Y-50554997D01*
X49029467Y-50561299D01*
X49047171Y-50627370D01*
X49053559Y-50639907D01*
X49061125Y-50658173D01*
X49065473Y-50671556D01*
X49068776Y-50677278D01*
X49068777Y-50677279D01*
X49099667Y-50730782D01*
X49102814Y-50736577D01*
X49133871Y-50797530D01*
X49138024Y-50802658D01*
X49138025Y-50802660D01*
X49142727Y-50808466D01*
X49153927Y-50824763D01*
X49157657Y-50831224D01*
X49157660Y-50831228D01*
X49160960Y-50836944D01*
X49165377Y-50841850D01*
X49165381Y-50841855D01*
X49206722Y-50887769D01*
X49211006Y-50892784D01*
X49223928Y-50908741D01*
X49238443Y-50923256D01*
X49242984Y-50928041D01*
X49288747Y-50978866D01*
X49294086Y-50982745D01*
X49294087Y-50982746D01*
X49300135Y-50987140D01*
X49315168Y-50999981D01*
X50050019Y-51734832D01*
X50062860Y-51749865D01*
X50071134Y-51761253D01*
X50076043Y-51765673D01*
X50121959Y-51807016D01*
X50126744Y-51811557D01*
X50141259Y-51826072D01*
X50143823Y-51828148D01*
X50157216Y-51838994D01*
X50162231Y-51843278D01*
X50208145Y-51884619D01*
X50208150Y-51884623D01*
X50213056Y-51889040D01*
X50218772Y-51892340D01*
X50218776Y-51892343D01*
X50225237Y-51896073D01*
X50241533Y-51907273D01*
X50252470Y-51916129D01*
X50258348Y-51919124D01*
X50258351Y-51919126D01*
X50313426Y-51947188D01*
X50319223Y-51950336D01*
X50333111Y-51958354D01*
X50378444Y-51984527D01*
X50391826Y-51988875D01*
X50410085Y-51996438D01*
X50422630Y-52002830D01*
X50429000Y-52004537D01*
X50429003Y-52004538D01*
X50468074Y-52015007D01*
X50488712Y-52020537D01*
X50495025Y-52022407D01*
X50560072Y-52043542D01*
X50574075Y-52045014D01*
X50593504Y-52048615D01*
X50607097Y-52052257D01*
X50613694Y-52052603D01*
X50613696Y-52052603D01*
X50675384Y-52055836D01*
X50681958Y-52056353D01*
X50699116Y-52058156D01*
X50699118Y-52058156D01*
X50702390Y-52058500D01*
X50722926Y-52058500D01*
X50729520Y-52058673D01*
X50791218Y-52061907D01*
X50791223Y-52061907D01*
X50797810Y-52062252D01*
X50804326Y-52061220D01*
X50804327Y-52061220D01*
X50811707Y-52060051D01*
X50831417Y-52058500D01*
X68018583Y-52058500D01*
X68038292Y-52060051D01*
X68052190Y-52062252D01*
X68058777Y-52061907D01*
X68058782Y-52061907D01*
X68120480Y-52058673D01*
X68127074Y-52058500D01*
X68147610Y-52058500D01*
X68150882Y-52058156D01*
X68150884Y-52058156D01*
X68168042Y-52056353D01*
X68174616Y-52055836D01*
X68236308Y-52052603D01*
X68236312Y-52052602D01*
X68242903Y-52052257D01*
X68249284Y-52050547D01*
X68249286Y-52050547D01*
X68256491Y-52048617D01*
X68275925Y-52045015D01*
X68283354Y-52044234D01*
X68283363Y-52044232D01*
X68289928Y-52043542D01*
X68354997Y-52022400D01*
X68361299Y-52020533D01*
X68427370Y-52002829D01*
X68439908Y-51996440D01*
X68458174Y-51988875D01*
X68465272Y-51986569D01*
X68465274Y-51986568D01*
X68471556Y-51984527D01*
X68530785Y-51950331D01*
X68536579Y-51947185D01*
X68548539Y-51941091D01*
X68597530Y-51916129D01*
X68608467Y-51907273D01*
X68624763Y-51896073D01*
X68631224Y-51892343D01*
X68631228Y-51892340D01*
X68636944Y-51889040D01*
X68641850Y-51884623D01*
X68641855Y-51884619D01*
X68687769Y-51843278D01*
X68692784Y-51838994D01*
X68706177Y-51828148D01*
X68708741Y-51826072D01*
X68723256Y-51811557D01*
X68728041Y-51807016D01*
X68773957Y-51765673D01*
X68778866Y-51761253D01*
X68787140Y-51749865D01*
X68799981Y-51734832D01*
X70552110Y-49982703D01*
X112940743Y-49982703D01*
X112978268Y-50267734D01*
X113054129Y-50545036D01*
X113055813Y-50548984D01*
X113164016Y-50802660D01*
X113166923Y-50809476D01*
X113314561Y-51056161D01*
X113494313Y-51280528D01*
X113570388Y-51352720D01*
X113699122Y-51474884D01*
X113702851Y-51478423D01*
X113936317Y-51646186D01*
X113940112Y-51648195D01*
X113940113Y-51648196D01*
X113961869Y-51659715D01*
X114190392Y-51780712D01*
X114460373Y-51879511D01*
X114741264Y-51940755D01*
X114769841Y-51943004D01*
X114964282Y-51958307D01*
X114964291Y-51958307D01*
X114966739Y-51958500D01*
X115122271Y-51958500D01*
X115124407Y-51958354D01*
X115124418Y-51958354D01*
X115332548Y-51944165D01*
X115332554Y-51944164D01*
X115336825Y-51943873D01*
X115341020Y-51943004D01*
X115341022Y-51943004D01*
X115513561Y-51907273D01*
X115618342Y-51885574D01*
X115889343Y-51789607D01*
X116144812Y-51657750D01*
X116148313Y-51655289D01*
X116148317Y-51655287D01*
X116262417Y-51575096D01*
X116380023Y-51492441D01*
X116458403Y-51419606D01*
X116587479Y-51299661D01*
X116587481Y-51299658D01*
X116590622Y-51296740D01*
X116772713Y-51074268D01*
X116922927Y-50829142D01*
X117002118Y-50648741D01*
X117036757Y-50569830D01*
X117038483Y-50565898D01*
X117041176Y-50556446D01*
X117116068Y-50293534D01*
X117117244Y-50289406D01*
X117157751Y-50004784D01*
X117157845Y-49986951D01*
X117159235Y-49721583D01*
X117159235Y-49721576D01*
X117159257Y-49717297D01*
X117156312Y-49694923D01*
X117122292Y-49436522D01*
X117121732Y-49432266D01*
X117120226Y-49426759D01*
X117088169Y-49309579D01*
X117045871Y-49154964D01*
X117016115Y-49085202D01*
X116934763Y-48894476D01*
X116934761Y-48894472D01*
X116933077Y-48890524D01*
X116823237Y-48706994D01*
X116787643Y-48647521D01*
X116787640Y-48647517D01*
X116785439Y-48643839D01*
X116605687Y-48419472D01*
X116397149Y-48221577D01*
X116163683Y-48053814D01*
X116141843Y-48042250D01*
X116062046Y-48000000D01*
X115909608Y-47919288D01*
X115639627Y-47820489D01*
X115358736Y-47759245D01*
X115327685Y-47756801D01*
X115135718Y-47741693D01*
X115135709Y-47741693D01*
X115133261Y-47741500D01*
X114977729Y-47741500D01*
X114975593Y-47741646D01*
X114975582Y-47741646D01*
X114767452Y-47755835D01*
X114767446Y-47755836D01*
X114763175Y-47756127D01*
X114758980Y-47756996D01*
X114758978Y-47756996D01*
X114660639Y-47777361D01*
X114481658Y-47814426D01*
X114210657Y-47910393D01*
X113955188Y-48042250D01*
X113951687Y-48044711D01*
X113951683Y-48044713D01*
X113837583Y-48124904D01*
X113719977Y-48207559D01*
X113509378Y-48403260D01*
X113327287Y-48625732D01*
X113177073Y-48870858D01*
X113061517Y-49134102D01*
X112982756Y-49410594D01*
X112942249Y-49695216D01*
X112942227Y-49699505D01*
X112942226Y-49699512D01*
X112940765Y-49978417D01*
X112940743Y-49982703D01*
X70552110Y-49982703D01*
X71208140Y-49326673D01*
X71261028Y-49295082D01*
X71334041Y-49273177D01*
X71347384Y-49269174D01*
X71547994Y-49170896D01*
X71552206Y-49167892D01*
X71602635Y-49131921D01*
X71675804Y-49108500D01*
X87634036Y-49108500D01*
X87702157Y-49128502D01*
X87729847Y-49152669D01*
X87830031Y-49269969D01*
X88010584Y-49424176D01*
X88014792Y-49426755D01*
X88014798Y-49426759D01*
X88208817Y-49545654D01*
X88213037Y-49548240D01*
X88217607Y-49550133D01*
X88217611Y-49550135D01*
X88427833Y-49637211D01*
X88432406Y-49639105D01*
X88512609Y-49658360D01*
X88658476Y-49693380D01*
X88658482Y-49693381D01*
X88663289Y-49694535D01*
X88900000Y-49713165D01*
X89136711Y-49694535D01*
X89141518Y-49693381D01*
X89141524Y-49693380D01*
X89287391Y-49658360D01*
X89367594Y-49639105D01*
X89372167Y-49637211D01*
X89582389Y-49550135D01*
X89582393Y-49550133D01*
X89586963Y-49548240D01*
X89591183Y-49545654D01*
X89785202Y-49426759D01*
X89785208Y-49426755D01*
X89789416Y-49424176D01*
X89969969Y-49269969D01*
X90124176Y-49089416D01*
X90126755Y-49085208D01*
X90126759Y-49085202D01*
X90245654Y-48891183D01*
X90248240Y-48886963D01*
X90251418Y-48879292D01*
X90337211Y-48672167D01*
X90337212Y-48672165D01*
X90339105Y-48667594D01*
X90378906Y-48501811D01*
X90393380Y-48441524D01*
X90393381Y-48441518D01*
X90394535Y-48436711D01*
X90413165Y-48200000D01*
X95886835Y-48200000D01*
X95905465Y-48436711D01*
X95906619Y-48441518D01*
X95906620Y-48441524D01*
X95921094Y-48501811D01*
X95960895Y-48667594D01*
X95962788Y-48672165D01*
X95962789Y-48672167D01*
X96048583Y-48879292D01*
X96051760Y-48886963D01*
X96054346Y-48891183D01*
X96173241Y-49085202D01*
X96173245Y-49085208D01*
X96175824Y-49089416D01*
X96330031Y-49269969D01*
X96510584Y-49424176D01*
X96514792Y-49426755D01*
X96514798Y-49426759D01*
X96708817Y-49545654D01*
X96713037Y-49548240D01*
X96717607Y-49550133D01*
X96717611Y-49550135D01*
X96927833Y-49637211D01*
X96932406Y-49639105D01*
X97012609Y-49658360D01*
X97158476Y-49693380D01*
X97158482Y-49693381D01*
X97163289Y-49694535D01*
X97400000Y-49713165D01*
X97636711Y-49694535D01*
X97641518Y-49693381D01*
X97641524Y-49693380D01*
X97787391Y-49658360D01*
X97867594Y-49639105D01*
X97872167Y-49637211D01*
X98082389Y-49550135D01*
X98082393Y-49550133D01*
X98086963Y-49548240D01*
X98091183Y-49545654D01*
X98285202Y-49426759D01*
X98285208Y-49426755D01*
X98289416Y-49424176D01*
X98469969Y-49269969D01*
X98624176Y-49089416D01*
X98626755Y-49085208D01*
X98626759Y-49085202D01*
X98745654Y-48891183D01*
X98748240Y-48886963D01*
X98751418Y-48879292D01*
X98837211Y-48672167D01*
X98837212Y-48672165D01*
X98839105Y-48667594D01*
X98878906Y-48501811D01*
X98893380Y-48441524D01*
X98893381Y-48441518D01*
X98894535Y-48436711D01*
X98913165Y-48200000D01*
X98894535Y-47963289D01*
X98883972Y-47919288D01*
X98849898Y-47777361D01*
X98839105Y-47732406D01*
X98837211Y-47727833D01*
X98750135Y-47517611D01*
X98750133Y-47517607D01*
X98748240Y-47513037D01*
X98745654Y-47508817D01*
X98626759Y-47314798D01*
X98626755Y-47314792D01*
X98624176Y-47310584D01*
X98490968Y-47154618D01*
X98473177Y-47133787D01*
X98469969Y-47130031D01*
X98289416Y-46975824D01*
X98285208Y-46973245D01*
X98285202Y-46973241D01*
X98091183Y-46854346D01*
X98086963Y-46851760D01*
X98082393Y-46849867D01*
X98082389Y-46849865D01*
X97872167Y-46762789D01*
X97872165Y-46762788D01*
X97867594Y-46760895D01*
X97787391Y-46741640D01*
X97641524Y-46706620D01*
X97641518Y-46706619D01*
X97636711Y-46705465D01*
X97400000Y-46686835D01*
X97163289Y-46705465D01*
X97158482Y-46706619D01*
X97158476Y-46706620D01*
X97012609Y-46741640D01*
X96932406Y-46760895D01*
X96927835Y-46762788D01*
X96927833Y-46762789D01*
X96717611Y-46849865D01*
X96717607Y-46849867D01*
X96713037Y-46851760D01*
X96708817Y-46854346D01*
X96514798Y-46973241D01*
X96514792Y-46973245D01*
X96510584Y-46975824D01*
X96330031Y-47130031D01*
X96326823Y-47133787D01*
X96309032Y-47154618D01*
X96175824Y-47310584D01*
X96173245Y-47314792D01*
X96173241Y-47314798D01*
X96054346Y-47508817D01*
X96051760Y-47513037D01*
X96049867Y-47517607D01*
X96049865Y-47517611D01*
X95962789Y-47727833D01*
X95960895Y-47732406D01*
X95950102Y-47777361D01*
X95916029Y-47919288D01*
X95905465Y-47963289D01*
X95886835Y-48200000D01*
X90413165Y-48200000D01*
X90394535Y-47963289D01*
X90383972Y-47919288D01*
X90349898Y-47777361D01*
X90339105Y-47732406D01*
X90337211Y-47727833D01*
X90250135Y-47517611D01*
X90250133Y-47517607D01*
X90248240Y-47513037D01*
X90245654Y-47508817D01*
X90126759Y-47314798D01*
X90126755Y-47314792D01*
X90124176Y-47310584D01*
X89990968Y-47154618D01*
X89973177Y-47133787D01*
X89969969Y-47130031D01*
X89789416Y-46975824D01*
X89785208Y-46973245D01*
X89785202Y-46973241D01*
X89637404Y-46882670D01*
X91332160Y-46882670D01*
X91337887Y-46890320D01*
X91509042Y-46995205D01*
X91517837Y-46999687D01*
X91727988Y-47086734D01*
X91737373Y-47089783D01*
X91958554Y-47142885D01*
X91968301Y-47144428D01*
X92195070Y-47162275D01*
X92204930Y-47162275D01*
X92431699Y-47144428D01*
X92441446Y-47142885D01*
X92662627Y-47089783D01*
X92672012Y-47086734D01*
X92882163Y-46999687D01*
X92890958Y-46995205D01*
X93058445Y-46892568D01*
X93067907Y-46882110D01*
X93064124Y-46873334D01*
X92212812Y-46022022D01*
X92198868Y-46014408D01*
X92197035Y-46014539D01*
X92190420Y-46018790D01*
X91338920Y-46870290D01*
X91332160Y-46882670D01*
X89637404Y-46882670D01*
X89591183Y-46854346D01*
X89586963Y-46851760D01*
X89582393Y-46849867D01*
X89582389Y-46849865D01*
X89372167Y-46762789D01*
X89372165Y-46762788D01*
X89367594Y-46760895D01*
X89287391Y-46741640D01*
X89141524Y-46706620D01*
X89141518Y-46706619D01*
X89136711Y-46705465D01*
X88900000Y-46686835D01*
X88663289Y-46705465D01*
X88658482Y-46706619D01*
X88658476Y-46706620D01*
X88512609Y-46741640D01*
X88432406Y-46760895D01*
X88427835Y-46762788D01*
X88427833Y-46762789D01*
X88217611Y-46849865D01*
X88217607Y-46849867D01*
X88213037Y-46851760D01*
X88208817Y-46854346D01*
X88014798Y-46973241D01*
X88014792Y-46973245D01*
X88010584Y-46975824D01*
X87830031Y-47130031D01*
X87826823Y-47133787D01*
X87729847Y-47247331D01*
X87670396Y-47286140D01*
X87634036Y-47291500D01*
X72078286Y-47291500D01*
X72010165Y-47271498D01*
X71972494Y-47233941D01*
X71930014Y-47168277D01*
X71779670Y-47003051D01*
X71775619Y-46999852D01*
X71775615Y-46999848D01*
X71608414Y-46867800D01*
X71608410Y-46867798D01*
X71604359Y-46864598D01*
X71585788Y-46854346D01*
X71552136Y-46835769D01*
X71408789Y-46756638D01*
X71403920Y-46754914D01*
X71403916Y-46754912D01*
X71203087Y-46683795D01*
X71203083Y-46683794D01*
X71198212Y-46682069D01*
X71193119Y-46681162D01*
X71193116Y-46681161D01*
X70983373Y-46643800D01*
X70983367Y-46643799D01*
X70978284Y-46642894D01*
X70904452Y-46641992D01*
X70760081Y-46640228D01*
X70760079Y-46640228D01*
X70754911Y-46640165D01*
X70534091Y-46673955D01*
X70321756Y-46743357D01*
X70123607Y-46846507D01*
X70119474Y-46849610D01*
X70119471Y-46849612D01*
X69949100Y-46977530D01*
X69944965Y-46980635D01*
X69926605Y-46999848D01*
X69833729Y-47097037D01*
X69790629Y-47142138D01*
X69683204Y-47299618D01*
X69682898Y-47300066D01*
X69627987Y-47345069D01*
X69557462Y-47353240D01*
X69493715Y-47321986D01*
X69473018Y-47297502D01*
X69392426Y-47172926D01*
X69386136Y-47164757D01*
X69242806Y-47007240D01*
X69235273Y-47000215D01*
X69068139Y-46868222D01*
X69059552Y-46862517D01*
X68873117Y-46759599D01*
X68863705Y-46755369D01*
X68662959Y-46684280D01*
X68652988Y-46681646D01*
X68581837Y-46668972D01*
X68568540Y-46670432D01*
X68564000Y-46684989D01*
X68564000Y-49336632D01*
X68561702Y-49336632D01*
X68561705Y-49381682D01*
X68529902Y-49435285D01*
X67760592Y-50204595D01*
X67698280Y-50238621D01*
X67671497Y-50241500D01*
X51178503Y-50241500D01*
X51110382Y-50221498D01*
X51089408Y-50204595D01*
X50845405Y-49960592D01*
X50811379Y-49898280D01*
X50808500Y-49871497D01*
X50808500Y-49446876D01*
X50828502Y-49378755D01*
X50882158Y-49332262D01*
X50952432Y-49322158D01*
X50978727Y-49328893D01*
X51039684Y-49351745D01*
X51101866Y-49358500D01*
X52898134Y-49358500D01*
X52960316Y-49351745D01*
X53096705Y-49300615D01*
X53213261Y-49213261D01*
X53300615Y-49096705D01*
X53351745Y-48960316D01*
X53358500Y-48898134D01*
X56791500Y-48898134D01*
X56798255Y-48960316D01*
X56849385Y-49096705D01*
X56936739Y-49213261D01*
X57053295Y-49300615D01*
X57189684Y-49351745D01*
X57251866Y-49358500D01*
X59048134Y-49358500D01*
X59110316Y-49351745D01*
X59246705Y-49300615D01*
X59363261Y-49213261D01*
X59450615Y-49096705D01*
X59472799Y-49037529D01*
X59494598Y-48979382D01*
X59537240Y-48922618D01*
X59603802Y-48897918D01*
X59673150Y-48913126D01*
X59707817Y-48941114D01*
X59736250Y-48973938D01*
X59908126Y-49116632D01*
X60101000Y-49229338D01*
X60309692Y-49309030D01*
X60314760Y-49310061D01*
X60314763Y-49310062D01*
X60407326Y-49328894D01*
X60528597Y-49353567D01*
X60533772Y-49353757D01*
X60533774Y-49353757D01*
X60746673Y-49361564D01*
X60746677Y-49361564D01*
X60751837Y-49361753D01*
X60756957Y-49361097D01*
X60756959Y-49361097D01*
X60968288Y-49334025D01*
X60968289Y-49334025D01*
X60973416Y-49333368D01*
X60986609Y-49329410D01*
X61182429Y-49270661D01*
X61182434Y-49270659D01*
X61187384Y-49269174D01*
X61387994Y-49170896D01*
X61569860Y-49041173D01*
X61728096Y-48883489D01*
X61734346Y-48874792D01*
X61858453Y-48702077D01*
X61859776Y-48703028D01*
X61906645Y-48659857D01*
X61976580Y-48647625D01*
X62042026Y-48675144D01*
X62069875Y-48706994D01*
X62129987Y-48805088D01*
X62276250Y-48973938D01*
X62448126Y-49116632D01*
X62641000Y-49229338D01*
X62849692Y-49309030D01*
X62854760Y-49310061D01*
X62854763Y-49310062D01*
X62947326Y-49328894D01*
X63068597Y-49353567D01*
X63073772Y-49353757D01*
X63073774Y-49353757D01*
X63286673Y-49361564D01*
X63286677Y-49361564D01*
X63291837Y-49361753D01*
X63296957Y-49361097D01*
X63296959Y-49361097D01*
X63508288Y-49334025D01*
X63508289Y-49334025D01*
X63513416Y-49333368D01*
X63526609Y-49329410D01*
X63722429Y-49270661D01*
X63722434Y-49270659D01*
X63727384Y-49269174D01*
X63927994Y-49170896D01*
X64109860Y-49041173D01*
X64268096Y-48883489D01*
X64274346Y-48874792D01*
X64398453Y-48702077D01*
X64399776Y-48703028D01*
X64446645Y-48659857D01*
X64516580Y-48647625D01*
X64582026Y-48675144D01*
X64609875Y-48706994D01*
X64669987Y-48805088D01*
X64816250Y-48973938D01*
X64988126Y-49116632D01*
X65181000Y-49229338D01*
X65389692Y-49309030D01*
X65394760Y-49310061D01*
X65394763Y-49310062D01*
X65487326Y-49328894D01*
X65608597Y-49353567D01*
X65613772Y-49353757D01*
X65613774Y-49353757D01*
X65826673Y-49361564D01*
X65826677Y-49361564D01*
X65831837Y-49361753D01*
X65836957Y-49361097D01*
X65836959Y-49361097D01*
X66048288Y-49334025D01*
X66048289Y-49334025D01*
X66053416Y-49333368D01*
X66066609Y-49329410D01*
X66262429Y-49270661D01*
X66262434Y-49270659D01*
X66267384Y-49269174D01*
X66467994Y-49170896D01*
X66649860Y-49041173D01*
X66808096Y-48883489D01*
X66814346Y-48874792D01*
X66938453Y-48702077D01*
X66939640Y-48702930D01*
X66986960Y-48659362D01*
X67056897Y-48647145D01*
X67122338Y-48674678D01*
X67150166Y-48706511D01*
X67207694Y-48800388D01*
X67213777Y-48808699D01*
X67353213Y-48969667D01*
X67360580Y-48976883D01*
X67524434Y-49112916D01*
X67532881Y-49118831D01*
X67716756Y-49226279D01*
X67726042Y-49230729D01*
X67925001Y-49306703D01*
X67934899Y-49309579D01*
X68038250Y-49330606D01*
X68052299Y-49329410D01*
X68056000Y-49319065D01*
X68056000Y-46683102D01*
X68052082Y-46669758D01*
X68037806Y-46667771D01*
X67999324Y-46673660D01*
X67989288Y-46676051D01*
X67786868Y-46742212D01*
X67777359Y-46746209D01*
X67588463Y-46844542D01*
X67579738Y-46850036D01*
X67409433Y-46977905D01*
X67401726Y-46984748D01*
X67254590Y-47138717D01*
X67248109Y-47146722D01*
X67143498Y-47300074D01*
X67088587Y-47345076D01*
X67018062Y-47353247D01*
X66954315Y-47321993D01*
X66933618Y-47297509D01*
X66852822Y-47172617D01*
X66852818Y-47172612D01*
X66850014Y-47168277D01*
X66699670Y-47003051D01*
X66695619Y-46999852D01*
X66695615Y-46999848D01*
X66528414Y-46867800D01*
X66528410Y-46867798D01*
X66524359Y-46864598D01*
X66505788Y-46854346D01*
X66472136Y-46835769D01*
X66328789Y-46756638D01*
X66323920Y-46754914D01*
X66323916Y-46754912D01*
X66123087Y-46683795D01*
X66123083Y-46683794D01*
X66118212Y-46682069D01*
X66113119Y-46681162D01*
X66113116Y-46681161D01*
X65903373Y-46643800D01*
X65903367Y-46643799D01*
X65898284Y-46642894D01*
X65824452Y-46641992D01*
X65680081Y-46640228D01*
X65680079Y-46640228D01*
X65674911Y-46640165D01*
X65454091Y-46673955D01*
X65241756Y-46743357D01*
X65043607Y-46846507D01*
X65039474Y-46849610D01*
X65039471Y-46849612D01*
X64869100Y-46977530D01*
X64864965Y-46980635D01*
X64846605Y-46999848D01*
X64753729Y-47097037D01*
X64710629Y-47142138D01*
X64603201Y-47299621D01*
X64548293Y-47344621D01*
X64477768Y-47352792D01*
X64414021Y-47321538D01*
X64393324Y-47297054D01*
X64312822Y-47172617D01*
X64312818Y-47172612D01*
X64310014Y-47168277D01*
X64159670Y-47003051D01*
X64155619Y-46999852D01*
X64155615Y-46999848D01*
X63988414Y-46867800D01*
X63988410Y-46867798D01*
X63984359Y-46864598D01*
X63965788Y-46854346D01*
X63932136Y-46835769D01*
X63788789Y-46756638D01*
X63783920Y-46754914D01*
X63783916Y-46754912D01*
X63583087Y-46683795D01*
X63583083Y-46683794D01*
X63578212Y-46682069D01*
X63573119Y-46681162D01*
X63573116Y-46681161D01*
X63363373Y-46643800D01*
X63363367Y-46643799D01*
X63358284Y-46642894D01*
X63284452Y-46641992D01*
X63140081Y-46640228D01*
X63140079Y-46640228D01*
X63134911Y-46640165D01*
X62914091Y-46673955D01*
X62701756Y-46743357D01*
X62503607Y-46846507D01*
X62499474Y-46849610D01*
X62499471Y-46849612D01*
X62329100Y-46977530D01*
X62324965Y-46980635D01*
X62306605Y-46999848D01*
X62213729Y-47097037D01*
X62170629Y-47142138D01*
X62063201Y-47299621D01*
X62008293Y-47344621D01*
X61937768Y-47352792D01*
X61874021Y-47321538D01*
X61853324Y-47297054D01*
X61772822Y-47172617D01*
X61772818Y-47172612D01*
X61770014Y-47168277D01*
X61619670Y-47003051D01*
X61615619Y-46999852D01*
X61615615Y-46999848D01*
X61448414Y-46867800D01*
X61448410Y-46867798D01*
X61444359Y-46864598D01*
X61425788Y-46854346D01*
X61392136Y-46835769D01*
X61248789Y-46756638D01*
X61243920Y-46754914D01*
X61243916Y-46754912D01*
X61043087Y-46683795D01*
X61043083Y-46683794D01*
X61038212Y-46682069D01*
X61033119Y-46681162D01*
X61033116Y-46681161D01*
X60823373Y-46643800D01*
X60823367Y-46643799D01*
X60818284Y-46642894D01*
X60744452Y-46641992D01*
X60600081Y-46640228D01*
X60600079Y-46640228D01*
X60594911Y-46640165D01*
X60374091Y-46673955D01*
X60161756Y-46743357D01*
X59963607Y-46846507D01*
X59959474Y-46849610D01*
X59959471Y-46849612D01*
X59789100Y-46977530D01*
X59784965Y-46980635D01*
X59728537Y-47039684D01*
X59704283Y-47065064D01*
X59642759Y-47100494D01*
X59571846Y-47097037D01*
X59514060Y-47055791D01*
X59495207Y-47022243D01*
X59453767Y-46911703D01*
X59450615Y-46903295D01*
X59363261Y-46786739D01*
X59246705Y-46699385D01*
X59110316Y-46648255D01*
X59048134Y-46641500D01*
X57251866Y-46641500D01*
X57189684Y-46648255D01*
X57053295Y-46699385D01*
X56936739Y-46786739D01*
X56849385Y-46903295D01*
X56798255Y-47039684D01*
X56791500Y-47101866D01*
X56791500Y-48898134D01*
X53358500Y-48898134D01*
X53358500Y-47101866D01*
X53351745Y-47039684D01*
X53300615Y-46903295D01*
X53213261Y-46786739D01*
X53096705Y-46699385D01*
X53058304Y-46684989D01*
X52978203Y-46654960D01*
X52921439Y-46612318D01*
X52896739Y-46545756D01*
X52911947Y-46476408D01*
X52933493Y-46447727D01*
X52966460Y-46414875D01*
X53038096Y-46343489D01*
X53168453Y-46162077D01*
X53191328Y-46115794D01*
X53265136Y-45966453D01*
X53265137Y-45966451D01*
X53267430Y-45961811D01*
X53332370Y-45748069D01*
X53344632Y-45654930D01*
X90687725Y-45654930D01*
X90705572Y-45881699D01*
X90707115Y-45891446D01*
X90760217Y-46112627D01*
X90763266Y-46122012D01*
X90850313Y-46332163D01*
X90854795Y-46340958D01*
X90957432Y-46508445D01*
X90967890Y-46517907D01*
X90976666Y-46514124D01*
X91827978Y-45662812D01*
X91834356Y-45651132D01*
X92564408Y-45651132D01*
X92564539Y-45652965D01*
X92568790Y-45659580D01*
X93420290Y-46511080D01*
X93432670Y-46517840D01*
X93440320Y-46512113D01*
X93545205Y-46340958D01*
X93549687Y-46332163D01*
X93636734Y-46122012D01*
X93639783Y-46112627D01*
X93692885Y-45891446D01*
X93694428Y-45881699D01*
X93712275Y-45654930D01*
X93712275Y-45645070D01*
X93694428Y-45418301D01*
X93692885Y-45408554D01*
X93639783Y-45187373D01*
X93636734Y-45177988D01*
X93549687Y-44967837D01*
X93545205Y-44959042D01*
X93442568Y-44791555D01*
X93432110Y-44782093D01*
X93423334Y-44785876D01*
X92572022Y-45637188D01*
X92564408Y-45651132D01*
X91834356Y-45651132D01*
X91835592Y-45648868D01*
X91835461Y-45647035D01*
X91831210Y-45640420D01*
X90979710Y-44788920D01*
X90967330Y-44782160D01*
X90959680Y-44787887D01*
X90854795Y-44959042D01*
X90850313Y-44967837D01*
X90763266Y-45177988D01*
X90760217Y-45187373D01*
X90707115Y-45408554D01*
X90705572Y-45418301D01*
X90687725Y-45645070D01*
X90687725Y-45654930D01*
X53344632Y-45654930D01*
X53361529Y-45526590D01*
X53363156Y-45460000D01*
X53344852Y-45237361D01*
X53290431Y-45020702D01*
X53201354Y-44815840D01*
X53080014Y-44628277D01*
X52929670Y-44463051D01*
X52925619Y-44459852D01*
X52925615Y-44459848D01*
X52758414Y-44327800D01*
X52758410Y-44327798D01*
X52754359Y-44324598D01*
X52713053Y-44301796D01*
X52663084Y-44251364D01*
X52648312Y-44181921D01*
X52673428Y-44115516D01*
X52700780Y-44088909D01*
X52744603Y-44057650D01*
X52879860Y-43961173D01*
X52883674Y-43957373D01*
X52979231Y-43862149D01*
X53038096Y-43803489D01*
X53168453Y-43622077D01*
X53177793Y-43603180D01*
X53265136Y-43426453D01*
X53265137Y-43426451D01*
X53267430Y-43421811D01*
X53306544Y-43293071D01*
X53330865Y-43213023D01*
X53330865Y-43213021D01*
X53332370Y-43208069D01*
X53361529Y-42986590D01*
X53363156Y-42920000D01*
X53344852Y-42697361D01*
X53314075Y-42574832D01*
X58392000Y-42574832D01*
X58392285Y-42580808D01*
X58406471Y-42729494D01*
X58408730Y-42741228D01*
X58464872Y-42932599D01*
X58469302Y-42943675D01*
X58560619Y-43120978D01*
X58567069Y-43131024D01*
X58690262Y-43287857D01*
X58698499Y-43296506D01*
X58849123Y-43427212D01*
X58858847Y-43434147D01*
X59031467Y-43534010D01*
X59042331Y-43538984D01*
X59230727Y-43604407D01*
X59231716Y-43604648D01*
X59242008Y-43603180D01*
X59246000Y-43589615D01*
X59246000Y-42522115D01*
X59241525Y-42506876D01*
X59240135Y-42505671D01*
X59232452Y-42504000D01*
X58410115Y-42504000D01*
X58394876Y-42508475D01*
X58393671Y-42509865D01*
X58392000Y-42517548D01*
X58392000Y-42574832D01*
X53314075Y-42574832D01*
X53290431Y-42480702D01*
X53201354Y-42275840D01*
X53095864Y-42112777D01*
X53082822Y-42092617D01*
X53082820Y-42092614D01*
X53080014Y-42088277D01*
X52979565Y-41977885D01*
X58392000Y-41977885D01*
X58396475Y-41993124D01*
X58397865Y-41994329D01*
X58405548Y-41996000D01*
X59227885Y-41996000D01*
X59243124Y-41991525D01*
X59244329Y-41990135D01*
X59246000Y-41982452D01*
X59246000Y-40914598D01*
X59242027Y-40901067D01*
X59232601Y-40899712D01*
X59143463Y-40921194D01*
X59132168Y-40925083D01*
X58950618Y-41007629D01*
X58940276Y-41013576D01*
X58777603Y-41128968D01*
X58768575Y-41136761D01*
X58630658Y-41280831D01*
X58623262Y-41290196D01*
X58515079Y-41457741D01*
X58509583Y-41468345D01*
X58435039Y-41653312D01*
X58431645Y-41664770D01*
X58393143Y-41861928D01*
X58392066Y-41870791D01*
X58392000Y-41873500D01*
X58392000Y-41977885D01*
X52979565Y-41977885D01*
X52929670Y-41923051D01*
X52925619Y-41919852D01*
X52925615Y-41919848D01*
X52758414Y-41787800D01*
X52758410Y-41787798D01*
X52754359Y-41784598D01*
X52712569Y-41761529D01*
X52662598Y-41711097D01*
X52647826Y-41641654D01*
X52672942Y-41575248D01*
X52700294Y-41548641D01*
X52875328Y-41423792D01*
X52883200Y-41417139D01*
X53034052Y-41266812D01*
X53040730Y-41258965D01*
X53165003Y-41086020D01*
X53170313Y-41077183D01*
X53264670Y-40886267D01*
X53268469Y-40876672D01*
X53330377Y-40672910D01*
X53332555Y-40662837D01*
X53333986Y-40651962D01*
X53331775Y-40637778D01*
X53318617Y-40634000D01*
X51872000Y-40634000D01*
X51803879Y-40613998D01*
X51757386Y-40560342D01*
X51746000Y-40508000D01*
X51746000Y-40252000D01*
X51766002Y-40183879D01*
X51819658Y-40137386D01*
X51872000Y-40126000D01*
X53318344Y-40126000D01*
X53331875Y-40122027D01*
X53333180Y-40112947D01*
X53291214Y-39945875D01*
X53287894Y-39936124D01*
X53202972Y-39740814D01*
X53198105Y-39731739D01*
X53082426Y-39552926D01*
X53076136Y-39544757D01*
X52932806Y-39387240D01*
X52925273Y-39380215D01*
X52758139Y-39248222D01*
X52749556Y-39242520D01*
X52712602Y-39222120D01*
X52662631Y-39171687D01*
X52647859Y-39102245D01*
X52672975Y-39035839D01*
X52700327Y-39009232D01*
X52745318Y-38977140D01*
X52879860Y-38881173D01*
X52976120Y-38785248D01*
X53038490Y-38751333D01*
X53065059Y-38748500D01*
X55798583Y-38748500D01*
X55818292Y-38750051D01*
X55832190Y-38752252D01*
X55838777Y-38751907D01*
X55838782Y-38751907D01*
X55900480Y-38748673D01*
X55907074Y-38748500D01*
X55927610Y-38748500D01*
X55930882Y-38748156D01*
X55930884Y-38748156D01*
X55948042Y-38746353D01*
X55954616Y-38745836D01*
X56016308Y-38742603D01*
X56016312Y-38742602D01*
X56022903Y-38742257D01*
X56029284Y-38740547D01*
X56029286Y-38740547D01*
X56036491Y-38738617D01*
X56055925Y-38735015D01*
X56063354Y-38734234D01*
X56063363Y-38734232D01*
X56069928Y-38733542D01*
X56134997Y-38712400D01*
X56141299Y-38710533D01*
X56207370Y-38692829D01*
X56219908Y-38686440D01*
X56238174Y-38678875D01*
X56245272Y-38676569D01*
X56245274Y-38676568D01*
X56251556Y-38674527D01*
X56264114Y-38667277D01*
X56310782Y-38640333D01*
X56316579Y-38637185D01*
X56330871Y-38629903D01*
X56377530Y-38606129D01*
X56388467Y-38597273D01*
X56404763Y-38586073D01*
X56411224Y-38582343D01*
X56411228Y-38582340D01*
X56416944Y-38579040D01*
X56421850Y-38574623D01*
X56421855Y-38574619D01*
X56467769Y-38533278D01*
X56472784Y-38528994D01*
X56486177Y-38518148D01*
X56488741Y-38516072D01*
X56503256Y-38501557D01*
X56508041Y-38497016D01*
X56534313Y-38473361D01*
X56558866Y-38451253D01*
X56567140Y-38439865D01*
X56579981Y-38424832D01*
X58609137Y-36395676D01*
X58671449Y-36361650D01*
X58702846Y-36358856D01*
X58747732Y-36360502D01*
X58776674Y-36361564D01*
X58776678Y-36361564D01*
X58781837Y-36361753D01*
X58786957Y-36361097D01*
X58786959Y-36361097D01*
X58998288Y-36334025D01*
X58998289Y-36334025D01*
X59003416Y-36333368D01*
X59008366Y-36331883D01*
X59212429Y-36270661D01*
X59212434Y-36270659D01*
X59217384Y-36269174D01*
X59417994Y-36170896D01*
X59599860Y-36041173D01*
X59758096Y-35883489D01*
X59853276Y-35751032D01*
X59888453Y-35702077D01*
X59889640Y-35702930D01*
X59936960Y-35659362D01*
X60006897Y-35647145D01*
X60072338Y-35674678D01*
X60100166Y-35706511D01*
X60157694Y-35800388D01*
X60163777Y-35808699D01*
X60303213Y-35969667D01*
X60310580Y-35976883D01*
X60474434Y-36112916D01*
X60482881Y-36118831D01*
X60666756Y-36226279D01*
X60676042Y-36230729D01*
X60875001Y-36306703D01*
X60884899Y-36309579D01*
X60988250Y-36330606D01*
X61002299Y-36329410D01*
X61006000Y-36319065D01*
X61006000Y-33683102D01*
X61002082Y-33669758D01*
X60987806Y-33667771D01*
X60949324Y-33673660D01*
X60939288Y-33676051D01*
X60736868Y-33742212D01*
X60727359Y-33746209D01*
X60538463Y-33844542D01*
X60529738Y-33850036D01*
X60359433Y-33977905D01*
X60351726Y-33984748D01*
X60204590Y-34138717D01*
X60198109Y-34146722D01*
X60093498Y-34300074D01*
X60038587Y-34345076D01*
X59968062Y-34353247D01*
X59904315Y-34321993D01*
X59883618Y-34297509D01*
X59802822Y-34172617D01*
X59802820Y-34172614D01*
X59800014Y-34168277D01*
X59649670Y-34003051D01*
X59645619Y-33999852D01*
X59645615Y-33999848D01*
X59478414Y-33867800D01*
X59478410Y-33867798D01*
X59474359Y-33864598D01*
X59438028Y-33844542D01*
X59367346Y-33805524D01*
X59278789Y-33756638D01*
X59273920Y-33754914D01*
X59273916Y-33754912D01*
X59073087Y-33683795D01*
X59073083Y-33683794D01*
X59068212Y-33682069D01*
X59063119Y-33681162D01*
X59063116Y-33681161D01*
X58853373Y-33643800D01*
X58853367Y-33643799D01*
X58848284Y-33642894D01*
X58774452Y-33641992D01*
X58630081Y-33640228D01*
X58630079Y-33640228D01*
X58624911Y-33640165D01*
X58404091Y-33673955D01*
X58191756Y-33743357D01*
X57993607Y-33846507D01*
X57989474Y-33849610D01*
X57989471Y-33849612D01*
X57819100Y-33977530D01*
X57814965Y-33980635D01*
X57789541Y-34007240D01*
X57721280Y-34078671D01*
X57660629Y-34142138D01*
X57657720Y-34146403D01*
X57657714Y-34146411D01*
X57642798Y-34168277D01*
X57534743Y-34326680D01*
X57487716Y-34427992D01*
X57457800Y-34492441D01*
X57440688Y-34529305D01*
X57380989Y-34744570D01*
X57357251Y-34966695D01*
X57357548Y-34971848D01*
X57357548Y-34971852D01*
X57360063Y-35015473D01*
X57344015Y-35084632D01*
X57323367Y-35111820D01*
X55540592Y-36894595D01*
X55478280Y-36928621D01*
X55451497Y-36931500D01*
X53065856Y-36931500D01*
X52997735Y-36911498D01*
X52972662Y-36890299D01*
X52933148Y-36846873D01*
X52933146Y-36846871D01*
X52929670Y-36843051D01*
X52779149Y-36724176D01*
X52758414Y-36707800D01*
X52758410Y-36707798D01*
X52754359Y-36704598D01*
X52713053Y-36681796D01*
X52663084Y-36631364D01*
X52648312Y-36561921D01*
X52673428Y-36495516D01*
X52700780Y-36468909D01*
X52744603Y-36437650D01*
X52879860Y-36341173D01*
X52887693Y-36333368D01*
X53034435Y-36187137D01*
X53038096Y-36183489D01*
X53097594Y-36100689D01*
X53165435Y-36006277D01*
X53168453Y-36002077D01*
X53171046Y-35996832D01*
X53265136Y-35806453D01*
X53265137Y-35806451D01*
X53267430Y-35801811D01*
X53310559Y-35659857D01*
X53330865Y-35593023D01*
X53330865Y-35593021D01*
X53332370Y-35588069D01*
X53361529Y-35366590D01*
X53363156Y-35300000D01*
X53344852Y-35077361D01*
X53290431Y-34860702D01*
X53201354Y-34655840D01*
X53161906Y-34594862D01*
X53082822Y-34472617D01*
X53082820Y-34472614D01*
X53080014Y-34468277D01*
X52929670Y-34303051D01*
X52925619Y-34299852D01*
X52925615Y-34299848D01*
X52758414Y-34167800D01*
X52758410Y-34167798D01*
X52754359Y-34164598D01*
X52558789Y-34056638D01*
X52553920Y-34054914D01*
X52553916Y-34054912D01*
X52353087Y-33983795D01*
X52353083Y-33983794D01*
X52348212Y-33982069D01*
X52343119Y-33981162D01*
X52343116Y-33981161D01*
X52133373Y-33943800D01*
X52133367Y-33943799D01*
X52128284Y-33942894D01*
X52054452Y-33941992D01*
X51910081Y-33940228D01*
X51910079Y-33940228D01*
X51904911Y-33940165D01*
X51684091Y-33973955D01*
X51471756Y-34043357D01*
X51273607Y-34146507D01*
X51269474Y-34149610D01*
X51269471Y-34149612D01*
X51099100Y-34277530D01*
X51094965Y-34280635D01*
X50940629Y-34442138D01*
X50814743Y-34626680D01*
X50800321Y-34657750D01*
X50728302Y-34812903D01*
X50720688Y-34829305D01*
X50660989Y-35044570D01*
X50637251Y-35266695D01*
X50637548Y-35271848D01*
X50637548Y-35271851D01*
X50643011Y-35366590D01*
X50650110Y-35489715D01*
X50651247Y-35494761D01*
X50651248Y-35494767D01*
X50671119Y-35582939D01*
X50699222Y-35707639D01*
X50751575Y-35836569D01*
X50780783Y-35908500D01*
X50783266Y-35914616D01*
X50899987Y-36105088D01*
X51046250Y-36273938D01*
X51218126Y-36416632D01*
X51288595Y-36457811D01*
X51291445Y-36459476D01*
X51340169Y-36511114D01*
X51353240Y-36580897D01*
X51326509Y-36646669D01*
X51286055Y-36680027D01*
X51273607Y-36686507D01*
X51269474Y-36689610D01*
X51269471Y-36689612D01*
X51219996Y-36726759D01*
X51094965Y-36820635D01*
X51069892Y-36846873D01*
X51026241Y-36892551D01*
X50964717Y-36927981D01*
X50935147Y-36931500D01*
X50541417Y-36931500D01*
X50521707Y-36929949D01*
X50514327Y-36928780D01*
X50514326Y-36928780D01*
X50507810Y-36927748D01*
X50501223Y-36928093D01*
X50501218Y-36928093D01*
X50439520Y-36931327D01*
X50432926Y-36931500D01*
X50412390Y-36931500D01*
X50409118Y-36931844D01*
X50409116Y-36931844D01*
X50391958Y-36933647D01*
X50385384Y-36934164D01*
X50323696Y-36937397D01*
X50323694Y-36937397D01*
X50317097Y-36937743D01*
X50303504Y-36941385D01*
X50284075Y-36944986D01*
X50270072Y-36946458D01*
X50205025Y-36967593D01*
X50198712Y-36969463D01*
X50178074Y-36974993D01*
X50139003Y-36985462D01*
X50139000Y-36985463D01*
X50132630Y-36987170D01*
X50120085Y-36993562D01*
X50101826Y-37001125D01*
X50088444Y-37005473D01*
X50082723Y-37008776D01*
X50029223Y-37039664D01*
X50023426Y-37042812D01*
X49968351Y-37070874D01*
X49968348Y-37070876D01*
X49962470Y-37073871D01*
X49957342Y-37078024D01*
X49957340Y-37078025D01*
X49951534Y-37082727D01*
X49935237Y-37093927D01*
X49928776Y-37097657D01*
X49928772Y-37097660D01*
X49923056Y-37100960D01*
X49918150Y-37105377D01*
X49918145Y-37105381D01*
X49872231Y-37146722D01*
X49867216Y-37151006D01*
X49860031Y-37156825D01*
X49851259Y-37163928D01*
X49836744Y-37178443D01*
X49831959Y-37182984D01*
X49781134Y-37228747D01*
X49777255Y-37234086D01*
X49777254Y-37234087D01*
X49772860Y-37240135D01*
X49760019Y-37255168D01*
X49315168Y-37700019D01*
X49300135Y-37712860D01*
X49288747Y-37721134D01*
X49284327Y-37726043D01*
X49242984Y-37771959D01*
X49238443Y-37776744D01*
X49223928Y-37791259D01*
X49221852Y-37793823D01*
X49211006Y-37807216D01*
X49206722Y-37812231D01*
X49165381Y-37858145D01*
X49165377Y-37858150D01*
X49160960Y-37863056D01*
X49157660Y-37868772D01*
X49157657Y-37868776D01*
X49153927Y-37875237D01*
X49142727Y-37891533D01*
X49133871Y-37902470D01*
X49109352Y-37950592D01*
X49102815Y-37963421D01*
X49099669Y-37969215D01*
X49065473Y-38028444D01*
X49063432Y-38034726D01*
X49063431Y-38034728D01*
X49061125Y-38041826D01*
X49053560Y-38060092D01*
X49047171Y-38072630D01*
X49045463Y-38079003D01*
X49045463Y-38079004D01*
X49029469Y-38138695D01*
X49027600Y-38145003D01*
X49006458Y-38210072D01*
X49005768Y-38216637D01*
X49005766Y-38216646D01*
X49004985Y-38224075D01*
X49001383Y-38243509D01*
X48999971Y-38248782D01*
X48997743Y-38257097D01*
X48997398Y-38263688D01*
X48997397Y-38263692D01*
X48994164Y-38325384D01*
X48993647Y-38331958D01*
X48993399Y-38334320D01*
X48991500Y-38352390D01*
X48991500Y-38372926D01*
X48991327Y-38379520D01*
X48987748Y-38447810D01*
X48988994Y-38455673D01*
X48989949Y-38461705D01*
X48991500Y-38481417D01*
X48991500Y-50218583D01*
X48989949Y-50238292D01*
X48987748Y-50252190D01*
X48008000Y-50252190D01*
X48008000Y-29632703D01*
X74890743Y-29632703D01*
X74928268Y-29917734D01*
X74929401Y-29921874D01*
X74929401Y-29921876D01*
X74947466Y-29987911D01*
X75004129Y-30195036D01*
X75116923Y-30459476D01*
X75264561Y-30706161D01*
X75444313Y-30930528D01*
X75461397Y-30946740D01*
X75619180Y-31096470D01*
X75652851Y-31128423D01*
X75886317Y-31296186D01*
X75890112Y-31298195D01*
X75890113Y-31298196D01*
X75911869Y-31309715D01*
X76140392Y-31430712D01*
X76410373Y-31529511D01*
X76691264Y-31590755D01*
X76719841Y-31593004D01*
X76914282Y-31608307D01*
X76914291Y-31608307D01*
X76916739Y-31608500D01*
X77072271Y-31608500D01*
X77074407Y-31608354D01*
X77074418Y-31608354D01*
X77282548Y-31594165D01*
X77282554Y-31594164D01*
X77286825Y-31593873D01*
X77291020Y-31593004D01*
X77291022Y-31593004D01*
X77427584Y-31564723D01*
X77568342Y-31535574D01*
X77839343Y-31439607D01*
X78094812Y-31307750D01*
X78098313Y-31305289D01*
X78098317Y-31305287D01*
X78240874Y-31205096D01*
X78330023Y-31142441D01*
X78540622Y-30946740D01*
X78722713Y-30724268D01*
X78872927Y-30479142D01*
X78988483Y-30215898D01*
X79067244Y-29939406D01*
X79107751Y-29654784D01*
X79107845Y-29636951D01*
X79109235Y-29371583D01*
X79109235Y-29371576D01*
X79109257Y-29367297D01*
X79071732Y-29082266D01*
X79053407Y-29015279D01*
X78997003Y-28809103D01*
X78995871Y-28804964D01*
X78883077Y-28540524D01*
X78735439Y-28293839D01*
X78555687Y-28069472D01*
X78383996Y-27906543D01*
X78350258Y-27874527D01*
X78350255Y-27874525D01*
X78347149Y-27871577D01*
X78113683Y-27703814D01*
X78091843Y-27692250D01*
X78068654Y-27679972D01*
X77859608Y-27569288D01*
X77589627Y-27470489D01*
X77308736Y-27409245D01*
X77277685Y-27406801D01*
X77085718Y-27391693D01*
X77085709Y-27391693D01*
X77083261Y-27391500D01*
X76927729Y-27391500D01*
X76925593Y-27391646D01*
X76925582Y-27391646D01*
X76717452Y-27405835D01*
X76717446Y-27405836D01*
X76713175Y-27406127D01*
X76708980Y-27406996D01*
X76708978Y-27406996D01*
X76572417Y-27435276D01*
X76431658Y-27464426D01*
X76160657Y-27560393D01*
X75905188Y-27692250D01*
X75901687Y-27694711D01*
X75901683Y-27694713D01*
X75891594Y-27701804D01*
X75669977Y-27857559D01*
X75459378Y-28053260D01*
X75277287Y-28275732D01*
X75127073Y-28520858D01*
X75011517Y-28784102D01*
X74932756Y-29060594D01*
X74892249Y-29345216D01*
X74892227Y-29349505D01*
X74892226Y-29349512D01*
X74891971Y-29398242D01*
X74890743Y-29632703D01*
X48008000Y-29632703D01*
X48008000Y-26234000D01*
X48028002Y-26165879D01*
X48081658Y-26119386D01*
X48134000Y-26108000D01*
X94146883Y-26108000D01*
X94215004Y-26128002D01*
G37*
%TD.AperFunction*%
%TD*%
M02*
